<svg width="31" height="31" viewBox="0 0 31 31" fill="none" xmlns="http://www.w3.org/2000/svg">
<path d="M0.984375 7.26562C0.984375 7.20312 0.984375 7.15625 0.984375 7.125C1 7.09375 1 7.03906 0.984375 6.96094C1.01562 6.89844 1.04688 6.82812 1.07812 6.75C1.125 6.67188 1.13281 6.59375 1.10156 6.51562C1.16406 6.40625 1.20312 6.33594 1.21875 6.30469C1.25 6.27344 1.28125 6.24219 1.3125 6.21094C1.34375 6.08594 1.36719 6.00781 1.38281 5.97656C1.39844 5.94531 1.41406 5.91406 1.42969 5.88281C1.50781 5.67969 1.5625 5.55469 1.59375 5.50781C1.625 5.44531 1.64062 5.38281 1.64062 5.32031L1.78125 5.08594C1.89062 4.92969 1.96094 4.84375 1.99219 4.82812C2.02344 4.79688 2.03906 4.75 2.03906 4.6875C2.08594 4.64062 2.13281 4.58594 2.17969 4.52344C2.24219 4.46094 2.26562 4.39062 2.25 4.3125C2.40625 4.1875 2.5 4.10156 2.53125 4.05469C2.57812 3.99219 2.625 3.95312 2.67188 3.9375C2.73438 3.85938 2.77344 3.8125 2.78906 3.79688C2.82031 3.76562 2.85156 3.73438 2.88281 3.70312C2.91406 3.5625 3.01562 3.45312 3.1875 3.375C3.23438 3.3125 3.28906 3.25781 3.35156 3.21094C3.41406 3.16406 3.46094 3.10156 3.49219 3.02344C3.66406 2.92969 3.76562 2.86719 3.79688 2.83594C3.85938 2.75781 3.92969 2.70312 4.00781 2.67188C4.08594 2.625 4.15625 2.5625 4.21875 2.48438C4.26562 2.46875 4.3125 2.45312 4.35938 2.4375C4.40625 2.42188 4.44531 2.38281 4.47656 2.32031C4.60156 2.28906 4.6875 2.25 4.73438 2.20312C4.78125 2.15625 4.83594 2.11719 4.89844 2.08594C5.11719 1.94531 5.28125 1.86719 5.39062 1.85156C5.5 1.82031 5.60156 1.76563 5.69531 1.6875C5.82031 1.65625 5.89844 1.64062 5.92969 1.64062C5.97656 1.64062 6.01562 1.625 6.04688 1.59375C6.1875 1.54688 6.27344 1.50781 6.30469 1.47656C6.41406 1.46094 6.48438 1.44531 6.51562 1.42969C6.54688 1.39844 6.58594 1.375 6.63281 1.35938C6.67969 1.32812 6.72656 1.32031 6.77344 1.33594C6.83594 1.33594 6.89062 1.32812 6.9375 1.3125C7.17188 1.23437 7.35156 1.1875 7.47656 1.17188C7.61719 1.14062 7.76562 1.125 7.92188 1.125C8.04688 1.125 8.17969 1.14062 8.32031 1.17188C8.46094 1.1875 8.59375 1.17969 8.71875 1.14844C8.92188 1.19531 9.03906 1.24219 9.07031 1.28906C9.11719 1.33594 9.1875 1.35156 9.28125 1.33594C9.32812 1.38281 9.375 1.41406 9.42188 1.42969C9.48438 1.44531 9.55469 1.46875 9.63281 1.5C9.74219 1.57813 9.8125 1.63281 9.84375 1.66406C9.875 1.69531 9.90625 1.71875 9.9375 1.73438C10.0625 1.85938 10.1719 1.92188 10.2656 1.92188C10.3594 1.92188 10.4297 1.95313 10.4766 2.01562C10.4609 2.17187 10.4766 2.28906 10.5234 2.36719C10.3984 2.41406 10.2969 2.5 10.2188 2.625C10.0625 2.67188 9.96094 2.71875 9.91406 2.76562C9.88281 2.8125 9.85156 2.86719 9.82031 2.92969C9.64844 2.97656 9.54688 3.01562 9.51562 3.04688C9.48438 3.0625 9.44531 3.08594 9.39844 3.11719C9.33594 3.17969 9.28906 3.21875 9.25781 3.23438C9.22656 3.23438 9.19531 3.25 9.16406 3.28125C9.02344 3.35938 8.91406 3.38281 8.83594 3.35156C8.77344 3.33594 8.72656 3.30469 8.69531 3.25781C8.67969 3.21094 8.625 3.20312 8.53125 3.23438C8.51562 3.14062 8.49219 3.07812 8.46094 3.04688C8.42969 3 8.39844 2.96094 8.36719 2.92969C8.21094 2.80469 8.11719 2.75 8.08594 2.76562C8.07031 2.76562 8.04688 2.75781 8.01562 2.74219C7.82812 2.66406 7.69531 2.625 7.61719 2.625C7.52344 2.54688 7.4375 2.51563 7.35938 2.53125C7.28125 2.53125 7.20312 2.52344 7.125 2.50781C6.90625 2.47656 6.75781 2.47656 6.67969 2.50781C6.60156 2.52344 6.53125 2.52344 6.46875 2.50781C6.25 2.57031 6.09375 2.60156 6 2.60156C5.90625 2.58594 5.84375 2.60156 5.8125 2.64844C5.75 2.64844 5.6875 2.64844 5.625 2.64844C5.57812 2.64844 5.51562 2.65625 5.4375 2.67188C5.32812 2.75 5.25 2.78906 5.20312 2.78906C5.15625 2.78906 5.10938 2.79688 5.0625 2.8125C4.89062 2.89062 4.80469 2.9375 4.80469 2.95312C4.80469 2.95312 4.78906 2.96094 4.75781 2.97656C4.47656 3.10156 4.33594 3.22656 4.33594 3.35156C4.22656 3.39844 4.15625 3.46094 4.125 3.53906C4.04688 3.55469 3.99219 3.58594 3.96094 3.63281C3.92969 3.67969 3.875 3.71875 3.79688 3.75C3.70312 3.90625 3.64844 4.00781 3.63281 4.05469C3.61719 4.08594 3.57812 4.10938 3.51562 4.125C3.40625 4.28125 3.32812 4.4375 3.28125 4.59375C3.23438 4.73438 3.17969 4.82812 3.11719 4.875C3.05469 4.92188 3.03125 4.98438 3.04688 5.0625C2.98438 5.17188 2.94531 5.25 2.92969 5.29688C2.91406 5.32812 2.89062 5.35938 2.85938 5.39062C2.8125 5.59375 2.76562 5.72656 2.71875 5.78906C2.6875 5.83594 2.6875 5.88281 2.71875 5.92969C2.65625 6.00781 2.625 6.11719 2.625 6.25781C2.54688 6.39844 2.49219 6.48438 2.46094 6.51562C2.42969 6.54688 2.42188 6.60156 2.4375 6.67969C2.42188 6.94531 2.39844 7.14062 2.36719 7.26562C2.33594 7.39062 2.32031 7.52344 2.32031 7.66406C2.21094 7.82031 2.16406 7.91406 2.17969 7.94531C2.19531 7.96094 2.20312 7.98438 2.20312 8.01562C2.15625 8.17188 2.13281 8.25781 2.13281 8.27344C2.14844 8.28906 2.14062 8.3125 2.10938 8.34375L1.94531 9.02344C1.91406 9.28906 1.875 9.48438 1.82812 9.60938C1.79688 9.71875 1.78906 9.82812 1.80469 9.9375C1.74219 10.0938 1.71094 10.2031 1.71094 10.2656C1.72656 10.3281 1.71094 10.3828 1.66406 10.4297C1.64844 10.7109 1.65625 10.9766 1.6875 11.2266C1.625 11.5391 1.625 11.75 1.6875 11.8594C1.60938 11.9375 1.58594 12.0312 1.61719 12.1406C1.66406 12.25 1.66406 12.3359 1.61719 12.3984C1.64844 12.4609 1.66406 12.5391 1.66406 12.6328C1.66406 12.7266 1.66406 12.8203 1.66406 12.9141C1.63281 13.0391 1.61719 13.1172 1.61719 13.1484C1.61719 13.1641 1.625 13.1875 1.64062 13.2188C1.6875 13.375 1.70312 13.4922 1.6875 13.5703C1.67188 13.6328 1.66406 13.7031 1.66406 13.7812C1.67969 13.9688 1.69531 14.0859 1.71094 14.1328C1.74219 14.1641 1.75 14.2031 1.73438 14.25C1.67188 14.375 1.65625 14.4453 1.6875 14.4609C1.71875 14.4766 1.74219 14.5 1.75781 14.5312C1.75781 14.6719 1.71875 14.7578 1.64062 14.7891C1.67188 15.0859 1.70312 15.2891 1.73438 15.3984C1.76562 15.5078 1.76562 15.6016 1.73438 15.6797C1.79688 15.8516 1.82812 15.9766 1.82812 16.0547C1.84375 16.1328 1.86719 16.1953 1.89844 16.2422C1.85156 16.3828 1.83594 16.4766 1.85156 16.5234C1.86719 16.5703 1.85938 16.6094 1.82812 16.6406C1.9375 16.7969 1.98438 16.8984 1.96875 16.9453C1.96875 16.9922 1.97656 17.0469 1.99219 17.1094C2.05469 17.2188 2.07812 17.2891 2.0625 17.3203C2.0625 17.3516 2.07812 17.3594 2.10938 17.3438C2.15625 17.2344 2.20312 17.1328 2.25 17.0391C2.3125 16.9297 2.35938 16.8125 2.39062 16.6875C2.45312 16.5938 2.5 16.5391 2.53125 16.5234C2.57812 16.5078 2.61719 16.4844 2.64844 16.4531C2.74219 16.2969 2.80469 16.1562 2.83594 16.0312C2.86719 15.9062 2.92969 15.8125 3.02344 15.75C3.10156 15.5938 3.14844 15.4922 3.16406 15.4453C3.19531 15.3828 3.25 15.3359 3.32812 15.3047C3.39062 15.2109 3.42969 15.1328 3.44531 15.0703C3.46094 15.0078 3.50781 14.9609 3.58594 14.9297C3.60156 14.8516 3.63281 14.7812 3.67969 14.7188C3.74219 14.6406 3.8125 14.5703 3.89062 14.5078C3.98438 14.3828 4.07812 14.3125 4.17188 14.2969C4.26562 14.2344 4.3125 14.1875 4.3125 14.1562C4.32812 14.1094 4.35156 14.0625 4.38281 14.0156C4.44531 14.0469 4.49219 14.0391 4.52344 13.9922C4.55469 13.9453 4.59375 13.9062 4.64062 13.875C4.71875 13.8281 4.78906 13.7812 4.85156 13.7344C4.92969 13.6875 4.98438 13.6328 5.01562 13.5703C5.17188 13.5234 5.26562 13.4844 5.29688 13.4531C5.32812 13.4219 5.36719 13.3906 5.41406 13.3594C5.50781 13.3125 5.59375 13.2812 5.67188 13.2656C5.76562 13.2344 5.83594 13.1953 5.88281 13.1484C5.96094 13.1797 6.03906 13.1719 6.11719 13.125C6.19531 13.0781 6.27344 13.0312 6.35156 12.9844C6.42969 12.9531 6.57031 12.9375 6.77344 12.9375C6.97656 12.9375 7.14844 12.9453 7.28906 12.9609C7.39844 13.0547 7.46094 13.1094 7.47656 13.125C7.50781 13.1406 7.54688 13.1641 7.59375 13.1953C7.73438 13.3359 7.8125 13.4219 7.82812 13.4531C7.85938 13.4688 7.89062 13.4922 7.92188 13.5234C7.95312 13.6328 7.98438 13.7188 8.01562 13.7812C8.04688 13.8281 8.10156 13.8672 8.17969 13.8984C8.19531 13.9453 8.21094 14 8.22656 14.0625C8.24219 14.1094 8.27344 14.1484 8.32031 14.1797C8.32031 14.2734 8.33594 14.3438 8.36719 14.3906C8.41406 14.4375 8.4375 14.5078 8.4375 14.6016C8.46875 14.8203 8.5 15 8.53125 15.1406C8.5625 15.2656 8.5625 15.3906 8.53125 15.5156C8.51562 15.7031 8.5 15.8125 8.48438 15.8438C8.46875 15.8594 8.46094 15.8828 8.46094 15.9141C8.47656 16.0547 8.47656 16.1328 8.46094 16.1484C8.44531 16.1641 8.4375 16.1875 8.4375 16.2188C8.42188 16.25 8.42188 16.2891 8.4375 16.3359C8.45312 16.3828 8.46094 16.4297 8.46094 16.4766C8.38281 16.6797 8.34375 16.8203 8.34375 16.8984C8.35938 16.9609 8.35938 17.0312 8.34375 17.1094C8.26562 17.2812 8.21094 17.3906 8.17969 17.4375C8.14844 17.4844 8.14062 17.5469 8.15625 17.625C8.125 17.7031 8.08594 17.7656 8.03906 17.8125C7.99219 17.8594 7.97656 17.9453 7.99219 18.0703C7.91406 18.1484 7.85156 18.2578 7.80469 18.3984C7.77344 18.5391 7.71094 18.6484 7.61719 18.7266C7.53906 18.9453 7.49219 19.0625 7.47656 19.0781C7.46094 19.0938 7.4375 19.1172 7.40625 19.1484C7.375 19.1797 7.33594 19.2188 7.28906 19.2656C7.24219 19.3125 7.19531 19.3672 7.14844 19.4297C7.05469 19.5859 6.98438 19.6641 6.9375 19.6641C6.84375 19.8359 6.78125 19.9453 6.75 19.9922C6.73438 20.0391 6.69531 20.0781 6.63281 20.1094C6.61719 20.1719 6.57812 20.2188 6.51562 20.25C6.46875 20.2812 6.4375 20.3359 6.42188 20.4141C6.35938 20.4453 6.30469 20.4844 6.25781 20.5312C6.22656 20.5938 6.1875 20.6484 6.14062 20.6953C5.98438 20.8047 5.89062 20.8672 5.85938 20.8828C5.82812 20.9141 5.79688 20.9453 5.76562 20.9766C5.67188 21.1016 5.61719 21.1719 5.60156 21.1875C5.49219 21.2344 5.40625 21.2812 5.34375 21.3281C5.29688 21.3906 5.25 21.4531 5.20312 21.5156C4.9375 21.5625 4.75781 21.6797 4.66406 21.8672C4.57031 21.8828 4.50781 21.9453 4.47656 22.0547C4.38281 22.0859 4.30469 22.125 4.24219 22.1719C4.17969 22.2188 4.10938 22.2578 4.03125 22.2891C3.85938 22.4141 3.74219 22.4609 3.67969 22.4297C3.63281 22.4141 3.57812 22.4297 3.51562 22.4766C3.32812 22.6484 3.23438 22.7656 3.23438 22.8281C3.15625 22.8438 3.10156 22.8672 3.07031 22.8984C3.03906 22.9453 3.00781 23 2.97656 23.0625C2.83594 23.0625 2.74219 23.0781 2.69531 23.1094C2.66406 23.1406 2.64062 23.1797 2.625 23.2266C2.5 23.2266 2.39844 23.2422 2.32031 23.2734C2.25781 23.3047 2.17969 23.3359 2.08594 23.3672C1.99219 23.4453 1.92188 23.4922 1.875 23.5078C1.82812 23.5234 1.77344 23.5312 1.71094 23.5312C1.57031 23.5312 1.47656 23.5391 1.42969 23.5547C1.38281 23.5859 1.33594 23.6016 1.28906 23.6016C1.19531 23.4453 1.125 23.3672 1.07812 23.3672C1.03125 23.3672 1.01562 23.3281 1.03125 23.25C1.04688 23 1.10938 22.875 1.21875 22.875C1.25 22.8125 1.28125 22.7578 1.3125 22.7109C1.34375 22.6797 1.375 22.625 1.40625 22.5469C1.375 22.4688 1.35938 22.3828 1.35938 22.2891C1.35938 22.2109 1.34375 22.1328 1.3125 22.0547C1.29688 21.9766 1.27344 21.9062 1.24219 21.8438C1.21094 21.7812 1.21094 21.7109 1.24219 21.6328C1.19531 21.2734 1.13281 21.0234 1.05469 20.8828C0.992188 20.7422 0.960938 20.5781 0.960938 20.3906C0.929688 20.25 0.898438 20.1562 0.867188 20.1094C0.851562 20.0781 0.851562 20.0469 0.867188 20.0156C0.835938 19.8594 0.796875 19.7578 0.75 19.7109C0.71875 19.6328 0.703125 19.5547 0.703125 19.4766C0.71875 19.4141 0.703125 19.3516 0.65625 19.2891C0.6875 19.1953 0.679688 19.1016 0.632812 19.0078C0.601562 18.9141 0.570312 18.8281 0.539062 18.75L0.46875 18.4688C0.453125 18.2812 0.4375 18.1719 0.421875 18.1406C0.421875 18.1094 0.4375 18.0859 0.46875 18.0703C0.40625 17.9297 0.398438 17.8125 0.445312 17.7188C0.382812 17.4688 0.335938 17.3047 0.304688 17.2266C0.289062 17.1484 0.265625 17.0625 0.234375 16.9688C0.234375 16.8281 0.234375 16.7031 0.234375 16.5938C0.234375 16.4688 0.210938 16.3672 0.164062 16.2891C0.164062 16.0859 0.164062 15.9375 0.164062 15.8438C0.179688 15.75 0.171875 15.6641 0.140625 15.5859C0.140625 15.3672 0.125 15.1719 0.09375 15C0.0625 14.7656 0.046875 14.625 0.046875 14.5781C0.0625 14.5156 0.0703125 14.4453 0.0703125 14.3672C0.0703125 14.3203 0.0703125 14.2734 0.0703125 14.2266C0.0859375 14.1641 0.078125 14.0938 0.046875 14.0156C0.015625 13.7969 0.015625 13.5938 0.046875 13.4062C0.078125 13.2188 0.0703125 13.0703 0.0234375 12.9609C0.0546875 12.9141 0.0703125 12.8594 0.0703125 12.7969C0.0703125 12.7188 0.0703125 12.6484 0.0703125 12.5859C0.0859375 12.4141 0.0859375 12.3125 0.0703125 12.2812C0.0703125 12.2344 0.0703125 12.1953 0.0703125 12.1641C0.0703125 12.0859 0.078125 12.0234 0.09375 11.9766C0.125 11.9141 0.140625 11.8516 0.140625 11.7891C0.140625 11.6328 0.148438 11.5312 0.164062 11.4844C0.179688 11.4219 0.195312 11.3594 0.210938 11.2969C0.210938 11.0625 0.21875 10.8984 0.234375 10.8047C0.265625 10.6953 0.289062 10.5938 0.304688 10.5L0.375 10.0547C0.390625 9.96094 0.390625 9.89062 0.375 9.84375C0.375 9.78125 0.398438 9.72656 0.445312 9.67969C0.414062 9.63281 0.40625 9.59375 0.421875 9.5625C0.453125 9.53125 0.476562 9.48438 0.492188 9.42188C0.523438 9.35938 0.539062 9.29688 0.539062 9.23438C0.539062 9.15625 0.570312 9.08594 0.632812 9.02344C0.601562 8.94531 0.601562 8.89062 0.632812 8.85938C0.664062 8.8125 0.6875 8.75781 0.703125 8.69531C0.734375 8.60156 0.742188 8.51562 0.726562 8.4375C0.726562 8.34375 0.75 8.26562 0.796875 8.20312C0.796875 8.03125 0.804688 7.94531 0.820312 7.94531C0.835938 7.94531 0.851562 7.92969 0.867188 7.89844L0.984375 7.26562ZM5.74219 19.8281C5.83594 19.7188 5.89062 19.6484 5.90625 19.6172C5.92188 19.6016 5.9375 19.5781 5.95312 19.5469C5.98438 19.5 6.00781 19.4453 6.02344 19.3828C6.03906 19.3203 6.05469 19.2734 6.07031 19.2422C6.25781 18.9609 6.35938 18.6953 6.375 18.4453C6.4375 18.4453 6.47656 18.4141 6.49219 18.3516C6.50781 18.2734 6.5 18.2188 6.46875 18.1875C6.54688 18 6.60938 17.8594 6.65625 17.7656C6.67188 17.625 6.6875 17.5547 6.70312 17.5547C6.71875 17.5547 6.72656 17.5391 6.72656 17.5078C6.71094 17.3359 6.70312 17.25 6.70312 17.25C6.71875 17.25 6.72656 17.2422 6.72656 17.2266C6.75781 17.1172 6.76562 17.0547 6.75 17.0391C6.75 17.0078 6.75 16.9844 6.75 16.9688C6.78125 16.9062 6.79688 16.8516 6.79688 16.8047C6.8125 16.7422 6.80469 16.6719 6.77344 16.5938C6.83594 16.5156 6.86719 16.3984 6.86719 16.2422C6.83594 16.1172 6.8125 16.0156 6.79688 15.9375C6.78125 15.8594 6.78906 15.7734 6.82031 15.6797C6.77344 15.6172 6.74219 15.5391 6.72656 15.4453C6.71094 15.3516 6.69531 15.2578 6.67969 15.1641C6.57031 15.0391 6.51562 14.9688 6.51562 14.9531C6.45312 14.8594 6.41406 14.7734 6.39844 14.6953C6.33594 14.6797 6.28906 14.6641 6.25781 14.6484C6.24219 14.6172 6.21094 14.5938 6.16406 14.5781C6.03906 14.4531 5.95312 14.375 5.90625 14.3438C5.875 14.3125 5.84375 14.2891 5.8125 14.2734C5.73438 14.2578 5.65625 14.2578 5.57812 14.2734C5.5 14.2891 5.41406 14.2812 5.32031 14.25C5.19531 14.3438 5.125 14.3828 5.10938 14.3672C5.10938 14.3516 5.09375 14.3438 5.0625 14.3438C5.03125 14.3906 5 14.4453 4.96875 14.5078C4.95312 14.5547 4.91406 14.5859 4.85156 14.6016C4.75781 14.7422 4.67188 14.8359 4.59375 14.8828C4.46875 15.0703 4.375 15.2188 4.3125 15.3281C4.25 15.4219 4.21875 15.5312 4.21875 15.6562C4.10938 15.8281 4.03906 15.9219 4.00781 15.9375C3.99219 15.9531 3.96875 15.9766 3.9375 16.0078C3.95312 16.1484 3.92969 16.2422 3.86719 16.2891C3.80469 16.3203 3.75781 16.375 3.72656 16.4531C3.71094 16.5938 3.69531 16.6797 3.67969 16.7109C3.66406 16.7422 3.67188 16.7891 3.70312 16.8516C3.625 16.9609 3.58594 17.0312 3.58594 17.0625C3.60156 17.0781 3.60938 17.1016 3.60938 17.1328C3.5 17.3047 3.4375 17.4375 3.42188 17.5312C3.42188 17.625 3.39844 17.7031 3.35156 17.7656C3.35156 17.875 3.34375 17.9453 3.32812 17.9766C3.3125 17.9922 3.30469 18.0234 3.30469 18.0703C3.28906 18.1797 3.27344 18.25 3.25781 18.2812C3.25781 18.3125 3.24219 18.3359 3.21094 18.3516C3.13281 18.6328 3.07031 18.9062 3.02344 19.1719C3.03906 19.2812 3.03125 19.3516 3 19.3828C2.98438 19.4141 2.97656 19.4531 2.97656 19.5C2.99219 19.6406 3 19.7422 3 19.8047C2.98438 19.8984 2.97656 20.0078 2.97656 20.1328C2.97656 20.2734 2.97656 20.3828 2.97656 20.4609C2.97656 20.6328 2.97656 20.7266 2.97656 20.7422C2.99219 20.7578 3 20.7812 3 20.8125C3.01562 20.9844 3.03125 21.0938 3.04688 21.1406C3.0625 21.2031 3.07031 21.25 3.07031 21.2812L3.11719 21.7031C3.16406 21.7656 3.21094 21.8203 3.25781 21.8672C3.30469 21.9297 3.32031 22.0234 3.30469 22.1484C3.38281 22.1484 3.4375 22.125 3.46875 22.0781C3.5 22.0469 3.53906 22.0078 3.58594 21.9609C3.66406 21.9297 3.73438 21.8828 3.79688 21.8203C3.85938 21.7578 3.92969 21.6953 4.00781 21.6328C4.11719 21.6172 4.19531 21.5781 4.24219 21.5156C4.28906 21.4531 4.36719 21.4141 4.47656 21.3984C4.57031 21.2578 4.64062 21.1641 4.6875 21.1172C4.73438 21.0703 4.78125 21.0234 4.82812 20.9766L5.01562 20.7422C5.0625 20.7109 5.10156 20.6719 5.13281 20.625C5.16406 20.5938 5.19531 20.5625 5.22656 20.5312C5.25781 20.4844 5.28906 20.4453 5.32031 20.4141C5.35156 20.3828 5.38281 20.3438 5.41406 20.2969C5.52344 20.2031 5.58594 20.1484 5.60156 20.1328C5.61719 20.1172 5.64062 20.1172 5.67188 20.1328C5.6875 20.0703 5.71094 20.0234 5.74219 19.9922C5.77344 19.9609 5.77344 19.9062 5.74219 19.8281ZM13.2891 2.60156C13.3516 2.71094 13.375 2.78906 13.3594 2.83594C13.3594 2.86719 13.3906 2.88281 13.4531 2.88281C13.375 3.00781 13.3438 3.125 13.3594 3.23438C13.3906 3.34375 13.4219 3.44531 13.4531 3.53906C13.4219 3.72656 13.3984 3.82031 13.3828 3.82031C13.3672 3.82031 13.3594 3.83594 13.3594 3.86719C13.4219 3.99219 13.4453 4.07031 13.4297 4.10156C13.4141 4.13281 13.4062 4.15625 13.4062 4.17188C13.3906 4.23438 13.3906 4.28906 13.4062 4.33594C13.4219 4.38281 13.4062 4.4375 13.3594 4.5C13.3906 4.65625 13.3984 4.75781 13.3828 4.80469C13.3828 4.83594 13.3672 4.85938 13.3359 4.875C13.3516 5 13.3594 5.08594 13.3594 5.13281C13.375 5.16406 13.3594 5.19531 13.3125 5.22656C13.3438 5.39844 13.3594 5.51562 13.3594 5.57812C13.3594 5.625 13.3516 5.6875 13.3359 5.76562C13.3359 5.90625 13.3359 6 13.3359 6.04688C13.3516 6.09375 13.3438 6.14844 13.3125 6.21094C13.3594 6.35156 13.375 6.42969 13.3594 6.44531C13.3438 6.44531 13.3281 6.46094 13.3125 6.49219C13.3438 6.52344 13.3516 6.5625 13.3359 6.60938C13.3359 6.65625 13.3281 6.70312 13.3125 6.75C13.3281 6.96875 13.3203 7.13281 13.2891 7.24219C13.2734 7.33594 13.2578 7.4375 13.2422 7.54688C13.2578 7.67188 13.2578 7.75 13.2422 7.78125C13.2266 7.79688 13.2188 7.83594 13.2188 7.89844C13.2344 8.03906 13.2344 8.10938 13.2188 8.10938C13.2188 8.10938 13.2109 8.125 13.1953 8.15625C13.1797 8.25 13.1875 8.30469 13.2188 8.32031C13.25 8.32031 13.25 8.35156 13.2188 8.41406C13.1406 8.55469 13.125 8.63281 13.1719 8.64844C13.2188 8.64844 13.2344 8.67188 13.2188 8.71875C13.2188 8.82812 13.2031 8.92969 13.1719 9.02344C13.1562 9.11719 13.1641 9.20312 13.1953 9.28125C13.1797 9.48438 13.1719 9.60938 13.1719 9.65625C13.1875 9.6875 13.1719 9.73438 13.125 9.79688C13.1719 9.95312 13.1797 10.0312 13.1484 10.0312C13.1328 10.0312 13.125 10.0547 13.125 10.1016C13.1562 10.3203 13.1328 10.4766 13.0547 10.5703C13.0859 10.7578 13.1016 10.875 13.1016 10.9219C13.1016 10.9688 13.1016 11.0469 13.1016 11.1562C13.0703 11.3125 13.0469 11.4062 13.0312 11.4375C13.0312 11.4688 13.0234 11.5 13.0078 11.5312C13.0234 11.6094 13.0312 11.6719 13.0312 11.7188C13.0312 11.7656 13.0469 11.8203 13.0781 11.8828C13.0625 12.0078 13.0547 12.0859 13.0547 12.1172C13.0703 12.1484 13.0781 12.1719 13.0781 12.1875C13.0469 12.3594 13.0391 12.4688 13.0547 12.5156C13.0703 12.5625 13.0703 12.6172 13.0547 12.6797C13.0234 12.8203 13.0078 12.9141 13.0078 12.9609C13.0234 13.0078 13.0312 13.0625 13.0312 13.125C13.0312 13.1875 13.0234 13.25 13.0078 13.3125C12.9922 13.3594 13.0078 13.4062 13.0547 13.4531C13.0078 13.5 12.9844 13.5625 12.9844 13.6406C12.9844 13.7188 12.9922 13.8047 13.0078 13.8984C12.9766 14.0547 12.9844 14.1406 13.0312 14.1562C12.9688 14.2344 12.9453 14.3359 12.9609 14.4609C12.9922 14.5859 12.9688 14.6641 12.8906 14.6953C12.9531 14.8047 12.9531 14.8906 12.8906 14.9531C12.8906 15.0938 12.8984 15.1719 12.9141 15.1875C12.9297 15.2031 12.9453 15.2266 12.9609 15.2578C12.9766 15.4297 12.9766 15.5234 12.9609 15.5391C12.9453 15.5391 12.9375 15.5547 12.9375 15.5859C12.9531 15.7109 12.9531 15.7969 12.9375 15.8438C12.9219 15.875 12.9141 15.9062 12.9141 15.9375C12.9297 16.0938 12.9219 16.1953 12.8906 16.2422C12.875 16.2734 12.8672 16.3281 12.8672 16.4062C12.8672 16.5156 12.8672 16.5938 12.8672 16.6406C12.8828 16.6875 12.875 16.7266 12.8438 16.7578C12.875 16.9766 12.875 17.1016 12.8438 17.1328C12.8125 17.1641 12.8125 17.2031 12.8438 17.25C12.8125 17.4844 12.7969 17.6484 12.7969 17.7422C12.8125 17.8359 12.8125 17.9297 12.7969 18.0234C12.7812 18.1641 12.7656 18.25 12.75 18.2812C12.75 18.2969 12.75 18.3203 12.75 18.3516C12.7812 18.4766 12.7891 18.5469 12.7734 18.5625C12.7734 18.5781 12.7734 18.5938 12.7734 18.6094C12.7891 18.7969 12.7891 18.9062 12.7734 18.9375C12.7734 18.9688 12.7734 19.0078 12.7734 19.0547C12.7734 19.1016 12.7812 19.1406 12.7969 19.1719C12.8281 19.2188 12.8438 19.2656 12.8438 19.3125C12.8281 19.4062 12.8281 19.4688 12.8438 19.5C12.875 19.5312 12.875 19.5625 12.8438 19.5938C12.9531 19.75 13 19.8359 12.9844 19.8516C12.9844 19.8672 12.9922 19.8906 13.0078 19.9219C13.0234 19.9688 13.0469 20.0156 13.0781 20.0625C13.1094 20.1094 13.1328 20.1484 13.1484 20.1797C13.1797 20.3047 13.2188 20.3906 13.2656 20.4375C13.3281 20.4844 13.375 20.5469 13.4062 20.625C13.5469 20.6719 13.6484 20.75 13.7109 20.8594C13.8359 20.8594 13.9453 20.875 14.0391 20.9062C14.1328 20.9375 14.2422 20.9453 14.3672 20.9297C14.5547 20.8203 14.7344 20.7656 14.9062 20.7656C14.8906 20.8438 14.875 20.8984 14.8594 20.9297C14.8438 20.9766 14.8359 21.0391 14.8359 21.1172C14.7109 21.1484 14.6406 21.1641 14.625 21.1641C14.6094 21.1797 14.5938 21.2031 14.5781 21.2344C14.5156 21.2656 14.4688 21.2969 14.4375 21.3281C14.4062 21.3594 14.375 21.3906 14.3438 21.4219C14.2031 21.4219 14.0938 21.4531 14.0156 21.5156C13.9375 21.5938 13.8594 21.5938 13.7812 21.5156C13.7031 21.5312 13.6406 21.5625 13.5938 21.6094C13.5469 21.6719 13.4844 21.6875 13.4062 21.6562C13.25 21.75 13.1562 21.7812 13.125 21.75C13.0156 21.8438 12.8672 21.875 12.6797 21.8438C12.5078 21.8125 12.3672 21.75 12.2578 21.6562C12.0703 21.5938 11.9609 21.5469 11.9297 21.5156C11.8984 21.5 11.8594 21.4766 11.8125 21.4453C11.7969 21.3516 11.7734 21.2969 11.7422 21.2812C11.7266 21.2656 11.7031 21.2422 11.6719 21.2109C11.5625 21.1172 11.5078 21.0469 11.5078 21C11.5078 20.9688 11.4922 20.9609 11.4609 20.9766C11.4297 20.8359 11.3984 20.7578 11.3672 20.7422C11.3359 20.7266 11.3359 20.6875 11.3672 20.625C11.2734 20.5469 11.2344 20.4297 11.25 20.2734C11.2031 20.1797 11.1641 20.0859 11.1328 19.9922C11.1016 19.9141 11.0938 19.8047 11.1094 19.6641C11.125 19.5547 11.125 19.4844 11.1094 19.4531C11.0938 19.4375 11.0859 19.4141 11.0859 19.3828C11.1016 19.2109 11.1016 19.0938 11.0859 19.0312C11.0703 18.9688 11.0625 18.8984 11.0625 18.8203C11.0625 18.7891 11.0625 18.7344 11.0625 18.6562C11.0625 18.5781 11.0703 18.5 11.0859 18.4219C11.1328 18.2188 11.1484 18.0547 11.1328 17.9297C11.1172 17.7891 11.125 17.6797 11.1562 17.6016C11.1719 17.5547 11.1719 17.5 11.1562 17.4375C11.1406 17.375 11.1562 17.3203 11.2031 17.2734C11.1875 17.1172 11.1719 17.0312 11.1562 17.0156C11.1562 17 11.1562 16.9844 11.1562 16.9688C11.1719 16.7812 11.1797 16.5859 11.1797 16.3828C11.1953 16.1641 11.2031 15.9453 11.2031 15.7266C11.1875 15.6172 11.1875 15.5547 11.2031 15.5391C11.2188 15.5234 11.2266 15.5 11.2266 15.4688C11.2266 15.4062 11.2188 15.3281 11.2031 15.2344C11.1875 15.1406 11.1875 15.0469 11.2031 14.9531C11.2031 14.8906 11.2109 14.8359 11.2266 14.7891C11.2578 14.7266 11.2734 14.6641 11.2734 14.6016C11.2578 14.4766 11.25 14.3984 11.25 14.3672C11.2656 14.3203 11.2734 14.2812 11.2734 14.25C11.2578 14.0938 11.2578 14.0156 11.2734 14.0156C11.2891 14 11.2969 13.9844 11.2969 13.9688C11.2969 13.7969 11.2969 13.6953 11.2969 13.6641C11.3125 13.6172 11.3047 13.5703 11.2734 13.5234C11.2891 13.4922 11.3047 13.4531 11.3203 13.4062C11.3359 13.3594 11.3438 13.3125 11.3438 13.2656C11.2969 13.0938 11.2812 13 11.2969 12.9844C11.3281 12.9688 11.3516 12.9453 11.3672 12.9141C11.3359 12.8672 11.3281 12.7969 11.3438 12.7031C11.3594 12.5938 11.3516 12.5 11.3203 12.4219C11.3672 12.2656 11.3828 12.1719 11.3672 12.1406C11.3672 12.1094 11.3828 12.0703 11.4141 12.0234C11.3984 11.9609 11.3828 11.8984 11.3672 11.8359C11.3672 11.7734 11.375 11.6875 11.3906 11.5781C11.4531 11.375 11.4688 11.2188 11.4375 11.1094C11.4062 11 11.4297 10.9062 11.5078 10.8281C11.4453 10.6406 11.4219 10.4844 11.4375 10.3594C11.4688 10.2344 11.4844 10.0625 11.4844 9.84375C11.5156 9.70312 11.5234 9.60156 11.5078 9.53906C11.5078 9.46094 11.5078 9.38281 11.5078 9.30469C11.5078 9.22656 11.5156 9.14844 11.5312 9.07031C11.5469 8.99219 11.5391 8.91406 11.5078 8.83594C11.5391 8.80469 11.5547 8.75 11.5547 8.67188C11.5703 8.57812 11.5781 8.5 11.5781 8.4375C11.5469 8.35938 11.5312 8.29688 11.5312 8.25C11.5469 8.20312 11.5547 8.16406 11.5547 8.13281C11.5859 7.92969 11.6094 7.79688 11.625 7.73438C11.6406 7.65625 11.6484 7.57812 11.6484 7.5C11.6328 7.29688 11.625 7.125 11.625 6.98438C11.625 6.84375 11.6328 6.70312 11.6484 6.5625C11.6797 6.39062 11.6875 6.29688 11.6719 6.28125C11.6719 6.26562 11.6719 6.24219 11.6719 6.21094C11.6875 6.03906 11.6953 5.94531 11.6953 5.92969C11.7109 5.91406 11.7109 5.89062 11.6953 5.85938C11.6797 5.6875 11.6719 5.57812 11.6719 5.53125C11.6875 5.48438 11.6953 5.4375 11.6953 5.39062C11.6641 5.29688 11.6484 5.24219 11.6484 5.22656C11.6641 5.19531 11.6719 5.16406 11.6719 5.13281C11.6875 4.96094 11.6875 4.86719 11.6719 4.85156C11.6719 4.83594 11.6719 4.8125 11.6719 4.78125C11.6719 4.625 11.6719 4.53125 11.6719 4.5C11.6875 4.46875 11.6953 4.4375 11.6953 4.40625C11.6641 4.28125 11.6406 4.19531 11.625 4.14844C11.625 4.08594 11.625 4.02344 11.625 3.96094C11.6406 3.80469 11.6406 3.70312 11.625 3.65625C11.625 3.60938 11.6406 3.55469 11.6719 3.49219C11.6562 3.17969 11.6328 2.95312 11.6016 2.8125C11.5859 2.65625 11.5859 2.5 11.6016 2.34375C11.5703 2.20312 11.5391 2.10938 11.5078 2.0625C11.4766 2.01562 11.4688 1.96875 11.4844 1.92188C11.5156 1.84375 11.4766 1.74219 11.3672 1.61719C11.2578 1.47656 11.1641 1.38281 11.0859 1.33594C11.0078 1.36719 10.9531 1.375 10.9219 1.35938C10.8906 1.34375 10.8438 1.32812 10.7812 1.3125C10.7188 1.42187 10.6641 1.47656 10.6172 1.47656C10.5859 1.46094 10.5547 1.45312 10.5234 1.45312C10.3516 1.54688 10.2656 1.60937 10.2656 1.64062C10.1094 1.76563 10.0078 1.83594 9.96094 1.85156C9.91406 1.85156 9.875 1.875 9.84375 1.92188C9.60938 1.96875 9.49219 2.03125 9.49219 2.10938C9.42969 2.07812 9.38281 2.07031 9.35156 2.08594C9.30469 2.10156 9.25 2.10938 9.1875 2.10938C9.15625 2.07812 9.13281 2.04688 9.11719 2.01562C9.08594 1.96875 9.04688 1.9375 9 1.92188C9.03125 1.85938 9.03125 1.82031 9 1.80469C8.96875 1.77344 8.96094 1.71875 8.97656 1.64062C9.16406 1.53125 9.28906 1.46094 9.35156 1.42969C9.39844 1.38281 9.46094 1.33594 9.53906 1.28906C9.64844 1.17969 9.71094 1.125 9.72656 1.125C9.74219 1.125 9.75781 1.11719 9.77344 1.10156C10.0078 0.945313 10.1562 0.828125 10.2188 0.75C10.3594 0.75 10.4453 0.703125 10.4766 0.609375C10.6172 0.546875 10.7188 0.53125 10.7812 0.5625C10.875 0.5 10.9531 0.453125 11.0156 0.421875C11.3125 0.34375 11.4844 0.234375 11.5312 0.09375C11.625 0.09375 11.7109 0.09375 11.7891 0.09375C11.8672 0.078125 11.9453 0.0703125 12.0234 0.0703125C12.0859 0.0234375 12.1719 0.0078125 12.2812 0.0234375C12.4375 0.117188 12.5391 0.164062 12.5859 0.164062C12.6797 0.257812 12.7422 0.304688 12.7734 0.304688C12.8047 0.304688 12.8359 0.3125 12.8672 0.328125C12.8984 0.359375 12.9375 0.398438 12.9844 0.445312C13.0312 0.476563 13.0703 0.523438 13.1016 0.585938C13.1797 0.820312 13.2109 0.976562 13.1953 1.05469C13.1953 1.11719 13.2031 1.1875 13.2188 1.26562C13.2812 1.42187 13.3047 1.51562 13.2891 1.54688C13.2734 1.57813 13.2656 1.60937 13.2656 1.64062C13.2812 1.84375 13.2969 1.97656 13.3125 2.03906C13.3281 2.10156 13.3359 2.16406 13.3359 2.22656C13.3203 2.30469 13.3203 2.38281 13.3359 2.46094C13.3672 2.53906 13.3516 2.58594 13.2891 2.60156ZM15.9141 12.3281C15.9453 12.25 15.9766 12.1797 16.0078 12.1172C16.0547 12.0391 16.1172 11.9844 16.1953 11.9531C16.2109 11.8594 16.25 11.7969 16.3125 11.7656C16.375 11.7344 16.4141 11.6719 16.4297 11.5781C16.5391 11.5156 16.6172 11.4375 16.6641 11.3438C16.8047 11.25 16.875 11.2109 16.875 11.2266C16.875 11.2266 16.8906 11.2266 16.9219 11.2266C17.0625 11.1172 17.1484 11.0391 17.1797 10.9922C17.2109 10.9453 17.25 10.9062 17.2969 10.875C17.4062 10.8125 17.4766 10.7656 17.5078 10.7344C17.5391 10.7031 17.5703 10.6719 17.6016 10.6406C17.7266 10.5781 17.7969 10.5469 17.8125 10.5469C17.8438 10.5469 17.875 10.5391 17.9062 10.5234C18.0625 10.4141 18.1562 10.3516 18.1875 10.3359C18.2188 10.3203 18.2422 10.2891 18.2578 10.2422C18.5547 10.1641 18.7734 10.0859 18.9141 10.0078C19.0234 9.97656 19.1016 9.96875 19.1484 9.98438C19.1953 9.98438 19.2422 9.97656 19.2891 9.96094C19.5234 9.92969 19.6719 9.92969 19.7344 9.96094C19.8125 9.99219 19.8906 10.0078 19.9688 10.0078C20.0938 10.0078 20.1719 10.0312 20.2031 10.0781C20.2344 10.1094 20.2734 10.125 20.3203 10.125C20.3672 10.2969 20.4141 10.4062 20.4609 10.4531C20.5234 10.4844 20.6094 10.5078 20.7188 10.5234C20.9062 10.6484 21 10.7344 21 10.7812C21.1094 10.8281 21.2031 10.8828 21.2812 10.9453C21.375 11.0078 21.4453 11.1016 21.4922 11.2266C21.6172 11.3047 21.6953 11.3594 21.7266 11.3906C21.7578 11.4219 21.7812 11.4609 21.7969 11.5078C21.9375 11.6641 22.0156 11.7734 22.0312 11.8359C22.0625 11.8984 22.1016 11.9453 22.1484 11.9766C22.1797 12.1016 22.2031 12.2188 22.2188 12.3281C22.2344 12.4219 22.2266 12.5312 22.1953 12.6562C22.2422 12.9219 22.1953 13.125 22.0547 13.2656C22.0234 13.4531 22.0234 13.5547 22.0547 13.5703C22.0859 13.5703 22.0938 13.5859 22.0781 13.6172C22.0469 13.7266 22.0234 13.8047 22.0078 13.8516C21.9922 13.8984 21.9766 13.9453 21.9609 13.9922C21.9141 14.1484 21.8984 14.2422 21.9141 14.2734C21.9297 14.2891 21.9297 14.3125 21.9141 14.3438C21.8047 14.5 21.7422 14.5938 21.7266 14.625C21.7109 14.6562 21.7031 14.6953 21.7031 14.7422C21.5469 14.8359 21.4688 14.8906 21.4688 14.9062C21.4844 14.9219 21.4922 14.9609 21.4922 15.0234C21.3516 15.1953 21.2734 15.3047 21.2578 15.3516C21.2578 15.3828 21.2266 15.4062 21.1641 15.4219C21.1016 15.5156 21.0234 15.6094 20.9297 15.7031C20.7891 15.7969 20.6953 15.8594 20.6484 15.8906C20.6172 15.9062 20.6016 15.9375 20.6016 15.9844C20.5078 16.0625 20.4531 16.1172 20.4375 16.1484C20.4219 16.1797 20.4062 16.2109 20.3906 16.2422C20.2344 16.2891 20.1562 16.3203 20.1562 16.3359C20.1562 16.3516 20.1484 16.3594 20.1328 16.3594C19.9922 16.4219 19.8984 16.4766 19.8516 16.5234C19.8203 16.5547 19.7812 16.5859 19.7344 16.6172C19.6406 16.6172 19.5625 16.6484 19.5 16.7109C19.4375 16.7578 19.3672 16.7969 19.2891 16.8281C19.2422 16.8594 19.1953 16.8828 19.1484 16.8984C19.1016 16.9141 19.0625 16.9453 19.0312 16.9922C18.7812 17.0703 18.5781 17.1562 18.4219 17.25C18.2656 17.3438 18.0938 17.3594 17.9062 17.2969C17.7031 17.3438 17.5938 17.3594 17.5781 17.3438C17.5625 17.3281 17.5391 17.3125 17.5078 17.2969C17.3672 17.3594 17.2734 17.3906 17.2266 17.3906C17.1797 17.3906 17.1172 17.375 17.0391 17.3438C16.8828 17.2969 16.7734 17.2734 16.7109 17.2734C16.5547 17.1797 16.4453 17.125 16.3828 17.1094C16.3359 17.0781 16.2891 17.0469 16.2422 17.0156C16.1953 16.9844 16.1406 16.9531 16.0781 16.9219C16.0312 16.875 16.0078 16.8125 16.0078 16.7344C15.8828 16.6094 15.8203 16.5469 15.8203 16.5469C15.7422 16.3438 15.6719 16.2344 15.6094 16.2188C15.5781 16.0625 15.5469 15.9688 15.5156 15.9375C15.4688 15.8125 15.4375 15.75 15.4219 15.75C15.4219 15.7344 15.4141 15.7031 15.3984 15.6562C15.3984 15.625 15.3906 15.5781 15.375 15.5156C15.3594 15.4375 15.3516 15.375 15.3516 15.3281C15.3047 15.0156 15.2812 14.7969 15.2812 14.6719C15.2969 14.5469 15.2891 14.4219 15.2578 14.2969C15.2891 14.2656 15.2969 14.2344 15.2812 14.2031C15.2812 14.1562 15.2891 14.0938 15.3047 14.0156C15.3203 13.875 15.3359 13.7969 15.3516 13.7812C15.3672 13.75 15.375 13.7188 15.375 13.6875C15.3906 13.5469 15.4219 13.4141 15.4688 13.2891C15.4844 13.2422 15.5 13.2031 15.5156 13.1719C15.5469 13.125 15.5547 13.0703 15.5391 13.0078C15.6328 12.9609 15.6875 12.8906 15.7031 12.7969C15.7344 12.6875 15.7734 12.5938 15.8203 12.5156L15.9141 12.3281ZM19.3594 11.7188C19.2656 11.6719 19.2109 11.6406 19.1953 11.625C19.1797 11.5938 19.1562 11.5703 19.125 11.5547C18.9531 11.5078 18.8516 11.5 18.8203 11.5312C18.8047 11.5469 18.7812 11.5469 18.75 11.5312C18.6719 11.5312 18.5938 11.5156 18.5156 11.4844C18.4375 11.4531 18.375 11.4766 18.3281 11.5547C18.1562 11.5703 18.0625 11.5703 18.0469 11.5547C18 11.5859 17.9453 11.6094 17.8828 11.625C17.8359 11.6406 17.7969 11.6641 17.7656 11.6953C17.7188 11.7891 17.6797 11.8516 17.6484 11.8828C17.6172 11.8984 17.6094 11.9297 17.625 11.9766C17.5781 12.0391 17.5078 12.1172 17.4141 12.2109C17.3672 12.4609 17.3203 12.625 17.2734 12.7031C17.2266 12.7656 17.1719 12.8203 17.1094 12.8672C17.125 12.9453 17.125 13.0312 17.1094 13.125C17.1094 13.2031 17.0859 13.2656 17.0391 13.3125C16.9766 13.5469 16.9531 13.6875 16.9688 13.7344C17 13.7656 17.0078 13.8203 16.9922 13.8984C16.9297 14.1016 16.9219 14.2031 16.9688 14.2031C17.0156 14.1875 17.0312 14.2031 17.0156 14.25C17.0156 14.4219 17.0234 14.5156 17.0391 14.5312C17.0703 14.5312 17.0859 14.5469 17.0859 14.5781L17.1562 14.8594C17.2188 14.9844 17.2422 15.0547 17.2266 15.0703C17.2109 15.0859 17.2031 15.1094 17.2031 15.1406C17.2969 15.2812 17.3516 15.3672 17.3672 15.3984C17.3984 15.4297 17.4297 15.4609 17.4609 15.4922C17.4766 15.6172 17.4922 15.6953 17.5078 15.7266C17.5391 15.7422 17.5391 15.7656 17.5078 15.7969C17.5859 15.8125 17.6484 15.8281 17.6953 15.8438C17.7578 15.8594 17.8047 15.9062 17.8359 15.9844C17.9609 16.0156 18.0312 16.0703 18.0469 16.1484C18.2969 16.2109 18.4609 16.2422 18.5391 16.2422C18.6172 16.2266 18.7188 16.2031 18.8438 16.1719C19.0781 16.1875 19.2344 16.1797 19.3125 16.1484C19.3906 16.1016 19.4453 16.0469 19.4766 15.9844C19.5391 15.9219 19.5859 15.8828 19.6172 15.8672C19.6484 15.8359 19.6797 15.8047 19.7109 15.7734C19.7891 15.6328 19.8516 15.5312 19.8984 15.4688C19.9609 15.3906 19.9844 15.3047 19.9688 15.2109C20.2188 14.8828 20.3359 14.5625 20.3203 14.25C20.3828 14.0625 20.4062 13.9609 20.3906 13.9453C20.375 13.9141 20.3672 13.8828 20.3672 13.8516C20.4297 13.7578 20.4453 13.6484 20.4141 13.5234C20.3984 13.3828 20.375 13.2656 20.3438 13.1719C20.3125 13 20.2969 12.9062 20.2969 12.8906C20.3125 12.8594 20.3203 12.8359 20.3203 12.8203C20.2109 12.6641 20.1484 12.5781 20.1328 12.5625C20.0547 12.4062 19.9844 12.2969 19.9219 12.2344C19.8594 12.1719 19.8047 12.0938 19.7578 12C19.6641 11.9219 19.6094 11.875 19.5938 11.8594C19.5781 11.8438 19.5625 11.8203 19.5469 11.7891L19.3594 11.7188ZM29.2031 8.39062C29.4219 8.5 29.5703 8.53906 29.6484 8.50781C29.7422 8.47656 29.8516 8.46094 29.9766 8.46094C30.0703 8.61719 30.125 8.70312 30.1406 8.71875C30.1719 8.73438 30.1953 8.75781 30.2109 8.78906C30.1328 9.00781 30.0859 9.15625 30.0703 9.23438C30.0703 9.29688 30.1094 9.35938 30.1875 9.42188C30.0938 9.5625 30.0625 9.67969 30.0938 9.77344C30.2812 9.75781 30.3828 9.75781 30.3984 9.77344C30.4141 9.77344 30.4375 9.78906 30.4688 9.82031C30.5156 10.0078 30.5391 10.1484 30.5391 10.2422C30.5391 10.3203 30.5078 10.3906 30.4453 10.4531C30.4922 10.5156 30.4922 10.5703 30.4453 10.6172C30.3984 10.6641 30.3984 10.7188 30.4453 10.7812C30.3516 10.9688 30.2969 11.0625 30.2812 11.0625C30.2656 11.0625 30.25 11.0703 30.2344 11.0859C30.25 11.2891 30.2266 11.4375 30.1641 11.5312C30.1172 11.6094 30.0703 11.6875 30.0234 11.7656C30.0078 11.8438 30.0078 11.9375 30.0234 12.0469C30.0547 12.1406 30.0391 12.2188 29.9766 12.2812C30.0391 12.4688 30.0547 12.6094 30.0234 12.7031C29.9922 12.7812 30.0156 12.8516 30.0938 12.9141C30.0625 13.0078 30.0547 13.1016 30.0703 13.1953C30.1016 13.2734 30.125 13.3516 30.1406 13.4297C30.1406 13.5859 30.1406 13.6797 30.1406 13.7109C30.1562 13.7422 30.1641 13.7969 30.1641 13.875C30.1484 13.9062 30.1484 13.9531 30.1641 14.0156C30.1797 14.0625 30.1875 14.1016 30.1875 14.1328C30.1562 14.3359 30.1562 14.4844 30.1875 14.5781C30.1562 14.7344 30.1484 14.8438 30.1641 14.9062C30.1797 14.9688 30.1719 15.0234 30.1406 15.0703C30.1406 15.2578 30.1484 15.375 30.1641 15.4219C30.1797 15.4531 30.1875 15.5 30.1875 15.5625C30.1719 15.6875 30.1719 15.7578 30.1875 15.7734C30.2031 15.7891 30.2109 15.8125 30.2109 15.8438C30.1953 15.8906 30.1797 15.9453 30.1641 16.0078C30.1484 16.0547 30.1328 16.0938 30.1172 16.125C30.1484 16.3281 30.1641 16.4688 30.1641 16.5469C30.1641 16.6094 30.1719 16.6797 30.1875 16.7578C30.1875 16.8203 30.1875 16.8906 30.1875 16.9688C30.1875 17.0312 30.1953 17.1094 30.2109 17.2031C30.2109 17.2969 30.2109 17.3672 30.2109 17.4141C30.2266 17.4609 30.2188 17.5078 30.1875 17.5547C30.2031 17.7266 30.1875 17.8203 30.1406 17.8359C30.1094 17.8359 30.0938 17.8594 30.0938 17.9062C30.1094 18 30.1172 18.1016 30.1172 18.2109C30.1328 18.3203 30.1406 18.4219 30.1406 18.5156C30.0938 18.75 30.0781 18.8906 30.0938 18.9375C30.1094 18.9844 30.1016 19.0234 30.0703 19.0547C30.1016 19.1172 30.1094 19.1875 30.0938 19.2656C30.0938 19.3594 30.0781 19.4453 30.0469 19.5234C30.0469 19.6797 30.0547 19.8047 30.0703 19.8984C30.0859 19.9922 30.0547 20.0859 29.9766 20.1797C29.9922 20.4141 29.9922 20.5625 29.9766 20.625C29.9766 20.6875 29.9688 20.7656 29.9531 20.8594C29.9531 20.9688 29.9453 21.0312 29.9297 21.0469C29.9141 21.0781 29.9062 21.1172 29.9062 21.1641C29.9219 21.3516 29.8906 21.4688 29.8125 21.5156C29.7969 21.6875 29.7969 21.7734 29.8125 21.7734C29.8281 21.7891 29.8281 21.8047 29.8125 21.8203C29.8125 21.8672 29.7969 21.9141 29.7656 21.9609C29.75 22.0078 29.7578 22.0547 29.7891 22.1016C29.7578 22.2109 29.7266 22.2812 29.6953 22.3125C29.6641 22.3438 29.6641 22.3828 29.6953 22.4297C29.6484 22.5391 29.625 22.6016 29.625 22.6172C29.625 22.6484 29.6328 22.6797 29.6484 22.7109C29.5859 22.8672 29.5469 22.9766 29.5312 23.0391C29.5312 23.1016 29.5234 23.1641 29.5078 23.2266C29.4453 23.3828 29.4062 23.4609 29.3906 23.4609C29.375 23.4609 29.3672 23.4688 29.3672 23.4844C29.3359 23.7031 29.3047 23.8359 29.2734 23.8828C29.2578 23.9297 29.2578 23.9922 29.2734 24.0703C29.2266 24.1172 29.1953 24.1719 29.1797 24.2344C29.1797 24.3125 29.1641 24.3828 29.1328 24.4453C29.1016 24.5234 29.0703 24.5859 29.0391 24.6328C29.0234 24.6953 29.0156 24.7656 29.0156 24.8438C28.9844 24.875 28.9453 24.9141 28.8984 24.9609C28.8672 25.0234 28.8672 25.0938 28.8984 25.1719C28.8516 25.2031 28.8047 25.2422 28.7578 25.2891C28.7266 25.3359 28.7188 25.3984 28.7344 25.4766C28.625 25.6328 28.5547 25.7344 28.5234 25.7812C28.4922 25.8281 28.4609 25.8672 28.4297 25.8984L28.3359 26.2734C28.2109 26.3359 28.1406 26.375 28.125 26.3906C28.125 26.4062 28.1094 26.4141 28.0781 26.4141C28.0312 26.5391 27.9688 26.6484 27.8906 26.7422C27.8125 26.8516 27.7344 26.9453 27.6562 27.0234C27.5156 27.2266 27.4062 27.3516 27.3281 27.3984C27.2656 27.4453 27.2188 27.5078 27.1875 27.5859C27.125 27.6172 27.0703 27.6484 27.0234 27.6797C26.9922 27.7266 26.9531 27.7656 26.9062 27.7969C26.7656 27.9219 26.6797 28 26.6484 28.0312C26.6328 28.0781 26.5938 28.1094 26.5312 28.125C26.3594 28.2188 26.2578 28.2969 26.2266 28.3594C26.1328 28.3438 26.0781 28.3672 26.0625 28.4297C26.0469 28.4922 26 28.5234 25.9219 28.5234C25.7656 28.6641 25.6562 28.7422 25.5938 28.7578C25.5312 28.7891 25.4766 28.8438 25.4297 28.9219C25.2266 29.0312 25.0703 29.1172 24.9609 29.1797C24.8516 29.2422 24.7344 29.3047 24.6094 29.3672C24.5312 29.4453 24.4688 29.4922 24.4219 29.5078C24.375 29.5234 24.3359 29.5547 24.3047 29.6016C24.1953 29.6484 24.1016 29.6719 24.0234 29.6719C23.9609 29.6875 23.8984 29.7109 23.8359 29.7422C23.6641 29.8203 23.5781 29.8594 23.5781 29.8594C23.3906 29.875 23.2969 29.8906 23.2969 29.9062C23.2969 29.9219 23.2812 29.9375 23.25 29.9531C23.1406 29.9375 23.0547 29.9453 22.9922 29.9766C22.9453 30.0234 22.8672 30.0312 22.7578 30C22.6016 29.9688 22.4688 29.9531 22.3594 29.9531C22.2812 29.9219 22.1953 29.9062 22.1016 29.9062C22.0078 29.9219 21.9219 29.9219 21.8438 29.9062C21.7969 29.8906 21.75 29.8672 21.7031 29.8359C21.6406 29.8047 21.5781 29.7891 21.5156 29.7891C21.4062 29.7266 21.3438 29.7031 21.3281 29.7188C21.3125 29.7344 21.2891 29.7344 21.2578 29.7188C21.0391 29.6406 20.8906 29.5859 20.8125 29.5547C20.7344 29.5234 20.6484 29.4922 20.5547 29.4609C20.4141 29.3672 20.3438 29.3047 20.3438 29.2734C20.3281 29.2578 20.3047 29.2422 20.2734 29.2266C20.1641 29.1328 20.0859 29.0781 20.0391 29.0625C19.9922 29.0625 19.9531 29.0469 19.9219 29.0156C19.8281 28.9375 19.7656 28.875 19.7344 28.8281C19.6875 28.7812 19.625 28.7422 19.5469 28.7109C19.4531 28.5234 19.3906 28.4219 19.3594 28.4062C19.3281 28.4062 19.2969 28.3906 19.2656 28.3594C19.2656 28.1875 19.2578 28.0859 19.2422 28.0547C19.2109 28.0391 19.1797 28.0156 19.1484 27.9844C19.1641 27.875 19.1484 27.7734 19.1016 27.6797C19.0391 27.5859 19.0156 27.4922 19.0312 27.3984C19.0469 27.3359 19.0859 27.2812 19.1484 27.2344C19.1953 27.1875 19.2266 27.1172 19.2422 27.0234C19.2734 26.9609 19.2812 26.8984 19.2656 26.8359C19.25 26.7891 19.25 26.7266 19.2656 26.6484C19.3438 26.5703 19.4062 26.5312 19.4531 26.5312C19.5 26.5469 19.5234 26.5312 19.5234 26.4844C19.7578 26.4844 19.8906 26.4688 19.9219 26.4375C19.9375 26.4219 19.9844 26.4141 20.0625 26.4141C20.0938 26.4453 20.1172 26.4844 20.1328 26.5312C20.1484 26.5938 20.1719 26.6406 20.2031 26.6719C20.2344 26.9219 20.2969 27.0859 20.3906 27.1641C20.4219 27.2422 20.4609 27.3125 20.5078 27.375C20.5547 27.4375 20.5938 27.5 20.625 27.5625C20.7656 27.6719 20.8672 27.7578 20.9297 27.8203C20.9766 27.8828 21.0312 27.9453 21.0938 28.0078C21.1406 28.0078 21.1797 28.0234 21.2109 28.0547C21.2422 28.1016 21.2812 28.1328 21.3281 28.1484L21.5625 28.2656C21.7812 28.3594 21.9219 28.4531 21.9844 28.5469C22.0938 28.5469 22.2031 28.5859 22.3125 28.6641C22.3594 28.6641 22.4219 28.6641 22.5 28.6641C22.5781 28.6641 22.6328 28.6797 22.6641 28.7109C22.8516 28.7578 22.9453 28.7812 22.9453 28.7812C22.9453 28.7969 22.9609 28.8125 22.9922 28.8281C23.0391 28.8438 23.0859 28.8516 23.1328 28.8516C23.1797 28.8516 23.2266 28.8516 23.2734 28.8516C23.4609 28.8359 23.5703 28.8203 23.6016 28.8047C23.6484 28.7891 23.7031 28.7812 23.7656 28.7812C23.8438 28.7969 23.8906 28.7969 23.9062 28.7812C23.9375 28.7812 23.9766 28.7969 24.0234 28.8281C24.1641 28.7969 24.25 28.7734 24.2812 28.7578C24.3281 28.7578 24.3672 28.7578 24.3984 28.7578C24.6016 28.6641 24.7109 28.5938 24.7266 28.5469C24.7422 28.5156 24.7734 28.4844 24.8203 28.4531C24.9453 28.4844 25.0547 28.4531 25.1484 28.3594C25.2422 28.2812 25.3516 28.2188 25.4766 28.1719C25.6328 28.0156 25.7734 27.8516 25.8984 27.6797C26.0234 27.6016 26.1094 27.5391 26.1562 27.4922C26.2031 27.4609 26.2188 27.4297 26.2031 27.3984C26.2656 27.3672 26.3125 27.3125 26.3438 27.2344C26.375 27.1719 26.4297 27.1172 26.5078 27.0703C26.5078 26.9922 26.5234 26.9375 26.5547 26.9062C26.5859 26.8906 26.6016 26.8438 26.6016 26.7656C26.6797 26.6562 26.7422 26.5938 26.7891 26.5781C26.8359 26.5625 26.8438 26.5391 26.8125 26.5078C26.875 26.4766 26.9141 26.4297 26.9297 26.3672C26.9609 26.3047 27 26.2578 27.0469 26.2266C27.0469 26.1484 27.0625 26.0781 27.0938 26.0156C27.1406 25.9531 27.1719 25.8828 27.1875 25.8047C27.25 25.6641 27.2812 25.5703 27.2812 25.5234C27.3594 25.3672 27.4219 25.2656 27.4688 25.2188C27.5156 25.1719 27.5547 25.1172 27.5859 25.0547C27.6172 24.8203 27.6328 24.7031 27.6328 24.7031C27.7422 24.5156 27.7969 24.3672 27.7969 24.2578C27.8125 24.1641 27.8359 24.0703 27.8672 23.9766C27.8828 23.8828 27.9062 23.7891 27.9375 23.6953C27.9688 23.5391 27.9922 23.4297 28.0078 23.3672C28.0391 23.3047 28.0391 23.2266 28.0078 23.1328C28.0547 23.0703 28.0781 22.9844 28.0781 22.875C28.0938 22.7812 28.125 22.7109 28.1719 22.6641C28.1406 22.5078 28.1719 22.3672 28.2656 22.2422C28.2344 22.1797 28.2266 22.1094 28.2422 22.0312C28.2734 21.9688 28.2969 21.8984 28.3125 21.8203C28.3281 21.7578 28.3281 21.6875 28.3125 21.6094C28.3125 21.5469 28.3203 21.4844 28.3359 21.4219C28.3516 21.375 28.375 21.3125 28.4062 21.2344C28.4531 21.1562 28.4375 21.0781 28.3594 21C28.4375 20.875 28.4688 20.7266 28.4531 20.5547C28.4375 20.3828 28.4688 20.2344 28.5469 20.1094C28.4844 20.0469 28.4688 19.9844 28.5 19.9219C28.5312 19.875 28.5469 19.8281 28.5469 19.7812C28.5312 19.6094 28.5312 19.4844 28.5469 19.4062C28.5625 19.3438 28.5703 19.2734 28.5703 19.1953V18.5156C28.5703 18.3438 28.5703 18.2266 28.5703 18.1641C28.5703 18.1016 28.5859 18.0312 28.6172 17.9531C28.6016 17.7812 28.6016 17.6719 28.6172 17.625C28.6328 17.5625 28.6328 17.4844 28.6172 17.3906C28.6172 17.2812 28.625 17.2188 28.6406 17.2031C28.6562 17.1875 28.6562 17.1562 28.6406 17.1094C28.625 16.875 28.6094 16.7188 28.5938 16.6406C28.5781 16.5625 28.5859 16.4844 28.6172 16.4062C28.5859 16.25 28.5703 16.1562 28.5703 16.125C28.5703 16.0781 28.5781 16.0391 28.5938 16.0078C28.5469 15.8516 28.5312 15.7656 28.5469 15.75C28.5625 15.7188 28.5625 15.6875 28.5469 15.6562C28.5 15.4844 28.4922 15.375 28.5234 15.3281C28.5547 15.2812 28.5625 15.2188 28.5469 15.1406C28.5625 15.1094 28.5625 15.0625 28.5469 15C28.5312 14.9375 28.5391 14.8828 28.5703 14.8359C28.5391 14.6172 28.5078 14.4766 28.4766 14.4141C28.4453 14.3359 28.4219 14.2656 28.4062 14.2031C28.25 14.1719 28.1562 14.1719 28.125 14.2031C28.1094 14.2188 28.0938 14.2422 28.0781 14.2734C27.9375 14.3359 27.8438 14.3906 27.7969 14.4375C27.75 14.4844 27.6953 14.4922 27.6328 14.4609C27.5078 14.5078 27.4219 14.5938 27.375 14.7188C27.25 14.7812 27.125 14.8203 27 14.8359C26.8906 14.8359 26.8203 14.8828 26.7891 14.9766C26.7422 14.9922 26.6875 15.0156 26.625 15.0469C26.5781 15.0625 26.5234 15.0859 26.4609 15.1172C26.3672 15.1797 26.3047 15.2188 26.2734 15.2344C26.2422 15.2344 26.2109 15.25 26.1797 15.2812C26.1328 15.2969 26.0859 15.3047 26.0391 15.3047C26.0078 15.3047 25.9688 15.3125 25.9219 15.3281C25.8281 15.3594 25.7656 15.375 25.7344 15.375C25.7188 15.3594 25.6953 15.3594 25.6641 15.375C25.6172 15.375 25.5625 15.3828 25.5 15.3984C25.4375 15.4141 25.3828 15.4219 25.3359 15.4219C25.2734 15.4219 25.2109 15.4062 25.1484 15.375C25.1016 15.3438 25.0469 15.3516 24.9844 15.3984C24.7812 15.3516 24.6641 15.3359 24.6328 15.3516C24.6172 15.3516 24.5859 15.3438 24.5391 15.3281C24.4609 15.2969 24.3828 15.2656 24.3047 15.2344C24.2422 15.1875 24.1875 15.1406 24.1406 15.0938C23.9531 15.0469 23.8281 14.9688 23.7656 14.8594C23.7188 14.75 23.6406 14.6641 23.5312 14.6016C23.5312 14.5234 23.5156 14.4688 23.4844 14.4375C23.4531 14.3906 23.4375 14.3359 23.4375 14.2734C23.4062 14.1953 23.3828 14.125 23.3672 14.0625C23.3516 13.9844 23.3281 13.9062 23.2969 13.8281C23.3125 13.6875 23.3125 13.5938 23.2969 13.5469C23.2812 13.5 23.2891 13.4453 23.3203 13.3828C23.2891 13.2266 23.25 13.1328 23.2031 13.1016C23.2344 12.9766 23.2578 12.8906 23.2734 12.8438C23.2891 12.7969 23.2969 12.7578 23.2969 12.7266C23.3125 12.6484 23.3125 12.5781 23.2969 12.5156C23.2969 12.4375 23.3047 12.3594 23.3203 12.2812C23.4141 12.1406 23.4609 12.0547 23.4609 12.0234C23.4609 11.9766 23.4766 11.9375 23.5078 11.9062C23.6016 11.75 23.6562 11.6484 23.6719 11.6016C23.6875 11.5391 23.7188 11.5 23.7656 11.4844C23.7656 11.4219 23.7734 11.375 23.7891 11.3438C23.8047 11.2969 23.8281 11.25 23.8594 11.2031C23.875 11.1719 23.8984 11.1406 23.9297 11.1094C23.9609 11.0781 23.9922 11.0391 24.0234 10.9922C24.1016 10.8672 24.1328 10.8047 24.1172 10.8047C24.1172 10.8047 24.1328 10.7891 24.1641 10.7578C24.3203 10.5859 24.4219 10.4766 24.4688 10.4297C24.5625 10.3203 24.6094 10.2578 24.6094 10.2422C24.625 10.2266 24.6328 10.2109 24.6328 10.1953C24.7578 10.1484 24.8438 10.0781 24.8906 9.98438C24.9531 9.89062 25.0391 9.82031 25.1484 9.77344C25.3047 9.67969 25.4375 9.57812 25.5469 9.46875C25.7344 9.39062 25.8281 9.35156 25.8281 9.35156C25.8281 9.33594 25.8359 9.32031 25.8516 9.30469C25.9922 9.19531 26.0781 9.14062 26.1094 9.14062C26.1719 9.10938 26.2344 9.07812 26.2969 9.04688C26.3594 9.01562 26.4141 8.96875 26.4609 8.90625C26.6016 8.82812 26.7031 8.78125 26.7656 8.76562C26.8438 8.75 26.9062 8.71875 26.9531 8.67188C27.1094 8.6875 27.2188 8.66406 27.2812 8.60156C27.3594 8.52344 27.4844 8.48438 27.6562 8.48438C27.75 8.42188 27.8672 8.39062 28.0078 8.39062C28.1484 8.39062 28.2812 8.40625 28.4062 8.4375C28.5781 8.45312 28.7188 8.4375 28.8281 8.39062C28.9375 8.34375 29.0312 8.35938 29.1094 8.4375L29.2031 8.39062ZM28.2422 9.98438C28.0391 9.82812 27.9297 9.74219 27.9141 9.72656C27.7578 9.66406 27.6641 9.64062 27.6328 9.65625C27.6172 9.65625 27.6016 9.65625 27.5859 9.65625C27.4141 9.65625 27.2578 9.63281 27.1172 9.58594C26.9141 9.64844 26.7812 9.67969 26.7188 9.67969C26.6719 9.66406 26.6328 9.66406 26.6016 9.67969C26.4766 9.75781 26.4062 9.79688 26.3906 9.79688C26.375 9.79688 26.3594 9.80469 26.3438 9.82031C26.2188 9.89844 26.1094 9.92969 26.0156 9.91406C26 9.99219 25.9688 10.0391 25.9219 10.0547C25.875 10.0703 25.8438 10.1172 25.8281 10.1953C25.7031 10.3203 25.6094 10.3984 25.5469 10.4297C25.4688 10.5859 25.3828 10.7031 25.2891 10.7812C25.3047 10.9375 25.2578 11.0469 25.1484 11.1094C25.0859 11.25 25.0547 11.375 25.0547 11.4844C25.0234 11.5781 25 11.6406 24.9844 11.6719C24.9688 11.7031 24.9531 11.7422 24.9375 11.7891C24.9688 11.8203 24.9688 11.8672 24.9375 11.9297C24.9219 11.9766 24.9141 12.0234 24.9141 12.0703C24.8828 12.1953 24.8672 12.2656 24.8672 12.2812C24.8828 12.2969 24.8906 12.3203 24.8906 12.3516C24.8906 12.4453 24.8984 12.5234 24.9141 12.5859C24.9297 12.6484 24.9375 12.7188 24.9375 12.7969C24.9219 12.9688 24.9219 13.0859 24.9375 13.1484C24.9688 13.1953 24.9844 13.2422 24.9844 13.2891C25.0625 13.3359 25.125 13.4297 25.1719 13.5703C25.2969 13.6328 25.3672 13.7031 25.3828 13.7812C25.4297 13.8125 25.4688 13.8438 25.5 13.875C25.5469 13.8906 25.5938 13.9141 25.6406 13.9453C25.7031 13.9609 25.7578 13.9844 25.8047 14.0156C25.8516 14.0469 25.8984 14.0703 25.9453 14.0859C26.0859 14.1172 26.1797 14.125 26.2266 14.1094C26.3828 14.125 26.5312 14.1406 26.6719 14.1562C26.8125 14.1719 26.9219 14.1641 27 14.1328C27.0781 14.0703 27.1328 14.0391 27.1641 14.0391C27.1953 14.0234 27.2266 14.0078 27.2578 13.9922C27.4297 13.8516 27.5234 13.7656 27.5391 13.7344C27.5547 13.7031 27.5781 13.6641 27.6094 13.6172C27.7031 13.5547 27.8125 13.4766 27.9375 13.3828C27.9375 13.3047 27.9453 13.2344 27.9609 13.1719C27.9922 13.0938 28.0234 13.0156 28.0547 12.9375C28.1484 12.8438 28.2109 12.7891 28.2422 12.7734C28.2734 12.7578 28.2734 12.7344 28.2422 12.7031C28.3203 12.5469 28.3672 12.4297 28.3828 12.3516C28.4141 12.2734 28.4375 12.1953 28.4531 12.1172C28.4062 12.0703 28.3984 12.0312 28.4297 12C28.4609 11.9531 28.4688 11.8984 28.4531 11.8359C28.3906 11.6016 28.3672 11.4375 28.3828 11.3438C28.3984 11.2344 28.375 11.1406 28.3125 11.0625C28.3438 10.9219 28.3672 10.8203 28.3828 10.7578C28.3984 10.6797 28.3984 10.6016 28.3828 10.5234C28.3516 10.3359 28.3281 10.2266 28.3125 10.1953C28.2969 10.1641 28.3047 10.125 28.3359 10.0781L28.2422 9.98438Z" fill="#FFACED"/>
</svg>
