<svg width="57" height="18" viewBox="0 0 57 18" fill="none" xmlns="http://www.w3.org/2000/svg">
<path d="M5.36719 13.8516C5.28906 13.9141 5.20312 13.9453 5.10938 13.9453C5.03125 13.9453 4.94531 13.9609 4.85156 13.9922C4.80469 13.9922 4.75781 14.0078 4.71094 14.0391C4.67969 14.0547 4.64062 14.0703 4.59375 14.0859C4.42188 14.0547 4.30469 14.0469 4.24219 14.0625C4.17969 14.0781 4.10156 14.0938 4.00781 14.1094C3.96094 14.1094 3.90625 14.1172 3.84375 14.1328C3.78125 14.1484 3.73438 14.1406 3.70312 14.1094C3.60938 14.0469 3.54688 14.0234 3.51562 14.0391C3.48438 14.0391 3.46094 14.0234 3.44531 13.9922C3.28906 14.0078 3.16406 14.0234 3.07031 14.0391C2.97656 14.0391 2.86719 14.0391 2.74219 14.0391C2.71094 14.0078 2.66406 13.9844 2.60156 13.9688C2.55469 13.9375 2.51562 13.8984 2.48438 13.8516C2.3125 13.7734 2.17188 13.7344 2.0625 13.7344C1.95312 13.7188 1.875 13.6562 1.82812 13.5469C1.625 13.5 1.50781 13.4531 1.47656 13.4062C1.46094 13.3438 1.40625 13.3125 1.3125 13.3125C1.17188 13.2188 1.10156 13.1641 1.10156 13.1484L0.984375 12.9141C0.84375 12.8359 0.773438 12.7266 0.773438 12.5859C0.710938 12.5078 0.65625 12.4375 0.609375 12.375C0.578125 12.2969 0.5625 12.1797 0.5625 12.0234C0.5 11.9766 0.453125 11.9453 0.421875 11.9297C0.40625 11.9141 0.382812 11.8828 0.351562 11.8359C0.320312 11.7422 0.289062 11.6562 0.257812 11.5781C0.179688 11.4219 0.140625 11.3125 0.140625 11.25C0.15625 11.1719 0.132812 11.0938 0.0703125 11.0156C0.0703125 10.9375 0.0703125 10.8672 0.0703125 10.8047C0.0859375 10.7422 0.0859375 10.6719 0.0703125 10.5938C0.0390625 10.5 0.0234375 10.4453 0.0234375 10.4297C0.0390625 10.3984 0.046875 10.3672 0.046875 10.3359C0.046875 10.2891 0.0390625 10.2344 0.0234375 10.1719C0.0078125 10.1094 0.015625 10.0469 0.046875 9.98438C0.140625 9.67188 0.210938 9.38281 0.257812 9.11719C0.320312 8.83594 0.375 8.5625 0.421875 8.29688C0.5 8.23438 0.570312 8.125 0.632812 7.96875C0.726562 7.82812 0.78125 7.75 0.796875 7.73438C0.890625 7.64062 0.953125 7.57812 0.984375 7.54688C1.03125 7.48438 1.07812 7.4375 1.125 7.40625C1.1875 7.375 1.23438 7.32812 1.26562 7.26562C1.34375 7.23438 1.40625 7.1875 1.45312 7.125C1.51562 7.0625 1.57031 7 1.61719 6.9375C1.78906 6.82812 1.89844 6.75 1.94531 6.70312C2.00781 6.64062 2.08594 6.59375 2.17969 6.5625C2.33594 6.51562 2.42969 6.45312 2.46094 6.375C2.50781 6.28125 2.58594 6.24219 2.69531 6.25781C2.72656 6.22656 2.76562 6.19531 2.8125 6.16406C2.85938 6.13281 2.90625 6.10156 2.95312 6.07031C3.03125 6.02344 3.10156 5.98438 3.16406 5.95312C3.24219 5.92188 3.32812 5.89062 3.42188 5.85938C3.5 5.82812 3.57812 5.80469 3.65625 5.78906C3.73438 5.75781 3.8125 5.72656 3.89062 5.69531C4.10938 5.71094 4.25781 5.70312 4.33594 5.67188C4.42969 5.64062 4.50781 5.60938 4.57031 5.57812C4.74219 5.59375 4.83594 5.60938 4.85156 5.625C4.88281 5.64062 4.91406 5.64844 4.94531 5.64844C5.02344 5.64844 5.08594 5.64844 5.13281 5.64844C5.19531 5.63281 5.26562 5.64062 5.34375 5.67188C5.40625 5.70312 5.47656 5.73438 5.55469 5.76562C5.64844 5.78125 5.73438 5.79688 5.8125 5.8125C5.92188 5.9375 6.07031 6.02344 6.25781 6.07031C6.33594 6.22656 6.39062 6.33594 6.42188 6.39844C6.46875 6.46094 6.53125 6.5 6.60938 6.51562C6.625 6.5625 6.64062 6.60938 6.65625 6.65625C6.6875 6.70312 6.71875 6.75781 6.75 6.82031C6.79688 6.86719 6.82812 6.94531 6.84375 7.05469C6.85938 7.14844 6.86719 7.22656 6.86719 7.28906C6.83594 7.39844 6.82031 7.46875 6.82031 7.5C6.83594 7.51562 6.82812 7.53125 6.79688 7.54688C6.78125 7.70312 6.75781 7.8125 6.72656 7.875C6.69531 7.92188 6.64062 7.96094 6.5625 7.99219C6.46875 8.13281 6.39844 8.23438 6.35156 8.29688C6.30469 8.35938 6.25 8.41406 6.1875 8.46094C6.03125 8.49219 5.9375 8.53125 5.90625 8.57812C5.71875 8.64062 5.61719 8.67969 5.60156 8.69531C5.49219 8.80469 5.41406 8.85938 5.36719 8.85938C5.32031 8.85938 5.28125 8.88281 5.25 8.92969C4.95312 8.92969 4.79688 8.84375 4.78125 8.67188C4.90625 8.53125 4.97656 8.44531 4.99219 8.41406C5.00781 8.38281 5.03906 8.375 5.08594 8.39062C5.11719 8.26562 5.125 8.17969 5.10938 8.13281C5.10938 8.08594 5.10938 8.03906 5.10938 7.99219C5.10938 7.94531 5.11719 7.89844 5.13281 7.85156C5.14844 7.80469 5.13281 7.75781 5.08594 7.71094C4.96094 7.61719 4.89062 7.57031 4.875 7.57031C4.85938 7.55469 4.83594 7.53125 4.80469 7.5C4.69531 7.42188 4.64062 7.375 4.64062 7.35938C4.64062 7.32812 4.625 7.30469 4.59375 7.28906C4.48438 7.21094 4.40625 7.17188 4.35938 7.17188C4.3125 7.17188 4.26562 7.16406 4.21875 7.14844C4.125 7.07031 4.05469 7.03125 4.00781 7.03125C3.96094 7.03125 3.92188 7.02344 3.89062 7.00781C3.65625 6.94531 3.53125 6.91406 3.51562 6.91406C3.45312 6.91406 3.39844 6.92188 3.35156 6.9375C3.30469 6.95312 3.25 6.94531 3.1875 6.91406C3.14062 6.94531 3.10156 6.96094 3.07031 6.96094C3.03906 6.96094 2.98438 6.96875 2.90625 6.98438C2.78125 7.03125 2.69531 7.05469 2.64844 7.05469C2.60156 7.05469 2.54688 7.09375 2.48438 7.17188C2.34375 7.34375 2.25781 7.44531 2.22656 7.47656C2.19531 7.50781 2.17969 7.55469 2.17969 7.61719C2.10156 7.75781 2.04688 7.85156 2.01562 7.89844C1.98438 7.94531 1.98438 7.98438 2.01562 8.01562C1.92188 8.17188 1.875 8.25781 1.875 8.27344C1.89062 8.28906 1.89062 8.3125 1.875 8.34375C1.8125 8.57812 1.77344 8.76562 1.75781 8.90625C1.74219 9.04688 1.72656 9.1875 1.71094 9.32812C1.67969 9.48438 1.66406 9.57031 1.66406 9.58594C1.69531 9.74219 1.71094 9.84375 1.71094 9.89062C1.75781 10.0312 1.78125 10.1172 1.78125 10.1484C1.78125 10.1797 1.79688 10.1875 1.82812 10.1719C1.85938 10.5312 1.9375 10.7734 2.0625 10.8984C2.0625 10.9922 2.08594 11.0781 2.13281 11.1562C2.19531 11.2188 2.23438 11.2969 2.25 11.3906C2.3125 11.4531 2.35156 11.5234 2.36719 11.6016C2.39844 11.6641 2.45312 11.7188 2.53125 11.7656C2.60938 11.9375 2.65625 12.0312 2.67188 12.0469C2.6875 12.0469 2.70312 12.0547 2.71875 12.0703L2.90625 12.2578C3 12.2891 3.04688 12.3203 3.04688 12.3516C3.0625 12.3828 3.08594 12.4141 3.11719 12.4453C3.27344 12.4766 3.36719 12.5234 3.39844 12.5859C3.52344 12.5859 3.60938 12.625 3.65625 12.7031C3.73438 12.6875 3.78125 12.7031 3.79688 12.75C3.8125 12.7969 3.85938 12.8125 3.9375 12.7969C4.07812 12.8594 4.19531 12.8984 4.28906 12.9141C4.38281 12.9297 4.44531 12.9688 4.47656 13.0312C4.53906 13 4.59375 13 4.64062 13.0312C4.6875 13.0469 4.74219 13.0547 4.80469 13.0547C4.92969 13.0859 5.03125 13.1016 5.10938 13.1016C5.17188 13.1016 5.22656 13.0938 5.27344 13.0781C5.32031 13.0469 5.36719 13.0312 5.41406 13.0312C5.55469 13.0312 5.64844 13.0078 5.69531 12.9609C5.75781 12.9141 5.82812 12.8984 5.90625 12.9141C5.96875 12.8828 6.02344 12.8516 6.07031 12.8203C6.11719 12.7734 6.1875 12.7422 6.28125 12.7266C6.32812 12.6953 6.35938 12.6562 6.375 12.6094C6.39062 12.5625 6.42969 12.5391 6.49219 12.5391C6.49219 12.4766 6.52344 12.4531 6.58594 12.4688C6.66406 12.4688 6.69531 12.4297 6.67969 12.3516C6.85156 12.1953 6.95312 12.1328 6.98438 12.1641C7.01562 12.1797 7.03906 12.1484 7.05469 12.0703C7.11719 12.0703 7.17188 12.0781 7.21875 12.0938C7.28125 12.0938 7.33594 12.0859 7.38281 12.0703C7.41406 12.2266 7.36719 12.3281 7.24219 12.375L7.05469 12.6562C6.94531 12.75 6.88281 12.7969 6.86719 12.7969C6.86719 12.7969 6.86719 12.8125 6.86719 12.8438C6.72656 12.9375 6.625 13.0234 6.5625 13.1016C6.5 13.1797 6.46094 13.2422 6.44531 13.2891C6.36719 13.3047 6.32031 13.3438 6.30469 13.4062C6.28906 13.4688 6.24219 13.5 6.16406 13.5C6.08594 13.5938 5.98438 13.6484 5.85938 13.6641C5.75 13.6797 5.66406 13.7266 5.60156 13.8047L5.36719 13.8516ZM9 8.41406C9.03125 8.33594 9.0625 8.26562 9.09375 8.20312C9.14062 8.125 9.20312 8.07031 9.28125 8.03906C9.29688 7.94531 9.33594 7.88281 9.39844 7.85156C9.46094 7.82031 9.5 7.75781 9.51562 7.66406C9.625 7.60156 9.70312 7.52344 9.75 7.42969C9.89062 7.33594 9.96094 7.29688 9.96094 7.3125C9.96094 7.3125 9.97656 7.3125 10.0078 7.3125C10.1484 7.20312 10.2344 7.125 10.2656 7.07812C10.2969 7.03125 10.3359 6.99219 10.3828 6.96094C10.4922 6.89844 10.5625 6.85156 10.5938 6.82031C10.625 6.78906 10.6562 6.75781 10.6875 6.72656C10.8125 6.66406 10.8828 6.63281 10.8984 6.63281C10.9297 6.63281 10.9609 6.625 10.9922 6.60938C11.1484 6.5 11.2422 6.4375 11.2734 6.42188C11.3047 6.40625 11.3281 6.375 11.3438 6.32812C11.6406 6.25 11.8594 6.17188 12 6.09375C12.1094 6.0625 12.1875 6.05469 12.2344 6.07031C12.2812 6.07031 12.3281 6.0625 12.375 6.04688C12.6094 6.01562 12.7578 6.01562 12.8203 6.04688C12.8984 6.07812 12.9766 6.09375 13.0547 6.09375C13.1797 6.09375 13.2578 6.11719 13.2891 6.16406C13.3203 6.19531 13.3594 6.21094 13.4062 6.21094C13.4531 6.38281 13.5 6.49219 13.5469 6.53906C13.6094 6.57031 13.6953 6.59375 13.8047 6.60938C13.9922 6.73438 14.0859 6.82031 14.0859 6.86719C14.1953 6.91406 14.2891 6.96875 14.3672 7.03125C14.4609 7.09375 14.5312 7.1875 14.5781 7.3125C14.7031 7.39062 14.7812 7.44531 14.8125 7.47656C14.8438 7.50781 14.8672 7.54688 14.8828 7.59375C15.0234 7.75 15.1016 7.85938 15.1172 7.92188C15.1484 7.98438 15.1875 8.03125 15.2344 8.0625C15.2656 8.1875 15.2891 8.30469 15.3047 8.41406C15.3203 8.50781 15.3125 8.61719 15.2812 8.74219C15.3281 9.00781 15.2812 9.21094 15.1406 9.35156C15.1094 9.53906 15.1094 9.64062 15.1406 9.65625C15.1719 9.65625 15.1797 9.67188 15.1641 9.70312C15.1328 9.8125 15.1094 9.89062 15.0938 9.9375C15.0781 9.98438 15.0625 10.0312 15.0469 10.0781C15 10.2344 14.9844 10.3281 15 10.3594C15.0156 10.375 15.0156 10.3984 15 10.4297C14.8906 10.5859 14.8281 10.6797 14.8125 10.7109C14.7969 10.7422 14.7891 10.7812 14.7891 10.8281C14.6328 10.9219 14.5547 10.9766 14.5547 10.9922C14.5703 11.0078 14.5781 11.0469 14.5781 11.1094C14.4375 11.2812 14.3594 11.3906 14.3438 11.4375C14.3438 11.4688 14.3125 11.4922 14.25 11.5078C14.1875 11.6016 14.1094 11.6953 14.0156 11.7891C13.875 11.8828 13.7812 11.9453 13.7344 11.9766C13.7031 11.9922 13.6875 12.0234 13.6875 12.0703C13.5938 12.1484 13.5391 12.2031 13.5234 12.2344C13.5078 12.2656 13.4922 12.2969 13.4766 12.3281C13.3203 12.375 13.2422 12.4062 13.2422 12.4219C13.2422 12.4375 13.2344 12.4453 13.2188 12.4453C13.0781 12.5078 12.9844 12.5625 12.9375 12.6094C12.9062 12.6406 12.8672 12.6719 12.8203 12.7031C12.7266 12.7031 12.6484 12.7344 12.5859 12.7969C12.5234 12.8438 12.4531 12.8828 12.375 12.9141C12.3281 12.9453 12.2812 12.9688 12.2344 12.9844C12.1875 13 12.1484 13.0312 12.1172 13.0781C11.8672 13.1562 11.6641 13.2422 11.5078 13.3359C11.3516 13.4297 11.1797 13.4453 10.9922 13.3828C10.7891 13.4297 10.6797 13.4453 10.6641 13.4297C10.6484 13.4141 10.625 13.3984 10.5938 13.3828C10.4531 13.4453 10.3594 13.4766 10.3125 13.4766C10.2656 13.4766 10.2031 13.4609 10.125 13.4297C9.96875 13.3828 9.85938 13.3594 9.79688 13.3594C9.64062 13.2656 9.53125 13.2109 9.46875 13.1953C9.42188 13.1641 9.375 13.1328 9.32812 13.1016C9.28125 13.0703 9.22656 13.0391 9.16406 13.0078C9.11719 12.9609 9.09375 12.8984 9.09375 12.8203C8.96875 12.6953 8.90625 12.6328 8.90625 12.6328C8.82812 12.4297 8.75781 12.3203 8.69531 12.3047C8.66406 12.1484 8.63281 12.0547 8.60156 12.0234C8.55469 11.8984 8.52344 11.8359 8.50781 11.8359C8.50781 11.8203 8.5 11.7891 8.48438 11.7422C8.48438 11.7109 8.47656 11.6641 8.46094 11.6016C8.44531 11.5234 8.4375 11.4609 8.4375 11.4141C8.39062 11.1016 8.36719 10.8828 8.36719 10.7578C8.38281 10.6328 8.375 10.5078 8.34375 10.3828C8.375 10.3516 8.38281 10.3203 8.36719 10.2891C8.36719 10.2422 8.375 10.1797 8.39062 10.1016C8.40625 9.96094 8.42188 9.88281 8.4375 9.86719C8.45312 9.83594 8.46094 9.80469 8.46094 9.77344C8.47656 9.63281 8.50781 9.5 8.55469 9.375C8.57031 9.32812 8.58594 9.28906 8.60156 9.25781C8.63281 9.21094 8.64062 9.15625 8.625 9.09375C8.71875 9.04688 8.77344 8.97656 8.78906 8.88281C8.82031 8.77344 8.85938 8.67969 8.90625 8.60156L9 8.41406ZM12.4453 7.80469C12.3516 7.75781 12.2969 7.72656 12.2812 7.71094C12.2656 7.67969 12.2422 7.65625 12.2109 7.64062C12.0391 7.59375 11.9375 7.58594 11.9062 7.61719C11.8906 7.63281 11.8672 7.63281 11.8359 7.61719C11.7578 7.61719 11.6797 7.60156 11.6016 7.57031C11.5234 7.53906 11.4609 7.5625 11.4141 7.64062C11.2422 7.65625 11.1484 7.65625 11.1328 7.64062C11.0859 7.67188 11.0312 7.69531 10.9688 7.71094C10.9219 7.72656 10.8828 7.75 10.8516 7.78125C10.8047 7.875 10.7656 7.9375 10.7344 7.96875C10.7031 7.98438 10.6953 8.01562 10.7109 8.0625C10.6641 8.125 10.5938 8.20312 10.5 8.29688C10.4531 8.54688 10.4062 8.71094 10.3594 8.78906C10.3125 8.85156 10.2578 8.90625 10.1953 8.95312C10.2109 9.03125 10.2109 9.11719 10.1953 9.21094C10.1953 9.28906 10.1719 9.35156 10.125 9.39844C10.0625 9.63281 10.0391 9.77344 10.0547 9.82031C10.0859 9.85156 10.0938 9.90625 10.0781 9.98438C10.0156 10.1875 10.0078 10.2891 10.0547 10.2891C10.1016 10.2734 10.1172 10.2891 10.1016 10.3359C10.1016 10.5078 10.1094 10.6016 10.125 10.6172C10.1562 10.6172 10.1719 10.6328 10.1719 10.6641L10.2422 10.9453C10.3047 11.0703 10.3281 11.1406 10.3125 11.1562C10.2969 11.1719 10.2891 11.1953 10.2891 11.2266C10.3828 11.3672 10.4375 11.4531 10.4531 11.4844C10.4844 11.5156 10.5156 11.5469 10.5469 11.5781C10.5625 11.7031 10.5781 11.7812 10.5938 11.8125C10.625 11.8281 10.625 11.8516 10.5938 11.8828C10.6719 11.8984 10.7344 11.9141 10.7812 11.9297C10.8438 11.9453 10.8906 11.9922 10.9219 12.0703C11.0469 12.1016 11.1172 12.1562 11.1328 12.2344C11.3828 12.2969 11.5469 12.3281 11.625 12.3281C11.7031 12.3125 11.8047 12.2891 11.9297 12.2578C12.1641 12.2734 12.3203 12.2656 12.3984 12.2344C12.4766 12.1875 12.5312 12.1328 12.5625 12.0703C12.625 12.0078 12.6719 11.9688 12.7031 11.9531C12.7344 11.9219 12.7656 11.8906 12.7969 11.8594C12.875 11.7188 12.9375 11.6172 12.9844 11.5547C13.0469 11.4766 13.0703 11.3906 13.0547 11.2969C13.3047 10.9688 13.4219 10.6484 13.4062 10.3359C13.4688 10.1484 13.4922 10.0469 13.4766 10.0312C13.4609 10 13.4531 9.96875 13.4531 9.9375C13.5156 9.84375 13.5312 9.73438 13.5 9.60938C13.4844 9.46875 13.4609 9.35156 13.4297 9.25781C13.3984 9.08594 13.3828 8.99219 13.3828 8.97656C13.3984 8.94531 13.4062 8.92188 13.4062 8.90625C13.2969 8.75 13.2344 8.66406 13.2188 8.64844C13.1406 8.49219 13.0703 8.38281 13.0078 8.32031C12.9453 8.25781 12.8906 8.17969 12.8438 8.08594C12.75 8.00781 12.6953 7.96094 12.6797 7.94531C12.6641 7.92969 12.6484 7.90625 12.6328 7.875L12.4453 7.80469ZM24.9844 13.8516C25.0156 14.0078 25.0234 14.0938 25.0078 14.1094C24.9922 14.1094 24.9922 14.125 25.0078 14.1562L25.0547 14.4141C25.1016 14.4766 25.1172 14.5312 25.1016 14.5781C25.1016 14.625 25.125 14.6641 25.1719 14.6953C25.1875 14.8359 25.2031 14.9219 25.2188 14.9531C25.2344 15 25.2578 15.0312 25.2891 15.0469C25.2734 15.125 25.2734 15.1797 25.2891 15.2109C25.3047 15.2422 25.3203 15.2734 25.3359 15.3047C25.4297 15.4297 25.4844 15.4922 25.5 15.4922C25.5156 15.5078 25.5234 15.5312 25.5234 15.5625C25.7422 15.7969 25.9688 15.9531 26.2031 16.0312L26.6016 16.1484C26.7578 16.0703 26.8359 16.0312 26.8359 16.0312C26.9766 15.9688 27.0469 15.9453 27.0469 15.9609C27.0625 15.9922 27.0859 16 27.1172 15.9844C27.1953 15.875 27.2422 15.8125 27.2578 15.7969C27.2891 15.7969 27.3047 15.7812 27.3047 15.75C27.3828 15.875 27.4219 15.9531 27.4219 15.9844C27.4219 16.0312 27.3984 16.0703 27.3516 16.1016C27.3516 16.1641 27.3359 16.2188 27.3047 16.2656C27.2734 16.3281 27.25 16.375 27.2344 16.4062C27.1719 16.4375 27.1172 16.4688 27.0703 16.5C27.0391 16.5469 27 16.5703 26.9531 16.5703C26.8438 16.6484 26.7812 16.6953 26.7656 16.7109C26.7656 16.7266 26.75 16.7344 26.7188 16.7344C26.5312 16.8281 26.4375 16.875 26.4375 16.875C26.4375 16.8906 26.4219 16.9141 26.3906 16.9453C26.2969 16.9453 26.2109 16.9766 26.1328 17.0391C26.0547 17.1016 25.9766 17.1172 25.8984 17.0859C25.6641 17.1016 25.5078 17.125 25.4297 17.1562C25.3672 17.2031 25.3047 17.2266 25.2422 17.2266C25.1172 17.1953 25.0312 17.1484 24.9844 17.0859C24.7344 17.0234 24.5312 17 24.375 17.0156C24.25 16.8906 24.1797 16.8203 24.1641 16.8047C24.1484 16.7891 24.125 16.7812 24.0938 16.7812C24 16.6719 23.8906 16.5781 23.7656 16.5C23.6719 16.3125 23.6094 16.2031 23.5781 16.1719C23.5469 16.1406 23.5234 16.0938 23.5078 16.0312C23.4766 15.9219 23.4531 15.8516 23.4375 15.8203C23.4219 15.8047 23.4141 15.7734 23.4141 15.7266C23.3984 15.5859 23.375 15.4766 23.3438 15.3984C23.3281 15.3359 23.3125 15.2656 23.2969 15.1875C23.3125 15.0469 23.3047 14.9453 23.2734 14.8828C23.2734 14.7109 23.2578 14.5781 23.2266 14.4844C23.2109 14.3906 23.2031 14.3047 23.2031 14.2266C23.2031 14.1641 23.2109 14.1016 23.2266 14.0391C23.2422 13.9609 23.2266 13.9062 23.1797 13.875C23.1953 13.7031 23.2031 13.6172 23.2031 13.6172C23.2188 13.6016 23.2266 13.5781 23.2266 13.5469C23.2266 13.5 23.2188 13.4531 23.2031 13.4062C23.1875 13.3594 23.1719 13.3047 23.1562 13.2422C23.1406 13.1641 23.1328 13.0859 23.1328 13.0078C23.1484 12.9141 23.1484 12.8281 23.1328 12.75C23.1328 12.7031 23.125 12.6562 23.1094 12.6094C23.1094 12.5469 23.1094 12.4922 23.1094 12.4453C23.125 12.2891 23.125 12.1953 23.1094 12.1641C23.0938 12.1328 23.0859 12.0938 23.0859 12.0469C23.0859 11.9062 23.0781 11.8281 23.0625 11.8125C23.0469 11.7969 23.0391 11.7812 23.0391 11.7656C23.0547 11.6719 23.0547 11.6172 23.0391 11.6016C23.0234 11.5703 23.0156 11.5391 23.0156 11.5078C22.9844 11.3672 22.9688 11.2891 22.9688 11.2734C22.9844 11.2422 22.9922 11.2109 22.9922 11.1797C22.9609 11.0547 22.9531 10.9766 22.9688 10.9453C22.9844 10.8984 22.9766 10.8516 22.9453 10.8047C22.9453 10.6484 22.9375 10.5625 22.9219 10.5469C22.9062 10.5312 22.8984 10.5156 22.8984 10.5C22.9141 10.4062 22.9141 10.3359 22.8984 10.2891C22.8984 10.2422 22.8984 10.2031 22.8984 10.1719C22.8359 9.98438 22.8047 9.85938 22.8047 9.79688C22.8047 9.73438 22.7969 9.67188 22.7812 9.60938C22.75 9.53125 22.7188 9.46094 22.6875 9.39844C22.6719 9.32031 22.6562 9.24219 22.6406 9.16406C22.5938 9.08594 22.5469 9.02344 22.5 8.97656C22.4531 8.91406 22.4453 8.85156 22.4766 8.78906C22.3359 8.74219 22.2656 8.71094 22.2656 8.69531C22.2812 8.67969 22.2734 8.67188 22.2422 8.67188C22.1016 8.6875 22.0078 8.71094 21.9609 8.74219C21.8984 8.89844 21.8359 9 21.7734 9.04688C21.7109 9.09375 21.6641 9.16406 21.6328 9.25781C21.5391 9.38281 21.4844 9.46094 21.4688 9.49219C21.4531 9.50781 21.4453 9.55469 21.4453 9.63281C21.3516 9.64844 21.2891 9.69531 21.2578 9.77344C21.2422 9.85156 21.1875 9.89844 21.0938 9.91406C21.0781 10.1016 21.0547 10.2109 21.0234 10.2422C21.0078 10.2578 21 10.2969 21 10.3594C20.9219 10.3906 20.875 10.4375 20.8594 10.5C20.8438 10.5625 20.8203 10.6328 20.7891 10.7109C20.7734 10.7578 20.7422 10.8047 20.6953 10.8516C20.6641 10.8828 20.6484 10.9375 20.6484 11.0156C20.5703 11.1094 20.5234 11.1719 20.5078 11.2031C20.4922 11.2188 20.4922 11.25 20.5078 11.2969C20.4141 11.4375 20.3672 11.5156 20.3672 11.5312C20.3828 11.5469 20.3828 11.5625 20.3672 11.5781C20.2891 11.7188 20.25 11.7969 20.25 11.8125C20.2188 11.875 20.2031 11.9297 20.2031 11.9766C20.2188 12.0234 20.2188 12.0781 20.2031 12.1406C20.125 12.2969 20.0781 12.3984 20.0625 12.4453C20.0469 12.4766 20.0234 12.5156 19.9922 12.5625C20.0234 12.6406 20.0234 12.7109 19.9922 12.7734C19.9766 12.8203 19.9531 12.8672 19.9219 12.9141C19.8438 13.0859 19.8047 13.2188 19.8047 13.3125C19.8047 13.3906 19.7812 13.4531 19.7344 13.5C19.7344 13.6406 19.7109 13.7422 19.6641 13.8047C19.6328 13.9609 19.625 14.0547 19.6406 14.0859C19.6562 14.1016 19.6406 14.1016 19.5938 14.0859C19.6406 14.1797 19.6797 14.3203 19.7109 14.5078C19.7109 14.5703 19.7031 14.6406 19.6875 14.7188C19.6875 14.7969 19.7031 14.8594 19.7344 14.9062C19.7969 15.0938 19.8125 15.2031 19.7812 15.2344C19.7656 15.2656 19.75 15.3047 19.7344 15.3516C19.6406 15.4453 19.5703 15.5156 19.5234 15.5625C19.3672 15.6406 19.2812 15.6875 19.2656 15.7031C19.1406 15.8125 19.0703 15.8828 19.0547 15.9141C19.0547 15.9453 19.0391 15.9766 19.0078 16.0078C18.8516 16.0703 18.7734 16.1172 18.7734 16.1484C18.7734 16.1797 18.7578 16.1953 18.7266 16.1953C18.6016 16.2891 18.4766 16.3516 18.3516 16.3828C18.2422 16.4141 18.1484 16.3906 18.0703 16.3125C18.0234 16.1875 17.9844 16.1172 17.9531 16.1016C17.9375 16.0859 17.9141 16.0625 17.8828 16.0312C17.9766 15.8906 18.0078 15.8047 17.9766 15.7734C17.9609 15.7422 17.9531 15.7109 17.9531 15.6797C17.9688 15.4609 17.9688 15.2891 17.9531 15.1641C17.9531 15.0547 17.9609 14.9609 17.9766 14.8828C17.9922 14.7266 17.9922 14.6328 17.9766 14.6016C17.9609 14.5703 17.9453 14.5391 17.9297 14.5078C17.9766 14.3672 17.9844 14.2656 17.9531 14.2031C17.9219 14.125 17.9062 14.0469 17.9062 13.9688C17.9062 13.9062 17.9141 13.8438 17.9297 13.7812C17.9453 13.7188 17.9297 13.6641 17.8828 13.6172C17.8672 13.4453 17.8672 13.3594 17.8828 13.3594C17.8984 13.3594 17.9062 13.3438 17.9062 13.3125C17.9219 13.125 17.9062 12.9453 17.8594 12.7734C17.8281 12.5859 17.8047 12.3984 17.7891 12.2109C17.8047 12.0391 17.8047 11.9453 17.7891 11.9297C17.7891 11.8984 17.7734 11.875 17.7422 11.8594C17.7734 11.7812 17.7734 11.7109 17.7422 11.6484C17.7266 11.5703 17.7266 11.4844 17.7422 11.3906C17.6953 11.1875 17.6719 11.0703 17.6719 11.0391C17.6875 11.0078 17.6797 10.9531 17.6484 10.875C17.6172 10.6875 17.5859 10.5781 17.5547 10.5469C17.5391 10.5156 17.5234 10.4844 17.5078 10.4531C17.5078 10.375 17.5078 10.2891 17.5078 10.1953C17.5078 10.1016 17.4922 10.0156 17.4609 9.9375L17.4141 9.60938C17.3984 9.54688 17.375 9.49219 17.3438 9.44531C17.3125 9.38281 17.3047 9.32031 17.3203 9.25781C17.2578 9.08594 17.2188 8.99219 17.2031 8.97656C17.1875 8.96094 17.1875 8.92188 17.2031 8.85938C17.125 8.75 17.0938 8.6875 17.1094 8.67188C17.1406 8.64062 17.1406 8.60938 17.1094 8.57812C16.9219 8.5 16.8125 8.49219 16.7812 8.55469C16.7656 8.60156 16.7188 8.61719 16.6406 8.60156C16.4844 8.67969 16.3828 8.74219 16.3359 8.78906C16.3047 8.82031 16.2656 8.85156 16.2188 8.88281C16.1406 8.88281 16.0781 8.875 16.0312 8.85938C15.9844 8.84375 15.9297 8.82812 15.8672 8.8125C15.8359 8.73438 15.8281 8.66406 15.8438 8.60156C15.8594 8.53906 15.8828 8.46875 15.9141 8.39062C16.0234 8.32812 16.0859 8.28906 16.1016 8.27344C16.1172 8.25781 16.125 8.22656 16.125 8.17969C16.2656 8.10156 16.3516 8.03125 16.3828 7.96875C16.4297 7.90625 16.4688 7.83594 16.5 7.75781C16.6562 7.72656 16.7656 7.6875 16.8281 7.64062C16.9062 7.59375 16.9688 7.53125 17.0156 7.45312C17.0938 7.4375 17.1562 7.40625 17.2031 7.35938C17.25 7.3125 17.2891 7.25781 17.3203 7.19531C17.4453 7.21094 17.5156 7.20312 17.5312 7.17188C17.5469 7.14062 17.5703 7.10156 17.6016 7.05469C17.6797 7.05469 17.7422 7.03906 17.7891 7.00781C17.8359 6.96094 17.875 6.92188 17.9062 6.89062C17.9844 6.92188 18.0547 6.9375 18.1172 6.9375C18.1797 6.9375 18.2344 6.95312 18.2812 6.98438C18.4062 7.03125 18.4766 7.07031 18.4922 7.10156C18.5078 7.13281 18.5312 7.15625 18.5625 7.17188C18.5312 7.32812 18.5547 7.46094 18.6328 7.57031C18.7266 7.67969 18.7812 7.82031 18.7969 7.99219C18.8438 8.14844 18.8828 8.26562 18.9141 8.34375C18.9609 8.42188 18.9922 8.5 19.0078 8.57812C18.9922 8.84375 19 9.03125 19.0312 9.14062C19.0781 9.25 19.1094 9.36719 19.125 9.49219C19.0781 9.60156 19.0703 9.67969 19.1016 9.72656C19.1328 9.75781 19.1562 9.79688 19.1719 9.84375C19.1719 10 19.1797 10.1016 19.1953 10.1484C19.2109 10.1797 19.2031 10.1953 19.1719 10.1953C19.2031 10.4141 19.2344 10.5781 19.2656 10.6875C19.2969 10.7969 19.3125 10.8984 19.3125 10.9922C19.3906 10.9922 19.4375 10.9766 19.4531 10.9453C19.4688 10.8984 19.4922 10.8594 19.5234 10.8281C19.5391 10.7969 19.5625 10.7422 19.5938 10.6641C19.625 10.5703 19.6562 10.5156 19.6875 10.5C19.7188 10.4688 19.75 10.4141 19.7812 10.3359C19.8125 10.2578 19.8359 10.1719 19.8516 10.0781C19.9297 9.9375 19.9922 9.86719 20.0391 9.86719C20.0859 9.85156 20.1172 9.82031 20.1328 9.77344C20.1797 9.69531 20.2031 9.63281 20.2031 9.58594C20.2188 9.53906 20.2578 9.52344 20.3203 9.53906C20.3828 9.41406 20.4219 9.34375 20.4375 9.32812C20.4688 9.3125 20.4844 9.29688 20.4844 9.28125C20.5 9.20312 20.5312 9.14844 20.5781 9.11719C20.6406 9.08594 20.6562 9.03906 20.625 8.97656C20.7812 8.83594 20.8828 8.75 20.9297 8.71875C20.9766 8.6875 21.0234 8.64844 21.0703 8.60156C21.0547 8.52344 21.0703 8.48438 21.1172 8.48438C21.1641 8.48438 21.1875 8.44531 21.1875 8.36719C21.3594 8.24219 21.4609 8.16406 21.4922 8.13281C21.5391 8.08594 21.5859 8.04688 21.6328 8.01562C21.7578 7.90625 21.8203 7.84375 21.8203 7.82812C21.9609 7.79688 22.0469 7.74219 22.0781 7.66406C22.2344 7.61719 22.3359 7.57031 22.3828 7.52344C22.5703 7.44531 22.6953 7.39062 22.7578 7.35938C22.8359 7.32812 22.8984 7.30469 22.9453 7.28906C23.0859 7.28906 23.1641 7.29688 23.1797 7.3125C23.2109 7.3125 23.25 7.32031 23.2969 7.33594C23.4844 7.38281 23.5859 7.39844 23.6016 7.38281C23.6172 7.36719 23.6406 7.35938 23.6719 7.35938C23.7656 7.5 23.8281 7.5625 23.8594 7.54688C23.9375 7.70312 24 7.78906 24.0469 7.80469C24.0625 7.88281 24.0938 7.94531 24.1406 7.99219C24.1875 8.02344 24.2109 8.09375 24.2109 8.20312C24.2891 8.35938 24.3281 8.45312 24.3281 8.48438C24.3281 8.5 24.3359 8.53906 24.3516 8.60156C24.3984 8.72656 24.4219 8.82031 24.4219 8.88281C24.4219 8.92969 24.4297 8.99219 24.4453 9.07031C24.4922 9.21094 24.5156 9.32031 24.5156 9.39844C24.5156 9.46094 24.5234 9.53125 24.5391 9.60938C24.5547 9.67188 24.5703 9.73438 24.5859 9.79688C24.6172 9.84375 24.625 9.89844 24.6094 9.96094L24.5391 10.3359C24.6172 10.5078 24.6641 10.6328 24.6797 10.7109C24.7109 10.7734 24.7344 10.8438 24.75 10.9219C24.7812 11.0938 24.8047 11.2188 24.8203 11.2969C24.8359 11.3594 24.8359 11.4219 24.8203 11.4844C24.7891 11.6094 24.7734 11.7031 24.7734 11.7656C24.7891 11.8281 24.7969 11.875 24.7969 11.9062C24.8438 12.0625 24.8594 12.1875 24.8438 12.2812C24.8438 12.3594 24.8594 12.4297 24.8906 12.4922C24.8906 12.6172 24.8906 12.7031 24.8906 12.75C24.8906 12.7969 24.8906 12.8438 24.8906 12.8906C24.9062 13.0156 24.9141 13.1016 24.9141 13.1484C24.9141 13.3047 24.9141 13.4141 24.9141 13.4766L24.9844 13.8516ZM28.8984 0.09375C28.9766 0.328125 29.0469 0.453125 29.1094 0.46875C29.1719 0.609375 29.2422 0.726562 29.3203 0.820312C29.3047 0.898438 29.3125 0.960938 29.3438 1.00781C29.375 1.03906 29.4062 1.07031 29.4375 1.10156C29.4219 1.27344 29.4609 1.42188 29.5547 1.54688C29.5234 1.625 29.5234 1.67969 29.5547 1.71094C29.5859 1.74219 29.5703 1.77344 29.5078 1.80469C29.6172 1.96094 29.6562 2.03906 29.625 2.03906C29.6094 2.03906 29.6016 2.05469 29.6016 2.08594C29.6328 2.13281 29.6406 2.21875 29.625 2.34375C29.6094 2.45312 29.6172 2.52344 29.6484 2.55469C29.7266 2.55469 29.7891 2.55469 29.8359 2.55469C29.8828 2.55469 29.9453 2.54688 30.0234 2.53125C30.2109 2.51562 30.3125 2.5 30.3281 2.48438C30.3594 2.46875 30.3906 2.45312 30.4219 2.4375C30.7344 2.42188 30.9219 2.42969 30.9844 2.46094C31.0625 2.44531 31.125 2.42188 31.1719 2.39062C31.2344 2.35938 31.3047 2.35938 31.3828 2.39062C31.4609 2.375 31.5156 2.35938 31.5469 2.34375C31.5938 2.32812 31.6328 2.33594 31.6641 2.36719C31.7109 2.30469 31.7734 2.28125 31.8516 2.29688C31.9297 2.29688 31.9844 2.27344 32.0156 2.22656C32.125 2.21094 32.2031 2.20312 32.25 2.20312C32.3125 2.1875 32.375 2.15625 32.4375 2.10938C32.625 2.25 32.7031 2.42188 32.6719 2.625C32.5156 2.76562 32.4219 2.82812 32.3906 2.8125C32.375 2.79688 32.3438 2.79688 32.2969 2.8125C32.2344 2.89062 32.1953 2.94531 32.1797 2.97656C32.1641 2.99219 32.1328 3.00781 32.0859 3.02344C31.9297 3.11719 31.8438 3.17969 31.8281 3.21094C31.8125 3.22656 31.7891 3.24219 31.7578 3.25781C31.6328 3.38281 31.5547 3.44531 31.5234 3.44531C31.4922 3.42969 31.4609 3.42969 31.4297 3.44531C31.2422 3.52344 31.1172 3.57812 31.0547 3.60938C30.9922 3.625 30.9062 3.61719 30.7969 3.58594C30.5781 3.61719 30.4375 3.64844 30.375 3.67969C30.3125 3.69531 30.2422 3.70312 30.1641 3.70312C30.1172 3.70312 30.0703 3.70312 30.0234 3.70312C29.9766 3.6875 29.9297 3.67969 29.8828 3.67969C29.7734 3.69531 29.6953 3.72656 29.6484 3.77344C29.6172 3.80469 29.5859 3.85938 29.5547 3.9375C29.5391 3.96875 29.5234 4.01562 29.5078 4.07812C29.4922 4.14062 29.4844 4.21094 29.4844 4.28906C29.5312 4.47656 29.5469 4.58594 29.5312 4.61719C29.5156 4.64844 29.5 4.6875 29.4844 4.73438C29.5 4.78125 29.5156 4.82812 29.5312 4.875C29.5469 4.90625 29.5547 4.95312 29.5547 5.01562C29.5547 5.09375 29.5469 5.16406 29.5312 5.22656C29.5312 5.28906 29.5391 5.36719 29.5547 5.46094C29.5703 5.57031 29.5703 5.63281 29.5547 5.64844C29.5391 5.66406 29.5312 5.6875 29.5312 5.71875C29.5469 5.875 29.5391 6.00781 29.5078 6.11719C29.4922 6.21094 29.4922 6.29688 29.5078 6.375C29.5234 6.51562 29.5234 6.60156 29.5078 6.63281C29.4922 6.64844 29.4766 6.67188 29.4609 6.70312C29.4297 6.79688 29.4297 6.90625 29.4609 7.03125C29.5078 7.14062 29.4922 7.23438 29.4141 7.3125C29.4609 7.53125 29.4609 7.72656 29.4141 7.89844C29.3672 8.07031 29.3828 8.20312 29.4609 8.29688C29.4141 8.4375 29.3906 8.51562 29.3906 8.53125C29.4062 8.53125 29.4141 8.53906 29.4141 8.55469C29.3828 8.72656 29.3672 8.82031 29.3672 8.83594C29.2734 9.02344 29.2422 9.14062 29.2734 9.1875C29.3047 9.23438 29.2969 9.27344 29.25 9.30469C29.2656 9.38281 29.2734 9.45312 29.2734 9.51562C29.2891 9.57812 29.2969 9.65625 29.2969 9.75C29.2969 9.78125 29.2891 9.82812 29.2734 9.89062C29.2578 9.9375 29.25 9.97656 29.25 10.0078C29.25 10.2266 29.25 10.375 29.25 10.4531C29.2656 10.5312 29.25 10.6094 29.2031 10.6875C29.2188 10.8594 29.2344 11.0078 29.25 11.1328C29.2656 11.2422 29.2891 11.3281 29.3203 11.3906C29.2734 11.5781 29.2578 11.7031 29.2734 11.7656C29.2891 11.9219 29.2891 12.0078 29.2734 12.0234C29.2578 12.0391 29.25 12.0547 29.25 12.0703C29.25 12.2266 29.2578 12.3359 29.2734 12.3984C29.2891 12.5547 29.3047 12.6406 29.3203 12.6562C29.3359 12.6719 29.3438 12.6875 29.3438 12.7031C29.3281 12.7969 29.3281 12.8672 29.3438 12.9141C29.3594 12.9453 29.3672 12.9688 29.3672 12.9844C29.3672 13.0938 29.3828 13.1641 29.4141 13.1953C29.4609 13.2266 29.4766 13.2734 29.4609 13.3359C29.4922 13.4453 29.5156 13.5078 29.5312 13.5234C29.5469 13.5391 29.5547 13.5703 29.5547 13.6172C29.6328 13.7578 29.6797 13.8438 29.6953 13.875C29.7266 13.8906 29.75 13.9141 29.7656 13.9453C29.875 14.1172 29.9531 14.2109 30 14.2266C30.0625 14.2422 30.1016 14.2812 30.1172 14.3438C30.2422 14.4688 30.3125 14.5312 30.3281 14.5312C30.4062 14.5156 30.4688 14.5234 30.5156 14.5547C30.5625 14.5859 30.625 14.5938 30.7031 14.5781C30.875 14.6719 30.9844 14.7031 31.0312 14.6719C31.0781 14.6406 31.1172 14.6406 31.1484 14.6719C31.4297 14.5781 31.5938 14.4609 31.6406 14.3203C31.7188 14.3203 31.7734 14.2969 31.8047 14.25C31.8516 14.1875 31.9297 14.1562 32.0391 14.1562C32.0859 14.125 32.1172 14.0859 32.1328 14.0391C32.1641 13.9922 32.1953 13.9531 32.2266 13.9219C32.2891 13.9375 32.3359 13.9453 32.3672 13.9453C32.3984 13.9297 32.4453 13.9219 32.5078 13.9219C32.5391 14.0156 32.5156 14.0625 32.4375 14.0625C32.3594 14.0625 32.3281 14.1094 32.3438 14.2031C32.25 14.3281 32.1875 14.4141 32.1562 14.4609C32.125 14.5078 32.0938 14.5469 32.0625 14.5781C31.875 14.7031 31.7188 14.7969 31.5938 14.8594C31.4688 14.9375 31.3672 15.0391 31.2891 15.1641C31.2109 15.1641 31.1406 15.1719 31.0781 15.1875C31.0156 15.2031 30.9375 15.2188 30.8438 15.2344C30.6875 15.3281 30.6094 15.3906 30.6094 15.4219C30.6094 15.4531 30.5938 15.4766 30.5625 15.4922C30.5312 15.5234 30.4844 15.5391 30.4219 15.5391C30.3594 15.5391 30.2969 15.5547 30.2344 15.5859C30.0625 15.6641 29.9688 15.6953 29.9531 15.6797C29.9375 15.6641 29.9141 15.6562 29.8828 15.6562C29.7578 15.7031 29.6719 15.7266 29.625 15.7266C29.5781 15.7266 29.5391 15.7422 29.5078 15.7734C29.4141 15.7578 29.3203 15.7422 29.2266 15.7266C29.1328 15.7266 29.0703 15.6875 29.0391 15.6094C28.9297 15.625 28.8516 15.6094 28.8047 15.5625C28.7734 15.5156 28.7422 15.4688 28.7109 15.4219C28.5703 15.375 28.4922 15.3281 28.4766 15.2812C28.4609 15.25 28.4141 15.2344 28.3359 15.2344C28.2266 15.0781 28.1641 14.9844 28.1484 14.9531C28.1328 14.9375 28.1172 14.9141 28.1016 14.8828C28.0234 14.8047 27.9688 14.7188 27.9375 14.625C27.9219 14.5156 27.8594 14.4375 27.75 14.3906C27.7344 14.2031 27.7188 14.1016 27.7031 14.0859C27.6875 14.0547 27.6797 14.0234 27.6797 13.9922C27.6172 13.8828 27.6094 13.7891 27.6562 13.7109C27.6094 13.6484 27.5938 13.5859 27.6094 13.5234C27.6406 13.4609 27.6172 13.4062 27.5391 13.3594C27.6016 13.3281 27.625 13.2891 27.6094 13.2422C27.5938 13.1953 27.5859 13.1172 27.5859 13.0078C27.6016 12.8828 27.6016 12.8125 27.5859 12.7969C27.5703 12.7656 27.5547 12.7188 27.5391 12.6562C27.5391 12.3906 27.5469 12.1953 27.5625 12.0703C27.5781 11.9297 27.5625 11.8203 27.5156 11.7422C27.5625 11.6328 27.5781 11.5547 27.5625 11.5078C27.5469 11.4453 27.5391 11.3984 27.5391 11.3672C27.5391 11.2891 27.5469 11.2188 27.5625 11.1562C27.5781 11.0781 27.5703 11.0078 27.5391 10.9453C27.5703 10.8047 27.5938 10.7109 27.6094 10.6641C27.6406 10.6016 27.6641 10.5391 27.6797 10.4766C27.6484 10.3047 27.6484 10.1797 27.6797 10.1016C27.7109 10.0078 27.7266 9.92188 27.7266 9.84375C27.7422 9.65625 27.7422 9.53125 27.7266 9.46875C27.7266 9.39062 27.7344 9.3125 27.75 9.23438C27.75 9.07812 27.7656 8.96875 27.7969 8.90625C27.7812 8.73438 27.7891 8.61719 27.8203 8.55469C27.8516 8.49219 27.8516 8.4375 27.8203 8.39062C27.8359 8.25 27.8516 8.15625 27.8672 8.10938C27.8828 8.04688 27.8906 8 27.8906 7.96875C27.8906 7.92188 27.8828 7.875 27.8672 7.82812C27.8516 7.76562 27.8438 7.71094 27.8438 7.66406C27.8438 7.50781 27.8672 7.375 27.9141 7.26562C27.9609 7.14062 27.9609 7.04688 27.9141 6.98438C27.9609 6.9375 27.9766 6.88281 27.9609 6.82031C27.9453 6.74219 27.9375 6.66406 27.9375 6.58594C27.9375 6.39844 27.9375 6.28125 27.9375 6.23438C27.9531 6.14062 27.9609 6.07812 27.9609 6.04688C27.9609 6.01562 27.9688 5.98438 27.9844 5.95312C27.9688 5.875 27.9688 5.79688 27.9844 5.71875C28 5.625 27.9922 5.53906 27.9609 5.46094C28.0078 5.35156 28.0234 5.24219 28.0078 5.13281C27.9922 5.00781 28.0078 4.91406 28.0547 4.85156C28.0234 4.78906 28.0234 4.73438 28.0547 4.6875C28.0859 4.625 28.1016 4.57031 28.1016 4.52344C28.0859 4.41406 28.0859 4.33594 28.1016 4.28906C28.1172 4.24219 28.125 4.20312 28.125 4.17188C27.9062 4.04688 27.7266 4.01562 27.5859 4.07812C27.4453 4.125 27.3047 4.125 27.1641 4.07812C27.0078 4.125 26.8828 4.15625 26.7891 4.17188C26.7109 4.17188 26.6328 4.17188 26.5547 4.17188C26.3516 4.20312 26.2422 4.21875 26.2266 4.21875C26.0703 4.1875 25.9844 4.1875 25.9688 4.21875C25.9531 4.25 25.9297 4.26562 25.8984 4.26562C25.8047 4.125 25.75 4.05469 25.7344 4.05469C25.7188 4.05469 25.7031 4.03906 25.6875 4.00781C25.6875 3.82031 25.7109 3.70312 25.7578 3.65625C25.7891 3.60938 25.8438 3.57812 25.9219 3.5625C26.0312 3.46875 26.0703 3.39062 26.0391 3.32812C26.2266 3.28125 26.3359 3.19531 26.3672 3.07031C26.4453 3.05469 26.5156 3.03906 26.5781 3.02344C26.6406 2.99219 26.6875 2.9375 26.7188 2.85938C26.9844 2.875 27.1719 2.85938 27.2812 2.8125C27.3125 2.8125 27.3516 2.8125 27.3984 2.8125C27.4609 2.79688 27.5078 2.78125 27.5391 2.76562C27.5859 2.76562 27.6641 2.78125 27.7734 2.8125C27.8828 2.82812 27.9609 2.82812 28.0078 2.8125C28.0234 2.71875 28.0312 2.57031 28.0312 2.36719C28.0469 2.16406 28.0234 2.03906 27.9609 1.99219C27.8828 1.88281 27.8359 1.78906 27.8203 1.71094C27.8203 1.61719 27.7812 1.55469 27.7031 1.52344C27.5781 1.42969 27.4766 1.375 27.3984 1.35938C27.3203 1.34375 27.2656 1.35156 27.2344 1.38281C27.0938 1.44531 27 1.49219 26.9531 1.52344C26.9219 1.53906 26.875 1.55469 26.8125 1.57031L26.4609 1.71094C26.4297 1.66406 26.3984 1.625 26.3672 1.59375C26.3359 1.54688 26.3203 1.48438 26.3203 1.40625C26.3672 1.29688 26.4062 1.23438 26.4375 1.21875C26.4688 1.20312 26.4844 1.16406 26.4844 1.10156C26.625 1.05469 26.7188 0.960938 26.7656 0.820312C26.8594 0.773438 26.9453 0.734375 27.0234 0.703125C27.1172 0.65625 27.1719 0.578125 27.1875 0.46875C27.2812 0.5 27.3672 0.492188 27.4453 0.445312C27.5391 0.398438 27.6016 0.335938 27.6328 0.257812C27.7734 0.226562 27.8594 0.210938 27.8906 0.210938C27.9375 0.195312 27.9609 0.171875 27.9609 0.140625C28.1484 0.078125 28.25 0.0546875 28.2656 0.0703125C28.2969 0.0703125 28.3281 0.0625 28.3594 0.046875C28.5469 0.015625 28.6406 0.015625 28.6406 0.046875C28.6406 0.0625 28.6484 0.078125 28.6641 0.09375H28.8984ZM39.0469 7.59375C39.0156 7.78125 39 7.88281 39 7.89844C39.0156 7.91406 39.0234 7.92969 39.0234 7.94531C39.0078 8.07031 39 8.15625 39 8.20312C39.0156 8.25 39.0156 8.29688 39 8.34375C38.9844 8.375 38.9531 8.41406 38.9062 8.46094C38.875 8.49219 38.875 8.53906 38.9062 8.60156C38.8125 8.72656 38.7812 8.79688 38.8125 8.8125C38.8438 8.82812 38.8594 8.84375 38.8594 8.85938C38.875 9.03125 38.875 9.14062 38.8594 9.1875C38.8438 9.23438 38.8359 9.27344 38.8359 9.30469C38.8359 9.50781 38.8203 9.625 38.7891 9.65625C38.8047 9.75 38.7969 9.83594 38.7656 9.91406C38.75 9.99219 38.7656 10.0547 38.8125 10.1016C38.8281 10.2734 38.8281 10.3828 38.8125 10.4297C38.8125 10.4609 38.8281 10.5 38.8594 10.5469C38.7969 10.7344 38.7734 10.8438 38.7891 10.875C38.8516 11.0469 38.8828 11.1719 38.8828 11.25C38.8828 11.3125 38.9062 11.375 38.9531 11.4375C38.9062 11.5625 38.8984 11.6797 38.9297 11.7891C38.9609 11.8984 38.9844 12.0156 39 12.1406C38.9844 12.3125 38.9844 12.4062 39 12.4219C39.0156 12.4219 39.0234 12.4375 39.0234 12.4688C39.0547 12.5469 39.0703 12.6406 39.0703 12.75C39.0703 12.8438 39.0938 12.9219 39.1406 12.9844C39.1406 13.2031 39.1953 13.3359 39.3047 13.3828C39.2891 13.4922 39.2969 13.5547 39.3281 13.5703C39.3594 13.5859 39.375 13.6094 39.375 13.6406C39.3438 13.7188 39.3516 13.7812 39.3984 13.8281C39.4453 13.8594 39.4453 13.8984 39.3984 13.9453C39.4609 13.9766 39.5234 14 39.5859 14.0156C39.6484 14.0156 39.6953 14.0391 39.7266 14.0859C39.8203 14.0859 39.8984 14.1016 39.9609 14.1328C40.0391 14.1641 40.1172 14.1562 40.1953 14.1094C40.3203 14.0469 40.3984 13.9844 40.4297 13.9219C40.5391 13.9219 40.6172 13.9062 40.6641 13.875C40.7266 13.8438 40.7891 13.8125 40.8516 13.7812C40.8984 13.7188 40.9375 13.6875 40.9688 13.6875C41 13.6719 41.0391 13.6641 41.0859 13.6641C41.0547 13.7266 41.0234 13.7812 40.9922 13.8281C40.9609 13.875 40.9609 13.9453 40.9922 14.0391C40.9141 14.0703 40.8359 14.1094 40.7578 14.1562C40.6953 14.1875 40.6406 14.2422 40.5938 14.3203C40.4375 14.4453 40.3438 14.5234 40.3125 14.5547C40.2812 14.5859 40.2344 14.6016 40.1719 14.6016C40.0156 14.7422 39.9375 14.8438 39.9375 14.9062C39.8906 14.9375 39.8359 14.9531 39.7734 14.9531C39.7266 14.9688 39.6875 14.9922 39.6562 15.0234C39.5625 15.1328 39.5 15.1875 39.4688 15.1875C39.4531 15.1875 39.4375 15.2109 39.4219 15.2578C39.2031 15.3047 39.0547 15.3203 38.9766 15.3047C38.9141 15.3047 38.8438 15.3047 38.7656 15.3047C38.6094 15.2734 38.5078 15.2266 38.4609 15.1641C38.4141 15.1172 38.3594 15.1172 38.2969 15.1641C38.2656 15.0547 38.1875 15.0078 38.0625 15.0234C37.9844 14.9297 37.9297 14.8516 37.8984 14.7891C37.8828 14.7422 37.8438 14.7031 37.7812 14.6719C37.7656 14.6406 37.7578 14.6016 37.7578 14.5547C37.7578 14.4922 37.75 14.4453 37.7344 14.4141C37.7188 14.3828 37.6953 14.3359 37.6641 14.2734C37.6484 14.1953 37.6484 14.125 37.6641 14.0625C37.5703 13.7969 37.5 13.6094 37.4531 13.5C37.4219 13.3906 37.4219 13.2891 37.4531 13.1953C37.4219 13.0703 37.3984 12.9922 37.3828 12.9609C37.3672 12.9141 37.3594 12.8828 37.3594 12.8672C37.3594 12.7734 37.3516 12.6953 37.3359 12.6328C37.3359 12.5703 37.3359 12.4922 37.3359 12.3984C37.3516 12.1953 37.3438 12.0625 37.3125 12C37.2969 11.9219 37.2891 11.8438 37.2891 11.7656C37.3047 11.5938 37.3047 11.5 37.2891 11.4844C37.2891 11.4688 37.2891 11.4453 37.2891 11.4141C37.3047 11.2734 37.3047 11.1875 37.2891 11.1562C37.2734 11.125 37.2656 11.0938 37.2656 11.0625C37.0938 11.1562 36.9844 11.2266 36.9375 11.2734C36.9062 11.3047 36.875 11.3438 36.8438 11.3906C36.8125 11.4844 36.7734 11.5469 36.7266 11.5781C36.6797 11.5938 36.6406 11.6172 36.6094 11.6484C36.5156 11.7266 36.4609 11.7891 36.4453 11.8359C36.4453 11.8828 36.4297 11.9219 36.3984 11.9531C36.3047 12.0156 36.2422 12.0625 36.2109 12.0938C36.1953 12.1094 36.1953 12.1484 36.2109 12.2109C36.1484 12.2422 36.1016 12.2812 36.0703 12.3281C36.0391 12.375 35.9844 12.4141 35.9062 12.4453C35.8281 12.5547 35.75 12.6484 35.6719 12.7266C35.5938 12.8047 35.5234 12.8594 35.4609 12.8906C35.4141 12.9062 35.375 12.9453 35.3438 13.0078C35.2188 13.0859 35.1406 13.1484 35.1094 13.1953C35.0938 13.2422 35.0625 13.2812 35.0156 13.3125C34.875 13.3906 34.7969 13.4453 34.7812 13.4766C34.7656 13.4922 34.7422 13.4922 34.7109 13.4766C34.5078 13.6484 34.4062 13.7578 34.4062 13.8047C34.25 13.8672 34.1562 13.9219 34.125 13.9688C34.0938 14.0156 34.0312 14.0312 33.9375 14.0156C33.7812 14.1094 33.625 14.1484 33.4688 14.1328C33.3125 14.1016 33.1875 14.0703 33.0938 14.0391C33.0312 14.0078 32.9844 13.9844 32.9531 13.9688C32.9219 13.9531 32.875 13.9375 32.8125 13.9219C32.6719 13.8438 32.5859 13.7812 32.5547 13.7344C32.5234 13.6719 32.4688 13.625 32.3906 13.5938C32.4375 13.5156 32.4375 13.4453 32.3906 13.3828C32.3438 13.3047 32.3047 13.2422 32.2734 13.1953C32.2891 13.1172 32.2891 13.0625 32.2734 13.0312C32.2578 12.9844 32.2422 12.9453 32.2266 12.9141C32.2109 12.7266 32.2109 12.625 32.2266 12.6094C32.2422 12.5938 32.25 12.5781 32.25 12.5625C32.25 12.5 32.2422 12.4453 32.2266 12.3984C32.2109 12.3359 32.2109 12.2734 32.2266 12.2109C32.2891 12.0391 32.3125 11.9141 32.2969 11.8359C32.2969 11.7578 32.3125 11.6875 32.3438 11.625C32.3906 11.5469 32.4062 11.4922 32.3906 11.4609C32.3906 11.4141 32.3984 11.375 32.4141 11.3438C32.4922 11.2188 32.5312 11.1406 32.5312 11.1094C32.5625 10.9375 32.5859 10.8516 32.6016 10.8516C32.6328 10.7422 32.6641 10.6797 32.6953 10.6641C32.7422 10.6328 32.75 10.5859 32.7188 10.5234C32.7812 10.4141 32.8125 10.3438 32.8125 10.3125C32.8281 10.2812 32.8438 10.25 32.8594 10.2188C32.9219 10.2031 32.9688 10.1641 33 10.1016C33.0312 10.0391 33.0312 9.96875 33 9.89062C33.1406 9.82812 33.2109 9.77344 33.2109 9.72656C33.2109 9.66406 33.2266 9.60938 33.2578 9.5625C33.3672 9.48438 33.4688 9.42188 33.5625 9.375C33.6562 9.3125 33.7031 9.21094 33.7031 9.07031C33.7969 8.96094 33.8672 8.89844 33.9141 8.88281C33.9766 8.85156 34.0156 8.79688 34.0312 8.71875C34.0781 8.6875 34.1172 8.65625 34.1484 8.625C34.1797 8.57812 34.2109 8.53906 34.2422 8.50781C34.3203 8.42969 34.3594 8.38281 34.3594 8.36719C34.3594 8.35156 34.375 8.32812 34.4062 8.29688C34.5781 8.20312 34.6797 8.14062 34.7109 8.10938C34.8203 7.98438 34.8906 7.90625 34.9219 7.875C34.9531 7.84375 35 7.82031 35.0625 7.80469C35.1875 7.69531 35.3125 7.60938 35.4375 7.54688C35.5 7.51562 35.5469 7.5 35.5781 7.5C35.625 7.48438 35.6641 7.45312 35.6953 7.40625C35.8359 7.375 35.9609 7.34375 36.0703 7.3125C36.2891 7.20312 36.4531 7.16406 36.5625 7.19531C36.6719 7.21094 36.8047 7.21094 36.9609 7.19531C37.1172 7.25781 37.2109 7.30469 37.2422 7.33594C37.2891 7.36719 37.3281 7.39062 37.3594 7.40625C37.4062 7.40625 37.4609 7.39844 37.5234 7.38281C37.5859 7.36719 37.6406 7.375 37.6875 7.40625C37.8438 7.53125 37.9297 7.59375 37.9453 7.59375C37.9766 7.59375 38.0078 7.60938 38.0391 7.64062C38.2266 7.73438 38.3672 7.75 38.4609 7.6875C38.5547 7.625 38.6406 7.57031 38.7188 7.52344C38.7812 7.53906 38.8359 7.54688 38.8828 7.54688C38.9453 7.53125 39 7.54688 39.0469 7.59375ZM36.1641 8.625C36.0859 8.625 36.0312 8.60938 36 8.57812C35.9844 8.54688 35.9609 8.52344 35.9297 8.50781C35.7891 8.47656 35.6719 8.48438 35.5781 8.53125C35.4844 8.57812 35.375 8.60156 35.25 8.60156C35.0938 8.74219 35.0156 8.82031 35.0156 8.83594C34.9219 8.96094 34.8516 9.04688 34.8047 9.09375C34.7578 9.14062 34.75 9.20312 34.7812 9.28125C34.5938 9.35938 34.5 9.45312 34.5 9.5625C34.5 9.67188 34.4453 9.74219 34.3359 9.77344C34.3203 9.85156 34.2969 9.92188 34.2656 9.98438C34.2344 10.0469 34.2109 10.1172 34.1953 10.1953C34.1484 10.3828 34.125 10.4844 34.125 10.5C34.1406 10.5156 34.1406 10.5391 34.125 10.5703C34.0938 10.6484 34.0547 10.7188 34.0078 10.7812C33.9766 10.8438 33.9766 10.8984 34.0078 10.9453C33.9609 11.1172 33.9297 11.2344 33.9141 11.2969C33.8984 11.3594 33.875 11.4297 33.8438 11.5078C33.8594 11.6484 33.8672 11.7578 33.8672 11.8359C33.8672 11.9141 33.875 12 33.8906 12.0938C33.9219 12.1875 33.9375 12.2734 33.9375 12.3516C34.0625 12.4766 34.125 12.5391 34.125 12.5391C34.1406 12.5391 34.1484 12.5469 34.1484 12.5625C34.3672 12.5938 34.4844 12.6172 34.5 12.6328C34.5312 12.6484 34.5781 12.6719 34.6406 12.7031C34.7188 12.625 34.7969 12.5625 34.875 12.5156C34.9531 12.4688 35.0078 12.3828 35.0391 12.2578C35.1953 12.1172 35.2891 12.0234 35.3203 11.9766C35.3672 11.9141 35.4297 11.8672 35.5078 11.8359C35.6641 11.6328 35.7422 11.5312 35.7422 11.5312C35.8672 11.4375 35.9375 11.3594 35.9531 11.2969C35.9844 11.2344 36.0156 11.1484 36.0469 11.0391C36.125 10.9766 36.1719 10.9375 36.1875 10.9219C36.2188 10.8906 36.2266 10.8438 36.2109 10.7812C36.2422 10.7188 36.2734 10.6641 36.3047 10.6172C36.3516 10.5547 36.375 10.4844 36.375 10.4062C36.4531 10.375 36.5 10.3359 36.5156 10.2891C36.5469 10.2266 36.6016 10.1953 36.6797 10.1953C36.6953 10.0391 36.7188 9.95312 36.75 9.9375C36.7812 9.90625 36.8281 9.89062 36.8906 9.89062C36.9219 9.71875 36.9531 9.59375 36.9844 9.51562C37.0156 9.4375 37.0469 9.35938 37.0781 9.28125C36.9688 9.15625 36.9141 9.0625 36.9141 9C36.7891 8.92188 36.7109 8.88281 36.6797 8.88281C36.6641 8.86719 36.6484 8.84375 36.6328 8.8125C36.5703 8.78125 36.5078 8.75781 36.4453 8.74219C36.3984 8.71094 36.3438 8.6875 36.2812 8.67188L36.1641 8.625ZM46.9219 13.8516C46.8438 13.9141 46.7578 13.9453 46.6641 13.9453C46.5859 13.9453 46.5 13.9609 46.4062 13.9922C46.3594 13.9922 46.3125 14.0078 46.2656 14.0391C46.2344 14.0547 46.1953 14.0703 46.1484 14.0859C45.9766 14.0547 45.8594 14.0469 45.7969 14.0625C45.7344 14.0781 45.6562 14.0938 45.5625 14.1094C45.5156 14.1094 45.4609 14.1172 45.3984 14.1328C45.3359 14.1484 45.2891 14.1406 45.2578 14.1094C45.1641 14.0469 45.1016 14.0234 45.0703 14.0391C45.0391 14.0391 45.0156 14.0234 45 13.9922C44.8438 14.0078 44.7188 14.0234 44.625 14.0391C44.5312 14.0391 44.4219 14.0391 44.2969 14.0391C44.2656 14.0078 44.2188 13.9844 44.1562 13.9688C44.1094 13.9375 44.0703 13.8984 44.0391 13.8516C43.8672 13.7734 43.7266 13.7344 43.6172 13.7344C43.5078 13.7188 43.4297 13.6562 43.3828 13.5469C43.1797 13.5 43.0625 13.4531 43.0312 13.4062C43.0156 13.3438 42.9609 13.3125 42.8672 13.3125C42.7266 13.2188 42.6562 13.1641 42.6562 13.1484L42.5391 12.9141C42.3984 12.8359 42.3281 12.7266 42.3281 12.5859C42.2656 12.5078 42.2109 12.4375 42.1641 12.375C42.1328 12.2969 42.1172 12.1797 42.1172 12.0234C42.0547 11.9766 42.0078 11.9453 41.9766 11.9297C41.9609 11.9141 41.9375 11.8828 41.9062 11.8359C41.875 11.7422 41.8438 11.6562 41.8125 11.5781C41.7344 11.4219 41.6953 11.3125 41.6953 11.25C41.7109 11.1719 41.6875 11.0938 41.625 11.0156C41.625 10.9375 41.625 10.8672 41.625 10.8047C41.6406 10.7422 41.6406 10.6719 41.625 10.5938C41.5938 10.5 41.5781 10.4453 41.5781 10.4297C41.5938 10.3984 41.6016 10.3672 41.6016 10.3359C41.6016 10.2891 41.5938 10.2344 41.5781 10.1719C41.5625 10.1094 41.5703 10.0469 41.6016 9.98438C41.6953 9.67188 41.7656 9.38281 41.8125 9.11719C41.875 8.83594 41.9297 8.5625 41.9766 8.29688C42.0547 8.23438 42.125 8.125 42.1875 7.96875C42.2812 7.82812 42.3359 7.75 42.3516 7.73438C42.4453 7.64062 42.5078 7.57812 42.5391 7.54688C42.5859 7.48438 42.6328 7.4375 42.6797 7.40625C42.7422 7.375 42.7891 7.32812 42.8203 7.26562C42.8984 7.23438 42.9609 7.1875 43.0078 7.125C43.0703 7.0625 43.125 7 43.1719 6.9375C43.3438 6.82812 43.4531 6.75 43.5 6.70312C43.5625 6.64062 43.6406 6.59375 43.7344 6.5625C43.8906 6.51562 43.9844 6.45312 44.0156 6.375C44.0625 6.28125 44.1406 6.24219 44.25 6.25781C44.2812 6.22656 44.3203 6.19531 44.3672 6.16406C44.4141 6.13281 44.4609 6.10156 44.5078 6.07031C44.5859 6.02344 44.6562 5.98438 44.7188 5.95312C44.7969 5.92188 44.8828 5.89062 44.9766 5.85938C45.0547 5.82812 45.1328 5.80469 45.2109 5.78906C45.2891 5.75781 45.3672 5.72656 45.4453 5.69531C45.6641 5.71094 45.8125 5.70312 45.8906 5.67188C45.9844 5.64062 46.0625 5.60938 46.125 5.57812C46.2969 5.59375 46.3906 5.60938 46.4062 5.625C46.4375 5.64062 46.4688 5.64844 46.5 5.64844C46.5781 5.64844 46.6406 5.64844 46.6875 5.64844C46.75 5.63281 46.8203 5.64062 46.8984 5.67188C46.9609 5.70312 47.0312 5.73438 47.1094 5.76562C47.2031 5.78125 47.2891 5.79688 47.3672 5.8125C47.4766 5.9375 47.625 6.02344 47.8125 6.07031C47.8906 6.22656 47.9453 6.33594 47.9766 6.39844C48.0234 6.46094 48.0859 6.5 48.1641 6.51562C48.1797 6.5625 48.1953 6.60938 48.2109 6.65625C48.2422 6.70312 48.2734 6.75781 48.3047 6.82031C48.3516 6.86719 48.3828 6.94531 48.3984 7.05469C48.4141 7.14844 48.4219 7.22656 48.4219 7.28906C48.3906 7.39844 48.375 7.46875 48.375 7.5C48.3906 7.51562 48.3828 7.53125 48.3516 7.54688C48.3359 7.70312 48.3125 7.8125 48.2812 7.875C48.25 7.92188 48.1953 7.96094 48.1172 7.99219C48.0234 8.13281 47.9531 8.23438 47.9062 8.29688C47.8594 8.35938 47.8047 8.41406 47.7422 8.46094C47.5859 8.49219 47.4922 8.53125 47.4609 8.57812C47.2734 8.64062 47.1719 8.67969 47.1562 8.69531C47.0469 8.80469 46.9688 8.85938 46.9219 8.85938C46.875 8.85938 46.8359 8.88281 46.8047 8.92969C46.5078 8.92969 46.3516 8.84375 46.3359 8.67188C46.4609 8.53125 46.5312 8.44531 46.5469 8.41406C46.5625 8.38281 46.5938 8.375 46.6406 8.39062C46.6719 8.26562 46.6797 8.17969 46.6641 8.13281C46.6641 8.08594 46.6641 8.03906 46.6641 7.99219C46.6641 7.94531 46.6719 7.89844 46.6875 7.85156C46.7031 7.80469 46.6875 7.75781 46.6406 7.71094C46.5156 7.61719 46.4453 7.57031 46.4297 7.57031C46.4141 7.55469 46.3906 7.53125 46.3594 7.5C46.25 7.42188 46.1953 7.375 46.1953 7.35938C46.1953 7.32812 46.1797 7.30469 46.1484 7.28906C46.0391 7.21094 45.9609 7.17188 45.9141 7.17188C45.8672 7.17188 45.8203 7.16406 45.7734 7.14844C45.6797 7.07031 45.6094 7.03125 45.5625 7.03125C45.5156 7.03125 45.4766 7.02344 45.4453 7.00781C45.2109 6.94531 45.0859 6.91406 45.0703 6.91406C45.0078 6.91406 44.9531 6.92188 44.9062 6.9375C44.8594 6.95312 44.8047 6.94531 44.7422 6.91406C44.6953 6.94531 44.6562 6.96094 44.625 6.96094C44.5938 6.96094 44.5391 6.96875 44.4609 6.98438C44.3359 7.03125 44.25 7.05469 44.2031 7.05469C44.1562 7.05469 44.1016 7.09375 44.0391 7.17188C43.8984 7.34375 43.8125 7.44531 43.7812 7.47656C43.75 7.50781 43.7344 7.55469 43.7344 7.61719C43.6562 7.75781 43.6016 7.85156 43.5703 7.89844C43.5391 7.94531 43.5391 7.98438 43.5703 8.01562C43.4766 8.17188 43.4297 8.25781 43.4297 8.27344C43.4453 8.28906 43.4453 8.3125 43.4297 8.34375C43.3672 8.57812 43.3281 8.76562 43.3125 8.90625C43.2969 9.04688 43.2812 9.1875 43.2656 9.32812C43.2344 9.48438 43.2188 9.57031 43.2188 9.58594C43.25 9.74219 43.2656 9.84375 43.2656 9.89062C43.3125 10.0312 43.3359 10.1172 43.3359 10.1484C43.3359 10.1797 43.3516 10.1875 43.3828 10.1719C43.4141 10.5312 43.4922 10.7734 43.6172 10.8984C43.6172 10.9922 43.6406 11.0781 43.6875 11.1562C43.75 11.2188 43.7891 11.2969 43.8047 11.3906C43.8672 11.4531 43.9062 11.5234 43.9219 11.6016C43.9531 11.6641 44.0078 11.7188 44.0859 11.7656C44.1641 11.9375 44.2109 12.0312 44.2266 12.0469C44.2422 12.0469 44.2578 12.0547 44.2734 12.0703L44.4609 12.2578C44.5547 12.2891 44.6016 12.3203 44.6016 12.3516C44.6172 12.3828 44.6406 12.4141 44.6719 12.4453C44.8281 12.4766 44.9219 12.5234 44.9531 12.5859C45.0781 12.5859 45.1641 12.625 45.2109 12.7031C45.2891 12.6875 45.3359 12.7031 45.3516 12.75C45.3672 12.7969 45.4141 12.8125 45.4922 12.7969C45.6328 12.8594 45.75 12.8984 45.8438 12.9141C45.9375 12.9297 46 12.9688 46.0312 13.0312C46.0938 13 46.1484 13 46.1953 13.0312C46.2422 13.0469 46.2969 13.0547 46.3594 13.0547C46.4844 13.0859 46.5859 13.1016 46.6641 13.1016C46.7266 13.1016 46.7812 13.0938 46.8281 13.0781C46.875 13.0469 46.9219 13.0312 46.9688 13.0312C47.1094 13.0312 47.2031 13.0078 47.25 12.9609C47.3125 12.9141 47.3828 12.8984 47.4609 12.9141C47.5234 12.8828 47.5781 12.8516 47.625 12.8203C47.6719 12.7734 47.7422 12.7422 47.8359 12.7266C47.8828 12.6953 47.9141 12.6562 47.9297 12.6094C47.9453 12.5625 47.9844 12.5391 48.0469 12.5391C48.0469 12.4766 48.0781 12.4531 48.1406 12.4688C48.2188 12.4688 48.25 12.4297 48.2344 12.3516C48.4062 12.1953 48.5078 12.1328 48.5391 12.1641C48.5703 12.1797 48.5938 12.1484 48.6094 12.0703C48.6719 12.0703 48.7266 12.0781 48.7734 12.0938C48.8359 12.0938 48.8906 12.0859 48.9375 12.0703C48.9688 12.2266 48.9219 12.3281 48.7969 12.375L48.6094 12.6562C48.5 12.75 48.4375 12.7969 48.4219 12.7969C48.4219 12.7969 48.4219 12.8125 48.4219 12.8438C48.2812 12.9375 48.1797 13.0234 48.1172 13.1016C48.0547 13.1797 48.0156 13.2422 48 13.2891C47.9219 13.3047 47.875 13.3438 47.8594 13.4062C47.8438 13.4688 47.7969 13.5 47.7188 13.5C47.6406 13.5938 47.5391 13.6484 47.4141 13.6641C47.3047 13.6797 47.2188 13.7266 47.1562 13.8047L46.9219 13.8516ZM52.3125 0.09375C52.3906 0.328125 52.4609 0.453125 52.5234 0.46875C52.5859 0.609375 52.6562 0.726562 52.7344 0.820312C52.7188 0.898438 52.7266 0.960938 52.7578 1.00781C52.7891 1.03906 52.8203 1.07031 52.8516 1.10156C52.8359 1.27344 52.875 1.42188 52.9688 1.54688C52.9375 1.625 52.9375 1.67969 52.9688 1.71094C53 1.74219 52.9844 1.77344 52.9219 1.80469C53.0312 1.96094 53.0703 2.03906 53.0391 2.03906C53.0234 2.03906 53.0156 2.05469 53.0156 2.08594C53.0469 2.13281 53.0547 2.21875 53.0391 2.34375C53.0234 2.45312 53.0312 2.52344 53.0625 2.55469C53.1406 2.55469 53.2031 2.55469 53.25 2.55469C53.2969 2.55469 53.3594 2.54688 53.4375 2.53125C53.625 2.51562 53.7266 2.5 53.7422 2.48438C53.7734 2.46875 53.8047 2.45312 53.8359 2.4375C54.1484 2.42188 54.3359 2.42969 54.3984 2.46094C54.4766 2.44531 54.5391 2.42188 54.5859 2.39062C54.6484 2.35938 54.7188 2.35938 54.7969 2.39062C54.875 2.375 54.9297 2.35938 54.9609 2.34375C55.0078 2.32812 55.0469 2.33594 55.0781 2.36719C55.125 2.30469 55.1875 2.28125 55.2656 2.29688C55.3438 2.29688 55.3984 2.27344 55.4297 2.22656C55.5391 2.21094 55.6172 2.20312 55.6641 2.20312C55.7266 2.1875 55.7891 2.15625 55.8516 2.10938C56.0391 2.25 56.1172 2.42188 56.0859 2.625C55.9297 2.76562 55.8359 2.82812 55.8047 2.8125C55.7891 2.79688 55.7578 2.79688 55.7109 2.8125C55.6484 2.89062 55.6094 2.94531 55.5938 2.97656C55.5781 2.99219 55.5469 3.00781 55.5 3.02344C55.3438 3.11719 55.2578 3.17969 55.2422 3.21094C55.2266 3.22656 55.2031 3.24219 55.1719 3.25781C55.0469 3.38281 54.9688 3.44531 54.9375 3.44531C54.9062 3.42969 54.875 3.42969 54.8438 3.44531C54.6562 3.52344 54.5312 3.57812 54.4688 3.60938C54.4062 3.625 54.3203 3.61719 54.2109 3.58594C53.9922 3.61719 53.8516 3.64844 53.7891 3.67969C53.7266 3.69531 53.6562 3.70312 53.5781 3.70312C53.5312 3.70312 53.4844 3.70312 53.4375 3.70312C53.3906 3.6875 53.3438 3.67969 53.2969 3.67969C53.1875 3.69531 53.1094 3.72656 53.0625 3.77344C53.0312 3.80469 53 3.85938 52.9688 3.9375C52.9531 3.96875 52.9375 4.01562 52.9219 4.07812C52.9062 4.14062 52.8984 4.21094 52.8984 4.28906C52.9453 4.47656 52.9609 4.58594 52.9453 4.61719C52.9297 4.64844 52.9141 4.6875 52.8984 4.73438C52.9141 4.78125 52.9297 4.82812 52.9453 4.875C52.9609 4.90625 52.9688 4.95312 52.9688 5.01562C52.9688 5.09375 52.9609 5.16406 52.9453 5.22656C52.9453 5.28906 52.9531 5.36719 52.9688 5.46094C52.9844 5.57031 52.9844 5.63281 52.9688 5.64844C52.9531 5.66406 52.9453 5.6875 52.9453 5.71875C52.9609 5.875 52.9531 6.00781 52.9219 6.11719C52.9062 6.21094 52.9062 6.29688 52.9219 6.375C52.9375 6.51562 52.9375 6.60156 52.9219 6.63281C52.9062 6.64844 52.8906 6.67188 52.875 6.70312C52.8438 6.79688 52.8438 6.90625 52.875 7.03125C52.9219 7.14062 52.9062 7.23438 52.8281 7.3125C52.875 7.53125 52.875 7.72656 52.8281 7.89844C52.7812 8.07031 52.7969 8.20312 52.875 8.29688C52.8281 8.4375 52.8047 8.51562 52.8047 8.53125C52.8203 8.53125 52.8281 8.53906 52.8281 8.55469C52.7969 8.72656 52.7812 8.82031 52.7812 8.83594C52.6875 9.02344 52.6562 9.14062 52.6875 9.1875C52.7188 9.23438 52.7109 9.27344 52.6641 9.30469C52.6797 9.38281 52.6875 9.45312 52.6875 9.51562C52.7031 9.57812 52.7109 9.65625 52.7109 9.75C52.7109 9.78125 52.7031 9.82812 52.6875 9.89062C52.6719 9.9375 52.6641 9.97656 52.6641 10.0078C52.6641 10.2266 52.6641 10.375 52.6641 10.4531C52.6797 10.5312 52.6641 10.6094 52.6172 10.6875C52.6328 10.8594 52.6484 11.0078 52.6641 11.1328C52.6797 11.2422 52.7031 11.3281 52.7344 11.3906C52.6875 11.5781 52.6719 11.7031 52.6875 11.7656C52.7031 11.9219 52.7031 12.0078 52.6875 12.0234C52.6719 12.0391 52.6641 12.0547 52.6641 12.0703C52.6641 12.2266 52.6719 12.3359 52.6875 12.3984C52.7031 12.5547 52.7188 12.6406 52.7344 12.6562C52.75 12.6719 52.7578 12.6875 52.7578 12.7031C52.7422 12.7969 52.7422 12.8672 52.7578 12.9141C52.7734 12.9453 52.7812 12.9688 52.7812 12.9844C52.7812 13.0938 52.7969 13.1641 52.8281 13.1953C52.875 13.2266 52.8906 13.2734 52.875 13.3359C52.9062 13.4453 52.9297 13.5078 52.9453 13.5234C52.9609 13.5391 52.9688 13.5703 52.9688 13.6172C53.0469 13.7578 53.0938 13.8438 53.1094 13.875C53.1406 13.8906 53.1641 13.9141 53.1797 13.9453C53.2891 14.1172 53.3672 14.2109 53.4141 14.2266C53.4766 14.2422 53.5156 14.2812 53.5312 14.3438C53.6562 14.4688 53.7266 14.5312 53.7422 14.5312C53.8203 14.5156 53.8828 14.5234 53.9297 14.5547C53.9766 14.5859 54.0391 14.5938 54.1172 14.5781C54.2891 14.6719 54.3984 14.7031 54.4453 14.6719C54.4922 14.6406 54.5312 14.6406 54.5625 14.6719C54.8438 14.5781 55.0078 14.4609 55.0547 14.3203C55.1328 14.3203 55.1875 14.2969 55.2188 14.25C55.2656 14.1875 55.3438 14.1562 55.4531 14.1562C55.5 14.125 55.5312 14.0859 55.5469 14.0391C55.5781 13.9922 55.6094 13.9531 55.6406 13.9219C55.7031 13.9375 55.75 13.9453 55.7812 13.9453C55.8125 13.9297 55.8594 13.9219 55.9219 13.9219C55.9531 14.0156 55.9297 14.0625 55.8516 14.0625C55.7734 14.0625 55.7422 14.1094 55.7578 14.2031C55.6641 14.3281 55.6016 14.4141 55.5703 14.4609C55.5391 14.5078 55.5078 14.5469 55.4766 14.5781C55.2891 14.7031 55.1328 14.7969 55.0078 14.8594C54.8828 14.9375 54.7812 15.0391 54.7031 15.1641C54.625 15.1641 54.5547 15.1719 54.4922 15.1875C54.4297 15.2031 54.3516 15.2188 54.2578 15.2344C54.1016 15.3281 54.0234 15.3906 54.0234 15.4219C54.0234 15.4531 54.0078 15.4766 53.9766 15.4922C53.9453 15.5234 53.8984 15.5391 53.8359 15.5391C53.7734 15.5391 53.7109 15.5547 53.6484 15.5859C53.4766 15.6641 53.3828 15.6953 53.3672 15.6797C53.3516 15.6641 53.3281 15.6562 53.2969 15.6562C53.1719 15.7031 53.0859 15.7266 53.0391 15.7266C52.9922 15.7266 52.9531 15.7422 52.9219 15.7734C52.8281 15.7578 52.7344 15.7422 52.6406 15.7266C52.5469 15.7266 52.4844 15.6875 52.4531 15.6094C52.3438 15.625 52.2656 15.6094 52.2188 15.5625C52.1875 15.5156 52.1562 15.4688 52.125 15.4219C51.9844 15.375 51.9062 15.3281 51.8906 15.2812C51.875 15.25 51.8281 15.2344 51.75 15.2344C51.6406 15.0781 51.5781 14.9844 51.5625 14.9531C51.5469 14.9375 51.5312 14.9141 51.5156 14.8828C51.4375 14.8047 51.3828 14.7188 51.3516 14.625C51.3359 14.5156 51.2734 14.4375 51.1641 14.3906C51.1484 14.2031 51.1328 14.1016 51.1172 14.0859C51.1016 14.0547 51.0938 14.0234 51.0938 13.9922C51.0312 13.8828 51.0234 13.7891 51.0703 13.7109C51.0234 13.6484 51.0078 13.5859 51.0234 13.5234C51.0547 13.4609 51.0312 13.4062 50.9531 13.3594C51.0156 13.3281 51.0391 13.2891 51.0234 13.2422C51.0078 13.1953 51 13.1172 51 13.0078C51.0156 12.8828 51.0156 12.8125 51 12.7969C50.9844 12.7656 50.9688 12.7188 50.9531 12.6562C50.9531 12.3906 50.9609 12.1953 50.9766 12.0703C50.9922 11.9297 50.9766 11.8203 50.9297 11.7422C50.9766 11.6328 50.9922 11.5547 50.9766 11.5078C50.9609 11.4453 50.9531 11.3984 50.9531 11.3672C50.9531 11.2891 50.9609 11.2188 50.9766 11.1562C50.9922 11.0781 50.9844 11.0078 50.9531 10.9453C50.9844 10.8047 51.0078 10.7109 51.0234 10.6641C51.0547 10.6016 51.0781 10.5391 51.0938 10.4766C51.0625 10.3047 51.0625 10.1797 51.0938 10.1016C51.125 10.0078 51.1406 9.92188 51.1406 9.84375C51.1562 9.65625 51.1562 9.53125 51.1406 9.46875C51.1406 9.39062 51.1484 9.3125 51.1641 9.23438C51.1641 9.07812 51.1797 8.96875 51.2109 8.90625C51.1953 8.73438 51.2031 8.61719 51.2344 8.55469C51.2656 8.49219 51.2656 8.4375 51.2344 8.39062C51.25 8.25 51.2656 8.15625 51.2812 8.10938C51.2969 8.04688 51.3047 8 51.3047 7.96875C51.3047 7.92188 51.2969 7.875 51.2812 7.82812C51.2656 7.76562 51.2578 7.71094 51.2578 7.66406C51.2578 7.50781 51.2812 7.375 51.3281 7.26562C51.375 7.14062 51.375 7.04688 51.3281 6.98438C51.375 6.9375 51.3906 6.88281 51.375 6.82031C51.3594 6.74219 51.3516 6.66406 51.3516 6.58594C51.3516 6.39844 51.3516 6.28125 51.3516 6.23438C51.3672 6.14062 51.375 6.07812 51.375 6.04688C51.375 6.01562 51.3828 5.98438 51.3984 5.95312C51.3828 5.875 51.3828 5.79688 51.3984 5.71875C51.4141 5.625 51.4062 5.53906 51.375 5.46094C51.4219 5.35156 51.4375 5.24219 51.4219 5.13281C51.4062 5.00781 51.4219 4.91406 51.4688 4.85156C51.4375 4.78906 51.4375 4.73438 51.4688 4.6875C51.5 4.625 51.5156 4.57031 51.5156 4.52344C51.5 4.41406 51.5 4.33594 51.5156 4.28906C51.5312 4.24219 51.5391 4.20312 51.5391 4.17188C51.3203 4.04688 51.1406 4.01562 51 4.07812C50.8594 4.125 50.7188 4.125 50.5781 4.07812C50.4219 4.125 50.2969 4.15625 50.2031 4.17188C50.125 4.17188 50.0469 4.17188 49.9688 4.17188C49.7656 4.20312 49.6562 4.21875 49.6406 4.21875C49.4844 4.1875 49.3984 4.1875 49.3828 4.21875C49.3672 4.25 49.3438 4.26562 49.3125 4.26562C49.2188 4.125 49.1641 4.05469 49.1484 4.05469C49.1328 4.05469 49.1172 4.03906 49.1016 4.00781C49.1016 3.82031 49.125 3.70312 49.1719 3.65625C49.2031 3.60938 49.2578 3.57812 49.3359 3.5625C49.4453 3.46875 49.4844 3.39062 49.4531 3.32812C49.6406 3.28125 49.75 3.19531 49.7812 3.07031C49.8594 3.05469 49.9297 3.03906 49.9922 3.02344C50.0547 2.99219 50.1016 2.9375 50.1328 2.85938C50.3984 2.875 50.5859 2.85938 50.6953 2.8125C50.7266 2.8125 50.7656 2.8125 50.8125 2.8125C50.875 2.79688 50.9219 2.78125 50.9531 2.76562C51 2.76562 51.0781 2.78125 51.1875 2.8125C51.2969 2.82812 51.375 2.82812 51.4219 2.8125C51.4375 2.71875 51.4453 2.57031 51.4453 2.36719C51.4609 2.16406 51.4375 2.03906 51.375 1.99219C51.2969 1.88281 51.25 1.78906 51.2344 1.71094C51.2344 1.61719 51.1953 1.55469 51.1172 1.52344C50.9922 1.42969 50.8906 1.375 50.8125 1.35938C50.7344 1.34375 50.6797 1.35156 50.6484 1.38281C50.5078 1.44531 50.4141 1.49219 50.3672 1.52344C50.3359 1.53906 50.2891 1.55469 50.2266 1.57031L49.875 1.71094C49.8438 1.66406 49.8125 1.625 49.7812 1.59375C49.75 1.54688 49.7344 1.48438 49.7344 1.40625C49.7812 1.29688 49.8203 1.23438 49.8516 1.21875C49.8828 1.20312 49.8984 1.16406 49.8984 1.10156C50.0391 1.05469 50.1328 0.960938 50.1797 0.820312C50.2734 0.773438 50.3594 0.734375 50.4375 0.703125C50.5312 0.65625 50.5859 0.578125 50.6016 0.46875C50.6953 0.5 50.7812 0.492188 50.8594 0.445312C50.9531 0.398438 51.0156 0.335938 51.0469 0.257812C51.1875 0.226562 51.2734 0.210938 51.3047 0.210938C51.3516 0.195312 51.375 0.171875 51.375 0.140625C51.5625 0.078125 51.6641 0.0546875 51.6797 0.0703125C51.7109 0.0703125 51.7422 0.0625 51.7734 0.046875C51.9609 0.015625 52.0547 0.015625 52.0547 0.046875C52.0547 0.0625 52.0625 0.078125 52.0781 0.09375H52.3125Z" fill="#FFACED"/>
</svg>
