<svg width="229" height="143" viewBox="0 0 229 143" fill="none" xmlns="http://www.w3.org/2000/svg">
<path d="M229 72.4795C229 118.639 177.737 143 114.5 143C51.2634 143 0 118.639 0 72.4795C0 26.3195 51.2634 0 114.5 0C177.737 0 229 26.3195 229 72.4795Z" fill="black"/>
<path d="M76.2734 44.793C76.599 44.8906 76.7943 44.9232 76.8594 44.8906C76.957 44.8581 77.0384 44.8581 77.1035 44.8906C77.5267 45.0534 77.8685 45.1348 78.1289 45.1348C78.2266 45.2324 78.3242 45.2812 78.4219 45.2812C78.5521 45.2812 78.666 45.2975 78.7637 45.3301C79.0566 45.5254 79.2194 45.623 79.252 45.623C79.5775 45.7207 79.8379 45.8021 80.0332 45.8672C80.2285 45.8997 80.4076 45.9648 80.5703 46.0625C80.7005 46.1276 80.8145 46.1927 80.9121 46.2578C81.0098 46.3229 81.14 46.3555 81.3027 46.3555C81.791 46.6484 82.2142 46.8926 82.5723 47.0879C82.6374 47.153 82.7025 47.2181 82.7676 47.2832C82.8327 47.3483 82.9466 47.3809 83.1094 47.3809C83.1745 47.5762 83.321 47.7064 83.5488 47.7715C83.7767 48.097 83.9069 48.2435 83.9395 48.2109C83.972 48.1458 84.0208 48.1458 84.0859 48.2109C84.2161 48.3411 84.3301 48.4876 84.4277 48.6504C84.5254 48.8132 84.7044 48.8945 84.9648 48.8945C85.2253 49.1549 85.4857 49.3503 85.7461 49.4805C85.8438 49.7083 85.974 49.8385 86.1367 49.8711C86.2344 50.099 86.3809 50.2292 86.5762 50.2617C86.6413 50.3268 86.6738 50.4245 86.6738 50.5547C86.6738 50.6849 86.7552 50.7337 86.918 50.7012C86.8529 50.9941 86.8691 51.1569 86.9668 51.1895C87.097 51.222 87.1458 51.3197 87.1133 51.4824C87.2435 51.6126 87.3574 51.7591 87.4551 51.9219C87.5853 52.0521 87.6829 52.2311 87.748 52.459C88.041 52.752 88.1875 52.9635 88.1875 53.0938C88.1875 53.224 88.2038 53.3379 88.2363 53.4355C88.3991 53.7611 88.4805 53.9889 88.4805 54.1191C88.4805 54.2493 88.4805 54.3633 88.4805 54.4609C88.513 54.819 88.5456 55.0306 88.5781 55.0957C88.6107 55.1283 88.5944 55.1771 88.5293 55.2422C88.7246 55.5677 88.8223 55.7956 88.8223 55.9258C88.8548 56.056 88.8385 56.2188 88.7734 56.4141C88.6432 56.707 88.5781 56.9186 88.5781 57.0488C88.6107 57.179 88.5618 57.2767 88.4316 57.3418C88.4642 57.4069 88.4642 57.5208 88.4316 57.6836C88.4316 57.8464 88.3991 57.9766 88.334 58.0742C88.334 58.4323 88.3177 58.6764 88.2852 58.8066C88.2852 58.9368 88.2201 59.0345 88.0898 59.0996C87.9271 59.5228 87.8457 59.8483 87.8457 60.0762C87.7155 60.4668 87.5853 60.6947 87.4551 60.7598C87.3574 60.8249 87.3086 60.9388 87.3086 61.1016C87.2435 61.4922 87.1621 61.7038 87.0645 61.7363C86.9668 61.7363 86.8854 61.7689 86.8203 61.834C86.5924 62.127 86.4622 62.2734 86.4297 62.2734C86.332 62.5339 86.2832 62.7129 86.2832 62.8105C86.2832 62.8757 86.2181 62.8919 86.0879 62.8594C85.9902 62.957 85.8763 63.0547 85.7461 63.1523C85.6484 63.25 85.5508 63.3639 85.4531 63.4941C85.3229 63.6895 85.2253 63.8034 85.1602 63.8359C85.1276 63.8685 85.1276 63.9336 85.1602 64.0312C84.9323 64.194 84.7533 64.3079 84.623 64.373C84.4928 64.4382 84.4115 64.5521 84.3789 64.7148C84.0534 64.8451 83.8743 65.0078 83.8418 65.2031L83.3535 65.4961C83.0605 65.7565 82.849 65.8867 82.7188 65.8867C82.6211 65.8867 82.4909 65.9193 82.3281 65.9844C82.1979 66.1471 82.0189 66.2611 81.791 66.3262C81.5957 66.3913 81.4492 66.5378 81.3516 66.7656C81.0911 66.7331 80.9284 66.7982 80.8633 66.9609C80.8307 67.1237 80.6842 67.1888 80.4238 67.1562C80.0983 67.319 79.903 67.4329 79.8379 67.498C79.7728 67.5306 79.6751 67.5306 79.5449 67.498C79.2845 67.5957 79.138 67.6283 79.1055 67.5957C79.0729 67.5632 79.0241 67.5469 78.959 67.5469C78.8288 67.5794 78.7311 67.6283 78.666 67.6934C78.6009 67.7259 78.5195 67.7585 78.4219 67.791C78.194 67.8236 77.9987 67.791 77.8359 67.6934C77.7708 67.7585 77.6895 67.8073 77.5918 67.8398C77.4941 67.8398 77.4128 67.8724 77.3477 67.9375C76.9245 67.8398 76.5827 67.8073 76.3223 67.8398C76.0618 67.8398 75.8828 67.791 75.7852 67.6934C75.4922 67.7585 75.3294 67.7747 75.2969 67.7422C75.2969 67.6771 75.2643 67.6283 75.1992 67.5957C75.0039 67.5632 74.7923 67.5469 74.5645 67.5469C74.4668 67.4492 74.3366 67.3678 74.1738 67.3027C74.0436 67.2376 73.8971 67.1725 73.7344 67.1074C73.4414 66.7819 73.2624 66.5703 73.1973 66.4727C73.1322 66.3424 73.0345 66.2448 72.9043 66.1797L72.5625 65.5449C72.4648 65.252 72.3997 65.1055 72.3672 65.1055C72.3346 65.0729 72.3021 65.0241 72.2695 64.959C72.2044 64.7637 72.1882 64.5521 72.2207 64.3242C72.2533 64.0638 72.237 63.8359 72.1719 63.6406C72.3021 63.4128 72.3509 63.2826 72.3184 63.25C72.3184 63.1849 72.3184 63.1198 72.3184 63.0547C72.4486 62.7292 72.5462 62.5664 72.6113 62.5664C72.5788 62.4362 72.5951 62.3548 72.6602 62.3223C72.7253 62.2897 72.7578 62.1921 72.7578 62.0293C72.9206 61.834 73.0182 61.7201 73.0508 61.6875C73.1159 61.6224 73.181 61.541 73.2461 61.4434C73.3763 61.5085 73.474 61.4922 73.5391 61.3945C73.6367 61.2969 73.7181 61.1992 73.7832 61.1016L74.3203 60.8086C74.6784 60.6133 74.8737 60.5319 74.9062 60.5645C74.9388 60.5645 74.9714 60.5645 75.0039 60.5645C75.1341 60.5319 75.2318 60.4993 75.2969 60.4668C75.3945 60.4342 75.4922 60.4505 75.5898 60.5156C75.6549 60.5807 75.6875 60.6784 75.6875 60.8086C75.7201 60.9388 75.7526 61.0365 75.7852 61.1016C75.5247 61.3945 75.3783 61.541 75.3457 61.541C75.3783 61.8665 75.4108 62.0944 75.4434 62.2246C75.4759 62.3223 75.4922 62.4362 75.4922 62.5664C75.4922 62.9896 75.5573 63.2988 75.6875 63.4941C75.8503 63.6569 75.9805 63.8359 76.0781 64.0312C76.2409 64.194 76.3223 64.2917 76.3223 64.3242C76.3548 64.3568 76.3874 64.4056 76.4199 64.4707C76.5827 64.4707 76.7129 64.5195 76.8105 64.6172C76.9408 64.6823 77.1035 64.6986 77.2988 64.666C77.5592 64.8939 77.7057 65.0078 77.7383 65.0078C77.8034 65.0078 77.8848 65.0241 77.9824 65.0566C78.2103 65.1543 78.3405 65.2031 78.373 65.2031C78.4382 65.1706 78.5033 65.1706 78.5684 65.2031C78.7637 65.3008 78.9102 65.3659 79.0078 65.3984C79.138 65.431 79.2682 65.4473 79.3984 65.4473C79.8216 65.2845 80.0983 65.2194 80.2285 65.252C80.3913 65.2845 80.554 65.2682 80.7168 65.2031C80.8145 65.138 80.8958 65.1055 80.9609 65.1055C81.0586 65.0729 81.1562 65.0241 81.2539 64.959C81.4167 64.8939 81.5794 64.8451 81.7422 64.8125C81.9049 64.7799 82.0189 64.6823 82.084 64.5195C82.4746 64.4219 82.7025 64.3242 82.7676 64.2266C82.8652 64.0964 82.9954 63.9987 83.1582 63.9336C83.2884 63.7383 83.3861 63.543 83.4512 63.3477C83.5488 63.1198 83.7116 62.957 83.9395 62.8594C83.9069 62.599 83.9232 62.4525 83.9883 62.4199C84.0534 62.3874 84.1185 62.3385 84.1836 62.2734C84.2161 61.9805 84.2487 61.8177 84.2812 61.7852C84.3138 61.7201 84.3626 61.6387 84.4277 61.541C84.5579 61.2155 84.6393 61.0527 84.6719 61.0527C84.7044 61.0202 84.7207 60.9876 84.7207 60.9551C84.6882 60.7272 84.6882 60.597 84.7207 60.5645C84.7858 60.5319 84.7858 60.4831 84.7207 60.418C84.7858 60.3529 84.8184 60.2715 84.8184 60.1738C84.8509 60.0762 84.8997 59.9948 84.9648 59.9297C84.9323 59.7344 84.9323 59.6042 84.9648 59.5391C84.9974 59.4414 85.0462 59.3112 85.1113 59.1484C85.0462 58.8555 85.0462 58.709 85.1113 58.709C85.209 58.6764 85.2415 58.6113 85.209 58.5137C85.2415 58.3509 85.2253 58.2695 85.1602 58.2695C85.0951 58.237 85.0951 58.1393 85.1602 57.9766C85.2253 57.7487 85.2578 57.5859 85.2578 57.4883C85.2904 57.3906 85.2904 57.293 85.2578 57.1953C85.1927 56.9349 85.1764 56.7884 85.209 56.7559C85.2415 56.7233 85.2415 56.6582 85.209 56.5605C85.1439 55.7142 84.9648 55.2096 84.6719 55.0469C84.6393 54.7214 84.5742 54.526 84.4766 54.4609C84.3789 54.3633 84.2975 54.2982 84.2324 54.2656C84.1022 53.8099 83.972 53.5495 83.8418 53.4844C83.7441 53.3867 83.679 53.2565 83.6465 53.0938C83.5163 52.8333 83.4186 52.6706 83.3535 52.6055C83.0931 52.3776 82.9303 52.2637 82.8652 52.2637C82.8001 52.2311 82.7839 52.166 82.8164 52.0684C82.5885 51.8079 82.3607 51.5801 82.1328 51.3848C81.9375 51.1895 81.7096 51.0104 81.4492 50.8477C81.2214 50.5872 81.0749 50.4408 81.0098 50.4082C80.9772 50.3431 80.8796 50.3105 80.7168 50.3105C80.4564 50.1152 80.2773 49.985 80.1797 49.9199C80.1146 49.8548 80.0007 49.806 79.8379 49.7734C79.61 49.4805 79.4798 49.3503 79.4473 49.3828C79.4147 49.4154 79.3659 49.4316 79.3008 49.4316C79.2031 49.2689 79.0404 49.1875 78.8125 49.1875C78.6497 48.8945 78.3405 48.748 77.8848 48.748C77.7871 48.5853 77.6081 48.5039 77.3477 48.5039C77.2826 48.4388 77.1849 48.39 77.0547 48.3574C76.9245 48.2923 76.8268 48.1947 76.7617 48.0645C76.5013 48.0319 76.3223 48.0156 76.2246 48.0156C76.1595 48.0156 76.1107 47.9831 76.0781 47.918L75.3457 47.8203C75.0202 47.7552 74.7272 47.6738 74.4668 47.5762C74.2064 47.5762 74.0436 47.5599 73.9785 47.5273C73.9134 47.4622 73.8158 47.446 73.6855 47.4785C73.1973 47.5436 72.8555 47.5762 72.6602 47.5762C72.4648 47.5436 72.2858 47.5273 72.123 47.5273C71.6999 47.5924 71.3418 47.5599 71.0488 47.4297C70.7884 47.4622 70.5443 47.5111 70.3164 47.5762C70.1211 47.6413 69.9258 47.6413 69.7305 47.5762C69.3724 47.6738 69.1934 47.7389 69.1934 47.7715C69.1934 47.804 69.1608 47.8203 69.0957 47.8203C68.9004 47.8203 68.7702 47.8366 68.7051 47.8691C68.64 47.9017 68.5423 47.9342 68.4121 47.9668C68.1842 48.0319 67.8587 48.097 67.4355 48.1621C67.11 48.2598 66.8659 48.3086 66.7031 48.3086C66.5404 48.4062 66.3939 48.4551 66.2637 48.4551C66.166 48.4225 66.0846 48.4388 66.0195 48.5039C65.694 48.6992 65.4661 48.8132 65.3359 48.8457C65.2383 48.8783 65.1569 48.9434 65.0918 49.041C64.6686 49.0736 64.3268 49.1875 64.0664 49.3828C63.8385 49.5456 63.5456 49.6921 63.1875 49.8223C62.8294 49.985 62.6341 50.0827 62.6016 50.1152C62.6016 50.1478 62.569 50.1803 62.5039 50.2129C62.2109 50.278 62.0482 50.3594 62.0156 50.457C61.7227 50.6198 61.5436 50.7174 61.4785 50.75C61.446 50.7826 61.3646 50.7826 61.2344 50.75C61.1693 50.8151 61.0879 50.8802 60.9902 50.9453C60.8926 50.9779 60.7949 51.0267 60.6973 51.0918C60.4043 51.3197 60.2415 51.4499 60.209 51.4824C59.8509 51.6452 59.6719 51.7266 59.6719 51.7266C59.444 51.8242 59.3138 51.9707 59.2812 52.166C59.151 52.1986 59.0534 52.2474 58.9883 52.3125C58.9232 52.3776 58.8418 52.4427 58.7441 52.5078C58.2884 52.8008 57.9954 52.9961 57.8652 53.0938C57.7025 53.1914 57.5723 53.2891 57.4746 53.3867C57.4095 53.4844 57.3118 53.5495 57.1816 53.582C56.9863 53.8424 56.8561 54.0052 56.791 54.0703C56.7259 54.1029 56.6283 54.1517 56.498 54.2168C56.3027 54.4447 56.1725 54.5749 56.1074 54.6074C56.0423 54.64 56.0098 54.6237 56.0098 54.5586C55.7493 54.819 55.5866 54.9655 55.5215 54.998C55.4564 55.0306 55.3587 55.0632 55.2285 55.0957C55.0007 55.2585 54.8379 55.4212 54.7402 55.584C54.6426 55.7142 54.5124 55.8118 54.3496 55.877C54.3171 56.0072 54.2845 56.1211 54.252 56.2188C54.2194 56.2839 54.1868 56.3652 54.1543 56.4629C53.8613 56.5605 53.7148 56.6582 53.7148 56.7559C53.7474 56.8535 53.6986 56.8861 53.5684 56.8535C53.5033 56.9512 53.4219 57.0488 53.3242 57.1465C53.2266 57.2441 53.1289 57.3581 53.0312 57.4883C52.9661 57.5534 52.9173 57.6348 52.8848 57.7324C52.8522 57.8301 52.8359 57.9603 52.8359 58.123C52.6081 58.416 52.3639 58.6439 52.1035 58.8066C52.0384 58.9694 51.9896 59.0833 51.957 59.1484C51.957 59.2135 51.8919 59.2786 51.7617 59.3438C51.7617 59.7344 51.6478 60.0273 51.4199 60.2227C51.4525 60.4505 51.4199 60.6296 51.3223 60.7598C51.2246 60.8574 51.2083 61.0202 51.2734 61.248C51.1432 61.5736 51.0456 61.7852 50.9805 61.8828C50.9154 61.9805 50.8828 62.1107 50.8828 62.2734C50.6875 62.4688 50.5898 62.6152 50.5898 62.7129C50.5898 62.778 50.5573 62.8431 50.4922 62.9082C50.2969 63.2663 50.2155 63.4616 50.248 63.4941C50.3132 63.5267 50.3294 63.5755 50.2969 63.6406C50.1992 63.8034 50.1504 63.9499 50.1504 64.0801C50.1829 64.1777 50.1829 64.3079 50.1504 64.4707C49.9876 64.8288 49.9225 65.0566 49.9551 65.1543C49.9876 65.2194 50.0039 65.3333 50.0039 65.4961C49.9388 65.724 49.9062 65.8542 49.9062 65.8867C49.9388 65.9193 49.9551 65.9681 49.9551 66.0332C49.89 66.3262 49.8737 66.5215 49.9062 66.6191C49.9388 66.7168 49.9388 66.8145 49.9062 66.9121L49.7598 67.6445C49.8249 67.9375 49.8411 68.1165 49.8086 68.1816C49.8086 68.2142 49.8086 68.263 49.8086 68.3281C49.8086 68.4583 49.8086 68.5723 49.8086 68.6699C49.8411 68.7676 49.8574 68.8652 49.8574 68.9629C49.7923 69.1582 49.776 69.3047 49.8086 69.4023C49.8411 69.4674 49.8086 69.5163 49.7109 69.5488C49.8086 69.8092 49.8086 70.0046 49.7109 70.1348C49.8411 70.265 49.9062 70.4115 49.9062 70.5742C49.9062 70.7044 49.89 70.8672 49.8574 71.0625C49.8249 71.2253 49.7923 71.4043 49.7598 71.5996C49.7272 71.7624 49.7598 71.9251 49.8574 72.0879C49.89 72.446 49.89 72.6413 49.8574 72.6738C49.8574 72.6738 49.8574 72.7064 49.8574 72.7715C49.9225 72.9017 49.9714 73.0482 50.0039 73.2109C50.0365 73.3737 50.0853 73.5039 50.1504 73.6016C50.0853 73.7318 50.069 73.8783 50.1016 74.041C50.1667 74.2038 50.2155 74.3503 50.248 74.4805C50.248 74.5456 50.248 74.6432 50.248 74.7734C50.2806 74.8711 50.2643 74.9525 50.1992 75.0176C50.2643 75.1152 50.3294 75.2292 50.3945 75.3594C50.4596 75.457 50.541 75.5384 50.6387 75.6035C50.6061 75.7663 50.6061 75.8965 50.6387 75.9941C50.7038 76.0918 50.7363 76.1895 50.7363 76.2871C50.7689 76.3848 50.8014 76.4824 50.834 76.5801C50.8991 76.6777 50.9316 76.8242 50.9316 77.0195C51.0293 77.4102 51.1432 77.6217 51.2734 77.6543C51.3385 77.9473 51.3711 78.1426 51.3711 78.2402C51.5664 78.5658 51.6315 78.7448 51.5664 78.7773C51.5339 78.8099 51.5176 78.875 51.5176 78.9727C51.7129 79.2982 51.8757 79.5098 52.0059 79.6074C52.1361 79.6725 52.25 79.7865 52.3477 79.9492C52.3151 80.2096 52.3639 80.4049 52.4941 80.5352C52.6569 80.6654 52.6895 80.8444 52.5918 81.0723C52.8522 81.3001 52.9824 81.4466 52.9824 81.5117C52.9824 81.5768 53.015 81.5931 53.0801 81.5605C53.0475 81.7884 53.0638 81.9674 53.1289 82.0977C53.4219 82.293 53.6172 82.4069 53.7148 82.4395C53.8451 82.8301 53.9427 83.0579 54.0078 83.123L54.252 83.6113C54.3171 83.709 54.3822 83.7741 54.4473 83.8066C54.5124 83.8717 54.5775 83.9368 54.6426 84.002C54.61 84.1973 54.6263 84.3112 54.6914 84.3438C54.7891 84.3763 54.8053 84.4414 54.7402 84.5391C55.0658 84.8971 55.4076 85.1738 55.7656 85.3691C55.9609 85.6296 56.1237 85.776 56.2539 85.8086C56.3841 85.8737 56.4655 85.9876 56.498 86.1504C56.7585 86.4108 56.9375 86.5736 57.0352 86.6387C57.5234 86.9316 57.8164 87.1758 57.9141 87.3711C58.0443 87.5664 58.207 87.7129 58.4023 87.8105C58.5651 88.071 58.6628 88.2012 58.6953 88.2012C58.7604 88.2337 58.8418 88.25 58.9395 88.25C59.0371 88.4128 59.151 88.5592 59.2812 88.6895C59.4115 88.8197 59.5254 88.9661 59.623 89.1289C59.7533 89.3242 59.8835 89.4056 60.0137 89.373C60.1439 89.373 60.1927 89.4219 60.1602 89.5195C60.4206 89.7148 60.6322 89.8288 60.7949 89.8613C60.9902 89.9264 61.1693 90.0078 61.332 90.1055C61.4622 90.2682 61.5762 90.3496 61.6738 90.3496C61.804 90.3822 61.8691 90.431 61.8691 90.4961C62.3249 90.6914 62.6016 90.8379 62.6992 90.9355C62.7969 91.0658 62.9596 91.1146 63.1875 91.082C63.5456 91.1797 63.7734 91.2611 63.8711 91.3262C63.9688 91.3913 64.0827 91.4401 64.2129 91.4727C64.3757 91.6029 64.4896 91.6842 64.5547 91.7168C64.6198 91.7493 64.7012 91.7982 64.7988 91.8633C65.0592 91.8307 65.2057 91.847 65.2383 91.9121C65.2708 91.9772 65.3197 92.0098 65.3848 92.0098C65.8405 92.1074 66.1172 92.1725 66.2148 92.2051C66.6706 92.3353 66.8984 92.4004 66.8984 92.4004C67.1914 92.498 67.3704 92.5469 67.4355 92.5469C67.5332 92.612 67.6471 92.6283 67.7773 92.5957C67.9076 92.5957 68.0215 92.6445 68.1191 92.7422C68.5423 92.7096 68.7539 92.7747 68.7539 92.9375C68.819 92.8398 68.9004 92.8073 68.998 92.8398C69.0957 92.8724 69.1934 92.8887 69.291 92.8887C69.4538 92.8887 69.6165 92.8724 69.7793 92.8398C69.9421 92.8398 70.1211 92.8561 70.3164 92.8887C70.6745 92.9538 70.9023 92.9701 71 92.9375C71.1302 92.9049 71.2441 92.9212 71.3418 92.9863C71.6673 92.9212 71.8952 92.8887 72.0254 92.8887C72.1556 92.8887 72.2858 92.8724 72.416 92.8398C72.709 92.9049 72.888 92.9212 72.9531 92.8887C73.0182 92.8561 73.0833 92.8236 73.1484 92.791C73.3438 92.7259 73.5391 92.7096 73.7344 92.7422C73.9297 92.7747 74.1413 92.7747 74.3691 92.7422C74.7272 92.6771 74.9388 92.612 75.0039 92.5469C75.3294 92.5794 75.5085 92.5957 75.541 92.5957C75.834 92.5306 76.013 92.498 76.0781 92.498C76.1758 92.5306 76.2734 92.5306 76.3711 92.498C76.6966 92.4329 76.9245 92.3678 77.0547 92.3027C77.4779 92.2051 77.7383 92.1237 77.8359 92.0586C77.9336 92.026 78.0638 92.026 78.2266 92.0586C78.3568 91.9935 78.487 91.9284 78.6172 91.8633C78.7799 91.8307 78.9427 91.7819 79.1055 91.7168C79.4961 91.5866 79.7077 91.5052 79.7402 91.4727C79.7728 91.4401 79.8216 91.4238 79.8867 91.4238C80.1146 91.2936 80.2448 91.196 80.2773 91.1309C80.3424 91.0983 80.4076 91.0658 80.4727 91.0332C80.8633 90.8379 81.14 90.6914 81.3027 90.5938C81.4655 90.5286 81.6283 90.4473 81.791 90.3496C82.2142 90.0892 82.5234 89.8288 82.7188 89.5684C83.0443 89.3079 83.207 89.1289 83.207 89.0312C83.207 88.9661 83.2559 88.9499 83.3535 88.9824C83.5488 88.7871 83.6628 88.6569 83.6953 88.5918C83.7279 88.5592 83.793 88.543 83.8906 88.543C84.0534 88.2826 84.1673 88.1035 84.2324 88.0059C84.2975 87.9408 84.4115 87.8757 84.5742 87.8105C84.8346 87.5827 85.0299 87.4362 85.1602 87.3711C85.3229 87.3385 85.502 87.3385 85.6973 87.3711C85.8926 87.5339 85.8926 87.6966 85.6973 87.8594C85.5345 88.0221 85.4206 88.2012 85.3555 88.3965C85.1927 88.5592 85.0625 88.6569 84.9648 88.6895C84.8997 88.722 84.8509 88.8034 84.8184 88.9336C84.3626 89.0964 84.0859 89.373 83.9883 89.7637C83.8255 89.7962 83.7116 89.8613 83.6465 89.959C83.6139 90.0892 83.5488 90.2031 83.4512 90.3008C83.1908 90.5286 83.028 90.6426 82.9629 90.6426C82.8978 90.6751 82.8652 90.7565 82.8652 90.8867C82.5072 91.0169 82.3118 91.1146 82.2793 91.1797C82.2467 91.2773 82.1979 91.3587 82.1328 91.4238C81.8398 91.5866 81.6934 91.7168 81.6934 91.8145L80.8633 92.3027C80.7982 92.3678 80.7005 92.4329 80.5703 92.498C80.4727 92.5632 80.3913 92.6608 80.3262 92.791C79.9681 92.9212 79.7565 92.9863 79.6914 92.9863C79.6263 93.0189 79.5449 93.0352 79.4473 93.0352C79.3171 93.0352 79.2194 93.084 79.1543 93.1816C79.1217 93.2793 79.0729 93.3607 79.0078 93.4258L78.373 93.7188C78.2754 93.7839 78.1777 93.8327 78.0801 93.8652C77.9824 93.8978 77.901 93.9466 77.8359 94.0117C77.543 94.1745 77.3477 94.2559 77.25 94.2559C77.1523 94.2884 77.071 94.3372 77.0059 94.4023C76.7129 94.4349 76.5339 94.4512 76.4688 94.4512C76.4362 94.4512 76.3874 94.4674 76.3223 94.5C75.9316 94.7604 75.6875 94.8906 75.5898 94.8906C75.5247 94.8906 75.4434 94.9232 75.3457 94.9883C75.0853 95.0534 74.9062 95.1022 74.8086 95.1348C74.418 95.1673 74.1901 95.1673 74.125 95.1348C74.0599 95.1348 74.0111 95.1348 73.9785 95.1348C73.8483 95.1999 73.7507 95.265 73.6855 95.3301C73.6204 95.3952 73.5391 95.4766 73.4414 95.5742C73.2786 95.5091 73.1159 95.4928 72.9531 95.5254C72.8229 95.5579 72.6602 95.5905 72.4648 95.623C72.3021 95.623 72.123 95.5905 71.9277 95.5254C71.765 95.4928 71.6022 95.5091 71.4395 95.5742C71.3092 95.5742 71.1953 95.6068 71.0977 95.6719C71 95.7695 70.9023 95.8509 70.8047 95.916C70.4466 95.7858 70.1211 95.8021 69.8281 95.9648C69.763 95.8997 69.6491 95.8672 69.4863 95.8672C69.3561 95.8672 69.2259 95.8997 69.0957 95.9648C68.8353 95.8672 68.6562 95.8184 68.5586 95.8184C68.4935 95.8509 68.4121 95.8672 68.3145 95.8672C67.9889 95.737 67.8099 95.7044 67.7773 95.7695C67.7448 95.8346 67.696 95.8672 67.6309 95.8672C67.4681 95.8346 67.3542 95.8184 67.2891 95.8184C67.224 95.8184 67.1263 95.8509 66.9961 95.916C66.8333 95.7533 66.6055 95.6882 66.3125 95.7207C66.0521 95.7858 65.8405 95.737 65.6777 95.5742C65.4824 95.6068 65.3359 95.6068 65.2383 95.5742C65.1406 95.5742 65.0755 95.5091 65.043 95.3789C64.6198 95.3789 64.2943 95.3626 64.0664 95.3301C63.8711 95.2975 63.6921 95.1999 63.5293 95.0371C63.1712 95.0046 62.9434 94.9395 62.8457 94.8418C62.748 94.7767 62.5853 94.7441 62.3574 94.7441C62.2923 94.679 62.2109 94.5977 62.1133 94.5C62.0482 94.4023 61.9831 94.321 61.918 94.2559C61.6576 94.2884 61.4622 94.2721 61.332 94.207C61.2018 94.1419 61.0228 94.1094 60.7949 94.1094C60.6322 93.9466 60.4694 93.849 60.3066 93.8164C60.1439 93.7839 59.9811 93.7025 59.8184 93.5723C59.4603 93.3444 59.2487 93.2142 59.1836 93.1816C59.151 93.1816 59.1185 93.1654 59.0859 93.1328C58.9883 93.0677 58.8743 93.0026 58.7441 92.9375C58.6465 92.8724 58.5163 92.8236 58.3535 92.791C58.2884 92.6934 58.2233 92.5957 58.1582 92.498C58.0931 92.4329 57.9792 92.3841 57.8164 92.3516C57.556 92.0586 57.3932 91.9284 57.3281 91.9609C57.2956 92.026 57.2467 92.0423 57.1816 92.0098C57.1165 91.8796 57.0026 91.7819 56.8398 91.7168C56.7096 91.6842 56.612 91.6029 56.5469 91.4727C56.319 91.3424 56.1888 91.2448 56.1562 91.1797C56.1237 91.1471 56.0911 91.082 56.0586 90.9844C55.8633 90.9193 55.7005 90.8053 55.5703 90.6426C55.4727 90.5124 55.3099 90.4147 55.082 90.3496C54.9193 90.1217 54.8053 89.959 54.7402 89.8613C54.7077 89.7962 54.6589 89.7311 54.5938 89.666C54.3659 89.4056 54.1706 89.2266 54.0078 89.1289C53.8776 89.0638 53.7799 88.9499 53.7148 88.7871C53.487 88.6243 53.3405 88.5104 53.2754 88.4453C53.2103 88.4128 53.1452 88.3639 53.0801 88.2988C52.8848 88.1035 52.7708 87.9896 52.7383 87.957C52.7383 87.9245 52.722 87.8919 52.6895 87.8594C52.429 87.6315 52.2663 87.5013 52.2012 87.4688C52.1686 87.4362 52.1686 87.3874 52.2012 87.3223C52.0384 87.2246 51.9245 87.0781 51.8594 86.8828C51.7943 86.7201 51.6803 86.6061 51.5176 86.541C51.5176 86.4434 51.4688 86.3457 51.3711 86.248C51.306 86.1504 51.2409 86.069 51.1758 86.0039C51.1107 85.9388 51.0618 85.8574 51.0293 85.7598C50.9967 85.6621 50.9479 85.5807 50.8828 85.5156C50.6875 85.3529 50.5736 85.2389 50.541 85.1738C50.541 85.1087 50.5247 85.0599 50.4922 85.0273C50.362 84.832 50.2643 84.7018 50.1992 84.6367C50.1667 84.6042 50.1178 84.5553 50.0527 84.4902C49.9876 84.3275 49.9225 84.181 49.8574 84.0508C49.7923 83.9206 49.6947 83.7904 49.5645 83.6602C49.4993 83.2695 49.3691 82.9766 49.1738 82.7812C49.0436 82.4232 48.9134 82.2116 48.7832 82.1465C48.8483 82.0488 48.8483 81.9674 48.7832 81.9023C48.7507 81.8372 48.7018 81.7396 48.6367 81.6094C48.5391 81.1211 48.4414 80.8281 48.3438 80.7305C48.2786 80.6328 48.1973 80.5352 48.0996 80.4375C48.0996 80.2096 48.002 79.998 47.8066 79.8027C47.8717 79.4772 47.8066 79.2656 47.6113 79.168L47.5137 78.5332C47.416 78.2402 47.3509 78.0124 47.3184 77.8496C47.3184 77.6543 47.2695 77.5078 47.1719 77.4102C47.1068 77.1172 47.0742 76.9219 47.0742 76.8242C47.0742 76.7266 47.0417 76.6126 46.9766 76.4824C46.8789 76.3197 46.8301 76.2057 46.8301 76.1406C46.8626 76.0755 46.8626 76.0104 46.8301 75.9453L46.7324 75.2129C46.6673 74.8548 46.651 74.6758 46.6836 74.6758C46.6836 74.6107 46.651 74.513 46.5859 74.3828C46.5534 74.2201 46.5371 74.1061 46.5371 74.041C46.5371 73.9759 46.5371 73.862 46.5371 73.6992C46.5697 73.5365 46.5859 73.3737 46.5859 73.2109C46.5859 73.1133 46.5697 73.0319 46.5371 72.9668C46.5046 72.8691 46.4883 72.7715 46.4883 72.6738C46.5208 72.3483 46.5208 72.1367 46.4883 72.0391C46.4883 71.9089 46.5208 71.7624 46.5859 71.5996C46.4883 71.4368 46.4557 71.2415 46.4883 71.0137C46.5534 70.7858 46.5859 70.5254 46.5859 70.2324C46.5534 69.972 46.5534 69.793 46.5859 69.6953C46.6185 69.5977 46.6348 69.4837 46.6348 69.3535V68.7676C46.6022 68.3118 46.6022 68.0352 46.6348 67.9375C46.6999 67.8073 46.6999 67.6771 46.6348 67.5469C46.7324 67.4818 46.7812 67.3516 46.7812 67.1562C46.7812 66.9609 46.7975 66.7656 46.8301 66.5703C46.9603 66.2448 47.0254 65.9844 47.0254 65.7891C47.0579 65.5612 47.1068 65.3659 47.1719 65.2031C47.2044 65.1055 47.237 65.0078 47.2695 64.9102C47.3346 64.8125 47.3672 64.7148 47.3672 64.6172C47.4974 64.2917 47.5625 64.0638 47.5625 63.9336C47.6927 63.6406 47.7578 63.4616 47.7578 63.3965C47.7904 63.2988 47.8066 63.2174 47.8066 63.1523C47.9043 62.7617 47.9694 62.5339 48.002 62.4688C48.0671 62.4036 48.1159 62.3385 48.1484 62.2734C48.2135 61.9479 48.2298 61.7852 48.1973 61.7852C48.1647 61.7526 48.1647 61.7038 48.1973 61.6387C48.2624 61.4434 48.3763 61.2969 48.5391 61.1992C48.5716 61.069 48.6204 60.9714 48.6855 60.9062C48.7507 60.8411 48.7832 60.7272 48.7832 60.5645L49.0762 60.0273C49.2715 59.9948 49.3854 59.9134 49.418 59.7832C49.4505 59.6204 49.4831 59.4577 49.5156 59.2949C49.7109 59.1322 49.8411 59.0345 49.9062 59.002C50.0039 58.9694 50.0365 58.8717 50.0039 58.709C50.1667 58.5462 50.3132 58.3835 50.4434 58.2207C50.5736 58.0579 50.6712 57.8301 50.7363 57.5371C50.9316 57.472 51.0456 57.3906 51.0781 57.293C51.1107 57.1953 51.2083 57.1628 51.3711 57.1953C51.5339 56.9674 51.6478 56.7884 51.7129 56.6582C51.8431 56.4629 52.0059 56.3001 52.2012 56.1699C52.3965 56.0397 52.5267 55.8444 52.5918 55.584C52.8522 55.3236 53.0638 55.1771 53.2266 55.1445C53.4544 54.9167 53.6009 54.7865 53.666 54.7539C53.7311 54.6888 53.7799 54.6074 53.8125 54.5098C53.8776 54.4121 53.9427 54.3145 54.0078 54.2168C54.2357 54.1842 54.431 53.9889 54.5938 53.6309C54.7891 53.5983 54.9355 53.5169 55.0332 53.3867C55.1309 53.2565 55.2773 53.1589 55.4727 53.0938C55.5052 52.9635 55.5703 52.8822 55.668 52.8496C55.7982 52.7845 55.8796 52.6868 55.9121 52.5566C56.3678 52.3939 56.612 52.2637 56.6445 52.166C56.7096 52.0684 56.8236 52.0195 56.9863 52.0195C57.1816 51.8242 57.2793 51.694 57.2793 51.6289C57.3118 51.5312 57.4095 51.4824 57.5723 51.4824C57.7025 51.2871 57.7839 51.1732 57.8164 51.1406C57.849 51.1081 57.8978 51.0918 57.9629 51.0918C58.1257 50.9941 58.2559 50.8965 58.3535 50.7988C58.4837 50.6686 58.6465 50.571 58.8418 50.5059C59.0046 50.4082 59.151 50.3105 59.2812 50.2129C59.4115 50.1152 59.5742 50.0339 59.7695 49.9688C60.0299 49.7083 60.1602 49.5781 60.1602 49.5781C60.1927 49.5456 60.2253 49.4967 60.2578 49.4316C60.5833 49.2689 60.8275 49.1061 60.9902 48.9434C61.2832 48.748 61.4785 48.6504 61.5762 48.6504C61.7064 48.6178 61.7715 48.5365 61.7715 48.4062C62.097 48.4714 62.3411 48.4225 62.5039 48.2598C62.6992 48.0645 62.9759 47.9505 63.334 47.918C63.4967 47.7552 63.6921 47.6087 63.9199 47.4785C64.0827 47.3809 64.2129 47.332 64.3105 47.332C64.4082 47.2995 64.4896 47.2344 64.5547 47.1367C64.7826 47.1042 64.929 47.0391 64.9941 46.9414C65.0918 46.8438 65.2383 46.8112 65.4336 46.8438C65.7266 46.681 66.0521 46.5508 66.4102 46.4531C66.7682 46.3229 67.0775 46.1764 67.3379 46.0137C67.5983 46.0137 67.8262 45.9648 68.0215 45.8672C68.2493 45.7695 68.4284 45.737 68.5586 45.7695C68.7214 45.7695 68.8678 45.737 68.998 45.6719C69.1283 45.6393 69.2422 45.5905 69.3398 45.5254C69.4701 45.4277 69.6003 45.3952 69.7305 45.4277C70.1536 45.3301 70.4141 45.2975 70.5117 45.3301C70.6094 45.2975 70.6908 45.265 70.7559 45.2324C70.821 45.1999 70.9023 45.151 71 45.0859C71.2279 45.151 71.4395 45.151 71.6348 45.0859C71.8301 44.9883 72.0091 44.972 72.1719 45.0371C72.3997 45.0046 72.5462 44.972 72.6113 44.9395C72.709 44.9069 72.7741 44.9232 72.8066 44.9883C72.8717 44.9232 72.9368 44.9069 73.002 44.9395C73.0996 44.9395 73.2135 44.9069 73.3438 44.8418C73.4089 44.9395 73.5228 44.9883 73.6855 44.9883C73.8483 44.9557 74.0111 44.9557 74.1738 44.9883C74.4993 45.0859 74.6621 45.1185 74.6621 45.0859C74.6621 45.0208 74.6947 44.972 74.7598 44.9395C74.9551 44.8743 75.1016 44.8743 75.1992 44.9395C75.3294 45.0046 75.4759 45.0046 75.6387 44.9395L76.2734 44.793ZM109.623 78.4355C109.883 78.8262 110.079 79.054 110.209 79.1191C110.144 79.3145 110.16 79.4935 110.258 79.6562C110.388 79.819 110.453 80.0143 110.453 80.2422C110.648 80.5677 110.779 80.8444 110.844 81.0723C111.007 81.6908 111.186 82.0977 111.381 82.293C111.381 82.651 111.413 82.9766 111.479 83.2695C111.544 83.5625 111.56 83.888 111.527 84.2461C111.299 84.6693 111.153 85.0436 111.088 85.3691C111.055 85.6947 110.958 85.9551 110.795 86.1504C110.827 86.5085 110.762 86.7852 110.6 86.9805C110.437 87.1758 110.323 87.4362 110.258 87.7617C110.095 87.7943 109.981 87.9408 109.916 88.2012C109.656 88.2988 109.46 88.4616 109.33 88.6895C109.232 88.9173 109.037 89.0638 108.744 89.1289C108.516 89.4219 108.354 89.6172 108.256 89.7148C108.158 89.8125 108.044 89.8939 107.914 89.959C107.621 90.3171 107.41 90.5286 107.279 90.5938C107.149 90.6914 106.986 90.7728 106.791 90.8379C106.726 91.0007 106.645 91.0983 106.547 91.1309C106.449 91.196 106.368 91.3099 106.303 91.4727C106.01 91.7005 105.798 91.8307 105.668 91.8633C105.538 91.8958 105.44 91.9935 105.375 92.1562C104.984 92.3841 104.724 92.5469 104.594 92.6445C104.496 92.7422 104.382 92.8561 104.252 92.9863C104.154 93.084 104.057 93.1491 103.959 93.1816C103.861 93.2142 103.812 93.2793 103.812 93.377C103.552 93.377 103.389 93.5072 103.324 93.7676C102.999 93.8652 102.787 93.9141 102.689 93.9141C102.429 94.0768 102.25 94.1908 102.152 94.2559C102.055 94.321 101.973 94.4023 101.908 94.5C101.55 94.7604 101.371 94.8743 101.371 94.8418C101.241 94.972 101.078 95.0697 100.883 95.1348C100.72 95.1999 100.574 95.2975 100.443 95.4277C100.15 95.5579 99.9388 95.6556 99.8086 95.7207C99.7109 95.8184 99.6296 95.9323 99.5645 96.0625C99.1413 96.1602 98.9134 96.2415 98.8809 96.3066C98.8483 96.3717 98.7832 96.4206 98.6855 96.4531C98.2624 96.4206 97.9694 96.5345 97.8066 96.7949C97.709 96.7624 97.6113 96.7624 97.5137 96.7949C97.416 96.86 97.3021 96.8926 97.1719 96.8926C96.7487 96.9577 96.5046 96.9902 96.4395 96.9902C96.2767 97.0553 96.1139 97.0716 95.9512 97.0391C95.821 97.0391 95.6908 97.0879 95.5605 97.1855C95.3978 97.0879 95.1862 97.0879 94.9258 97.1855C94.6979 97.2507 94.5677 97.2669 94.5352 97.2344C94.5026 97.2344 94.4538 97.2344 94.3887 97.2344C94.1934 97.2018 93.9818 97.2018 93.7539 97.2344C93.526 97.2669 93.3307 97.2669 93.168 97.2344C92.8424 97.1367 92.6634 97.0716 92.6309 97.0391C92.6309 97.0391 92.5983 97.0065 92.5332 96.9414C92.4355 97.0065 92.3216 97.0228 92.1914 96.9902C92.0938 96.9577 91.9961 96.9251 91.8984 96.8926C91.7357 96.86 91.5566 96.8438 91.3613 96.8438C91.1986 96.8763 91.0358 96.86 90.873 96.7949C90.3848 96.7624 90.0755 96.6973 89.9453 96.5996C89.8151 96.502 89.6198 96.4531 89.3594 96.4531C89.0013 96.2578 88.7734 96.0299 88.6758 95.7695C88.4154 95.737 88.2526 95.7044 88.1875 95.6719C88.1224 95.6719 88.0736 95.6393 88.041 95.5742C87.5202 95.4115 87.0807 95.1185 86.7227 94.6953C86.6901 94.5326 86.6738 94.4186 86.6738 94.3535C86.6413 94.2884 86.5924 94.2233 86.5273 94.1582C86.4622 94.1257 86.3646 94.1094 86.2344 94.1094C86.1042 94.1094 86.0065 94.0768 85.9414 94.0117C85.7135 93.7188 85.5833 93.5234 85.5508 93.4258C85.4857 93.3607 85.4857 93.3118 85.5508 93.2793C85.3229 92.9538 85.209 92.7747 85.209 92.7422C85.209 92.7096 85.1927 92.6608 85.1602 92.5957C84.9648 92.3678 84.8672 92.2051 84.8672 92.1074C84.8346 92.0098 84.8021 91.8958 84.7695 91.7656C84.6719 91.7005 84.6068 91.6029 84.5742 91.4727C84.5091 91.3424 84.4277 91.2448 84.3301 91.1797C84.1999 90.8867 84.1348 90.7077 84.1348 90.6426C84.1348 90.5775 84.1022 90.5612 84.0371 90.5938C84.0697 90.2357 84.0208 90.0404 83.8906 90.0078C83.9557 89.6823 83.972 89.5033 83.9395 89.4707C83.9069 89.4707 83.8906 89.4382 83.8906 89.373C83.9883 89.1126 84.0208 88.9499 83.9883 88.8848C83.9557 88.8197 83.9395 88.7383 83.9395 88.6406C83.972 88.5104 84.0371 88.3802 84.1348 88.25C84.1999 88.1523 84.1836 88.0221 84.0859 87.8594C84.2487 87.7617 84.3464 87.599 84.3789 87.3711C84.3789 87.1758 84.3952 86.9967 84.4277 86.834C84.5579 86.7689 84.6719 86.7201 84.7695 86.6875C84.8672 86.6549 84.9323 86.5736 84.9648 86.4434C84.9648 86.2155 84.9648 86.069 84.9648 86.0039C84.9323 85.9714 84.9486 85.9225 85.0137 85.8574C85.1113 85.6621 85.1927 85.5482 85.2578 85.5156C85.3229 85.4831 85.3555 85.418 85.3555 85.3203C85.5182 85.0924 85.6484 84.9297 85.7461 84.832C85.8112 84.7344 85.8763 84.6367 85.9414 84.5391C86.1042 84.2786 86.2018 84.1159 86.2344 84.0508C86.2344 84.0182 86.2507 83.9857 86.2832 83.9531C86.3809 83.8555 86.4785 83.7578 86.5762 83.6602C86.6738 83.5951 86.7552 83.5299 86.8203 83.4648C87.0156 83.2044 87.1458 83.0417 87.2109 82.9766C87.276 82.944 87.276 82.8789 87.2109 82.7812C87.5365 82.5859 87.7155 82.4557 87.748 82.3906C87.8132 82.3255 87.8945 82.293 87.9922 82.293C88.0898 82.1302 88.2363 81.9837 88.4316 81.8535C88.627 81.6908 88.7572 81.5931 88.8223 81.5605C88.8874 81.528 88.9199 81.4792 88.9199 81.4141C89.3105 81.1211 89.6686 80.8607 89.9941 80.6328C90.0592 80.5677 90.1243 80.5026 90.1895 80.4375C90.2546 80.3724 90.3197 80.3073 90.3848 80.2422C90.7428 80.0469 90.9382 79.9167 90.9707 79.8516C91.1335 79.7865 91.2637 79.7051 91.3613 79.6074C91.4915 79.5098 91.6055 79.4935 91.7031 79.5586C92.0612 79.2656 92.2728 79.1191 92.3379 79.1191C92.4355 79.0866 92.5658 79.0378 92.7285 78.9727C92.9889 78.875 93.1354 78.8424 93.168 78.875C93.2005 78.9076 93.2493 78.9401 93.3145 78.9727C93.5423 79.2331 93.5911 79.4121 93.4609 79.5098C93.3307 79.6074 93.2493 79.7539 93.2168 79.9492C92.8262 80.0794 92.6146 80.1771 92.582 80.2422C92.582 80.2747 92.5495 80.3073 92.4844 80.3398C91.931 80.5026 91.6055 80.763 91.5078 81.1211C91.1497 81.2839 90.9544 81.3815 90.9219 81.4141C90.9219 81.4466 90.9056 81.4792 90.873 81.5117C90.6126 81.6094 90.4173 81.7721 90.2871 82C89.8965 82.3255 89.6361 82.5371 89.5059 82.6348C89.4082 82.765 89.278 82.8626 89.1152 82.9277C89.0501 83.2207 88.9525 83.3997 88.8223 83.4648C88.7572 83.7253 88.6595 83.9531 88.5293 84.1484C88.4316 84.3438 88.3014 84.5391 88.1387 84.7344C88.1387 85.0273 88.0736 85.2878 87.9434 85.5156C87.8457 85.7435 87.8294 85.9876 87.8945 86.248C87.7318 86.5736 87.6667 86.7526 87.6992 86.7852C87.7318 86.8177 87.748 86.8665 87.748 86.9316C87.6829 87.3548 87.6341 87.7617 87.6016 88.1523C87.6016 88.543 87.748 88.8522 88.041 89.0801C88.0736 89.4707 88.1387 89.6823 88.2363 89.7148C88.3665 90.0404 88.513 90.252 88.6758 90.3496C88.806 90.6426 88.9036 90.8542 88.9688 90.9844C89.0339 91.1146 89.1478 91.2122 89.3105 91.2773C89.278 91.5378 89.2943 91.668 89.3594 91.668C89.457 91.7005 89.5384 91.7493 89.6035 91.8145C89.9616 92.2051 90.2546 92.4492 90.4824 92.5469C90.7103 92.6771 90.9219 92.7585 91.1172 92.791C91.3776 92.9538 91.5729 93.1003 91.7031 93.2305C91.8333 93.3932 91.9961 93.4258 92.1914 93.3281C92.3216 93.4583 92.4518 93.5723 92.582 93.6699C92.7122 93.7676 92.8587 93.849 93.0215 93.9141C93.4447 93.9466 93.6888 93.9792 93.7539 94.0117C93.819 94.0443 93.9004 94.0768 93.998 94.1094C94.4538 94.1745 94.7305 94.1908 94.8281 94.1582C94.9583 94.1257 95.0723 94.1419 95.1699 94.207C95.3652 94.1745 95.4792 94.1745 95.5117 94.207C95.5768 94.2396 95.6419 94.2884 95.707 94.3535C95.9349 94.321 96.1465 94.3047 96.3418 94.3047C96.5371 94.3372 96.7812 94.3535 97.0742 94.3535C97.3997 94.2233 97.5951 94.1582 97.6602 94.1582C97.7253 94.1582 97.8392 94.1419 98.002 94.1094C98.2949 94.0768 98.5553 94.0443 98.7832 94.0117C99.1738 93.9792 99.5319 93.8815 99.8574 93.7188C100.215 93.4909 100.411 93.377 100.443 93.377C100.508 93.4095 100.574 93.4095 100.639 93.377C101.062 93.1491 101.306 93.0026 101.371 92.9375C101.469 92.8724 101.55 92.8073 101.615 92.7422C101.745 92.7747 101.876 92.7422 102.006 92.6445C102.136 92.5794 102.266 92.5143 102.396 92.4492C102.527 92.1562 102.641 91.9772 102.738 91.9121C102.836 91.847 102.95 91.847 103.08 91.9121C103.145 91.847 103.21 91.7819 103.275 91.7168C103.34 91.6517 103.389 91.5703 103.422 91.4727C103.747 91.2448 103.91 91.1309 103.91 91.1309C103.91 91.1634 103.943 91.1797 104.008 91.1797C104.203 91.0169 104.333 90.903 104.398 90.8379C104.464 90.8053 104.545 90.7565 104.643 90.6914C105.066 90.3984 105.342 90.1543 105.473 89.959C105.701 89.666 105.831 89.5033 105.863 89.4707C106.124 89.1777 106.254 89.015 106.254 88.9824C106.254 88.9824 106.286 88.9499 106.352 88.8848C106.742 88.4616 106.97 87.9896 107.035 87.4688C107.165 87.4036 107.23 87.2897 107.23 87.127C107.23 86.9642 107.296 86.8665 107.426 86.834C107.393 86.7038 107.393 86.5898 107.426 86.4922C107.491 86.3945 107.54 86.2969 107.572 86.1992C107.54 85.9714 107.54 85.8086 107.572 85.7109C107.637 85.6458 107.67 85.5645 107.67 85.4668C107.507 85.2064 107.442 85.0436 107.475 84.9785C107.54 84.9134 107.589 84.832 107.621 84.7344C107.621 84.6693 107.605 84.5879 107.572 84.4902C107.572 84.3926 107.572 84.2949 107.572 84.1973C107.475 83.7415 107.426 83.4974 107.426 83.4648C107.361 83.1719 107.328 82.9766 107.328 82.8789C107.328 82.8138 107.296 82.7487 107.23 82.6836C107.198 82.5859 107.182 82.4883 107.182 82.3906C107.182 82.3255 107.149 82.2279 107.084 82.0977C106.986 81.8698 106.905 81.707 106.84 81.6094C106.807 81.5117 106.775 81.4141 106.742 81.3164C106.677 81.1536 106.628 81.0072 106.596 80.877C106.596 80.7467 106.563 80.6328 106.498 80.5352C106.368 80.3398 106.286 80.2096 106.254 80.1445C106.221 80.0794 106.173 80.0306 106.107 79.998C106.01 79.6725 105.88 79.4609 105.717 79.3633C105.619 79.0703 105.554 78.875 105.521 78.7773C105.489 78.6797 105.44 78.5983 105.375 78.5332C105.31 78.4681 105.261 78.3867 105.229 78.2891C105.196 78.1914 105.163 78.11 105.131 78.0449L104.838 77.459C104.577 77.166 104.398 76.9707 104.301 76.873C104.203 76.7754 104.138 76.6289 104.105 76.4336C104.04 76.3359 103.959 76.2708 103.861 76.2383C103.764 76.1732 103.699 76.0592 103.666 75.8965C103.568 75.7337 103.438 75.571 103.275 75.4082C103.21 75.2454 103.145 75.1152 103.08 75.0176C103.015 74.9199 102.934 74.7897 102.836 74.627C102.738 74.4642 102.624 74.2852 102.494 74.0898C102.331 73.8294 102.217 73.6667 102.152 73.6016C102.12 73.5365 102.087 73.4714 102.055 73.4062C101.892 73.2435 101.811 73.1458 101.811 73.1133C101.811 73.0482 101.794 72.9831 101.762 72.918C101.566 72.6576 101.436 72.4622 101.371 72.332C101.241 72.0716 101.143 71.9414 101.078 71.9414C101.013 71.9089 100.964 71.86 100.932 71.7949C100.867 71.6322 100.818 71.5345 100.785 71.502C100.753 71.4368 100.704 71.3717 100.639 71.3066C100.378 70.8509 100.167 70.5091 100.004 70.2812C99.9388 70.1836 99.8737 70.0859 99.8086 69.9883C99.776 69.8581 99.6947 69.7604 99.5645 69.6953C99.3691 69.4023 99.2227 69.1745 99.125 69.0117C99.0599 68.849 98.946 68.735 98.7832 68.6699C98.653 68.377 98.5553 68.1491 98.4902 67.9863C98.4251 67.8236 98.3112 67.6934 98.1484 67.5957C98.0833 67.2376 98.0345 67.0423 98.002 67.0098C97.8717 66.7168 97.7415 66.5378 97.6113 66.4727C97.4486 66.1471 97.3346 65.903 97.2695 65.7402C97.0417 65.3822 96.9115 65.1868 96.8789 65.1543C96.8464 65.1217 96.765 65.0892 96.6348 65.0566C96.5371 64.8939 96.472 64.7962 96.4395 64.7637C96.4395 64.6986 96.4069 64.6335 96.3418 64.5684C96.1465 64.2754 96.0326 64.1289 96 64.1289C95.9674 64.1289 95.9349 64.1126 95.9023 64.0801C95.8698 63.9173 95.7559 63.7057 95.5605 63.4453C95.1699 63.0221 94.8932 62.6478 94.7305 62.3223C94.4375 61.9642 94.2422 61.7689 94.1445 61.7363C94.0469 61.6712 93.998 61.5573 93.998 61.3945C93.8678 61.2969 93.7702 61.1829 93.7051 61.0527C93.6725 60.89 93.5911 60.776 93.4609 60.7109C93.3307 60.2878 93.2168 60.0762 93.1191 60.0762C93.0866 59.9134 93.0215 59.7669 92.9238 59.6367C92.8262 59.5065 92.7285 59.3763 92.6309 59.2461C92.5332 59.1159 92.4518 58.9857 92.3867 58.8555C92.3216 58.7253 92.224 58.6113 92.0938 58.5137C92.1263 58.3835 92.11 58.3021 92.0449 58.2695C91.9798 58.2044 91.9635 58.0905 91.9961 57.9277C91.931 57.8626 91.8659 57.8138 91.8008 57.7812C91.7357 57.7161 91.6543 57.651 91.5566 57.5859C91.5892 57.4557 91.5892 57.3255 91.5566 57.1953C91.5566 57.0651 91.4753 57 91.3125 57C91.3125 56.6094 91.2962 56.3978 91.2637 56.3652C91.2637 56.3001 91.2799 56.235 91.3125 56.1699C91.1823 55.5189 91.0846 55.0469 91.0195 54.7539C90.9544 54.4609 90.9544 54.1354 91.0195 53.7773C91.0846 53.5495 91.1009 53.403 91.0684 53.3379C91.0684 53.2728 91.0684 53.2077 91.0684 53.1426C91.0684 53.0775 91.0846 53.0124 91.1172 52.9473C91.1823 52.8496 91.1823 52.7357 91.1172 52.6055C91.1823 52.3451 91.2148 52.1823 91.2148 52.1172C91.2474 52.0521 91.2311 52.0033 91.166 51.9707C91.1986 51.6126 91.2962 51.3522 91.459 51.1895C91.4915 50.9616 91.5078 50.8151 91.5078 50.75C91.5404 50.6849 91.5892 50.6523 91.6543 50.6523C91.8171 50.1315 92.0286 49.7246 92.2891 49.4316C92.4193 49.1387 92.5169 48.9596 92.582 48.8945C92.6471 48.7969 92.7611 48.748 92.9238 48.748C92.9889 48.5853 93.0866 48.4388 93.2168 48.3086C93.347 48.1784 93.4609 48.0319 93.5586 47.8691C93.8841 47.7064 94.0957 47.4785 94.1934 47.1855C94.3561 47.1855 94.4538 47.153 94.4863 47.0879C94.5514 46.9902 94.6491 46.9089 94.7793 46.8438C94.9095 46.5508 95.056 46.4043 95.2188 46.4043C95.4466 46.2415 95.5605 46.1439 95.5605 46.1113C95.5605 46.0462 95.5931 45.9974 95.6582 45.9648C95.7884 45.8997 95.9186 45.8184 96.0488 45.7207C96.2116 45.623 96.3743 45.5417 96.5371 45.4766L97.0742 45.2324C97.237 45.1673 97.3509 45.0697 97.416 44.9395C97.4811 44.8092 97.6276 44.7767 97.8555 44.8418C98.0508 44.679 98.2298 44.5651 98.3926 44.5C98.5228 44.4023 98.6855 44.3372 98.8809 44.3047C99.0762 44.2396 99.2552 44.1419 99.418 44.0117C99.8086 43.9141 100.004 43.8327 100.004 43.7676C100.004 43.7025 100.02 43.6536 100.053 43.6211C100.248 43.5885 100.427 43.556 100.59 43.5234C100.785 43.4909 100.964 43.4258 101.127 43.3281C101.322 43.3281 101.452 43.3281 101.518 43.3281C101.615 43.3281 101.729 43.2956 101.859 43.2305C102.087 43.263 102.217 43.263 102.25 43.2305C102.283 43.1654 102.331 43.1003 102.396 43.0352C102.494 43.1003 102.592 43.1165 102.689 43.084C102.787 43.0514 102.868 43.0026 102.934 42.9375C103.259 43.0026 103.438 42.9701 103.471 42.8398C103.959 42.7422 104.333 42.7422 104.594 42.8398C105.017 42.8398 105.245 42.8724 105.277 42.9375C105.342 42.9701 105.44 42.9701 105.57 42.9375C105.701 43.0677 105.847 43.1491 106.01 43.1816C106.205 43.2142 106.384 43.2467 106.547 43.2793C106.775 43.3444 106.938 43.4258 107.035 43.5234C107.133 43.5885 107.279 43.6048 107.475 43.5723C107.572 43.7025 107.686 43.8164 107.816 43.9141C107.947 44.0117 108.126 44.0605 108.354 44.0605C108.419 44.1908 108.516 44.2721 108.646 44.3047C108.777 44.3047 108.858 44.3698 108.891 44.5C109.216 44.6953 109.395 44.8092 109.428 44.8418C109.493 44.8743 109.525 44.9395 109.525 45.0371C109.786 45.4603 110.062 45.7207 110.355 45.8184C110.421 46.0137 110.518 46.1764 110.648 46.3066C110.779 46.4043 110.876 46.5508 110.941 46.7461C111.072 46.8112 111.153 46.9251 111.186 47.0879C111.251 47.2181 111.316 47.3646 111.381 47.5273C111.544 47.7227 111.658 47.9342 111.723 48.1621C111.82 48.3574 111.918 48.5527 112.016 48.748C112.146 49.0736 112.227 49.2526 112.26 49.2852C112.325 49.3177 112.374 49.3665 112.406 49.4316C112.341 49.7572 112.309 49.9525 112.309 50.0176C112.341 50.0827 112.357 50.1478 112.357 50.2129C112.227 50.5059 112.146 50.7174 112.113 50.8477C112.113 50.9779 112.081 51.0918 112.016 51.1895C111.885 51.5475 111.82 51.7917 111.82 51.9219C111.82 52.0195 111.771 52.0684 111.674 52.0684L111.576 52.7031C111.251 53.1263 111.023 53.3542 110.893 53.3867C110.697 53.6797 110.567 53.875 110.502 53.9727C110.437 54.0703 110.355 54.168 110.258 54.2656C110.193 54.3307 110.111 54.4121 110.014 54.5098C109.949 54.5749 109.883 54.6725 109.818 54.8027C109.525 55.0306 109.363 55.1608 109.33 55.1934C109.298 55.2259 109.232 55.2259 109.135 55.1934C109.07 55.2585 109.021 55.3398 108.988 55.4375C108.956 55.5026 108.891 55.5677 108.793 55.6328C108.858 55.7305 108.842 55.8118 108.744 55.877C108.679 55.9421 108.614 56.0397 108.549 56.1699C108.321 56.3001 108.207 56.3978 108.207 56.4629C108.24 56.4954 108.223 56.5443 108.158 56.6094C107.898 56.6094 107.719 56.6094 107.621 56.6094C107.523 56.6094 107.41 56.6582 107.279 56.7559C107.149 56.6908 107.019 56.6745 106.889 56.707C106.758 56.7396 106.645 56.7233 106.547 56.6582C106.612 56.4303 106.596 56.2839 106.498 56.2188C106.433 56.1536 106.368 56.056 106.303 55.9258C106.433 55.8607 106.498 55.7793 106.498 55.6816C106.531 55.584 106.612 55.5026 106.742 55.4375C106.807 55.2422 106.905 55.0469 107.035 54.8516C107.426 54.6562 107.67 54.4935 107.768 54.3633C107.865 54.2005 107.995 54.0866 108.158 54.0215C108.288 53.6309 108.402 53.3867 108.5 53.2891C108.663 52.8984 108.76 52.6868 108.793 52.6543C108.858 52.6217 108.907 52.5729 108.939 52.5078C108.939 52.2148 108.956 52.0521 108.988 52.0195C109.053 51.987 109.086 51.9382 109.086 51.873C108.988 51.6452 108.939 51.401 108.939 51.1406C109.037 50.9128 109.07 50.75 109.037 50.6523C109.005 50.5547 108.988 50.4408 108.988 50.3105C108.858 50.2454 108.777 50.1315 108.744 49.9688C108.744 49.806 108.695 49.6595 108.598 49.5293C108.598 49.1712 108.565 48.9596 108.5 48.8945C108.435 48.8294 108.37 48.7643 108.305 48.6992C108.109 48.1784 107.914 47.9017 107.719 47.8691C107.556 47.804 107.458 47.6576 107.426 47.4297C107.296 47.3971 107.133 47.2832 106.938 47.0879C106.645 46.7624 106.433 46.5671 106.303 46.502C106.173 46.4043 106.042 46.3066 105.912 46.209C105.619 46.1113 105.456 46.0625 105.424 46.0625C105.391 46.0299 105.359 45.9811 105.326 45.916C105.001 45.916 104.805 45.8997 104.74 45.8672C104.708 45.8021 104.659 45.7533 104.594 45.7207C104.268 45.6882 104.073 45.6719 104.008 45.6719C103.975 45.6393 103.959 45.6556 103.959 45.7207C103.666 45.4928 103.503 45.3952 103.471 45.4277C103.471 45.4603 103.438 45.4766 103.373 45.4766C103.178 45.3464 102.95 45.3138 102.689 45.3789C102.462 45.3464 102.331 45.3464 102.299 45.3789C102.266 45.4115 102.217 45.4277 102.152 45.4277C102.022 45.4277 101.892 45.4277 101.762 45.4277C101.632 45.3952 101.501 45.4115 101.371 45.4766C101.208 45.4115 100.997 45.444 100.736 45.5742C100.508 45.6068 100.378 45.6393 100.346 45.6719C100.313 45.7044 100.264 45.7207 100.199 45.7207C99.8737 45.8184 99.6947 45.8997 99.6621 45.9648C99.6621 45.9974 99.6296 46.0299 99.5645 46.0625C99.1738 46.0951 98.9297 46.1276 98.832 46.1602C98.7344 46.1927 98.6855 46.2578 98.6855 46.3555C98.5228 46.388 98.3926 46.4531 98.2949 46.5508C98.2298 46.6159 98.0996 46.6484 97.9043 46.6484C97.8066 46.7135 97.709 46.7786 97.6113 46.8438C97.5462 46.9089 97.4486 46.9577 97.3184 46.9902C96.9928 47.2832 96.8138 47.3971 96.7812 47.332C96.7812 47.2344 96.6999 47.2181 96.5371 47.2832C96.2116 47.446 96.0326 47.5924 96 47.7227C95.8372 47.8203 95.707 47.9668 95.6094 48.1621C95.5117 48.3574 95.3815 48.5039 95.2188 48.6016C95.0885 48.7643 94.9909 48.8945 94.9258 48.9922C94.8932 49.0573 94.8281 49.1061 94.7305 49.1387C94.7956 49.2689 94.7793 49.3991 94.6816 49.5293C94.6165 49.627 94.6328 49.7572 94.7305 49.9199C94.4701 50.2129 94.3073 50.3757 94.2422 50.4082C94.2096 50.4082 94.1771 50.4408 94.1445 50.5059C94.2096 50.8639 94.2585 51.0918 94.291 51.1895C94.3236 51.2871 94.3561 51.3685 94.3887 51.4336C94.291 52.0195 94.1934 52.3776 94.0957 52.5078C94.1608 52.638 94.2096 52.752 94.2422 52.8496C94.2747 52.9147 94.291 53.0286 94.291 53.1914C94.291 53.3216 94.2747 53.4518 94.2422 53.582C94.2422 53.6797 94.2747 53.7936 94.3398 53.9238C94.4375 54.1842 94.5514 54.3958 94.6816 54.5586C94.8118 54.9818 94.8444 55.2585 94.7793 55.3887C94.7467 55.5189 94.763 55.6654 94.8281 55.8281C94.9258 56.056 95.056 56.1862 95.2188 56.2188C95.1862 56.3164 95.2025 56.4141 95.2676 56.5117C95.3652 56.5768 95.4303 56.6419 95.4629 56.707C95.6257 56.9023 95.7233 57.0488 95.7559 57.1465C95.7884 57.2441 95.8535 57.3255 95.9512 57.3906C95.9186 57.5534 95.9349 57.6673 96 57.7324C96.0651 57.7975 96.1465 57.8626 96.2441 57.9277C96.3092 58.2533 96.3581 58.4323 96.3906 58.4648C96.5534 58.6276 96.6836 58.8066 96.7812 59.002C96.9115 59.1647 97.0417 59.2786 97.1719 59.3438C97.1719 59.4414 97.1882 59.5228 97.2207 59.5879C97.2858 59.653 97.3184 59.7507 97.3184 59.8809C97.416 59.9785 97.4974 60.0924 97.5625 60.2227C97.6602 60.3203 97.7578 60.4342 97.8555 60.5645C98.0182 60.7272 98.0996 60.8411 98.0996 60.9062C98.0996 60.9714 98.1159 61.0365 98.1484 61.1016C98.2461 61.2643 98.3763 61.3945 98.5391 61.4922C98.6042 61.7852 98.7181 61.9967 98.8809 62.127C98.946 62.1921 99.0273 62.2734 99.125 62.3711C99.2227 62.4362 99.3203 62.5176 99.418 62.6152C99.4831 62.6803 99.5319 62.7617 99.5645 62.8594C99.597 62.957 99.6621 63.0221 99.7598 63.0547C99.6947 63.1849 99.7109 63.3151 99.8086 63.4453C99.9062 63.5755 99.9876 63.6895 100.053 63.7871C100.378 64.3405 100.557 64.7799 100.59 65.1055C100.655 65.2031 100.72 65.2845 100.785 65.3496C100.883 65.4147 100.948 65.4961 100.98 65.5938C101.143 65.8542 101.257 66.0169 101.322 66.082C101.42 66.1146 101.485 66.1797 101.518 66.2773C101.713 66.5378 101.876 66.7168 102.006 66.8145C102.136 66.8796 102.25 66.9935 102.348 67.1562C102.51 67.4818 102.641 67.6771 102.738 67.7422C102.771 68.1003 102.82 68.2793 102.885 68.2793C102.982 68.2793 103.048 68.2956 103.08 68.3281C103.21 68.5885 103.275 68.7188 103.275 68.7188C103.308 68.7188 103.34 68.7513 103.373 68.8164C103.438 68.8815 103.487 68.9629 103.52 69.0605C103.585 69.1257 103.666 69.1745 103.764 69.207C103.959 69.5 104.073 69.6628 104.105 69.6953C104.203 69.9557 104.268 70.1022 104.301 70.1348C104.366 70.1673 104.398 70.2161 104.398 70.2812C104.659 70.6393 104.822 70.8997 104.887 71.0625C104.952 71.1927 105.066 71.3066 105.229 71.4043C105.359 71.8275 105.456 72.0228 105.521 71.9902C105.652 72.3158 105.749 72.5436 105.814 72.6738C105.912 72.804 106.026 72.918 106.156 73.0156C106.352 73.2435 106.482 73.4551 106.547 73.6504C106.645 73.8132 106.791 73.9271 106.986 73.9922C107.279 74.513 107.475 74.8548 107.572 75.0176C107.67 75.1478 107.735 75.3431 107.768 75.6035C107.833 75.6686 107.914 75.7337 108.012 75.7988C108.109 75.8639 108.207 75.929 108.305 75.9941C108.402 76.2871 108.484 76.515 108.549 76.6777C108.614 76.8079 108.695 76.9544 108.793 77.1172C108.988 77.4427 109.086 77.638 109.086 77.7031C109.118 77.7357 109.184 77.7682 109.281 77.8008L109.623 78.4355ZM139.652 46.0625C139.587 46.1927 139.522 46.3717 139.457 46.5996C139.424 46.7949 139.457 46.9414 139.555 47.0391C139.62 47.332 139.62 47.4948 139.555 47.5273C139.522 47.5599 139.571 47.625 139.701 47.7227C139.571 47.8854 139.522 48.0807 139.555 48.3086C139.62 48.5039 139.604 48.6829 139.506 48.8457C139.636 49.1061 139.669 49.2526 139.604 49.2852C139.571 49.3177 139.555 49.3665 139.555 49.4316C139.522 49.8223 139.538 50.0176 139.604 50.0176C139.669 50.0176 139.685 50.0501 139.652 50.1152C139.555 50.7988 139.473 51.3848 139.408 51.873C139.376 52.3613 139.457 52.752 139.652 53.0449C139.587 53.403 139.522 53.582 139.457 53.582C139.392 53.5495 139.327 53.5658 139.262 53.6309C139.327 53.7285 139.376 53.8424 139.408 53.9727C139.441 54.1029 139.49 54.2331 139.555 54.3633C139.783 54.4284 139.945 54.4447 140.043 54.4121C140.141 54.347 140.189 54.2493 140.189 54.1191C140.385 53.7936 140.596 53.5495 140.824 53.3867C141.182 53.0612 141.394 52.8171 141.459 52.6543C141.524 52.4915 141.638 52.3776 141.801 52.3125C142.126 51.987 142.338 51.7591 142.436 51.6289C142.696 51.3359 142.777 51.1081 142.68 50.9453C142.875 50.9453 143.021 50.8965 143.119 50.7988C143.217 50.6686 143.347 50.6361 143.51 50.7012C143.575 50.6361 143.64 50.5872 143.705 50.5547C143.803 50.4896 143.868 50.3919 143.9 50.2617C144.291 50.2292 144.535 50.1803 144.633 50.1152C144.763 50.0501 144.942 50.0176 145.17 50.0176C145.333 50.3757 145.398 50.5384 145.365 50.5059C145.365 50.4733 145.333 50.4896 145.268 50.5547C145.17 50.7826 145.089 50.9128 145.023 50.9453C144.991 50.9779 144.991 51.0267 145.023 51.0918L144.73 51.5801C144.503 51.6126 144.324 51.7103 144.193 51.873C144.096 52.0033 143.982 52.1335 143.852 52.2637C143.786 52.459 143.721 52.5729 143.656 52.6055C143.591 52.638 143.526 52.6706 143.461 52.7031C143.331 52.9961 143.233 53.1589 143.168 53.1914C143.135 53.224 143.119 53.2728 143.119 53.3379C142.794 53.5658 142.582 53.7611 142.484 53.9238C142.387 54.054 142.273 54.1842 142.143 54.3145C142.11 54.5098 142.029 54.6562 141.898 54.7539C141.801 54.819 141.736 54.9492 141.703 55.1445C141.573 55.2096 141.475 55.291 141.41 55.3887C141.345 55.4538 141.247 55.5189 141.117 55.584C141.052 55.7467 140.987 55.8607 140.922 55.9258C140.857 55.9909 140.792 56.056 140.727 56.1211C140.564 56.3164 140.45 56.4954 140.385 56.6582L142.191 56.6094C142.517 56.5768 142.696 56.5605 142.729 56.5605C143.087 56.4954 143.298 56.4629 143.363 56.4629C143.754 56.3978 143.982 56.3815 144.047 56.4141C144.145 56.4466 144.226 56.4629 144.291 56.4629C144.747 56.3978 145.089 56.3815 145.316 56.4141C145.577 56.4466 145.837 56.3815 146.098 56.2188C146.423 56.2839 146.586 56.3001 146.586 56.2676C146.586 56.2025 146.602 56.1536 146.635 56.1211C146.863 56.0885 147.058 56.0397 147.221 55.9746C147.416 55.877 147.611 55.9095 147.807 56.0723C147.807 56.4303 147.693 56.6582 147.465 56.7559C147.465 56.9186 147.416 57.0488 147.318 57.1465C147.221 57.2116 147.139 57.3092 147.074 57.4395C146.651 57.5371 146.423 57.651 146.391 57.7812C146.228 57.8138 146.114 57.8789 146.049 57.9766C145.984 58.0742 145.87 58.123 145.707 58.123C145.284 58.3184 145.007 58.4486 144.877 58.5137C144.779 58.5462 144.649 58.5625 144.486 58.5625C144.291 58.5625 144.128 58.5788 143.998 58.6113C143.9 58.6439 143.786 58.6602 143.656 58.6602C143.493 58.6927 143.314 58.709 143.119 58.709C142.924 58.6764 142.745 58.6764 142.582 58.709C142.354 58.8066 142.191 58.8555 142.094 58.8555C142.029 58.8555 141.964 58.888 141.898 58.9531C141.833 58.888 141.736 58.8717 141.605 58.9043C141.508 58.9368 141.426 58.9694 141.361 59.002C141.003 59.0996 140.678 59.1159 140.385 59.0508C140.092 58.9857 139.864 59.0345 139.701 59.1973C139.766 59.5228 139.783 59.6855 139.75 59.6855C139.75 59.6855 139.75 59.7018 139.75 59.7344C139.75 59.7995 139.766 59.9622 139.799 60.2227C139.831 60.4831 139.848 60.6621 139.848 60.7598C139.75 61.0527 139.717 61.2806 139.75 61.4434C139.783 61.5736 139.766 61.7038 139.701 61.834C139.701 62.0293 139.717 62.2083 139.75 62.3711C139.783 62.5013 139.831 62.6152 139.896 62.7129C139.831 63.1361 139.815 63.3965 139.848 63.4941C139.88 63.5918 139.864 63.6895 139.799 63.7871C139.701 64.015 139.669 64.194 139.701 64.3242C139.734 64.4544 139.75 64.6009 139.75 64.7637C139.717 64.9264 139.652 65.0729 139.555 65.2031C139.49 65.3333 139.522 65.4635 139.652 65.5938C139.522 65.8216 139.473 65.9518 139.506 65.9844C139.538 66.0169 139.555 66.0658 139.555 66.1309C139.62 66.5215 139.62 66.7656 139.555 66.8633C139.49 66.9284 139.49 66.9935 139.555 67.0586C139.62 67.2865 139.669 67.4167 139.701 67.4492C139.734 67.4818 139.685 67.5306 139.555 67.5957C139.62 67.6608 139.652 67.7585 139.652 67.8887C139.652 67.9863 139.652 68.084 139.652 68.1816C139.652 68.4421 139.636 68.6211 139.604 68.7188C139.571 68.8164 139.555 68.8978 139.555 68.9629C139.555 69.0931 139.571 69.2233 139.604 69.3535C139.636 69.4512 139.62 69.5814 139.555 69.7441C139.359 70.0371 139.229 70.2324 139.164 70.3301C139.132 70.4277 139.083 70.5091 139.018 70.5742C138.822 70.8021 138.692 70.9486 138.627 71.0137C138.594 71.0462 138.529 71.0625 138.432 71.0625C138.432 71.2253 138.383 71.3392 138.285 71.4043C138.188 71.4368 138.122 71.5345 138.09 71.6973C137.634 71.6973 137.357 71.7624 137.26 71.8926C137.162 71.9902 137.032 72.0228 136.869 71.9902C136.413 72.1204 136.186 72.0879 136.186 71.8926C136.251 71.5996 136.299 71.4043 136.332 71.3066C136.365 71.209 136.381 71.1276 136.381 71.0625C136.348 70.8021 136.348 70.6393 136.381 70.5742C136.413 70.4766 136.381 70.4115 136.283 70.3789C136.413 70.151 136.462 70.0208 136.43 69.9883C136.397 69.9557 136.381 69.9069 136.381 69.8418C136.348 69.4186 136.348 69.1582 136.381 69.0605C136.413 68.9629 136.43 68.8652 136.43 68.7676C136.43 68.6374 136.397 68.5234 136.332 68.4258C136.299 68.2956 136.283 68.1654 136.283 68.0352C136.283 67.9049 136.299 67.791 136.332 67.6934C136.397 67.5632 136.43 67.4167 136.43 67.2539C136.365 66.9935 136.348 66.7819 136.381 66.6191C136.446 66.4564 136.495 66.3099 136.527 66.1797C136.43 65.8867 136.365 65.7402 136.332 65.7402C136.332 65.7077 136.332 65.6751 136.332 65.6426C136.332 65.5124 136.348 65.3984 136.381 65.3008C136.413 65.1706 136.413 65.0566 136.381 64.959C136.381 64.7962 136.381 64.6497 136.381 64.5195C136.381 64.3568 136.43 64.2428 136.527 64.1777C136.495 63.7546 136.462 63.4941 136.43 63.3965C136.397 63.2988 136.381 63.2012 136.381 63.1035C136.413 62.7454 136.446 62.5664 136.479 62.5664C136.413 62.2734 136.348 62.0944 136.283 62.0293C136.381 62.0293 136.43 61.9316 136.43 61.7363C136.462 61.541 136.446 61.4108 136.381 61.3457C136.218 61.3457 136.12 61.4108 136.088 61.541C136.055 61.6712 135.958 61.7689 135.795 61.834C135.632 62.2897 135.486 62.5501 135.355 62.6152C135.258 62.6478 135.242 62.7454 135.307 62.9082C135.014 63.1361 134.802 63.2826 134.672 63.3477C134.509 63.5755 134.411 63.6895 134.379 63.6895C134.346 63.6569 134.298 63.6569 134.232 63.6895C134.167 63.8197 134.086 63.901 133.988 63.9336C133.891 63.9336 133.842 63.9987 133.842 64.1289C133.646 64.1289 133.5 64.194 133.402 64.3242C133.305 64.4219 133.174 64.487 133.012 64.5195C132.719 64.7799 132.491 64.9427 132.328 65.0078C132.165 65.0404 131.986 65.0892 131.791 65.1543C131.726 65.0892 131.677 65.0078 131.645 64.9102C131.612 64.8125 131.579 64.7311 131.547 64.666C131.612 64.6009 131.677 64.5358 131.742 64.4707C131.807 64.373 131.824 64.2266 131.791 64.0312C131.986 63.8034 132.1 63.6732 132.133 63.6406C132.165 63.6081 132.214 63.5918 132.279 63.5918C132.279 63.429 132.328 63.3314 132.426 63.2988C132.556 63.2337 132.605 63.1035 132.572 62.9082C132.67 62.8431 132.768 62.7943 132.865 62.7617C132.963 62.7292 133.012 62.6315 133.012 62.4688C133.207 62.4036 133.354 62.3385 133.451 62.2734C133.549 62.1758 133.679 62.0944 133.842 62.0293C134.005 61.834 134.118 61.7038 134.184 61.6387C134.281 61.541 134.379 61.4434 134.477 61.3457C134.704 61.1504 134.835 61.0039 134.867 60.9062C134.932 60.776 135.03 60.6947 135.16 60.6621C135.421 60.3691 135.551 60.1901 135.551 60.125C135.583 60.0599 135.632 59.9948 135.697 59.9297C135.925 59.7669 136.039 59.653 136.039 59.5879C136.039 59.5228 136.072 59.5065 136.137 59.5391C136.039 59.4089 135.925 59.3763 135.795 59.4414C135.697 59.474 135.583 59.4902 135.453 59.4902C135.258 59.4902 135.062 59.4902 134.867 59.4902C134.672 59.4577 134.493 59.4414 134.33 59.4414H132.426C132.003 59.474 131.726 59.474 131.596 59.4414C131.498 59.4089 131.368 59.3926 131.205 59.3926C131.01 59.3926 130.814 59.4089 130.619 59.4414C130.456 59.474 130.294 59.4902 130.131 59.4902C130.033 59.4902 129.919 59.4902 129.789 59.4902C129.691 59.4577 129.577 59.4577 129.447 59.4902C129.187 59.4577 129.04 59.4577 129.008 59.4902C128.975 59.5228 128.926 59.5391 128.861 59.5391C128.503 59.2135 128.357 59.0182 128.422 58.9531C128.52 58.8555 128.536 58.709 128.471 58.5137L128.861 57.9277C129.024 57.8952 129.138 57.8138 129.203 57.6836C129.301 57.5534 129.447 57.4883 129.643 57.4883C129.805 57.3255 129.952 57.2116 130.082 57.1465C130.31 56.9512 130.505 56.8535 130.668 56.8535C130.961 56.7559 131.173 56.7396 131.303 56.8047C131.465 56.8372 131.612 56.8047 131.742 56.707C131.84 56.7396 131.905 56.7721 131.938 56.8047C132.003 56.8047 132.117 56.7884 132.279 56.7559C132.637 56.8861 132.849 56.9512 132.914 56.9512C132.979 56.9186 133.044 56.8861 133.109 56.8535C133.174 56.9186 133.272 56.9512 133.402 56.9512C133.565 56.9512 133.679 56.9186 133.744 56.8535C134.005 56.9186 134.151 56.9186 134.184 56.8535C134.216 56.7884 134.298 56.7721 134.428 56.8047C134.916 56.8047 135.29 56.8372 135.551 56.9023C135.811 56.9349 136.072 56.9186 136.332 56.8535C136.397 56.5931 136.397 56.3164 136.332 56.0234C136.267 55.6979 136.267 55.4538 136.332 55.291C136.299 54.8678 136.283 54.5749 136.283 54.4121C136.283 54.2493 136.267 54.0866 136.234 53.9238C136.267 53.5332 136.267 53.2565 136.234 53.0938C136.202 52.931 136.218 52.7845 136.283 52.6543L136.186 52.1172C136.251 51.8568 136.267 51.7266 136.234 51.7266C136.202 51.694 136.186 51.6452 136.186 51.5801C136.218 51.4499 136.267 51.3197 136.332 51.1895C136.43 51.0267 136.413 50.8639 136.283 50.7012C136.348 50.6361 136.365 50.5384 136.332 50.4082C136.299 50.278 136.267 50.1803 136.234 50.1152C136.299 49.985 136.332 49.806 136.332 49.5781C136.365 49.3177 136.348 49.0898 136.283 48.8945C136.316 48.5365 136.332 48.2598 136.332 48.0645C136.365 47.8691 136.332 47.6901 136.234 47.5273C136.072 47.3646 136.039 47.2344 136.137 47.1367C136.234 47.0065 136.299 46.8438 136.332 46.6484C136.462 46.5833 136.56 46.5182 136.625 46.4531C136.723 46.3555 136.837 46.2741 136.967 46.209C137.13 46.0462 137.341 45.9323 137.602 45.8672C137.992 45.5742 138.269 45.4115 138.432 45.3789C138.594 45.3138 138.757 45.2161 138.92 45.0859C139.018 45.151 139.099 45.2324 139.164 45.3301C139.229 45.4277 139.311 45.5091 139.408 45.5742C139.408 45.737 139.49 45.8997 139.652 46.0625ZM157.621 46.0625C157.556 46.1927 157.491 46.3717 157.426 46.5996C157.393 46.7949 157.426 46.9414 157.523 47.0391C157.589 47.332 157.589 47.4948 157.523 47.5273C157.491 47.5599 157.54 47.625 157.67 47.7227C157.54 47.8854 157.491 48.0807 157.523 48.3086C157.589 48.5039 157.572 48.6829 157.475 48.8457C157.605 49.1061 157.637 49.2526 157.572 49.2852C157.54 49.3177 157.523 49.3665 157.523 49.4316C157.491 49.8223 157.507 50.0176 157.572 50.0176C157.637 50.0176 157.654 50.0501 157.621 50.1152C157.523 50.7988 157.442 51.3848 157.377 51.873C157.344 52.3613 157.426 52.752 157.621 53.0449C157.556 53.403 157.491 53.582 157.426 53.582C157.361 53.5495 157.296 53.5658 157.23 53.6309C157.296 53.7285 157.344 53.8424 157.377 53.9727C157.41 54.1029 157.458 54.2331 157.523 54.3633C157.751 54.4284 157.914 54.4447 158.012 54.4121C158.109 54.347 158.158 54.2493 158.158 54.1191C158.354 53.7936 158.565 53.5495 158.793 53.3867C159.151 53.0612 159.363 52.8171 159.428 52.6543C159.493 52.4915 159.607 52.3776 159.77 52.3125C160.095 51.987 160.307 51.7591 160.404 51.6289C160.665 51.3359 160.746 51.1081 160.648 50.9453C160.844 50.9453 160.99 50.8965 161.088 50.7988C161.186 50.6686 161.316 50.6361 161.479 50.7012C161.544 50.6361 161.609 50.5872 161.674 50.5547C161.771 50.4896 161.837 50.3919 161.869 50.2617C162.26 50.2292 162.504 50.1803 162.602 50.1152C162.732 50.0501 162.911 50.0176 163.139 50.0176C163.301 50.3757 163.367 50.5384 163.334 50.5059C163.334 50.4733 163.301 50.4896 163.236 50.5547C163.139 50.7826 163.057 50.9128 162.992 50.9453C162.96 50.9779 162.96 51.0267 162.992 51.0918L162.699 51.5801C162.471 51.6126 162.292 51.7103 162.162 51.873C162.064 52.0033 161.951 52.1335 161.82 52.2637C161.755 52.459 161.69 52.5729 161.625 52.6055C161.56 52.638 161.495 52.6706 161.43 52.7031C161.299 52.9961 161.202 53.1589 161.137 53.1914C161.104 53.224 161.088 53.2728 161.088 53.3379C160.762 53.5658 160.551 53.7611 160.453 53.9238C160.355 54.054 160.242 54.1842 160.111 54.3145C160.079 54.5098 159.997 54.6562 159.867 54.7539C159.77 54.819 159.704 54.9492 159.672 55.1445C159.542 55.2096 159.444 55.291 159.379 55.3887C159.314 55.4538 159.216 55.5189 159.086 55.584C159.021 55.7467 158.956 55.8607 158.891 55.9258C158.826 55.9909 158.76 56.056 158.695 56.1211C158.533 56.3164 158.419 56.4954 158.354 56.6582L160.16 56.6094C160.486 56.5768 160.665 56.5605 160.697 56.5605C161.055 56.4954 161.267 56.4629 161.332 56.4629C161.723 56.3978 161.951 56.3815 162.016 56.4141C162.113 56.4466 162.195 56.4629 162.26 56.4629C162.715 56.3978 163.057 56.3815 163.285 56.4141C163.546 56.4466 163.806 56.3815 164.066 56.2188C164.392 56.2839 164.555 56.3001 164.555 56.2676C164.555 56.2025 164.571 56.1536 164.604 56.1211C164.831 56.0885 165.027 56.0397 165.189 55.9746C165.385 55.877 165.58 55.9095 165.775 56.0723C165.775 56.4303 165.661 56.6582 165.434 56.7559C165.434 56.9186 165.385 57.0488 165.287 57.1465C165.189 57.2116 165.108 57.3092 165.043 57.4395C164.62 57.5371 164.392 57.651 164.359 57.7812C164.197 57.8138 164.083 57.8789 164.018 57.9766C163.952 58.0742 163.839 58.123 163.676 58.123C163.253 58.3184 162.976 58.4486 162.846 58.5137C162.748 58.5462 162.618 58.5625 162.455 58.5625C162.26 58.5625 162.097 58.5788 161.967 58.6113C161.869 58.6439 161.755 58.6602 161.625 58.6602C161.462 58.6927 161.283 58.709 161.088 58.709C160.893 58.6764 160.714 58.6764 160.551 58.709C160.323 58.8066 160.16 58.8555 160.062 58.8555C159.997 58.8555 159.932 58.888 159.867 58.9531C159.802 58.888 159.704 58.8717 159.574 58.9043C159.477 58.9368 159.395 58.9694 159.33 59.002C158.972 59.0996 158.646 59.1159 158.354 59.0508C158.061 58.9857 157.833 59.0345 157.67 59.1973C157.735 59.5228 157.751 59.6855 157.719 59.6855C157.719 59.6855 157.719 59.7018 157.719 59.7344C157.719 59.7995 157.735 59.9622 157.768 60.2227C157.8 60.4831 157.816 60.6621 157.816 60.7598C157.719 61.0527 157.686 61.2806 157.719 61.4434C157.751 61.5736 157.735 61.7038 157.67 61.834C157.67 62.0293 157.686 62.2083 157.719 62.3711C157.751 62.5013 157.8 62.6152 157.865 62.7129C157.8 63.1361 157.784 63.3965 157.816 63.4941C157.849 63.5918 157.833 63.6895 157.768 63.7871C157.67 64.015 157.637 64.194 157.67 64.3242C157.702 64.4544 157.719 64.6009 157.719 64.7637C157.686 64.9264 157.621 65.0729 157.523 65.2031C157.458 65.3333 157.491 65.4635 157.621 65.5938C157.491 65.8216 157.442 65.9518 157.475 65.9844C157.507 66.0169 157.523 66.0658 157.523 66.1309C157.589 66.5215 157.589 66.7656 157.523 66.8633C157.458 66.9284 157.458 66.9935 157.523 67.0586C157.589 67.2865 157.637 67.4167 157.67 67.4492C157.702 67.4818 157.654 67.5306 157.523 67.5957C157.589 67.6608 157.621 67.7585 157.621 67.8887C157.621 67.9863 157.621 68.084 157.621 68.1816C157.621 68.4421 157.605 68.6211 157.572 68.7188C157.54 68.8164 157.523 68.8978 157.523 68.9629C157.523 69.0931 157.54 69.2233 157.572 69.3535C157.605 69.4512 157.589 69.5814 157.523 69.7441C157.328 70.0371 157.198 70.2324 157.133 70.3301C157.1 70.4277 157.051 70.5091 156.986 70.5742C156.791 70.8021 156.661 70.9486 156.596 71.0137C156.563 71.0462 156.498 71.0625 156.4 71.0625C156.4 71.2253 156.352 71.3392 156.254 71.4043C156.156 71.4368 156.091 71.5345 156.059 71.6973C155.603 71.6973 155.326 71.7624 155.229 71.8926C155.131 71.9902 155.001 72.0228 154.838 71.9902C154.382 72.1204 154.154 72.0879 154.154 71.8926C154.219 71.5996 154.268 71.4043 154.301 71.3066C154.333 71.209 154.35 71.1276 154.35 71.0625C154.317 70.8021 154.317 70.6393 154.35 70.5742C154.382 70.4766 154.35 70.4115 154.252 70.3789C154.382 70.151 154.431 70.0208 154.398 69.9883C154.366 69.9557 154.35 69.9069 154.35 69.8418C154.317 69.4186 154.317 69.1582 154.35 69.0605C154.382 68.9629 154.398 68.8652 154.398 68.7676C154.398 68.6374 154.366 68.5234 154.301 68.4258C154.268 68.2956 154.252 68.1654 154.252 68.0352C154.252 67.9049 154.268 67.791 154.301 67.6934C154.366 67.5632 154.398 67.4167 154.398 67.2539C154.333 66.9935 154.317 66.7819 154.35 66.6191C154.415 66.4564 154.464 66.3099 154.496 66.1797C154.398 65.8867 154.333 65.7402 154.301 65.7402C154.301 65.7077 154.301 65.6751 154.301 65.6426C154.301 65.5124 154.317 65.3984 154.35 65.3008C154.382 65.1706 154.382 65.0566 154.35 64.959C154.35 64.7962 154.35 64.6497 154.35 64.5195C154.35 64.3568 154.398 64.2428 154.496 64.1777C154.464 63.7546 154.431 63.4941 154.398 63.3965C154.366 63.2988 154.35 63.2012 154.35 63.1035C154.382 62.7454 154.415 62.5664 154.447 62.5664C154.382 62.2734 154.317 62.0944 154.252 62.0293C154.35 62.0293 154.398 61.9316 154.398 61.7363C154.431 61.541 154.415 61.4108 154.35 61.3457C154.187 61.3457 154.089 61.4108 154.057 61.541C154.024 61.6712 153.926 61.7689 153.764 61.834C153.601 62.2897 153.454 62.5501 153.324 62.6152C153.227 62.6478 153.21 62.7454 153.275 62.9082C152.982 63.1361 152.771 63.2826 152.641 63.3477C152.478 63.5755 152.38 63.6895 152.348 63.6895C152.315 63.6569 152.266 63.6569 152.201 63.6895C152.136 63.8197 152.055 63.901 151.957 63.9336C151.859 63.9336 151.811 63.9987 151.811 64.1289C151.615 64.1289 151.469 64.194 151.371 64.3242C151.273 64.4219 151.143 64.487 150.98 64.5195C150.688 64.7799 150.46 64.9427 150.297 65.0078C150.134 65.0404 149.955 65.0892 149.76 65.1543C149.695 65.0892 149.646 65.0078 149.613 64.9102C149.581 64.8125 149.548 64.7311 149.516 64.666C149.581 64.6009 149.646 64.5358 149.711 64.4707C149.776 64.373 149.792 64.2266 149.76 64.0312C149.955 63.8034 150.069 63.6732 150.102 63.6406C150.134 63.6081 150.183 63.5918 150.248 63.5918C150.248 63.429 150.297 63.3314 150.395 63.2988C150.525 63.2337 150.574 63.1035 150.541 62.9082C150.639 62.8431 150.736 62.7943 150.834 62.7617C150.932 62.7292 150.98 62.6315 150.98 62.4688C151.176 62.4036 151.322 62.3385 151.42 62.2734C151.518 62.1758 151.648 62.0944 151.811 62.0293C151.973 61.834 152.087 61.7038 152.152 61.6387C152.25 61.541 152.348 61.4434 152.445 61.3457C152.673 61.1504 152.803 61.0039 152.836 60.9062C152.901 60.776 152.999 60.6947 153.129 60.6621C153.389 60.3691 153.52 60.1901 153.52 60.125C153.552 60.0599 153.601 59.9948 153.666 59.9297C153.894 59.7669 154.008 59.653 154.008 59.5879C154.008 59.5228 154.04 59.5065 154.105 59.5391C154.008 59.4089 153.894 59.3763 153.764 59.4414C153.666 59.474 153.552 59.4902 153.422 59.4902C153.227 59.4902 153.031 59.4902 152.836 59.4902C152.641 59.4577 152.462 59.4414 152.299 59.4414H150.395C149.971 59.474 149.695 59.474 149.564 59.4414C149.467 59.4089 149.337 59.3926 149.174 59.3926C148.979 59.3926 148.783 59.4089 148.588 59.4414C148.425 59.474 148.262 59.4902 148.1 59.4902C148.002 59.4902 147.888 59.4902 147.758 59.4902C147.66 59.4577 147.546 59.4577 147.416 59.4902C147.156 59.4577 147.009 59.4577 146.977 59.4902C146.944 59.5228 146.895 59.5391 146.83 59.5391C146.472 59.2135 146.326 59.0182 146.391 58.9531C146.488 58.8555 146.505 58.709 146.439 58.5137L146.83 57.9277C146.993 57.8952 147.107 57.8138 147.172 57.6836C147.27 57.5534 147.416 57.4883 147.611 57.4883C147.774 57.3255 147.921 57.2116 148.051 57.1465C148.279 56.9512 148.474 56.8535 148.637 56.8535C148.93 56.7559 149.141 56.7396 149.271 56.8047C149.434 56.8372 149.581 56.8047 149.711 56.707C149.809 56.7396 149.874 56.7721 149.906 56.8047C149.971 56.8047 150.085 56.7884 150.248 56.7559C150.606 56.8861 150.818 56.9512 150.883 56.9512C150.948 56.9186 151.013 56.8861 151.078 56.8535C151.143 56.9186 151.241 56.9512 151.371 56.9512C151.534 56.9512 151.648 56.9186 151.713 56.8535C151.973 56.9186 152.12 56.9186 152.152 56.8535C152.185 56.7884 152.266 56.7721 152.396 56.8047C152.885 56.8047 153.259 56.8372 153.52 56.9023C153.78 56.9349 154.04 56.9186 154.301 56.8535C154.366 56.5931 154.366 56.3164 154.301 56.0234C154.236 55.6979 154.236 55.4538 154.301 55.291C154.268 54.8678 154.252 54.5749 154.252 54.4121C154.252 54.2493 154.236 54.0866 154.203 53.9238C154.236 53.5332 154.236 53.2565 154.203 53.0938C154.171 52.931 154.187 52.7845 154.252 52.6543L154.154 52.1172C154.219 51.8568 154.236 51.7266 154.203 51.7266C154.171 51.694 154.154 51.6452 154.154 51.5801C154.187 51.4499 154.236 51.3197 154.301 51.1895C154.398 51.0267 154.382 50.8639 154.252 50.7012C154.317 50.6361 154.333 50.5384 154.301 50.4082C154.268 50.278 154.236 50.1803 154.203 50.1152C154.268 49.985 154.301 49.806 154.301 49.5781C154.333 49.3177 154.317 49.0898 154.252 48.8945C154.285 48.5365 154.301 48.2598 154.301 48.0645C154.333 47.8691 154.301 47.6901 154.203 47.5273C154.04 47.3646 154.008 47.2344 154.105 47.1367C154.203 47.0065 154.268 46.8438 154.301 46.6484C154.431 46.5833 154.529 46.5182 154.594 46.4531C154.691 46.3555 154.805 46.2741 154.936 46.209C155.098 46.0462 155.31 45.9323 155.57 45.8672C155.961 45.5742 156.238 45.4115 156.4 45.3789C156.563 45.3138 156.726 45.2161 156.889 45.0859C156.986 45.151 157.068 45.2324 157.133 45.3301C157.198 45.4277 157.279 45.5091 157.377 45.5742C157.377 45.737 157.458 45.8997 157.621 46.0625ZM175.59 46.0625C175.525 46.1927 175.46 46.3717 175.395 46.5996C175.362 46.7949 175.395 46.9414 175.492 47.0391C175.557 47.332 175.557 47.4948 175.492 47.5273C175.46 47.5599 175.508 47.625 175.639 47.7227C175.508 47.8854 175.46 48.0807 175.492 48.3086C175.557 48.5039 175.541 48.6829 175.443 48.8457C175.574 49.1061 175.606 49.2526 175.541 49.2852C175.508 49.3177 175.492 49.3665 175.492 49.4316C175.46 49.8223 175.476 50.0176 175.541 50.0176C175.606 50.0176 175.622 50.0501 175.59 50.1152C175.492 50.7988 175.411 51.3848 175.346 51.873C175.313 52.3613 175.395 52.752 175.59 53.0449C175.525 53.403 175.46 53.582 175.395 53.582C175.329 53.5495 175.264 53.5658 175.199 53.6309C175.264 53.7285 175.313 53.8424 175.346 53.9727C175.378 54.1029 175.427 54.2331 175.492 54.3633C175.72 54.4284 175.883 54.4447 175.98 54.4121C176.078 54.347 176.127 54.2493 176.127 54.1191C176.322 53.7936 176.534 53.5495 176.762 53.3867C177.12 53.0612 177.331 52.8171 177.396 52.6543C177.462 52.4915 177.576 52.3776 177.738 52.3125C178.064 51.987 178.275 51.7591 178.373 51.6289C178.633 51.3359 178.715 51.1081 178.617 50.9453C178.812 50.9453 178.959 50.8965 179.057 50.7988C179.154 50.6686 179.285 50.6361 179.447 50.7012C179.512 50.6361 179.577 50.5872 179.643 50.5547C179.74 50.4896 179.805 50.3919 179.838 50.2617C180.229 50.2292 180.473 50.1803 180.57 50.1152C180.701 50.0501 180.88 50.0176 181.107 50.0176C181.27 50.3757 181.335 50.5384 181.303 50.5059C181.303 50.4733 181.27 50.4896 181.205 50.5547C181.107 50.7826 181.026 50.9128 180.961 50.9453C180.928 50.9779 180.928 51.0267 180.961 51.0918L180.668 51.5801C180.44 51.6126 180.261 51.7103 180.131 51.873C180.033 52.0033 179.919 52.1335 179.789 52.2637C179.724 52.459 179.659 52.5729 179.594 52.6055C179.529 52.638 179.464 52.6706 179.398 52.7031C179.268 52.9961 179.171 53.1589 179.105 53.1914C179.073 53.224 179.057 53.2728 179.057 53.3379C178.731 53.5658 178.52 53.7611 178.422 53.9238C178.324 54.054 178.21 54.1842 178.08 54.3145C178.048 54.5098 177.966 54.6562 177.836 54.7539C177.738 54.819 177.673 54.9492 177.641 55.1445C177.51 55.2096 177.413 55.291 177.348 55.3887C177.283 55.4538 177.185 55.5189 177.055 55.584C176.99 55.7467 176.924 55.8607 176.859 55.9258C176.794 55.9909 176.729 56.056 176.664 56.1211C176.501 56.3164 176.387 56.4954 176.322 56.6582L178.129 56.6094C178.454 56.5768 178.633 56.5605 178.666 56.5605C179.024 56.4954 179.236 56.4629 179.301 56.4629C179.691 56.3978 179.919 56.3815 179.984 56.4141C180.082 56.4466 180.163 56.4629 180.229 56.4629C180.684 56.3978 181.026 56.3815 181.254 56.4141C181.514 56.4466 181.775 56.3815 182.035 56.2188C182.361 56.2839 182.523 56.3001 182.523 56.2676C182.523 56.2025 182.54 56.1536 182.572 56.1211C182.8 56.0885 182.995 56.0397 183.158 55.9746C183.354 55.877 183.549 55.9095 183.744 56.0723C183.744 56.4303 183.63 56.6582 183.402 56.7559C183.402 56.9186 183.354 57.0488 183.256 57.1465C183.158 57.2116 183.077 57.3092 183.012 57.4395C182.589 57.5371 182.361 57.651 182.328 57.7812C182.165 57.8138 182.051 57.8789 181.986 57.9766C181.921 58.0742 181.807 58.123 181.645 58.123C181.221 58.3184 180.945 58.4486 180.814 58.5137C180.717 58.5462 180.587 58.5625 180.424 58.5625C180.229 58.5625 180.066 58.5788 179.936 58.6113C179.838 58.6439 179.724 58.6602 179.594 58.6602C179.431 58.6927 179.252 58.709 179.057 58.709C178.861 58.6764 178.682 58.6764 178.52 58.709C178.292 58.8066 178.129 58.8555 178.031 58.8555C177.966 58.8555 177.901 58.888 177.836 58.9531C177.771 58.888 177.673 58.8717 177.543 58.9043C177.445 58.9368 177.364 58.9694 177.299 59.002C176.941 59.0996 176.615 59.1159 176.322 59.0508C176.029 58.9857 175.801 59.0345 175.639 59.1973C175.704 59.5228 175.72 59.6855 175.688 59.6855C175.688 59.6855 175.688 59.7018 175.688 59.7344C175.688 59.7995 175.704 59.9622 175.736 60.2227C175.769 60.4831 175.785 60.6621 175.785 60.7598C175.688 61.0527 175.655 61.2806 175.688 61.4434C175.72 61.5736 175.704 61.7038 175.639 61.834C175.639 62.0293 175.655 62.2083 175.688 62.3711C175.72 62.5013 175.769 62.6152 175.834 62.7129C175.769 63.1361 175.753 63.3965 175.785 63.4941C175.818 63.5918 175.801 63.6895 175.736 63.7871C175.639 64.015 175.606 64.194 175.639 64.3242C175.671 64.4544 175.688 64.6009 175.688 64.7637C175.655 64.9264 175.59 65.0729 175.492 65.2031C175.427 65.3333 175.46 65.4635 175.59 65.5938C175.46 65.8216 175.411 65.9518 175.443 65.9844C175.476 66.0169 175.492 66.0658 175.492 66.1309C175.557 66.5215 175.557 66.7656 175.492 66.8633C175.427 66.9284 175.427 66.9935 175.492 67.0586C175.557 67.2865 175.606 67.4167 175.639 67.4492C175.671 67.4818 175.622 67.5306 175.492 67.5957C175.557 67.6608 175.59 67.7585 175.59 67.8887C175.59 67.9863 175.59 68.084 175.59 68.1816C175.59 68.4421 175.574 68.6211 175.541 68.7188C175.508 68.8164 175.492 68.8978 175.492 68.9629C175.492 69.0931 175.508 69.2233 175.541 69.3535C175.574 69.4512 175.557 69.5814 175.492 69.7441C175.297 70.0371 175.167 70.2324 175.102 70.3301C175.069 70.4277 175.02 70.5091 174.955 70.5742C174.76 70.8021 174.63 70.9486 174.564 71.0137C174.532 71.0462 174.467 71.0625 174.369 71.0625C174.369 71.2253 174.32 71.3392 174.223 71.4043C174.125 71.4368 174.06 71.5345 174.027 71.6973C173.572 71.6973 173.295 71.7624 173.197 71.8926C173.1 71.9902 172.969 72.0228 172.807 71.9902C172.351 72.1204 172.123 72.0879 172.123 71.8926C172.188 71.5996 172.237 71.4043 172.27 71.3066C172.302 71.209 172.318 71.1276 172.318 71.0625C172.286 70.8021 172.286 70.6393 172.318 70.5742C172.351 70.4766 172.318 70.4115 172.221 70.3789C172.351 70.151 172.4 70.0208 172.367 69.9883C172.335 69.9557 172.318 69.9069 172.318 69.8418C172.286 69.4186 172.286 69.1582 172.318 69.0605C172.351 68.9629 172.367 68.8652 172.367 68.7676C172.367 68.6374 172.335 68.5234 172.27 68.4258C172.237 68.2956 172.221 68.1654 172.221 68.0352C172.221 67.9049 172.237 67.791 172.27 67.6934C172.335 67.5632 172.367 67.4167 172.367 67.2539C172.302 66.9935 172.286 66.7819 172.318 66.6191C172.383 66.4564 172.432 66.3099 172.465 66.1797C172.367 65.8867 172.302 65.7402 172.27 65.7402C172.27 65.7077 172.27 65.6751 172.27 65.6426C172.27 65.5124 172.286 65.3984 172.318 65.3008C172.351 65.1706 172.351 65.0566 172.318 64.959C172.318 64.7962 172.318 64.6497 172.318 64.5195C172.318 64.3568 172.367 64.2428 172.465 64.1777C172.432 63.7546 172.4 63.4941 172.367 63.3965C172.335 63.2988 172.318 63.2012 172.318 63.1035C172.351 62.7454 172.383 62.5664 172.416 62.5664C172.351 62.2734 172.286 62.0944 172.221 62.0293C172.318 62.0293 172.367 61.9316 172.367 61.7363C172.4 61.541 172.383 61.4108 172.318 61.3457C172.156 61.3457 172.058 61.4108 172.025 61.541C171.993 61.6712 171.895 61.7689 171.732 61.834C171.57 62.2897 171.423 62.5501 171.293 62.6152C171.195 62.6478 171.179 62.7454 171.244 62.9082C170.951 63.1361 170.74 63.2826 170.609 63.3477C170.447 63.5755 170.349 63.6895 170.316 63.6895C170.284 63.6569 170.235 63.6569 170.17 63.6895C170.105 63.8197 170.023 63.901 169.926 63.9336C169.828 63.9336 169.779 63.9987 169.779 64.1289C169.584 64.1289 169.438 64.194 169.34 64.3242C169.242 64.4219 169.112 64.487 168.949 64.5195C168.656 64.7799 168.428 64.9427 168.266 65.0078C168.103 65.0404 167.924 65.0892 167.729 65.1543C167.663 65.0892 167.615 65.0078 167.582 64.9102C167.549 64.8125 167.517 64.7311 167.484 64.666C167.549 64.6009 167.615 64.5358 167.68 64.4707C167.745 64.373 167.761 64.2266 167.729 64.0312C167.924 63.8034 168.038 63.6732 168.07 63.6406C168.103 63.6081 168.152 63.5918 168.217 63.5918C168.217 63.429 168.266 63.3314 168.363 63.2988C168.493 63.2337 168.542 63.1035 168.51 62.9082C168.607 62.8431 168.705 62.7943 168.803 62.7617C168.9 62.7292 168.949 62.6315 168.949 62.4688C169.145 62.4036 169.291 62.3385 169.389 62.2734C169.486 62.1758 169.617 62.0944 169.779 62.0293C169.942 61.834 170.056 61.7038 170.121 61.6387C170.219 61.541 170.316 61.4434 170.414 61.3457C170.642 61.1504 170.772 61.0039 170.805 60.9062C170.87 60.776 170.967 60.6947 171.098 60.6621C171.358 60.3691 171.488 60.1901 171.488 60.125C171.521 60.0599 171.57 59.9948 171.635 59.9297C171.863 59.7669 171.977 59.653 171.977 59.5879C171.977 59.5228 172.009 59.5065 172.074 59.5391C171.977 59.4089 171.863 59.3763 171.732 59.4414C171.635 59.474 171.521 59.4902 171.391 59.4902C171.195 59.4902 171 59.4902 170.805 59.4902C170.609 59.4577 170.43 59.4414 170.268 59.4414H168.363C167.94 59.474 167.663 59.474 167.533 59.4414C167.436 59.4089 167.305 59.3926 167.143 59.3926C166.947 59.3926 166.752 59.4089 166.557 59.4414C166.394 59.474 166.231 59.4902 166.068 59.4902C165.971 59.4902 165.857 59.4902 165.727 59.4902C165.629 59.4577 165.515 59.4577 165.385 59.4902C165.124 59.4577 164.978 59.4577 164.945 59.4902C164.913 59.5228 164.864 59.5391 164.799 59.5391C164.441 59.2135 164.294 59.0182 164.359 58.9531C164.457 58.8555 164.473 58.709 164.408 58.5137L164.799 57.9277C164.962 57.8952 165.076 57.8138 165.141 57.6836C165.238 57.5534 165.385 57.4883 165.58 57.4883C165.743 57.3255 165.889 57.2116 166.02 57.1465C166.247 56.9512 166.443 56.8535 166.605 56.8535C166.898 56.7559 167.11 56.7396 167.24 56.8047C167.403 56.8372 167.549 56.8047 167.68 56.707C167.777 56.7396 167.842 56.7721 167.875 56.8047C167.94 56.8047 168.054 56.7884 168.217 56.7559C168.575 56.8861 168.786 56.9512 168.852 56.9512C168.917 56.9186 168.982 56.8861 169.047 56.8535C169.112 56.9186 169.21 56.9512 169.34 56.9512C169.503 56.9512 169.617 56.9186 169.682 56.8535C169.942 56.9186 170.089 56.9186 170.121 56.8535C170.154 56.7884 170.235 56.7721 170.365 56.8047C170.854 56.8047 171.228 56.8372 171.488 56.9023C171.749 56.9349 172.009 56.9186 172.27 56.8535C172.335 56.5931 172.335 56.3164 172.27 56.0234C172.204 55.6979 172.204 55.4538 172.27 55.291C172.237 54.8678 172.221 54.5749 172.221 54.4121C172.221 54.2493 172.204 54.0866 172.172 53.9238C172.204 53.5332 172.204 53.2565 172.172 53.0938C172.139 52.931 172.156 52.7845 172.221 52.6543L172.123 52.1172C172.188 51.8568 172.204 51.7266 172.172 51.7266C172.139 51.694 172.123 51.6452 172.123 51.5801C172.156 51.4499 172.204 51.3197 172.27 51.1895C172.367 51.0267 172.351 50.8639 172.221 50.7012C172.286 50.6361 172.302 50.5384 172.27 50.4082C172.237 50.278 172.204 50.1803 172.172 50.1152C172.237 49.985 172.27 49.806 172.27 49.5781C172.302 49.3177 172.286 49.0898 172.221 48.8945C172.253 48.5365 172.27 48.2598 172.27 48.0645C172.302 47.8691 172.27 47.6901 172.172 47.5273C172.009 47.3646 171.977 47.2344 172.074 47.1367C172.172 47.0065 172.237 46.8438 172.27 46.6484C172.4 46.5833 172.497 46.5182 172.562 46.4531C172.66 46.3555 172.774 46.2741 172.904 46.209C173.067 46.0462 173.279 45.9323 173.539 45.8672C173.93 45.5742 174.206 45.4115 174.369 45.3789C174.532 45.3138 174.695 45.2161 174.857 45.0859C174.955 45.151 175.036 45.2324 175.102 45.3301C175.167 45.4277 175.248 45.5091 175.346 45.5742C175.346 45.737 175.427 45.8997 175.59 46.0625Z" fill="#D8FFF4"/>
</svg>
