<svg width="42" height="26" viewBox="0 0 42 26" fill="none" xmlns="http://www.w3.org/2000/svg">
<path d="M9.86719 0.5625C9.83594 0.703125 9.8125 0.789062 9.79688 0.820312C9.78125 0.851563 9.76562 0.890625 9.75 0.9375C9.625 0.984375 9.55469 1.01563 9.53906 1.03125C9.53906 1.04687 9.52344 1.07031 9.49219 1.10156C9.38281 1.22656 9.3125 1.29688 9.28125 1.3125C9.26562 1.3125 9.24219 1.32031 9.21094 1.33594C9.00781 1.50781 8.80469 1.63281 8.60156 1.71094C8.33594 1.64844 8.10938 1.5625 7.92188 1.45312C7.84375 1.48438 7.76562 1.47656 7.6875 1.42969C7.60938 1.38281 7.54688 1.32812 7.5 1.26562C7.3125 1.3125 7.21094 1.32812 7.19531 1.3125C7.17969 1.29688 7.15625 1.28125 7.125 1.26562C7.03125 1.29688 6.9375 1.3125 6.84375 1.3125C6.76562 1.3125 6.66406 1.3125 6.53906 1.3125C6.28906 1.35938 6.125 1.41406 6.04688 1.47656C5.96875 1.53906 5.86719 1.57813 5.74219 1.59375C5.61719 1.65625 5.53906 1.70312 5.50781 1.73438C5.49219 1.75 5.45312 1.76563 5.39062 1.78125C5.34375 1.82812 5.29688 1.88281 5.25 1.94531C5.21875 1.99219 5.17188 2.03906 5.10938 2.08594C5 2.17969 4.9375 2.24219 4.92188 2.27344C4.92188 2.30469 4.90625 2.32031 4.875 2.32031C4.78125 2.46094 4.72656 2.54687 4.71094 2.57812C4.71094 2.60938 4.69531 2.625 4.66406 2.625C4.60156 2.70313 4.5625 2.76562 4.54688 2.8125C4.54688 2.84375 4.52344 2.85938 4.47656 2.85938C4.49219 2.9375 4.47656 2.99219 4.42969 3.02344C4.39844 3.03906 4.38281 3.08594 4.38281 3.16406C4.21094 3.46094 4.04688 3.64844 3.89062 3.72656C3.84375 3.86719 3.79688 3.96875 3.75 4.03125C3.70312 4.07812 3.69531 4.14062 3.72656 4.21875C3.64844 4.35938 3.59375 4.4375 3.5625 4.45312C3.54688 4.46875 3.53906 4.49219 3.53906 4.52344C3.52344 4.64844 3.50781 4.71875 3.49219 4.73438C3.47656 4.75 3.46094 4.77344 3.44531 4.80469C3.38281 4.97656 3.34375 5.08594 3.32812 5.13281C3.3125 5.16406 3.28125 5.1875 3.23438 5.20312C3.23438 5.35938 3.19531 5.49219 3.11719 5.60156C3.08594 5.66406 3.07031 5.71875 3.07031 5.76562C3.07031 5.8125 3.05469 5.88281 3.02344 5.97656C3.00781 6.00781 2.99219 6.05469 2.97656 6.11719C2.96094 6.16406 2.94531 6.21094 2.92969 6.25781C2.91406 6.44531 2.89844 6.55469 2.88281 6.58594C2.86719 6.60156 2.86719 6.625 2.88281 6.65625C2.85156 6.6875 2.82812 6.72656 2.8125 6.77344C2.8125 6.82031 2.79688 6.85938 2.76562 6.89062C2.73438 7.03125 2.71094 7.10938 2.69531 7.125C2.67969 7.125 2.67188 7.14062 2.67188 7.17188C2.625 7.35938 2.58594 7.45312 2.55469 7.45312C2.53906 7.45312 2.52344 7.46094 2.50781 7.47656C2.46094 7.64844 2.4375 7.79688 2.4375 7.92188C2.4375 7.96875 2.4375 8.01562 2.4375 8.0625C2.45312 8.09375 2.45312 8.14844 2.4375 8.22656C2.35938 8.41406 2.32031 8.53125 2.32031 8.57812C2.32031 8.60938 2.30469 8.625 2.27344 8.625C2.30469 8.70312 2.28906 8.78906 2.22656 8.88281C2.21094 9.00781 2.21094 9.10156 2.22656 9.16406C2.24219 9.22656 2.25 9.28906 2.25 9.35156C2.17188 9.57031 2.13281 9.71094 2.13281 9.77344C2.13281 9.82031 2.11719 9.85938 2.08594 9.89062C2.10156 9.96875 2.10156 10.0547 2.08594 10.1484C2.07031 10.2422 2.03125 10.3125 1.96875 10.3594C1.96875 10.6406 1.96875 10.7812 1.96875 10.7812C1.95312 10.8281 1.92969 10.875 1.89844 10.9219C1.88281 10.9531 1.85938 10.9922 1.82812 11.0391C1.875 11.2266 1.86719 11.3516 1.80469 11.4141C1.83594 11.4922 1.84375 11.5703 1.82812 11.6484C1.82812 11.7109 1.83594 11.7891 1.85156 11.8828C1.77344 11.9766 1.74219 12.0391 1.75781 12.0703C1.77344 12.0859 1.78125 12.1172 1.78125 12.1641C1.79688 12.2266 1.78906 12.2812 1.75781 12.3281C1.72656 12.3594 1.70312 12.4062 1.6875 12.4688C1.6875 12.5 1.6875 12.5469 1.6875 12.6094C1.70312 12.6562 1.71094 12.7109 1.71094 12.7734C1.71094 12.8203 1.70312 12.8672 1.6875 12.9141C1.6875 12.9609 1.69531 13 1.71094 13.0312C1.67969 13.2031 1.65625 13.3438 1.64062 13.4531C1.64062 13.5156 1.64844 13.5781 1.66406 13.6406C1.67969 13.6875 1.67969 13.7344 1.66406 13.7812C1.66406 13.8125 1.65625 13.8438 1.64062 13.875C1.625 13.9062 1.61719 13.9609 1.61719 14.0391C1.60156 14.1172 1.59375 14.1875 1.59375 14.25C1.60938 14.3125 1.60938 14.3594 1.59375 14.3906C1.5625 14.5156 1.53906 14.6094 1.52344 14.6719C1.52344 14.7188 1.53906 14.75 1.57031 14.7656C1.58594 14.9062 1.57031 14.9922 1.52344 15.0234C1.49219 15.0547 1.5 15.1406 1.54688 15.2812C1.46875 15.4219 1.44531 15.5 1.47656 15.5156C1.50781 15.5312 1.53125 15.5547 1.54688 15.5859C1.67188 15.5391 1.73438 15.5 1.73438 15.4688C1.75 15.4375 1.77344 15.4141 1.80469 15.3984C1.88281 15.1953 1.92188 15.0859 1.92188 15.0703C1.98438 14.9141 2.03906 14.8281 2.08594 14.8125C2.13281 14.7812 2.15625 14.7266 2.15625 14.6484C2.1875 14.6172 2.21875 14.5859 2.25 14.5547C2.28125 14.5234 2.3125 14.4844 2.34375 14.4375C2.375 14.4062 2.39844 14.3672 2.41406 14.3203C2.44531 14.2578 2.45312 14.2109 2.4375 14.1797C2.51562 14.1797 2.55469 14.1484 2.55469 14.0859C2.55469 14.0078 2.58594 13.9688 2.64844 13.9688C2.64844 13.8906 2.67188 13.8359 2.71875 13.8047C2.76562 13.7734 2.79688 13.7188 2.8125 13.6406C2.89062 13.6094 2.95312 13.5234 3 13.3828C3.10938 13.2266 3.17188 13.1406 3.1875 13.125C3.20312 13.0938 3.23438 13.0781 3.28125 13.0781C3.3125 13.0312 3.35156 12.9844 3.39844 12.9375C3.46094 12.8906 3.50781 12.8359 3.53906 12.7734C3.64844 12.7266 3.70312 12.6953 3.70312 12.6797C3.71875 12.6484 3.74219 12.625 3.77344 12.6094C3.80469 12.5781 3.83594 12.5547 3.86719 12.5391C3.89844 12.5078 3.9375 12.4766 3.98438 12.4453C4.14062 12.3516 4.21094 12.2969 4.19531 12.2812C4.19531 12.2656 4.20312 12.25 4.21875 12.2344C4.29688 12.1875 4.35938 12.1484 4.40625 12.1172C4.45312 12.0859 4.5 12.0625 4.54688 12.0469C4.70312 11.9844 4.79688 11.9219 4.82812 11.8594C4.85938 11.7969 4.92969 11.7656 5.03906 11.7656C5.19531 11.7031 5.29688 11.6641 5.34375 11.6484C5.39062 11.6172 5.44531 11.6094 5.50781 11.625C5.67969 11.6719 5.78906 11.7031 5.83594 11.7188C5.89844 11.7344 5.96875 11.7266 6.04688 11.6953C6.1875 11.7734 6.27344 11.8203 6.30469 11.8359C6.33594 11.8359 6.38281 11.8438 6.44531 11.8594C6.47656 12.0469 6.50781 12.1484 6.53906 12.1641C6.57031 12.1641 6.59375 12.1797 6.60938 12.2109C6.57812 12.3516 6.59375 12.4531 6.65625 12.5156C6.73438 12.5625 6.76562 12.6484 6.75 12.7734L6.82031 13.0312C6.88281 13.125 6.92188 13.2422 6.9375 13.3828C6.95312 13.5078 6.96875 13.6328 6.98438 13.7578C7.0625 13.9297 7.10938 14.0625 7.125 14.1562C7.14062 14.2344 7.16406 14.2969 7.19531 14.3438C7.19531 14.4688 7.21094 14.5781 7.24219 14.6719C7.28906 14.75 7.32812 14.8438 7.35938 14.9531C7.375 15.0938 7.39844 15.2109 7.42969 15.3047C7.47656 15.3828 7.48438 15.4531 7.45312 15.5156C7.51562 15.7656 7.57031 15.9453 7.61719 16.0547C7.63281 16.1172 7.64844 16.1719 7.66406 16.2188C7.67969 16.25 7.6875 16.2891 7.6875 16.3359C7.67188 16.4453 7.67188 16.5156 7.6875 16.5469C7.71875 16.5781 7.72656 16.6172 7.71094 16.6641C7.82031 16.8203 7.85938 16.9141 7.82812 16.9453C7.8125 16.9609 7.84375 16.9844 7.92188 17.0156C7.89062 17.0938 7.88281 17.1797 7.89844 17.2734C7.99219 17.4297 8.04688 17.5312 8.0625 17.5781C8.07812 17.6094 8.08594 17.6719 8.08594 17.7656C8.11719 17.9062 8.13281 17.9922 8.13281 18.0234C8.14844 18.0391 8.17969 18.0547 8.22656 18.0703C8.24219 18.2578 8.24219 18.3672 8.22656 18.3984C8.22656 18.4297 8.23438 18.4688 8.25 18.5156C8.26562 18.5625 8.28125 18.6094 8.29688 18.6562C8.32812 18.6875 8.34375 18.7422 8.34375 18.8203C8.34375 18.8828 8.34375 18.9453 8.34375 19.0078C8.34375 19.0703 8.38281 19.125 8.46094 19.1719C8.44531 19.2969 8.45312 19.3672 8.48438 19.3828C8.51562 19.3984 8.53125 19.4219 8.53125 19.4531C8.54688 19.625 8.5625 19.7188 8.57812 19.7344C8.60938 19.7344 8.63281 19.75 8.64844 19.7812C8.63281 19.8594 8.64062 19.9219 8.67188 19.9688C8.70312 20.0156 8.71875 20.0859 8.71875 20.1797C8.76562 20.2109 8.78906 20.2656 8.78906 20.3438C8.78906 20.4062 8.80469 20.4688 8.83594 20.5312C8.89844 20.7031 8.92188 20.7969 8.90625 20.8125C8.90625 20.8438 8.91406 20.875 8.92969 20.9062C8.96094 20.9844 9 21.0547 9.04688 21.1172C9.09375 21.1953 9.10938 21.2734 9.09375 21.3516C9.125 21.3984 9.14062 21.4453 9.14062 21.4922C9.15625 21.5391 9.17969 21.5938 9.21094 21.6562C9.24219 21.7344 9.26562 21.8047 9.28125 21.8672C9.3125 21.9453 9.34375 22.0234 9.375 22.1016C9.40625 22.1641 9.42969 22.2109 9.44531 22.2422C9.46094 22.2891 9.48438 22.3359 9.51562 22.3828C9.59375 22.5703 9.64062 22.6875 9.65625 22.7344C9.67188 22.7969 9.71094 22.8438 9.77344 22.875C9.88281 23 9.95312 23.0938 9.98438 23.1562C10.0312 23.2188 10.0938 23.2656 10.1719 23.2969C10.2656 23.4219 10.3203 23.4922 10.3359 23.5078C10.3516 23.5391 10.3672 23.5391 10.3828 23.5078C10.4453 23.5859 10.5156 23.6406 10.5938 23.6719C10.6875 23.7188 10.7578 23.7812 10.8047 23.8594C10.9453 23.9062 11.0156 23.9375 11.0156 23.9531C11.0312 23.9844 11.0547 24.0078 11.0859 24.0234C11.2422 24.0391 11.3281 24.0625 11.3438 24.0938C11.3594 24.125 11.3906 24.1406 11.4375 24.1406L11.8125 24.2344C11.9531 24.2344 12.0312 24.2422 12.0469 24.2578C12.0781 24.2734 12.1094 24.2812 12.1406 24.2812C12.2188 24.2812 12.3047 24.2656 12.3984 24.2344C12.4922 24.2031 12.5781 24.1953 12.6562 24.2109L13.0781 24C13.125 23.9844 13.1484 23.9453 13.1484 23.8828C13.1641 23.8359 13.2109 23.8203 13.2891 23.8359C13.4453 23.6953 13.5469 23.6094 13.5938 23.5781C13.6562 23.5625 13.7266 23.5703 13.8047 23.6016C13.8828 23.7422 13.9297 23.8359 13.9453 23.8828C13.8984 23.9297 13.8125 23.9688 13.6875 24C13.6094 24.0938 13.5781 24.1562 13.5938 24.1875C13.6094 24.2188 13.6016 24.25 13.5703 24.2812C13.3828 24.2969 13.25 24.3203 13.1719 24.3516C13.0938 24.3984 13.0234 24.4531 12.9609 24.5156C12.7734 24.5625 12.6797 24.5859 12.6797 24.5859C12.5859 24.6641 12.5 24.7031 12.4219 24.7031C12.3594 24.7188 12.3047 24.7422 12.2578 24.7734C12.0547 24.8516 11.9297 24.9062 11.8828 24.9375C11.8359 24.9688 11.7891 25 11.7422 25.0312C11.6641 25.0312 11.5859 25.0312 11.5078 25.0312C11.4453 25.0469 11.3984 25.0859 11.3672 25.1484C11.2422 25.1484 11.1406 25.1484 11.0625 25.1484C11 25.1641 10.9297 25.1953 10.8516 25.2422C10.7266 25.1797 10.6172 25.1797 10.5234 25.2422C10.3828 25.2109 10.2891 25.1797 10.2422 25.1484C10.1016 25.1797 9.98438 25.1562 9.89062 25.0781C9.75 24.9844 9.67969 24.9531 9.67969 24.9844C9.67969 25.0312 9.65625 25.0469 9.60938 25.0312C9.57812 25 9.53125 24.9766 9.46875 24.9609C9.40625 24.9453 9.36719 24.9062 9.35156 24.8438C9.25781 24.7969 9.19531 24.7578 9.16406 24.7266C9.13281 24.7109 9.11719 24.6797 9.11719 24.6328C9.00781 24.5547 8.91406 24.5156 8.83594 24.5156C8.85156 24.4375 8.82031 24.3984 8.74219 24.3984C8.67969 24.3984 8.63281 24.3828 8.60156 24.3516C8.57031 24.2891 8.53125 24.2266 8.48438 24.1641C8.45312 24.1016 8.42188 24.0312 8.39062 23.9531C8.32812 23.8594 8.27344 23.8047 8.22656 23.7891C8.19531 23.7891 8.1875 23.7578 8.20312 23.6953C8.0625 23.5234 7.98438 23.4141 7.96875 23.3672C7.96875 23.3359 7.95312 23.3047 7.92188 23.2734C7.89062 23.1641 7.85938 23.1016 7.82812 23.0859C7.8125 23.0703 7.8125 23.0469 7.82812 23.0156C7.75 22.8906 7.71875 22.8203 7.73438 22.8047C7.76562 22.8047 7.78125 22.7812 7.78125 22.7344C7.6875 22.6719 7.625 22.6094 7.59375 22.5469C7.59375 22.4688 7.58594 22.4141 7.57031 22.3828C7.55469 22.3516 7.55469 22.2969 7.57031 22.2188C7.41406 22.0625 7.375 21.9453 7.45312 21.8672C7.42188 21.7891 7.35156 21.7266 7.24219 21.6797C7.27344 21.6172 7.26562 21.5703 7.21875 21.5391C7.1875 21.5078 7.1875 21.4688 7.21875 21.4219C7.1875 21.375 7.16406 21.3125 7.14844 21.2344C7.13281 21.1719 7.10938 21.1016 7.07812 21.0234C7.0625 20.9766 7.03906 20.9297 7.00781 20.8828C6.99219 20.8516 6.97656 20.8125 6.96094 20.7656C6.99219 20.5938 6.99219 20.5078 6.96094 20.5078C6.92969 20.5078 6.90625 20.4922 6.89062 20.4609C6.84375 20.2109 6.79688 20.0547 6.75 19.9922C6.71875 19.9297 6.71094 19.8359 6.72656 19.7109C6.66406 19.5547 6.63281 19.4375 6.63281 19.3594C6.64844 19.2812 6.63281 19.2188 6.58594 19.1719C6.53906 19 6.51562 18.9141 6.51562 18.9141C6.53125 18.9141 6.53906 18.9062 6.53906 18.8906C6.49219 18.7656 6.46094 18.6953 6.44531 18.6797C6.44531 18.6484 6.42969 18.6016 6.39844 18.5391C6.35156 18.4141 6.32812 18.3281 6.32812 18.2812C6.26562 18.1406 6.23438 18.0469 6.23438 18C6.23438 17.9531 6.22656 17.9141 6.21094 17.8828C6.17969 17.8359 6.14844 17.7969 6.11719 17.7656C6.10156 17.7188 6.10938 17.6641 6.14062 17.6016C6.0625 17.4922 6.01562 17.3594 6 17.2031C6 17.0469 5.96094 16.9219 5.88281 16.8281C5.91406 16.75 5.91406 16.6797 5.88281 16.6172C5.85156 16.5547 5.82812 16.4844 5.8125 16.4062C5.8125 16.2969 5.78906 16.1719 5.74219 16.0312C5.71094 15.9062 5.66406 15.7969 5.60156 15.7031C5.60156 15.625 5.59375 15.5625 5.57812 15.5156C5.57812 15.4531 5.5625 15.4062 5.53125 15.375C5.53125 15.2031 5.51562 15.0703 5.48438 14.9766C5.45312 14.8047 5.4375 14.7031 5.4375 14.6719C5.45312 14.6406 5.45312 14.6094 5.4375 14.5781C5.39062 14.375 5.34375 14.2578 5.29688 14.2266C5.26562 14.1797 5.23438 14.1172 5.20312 14.0391C5.17188 13.9766 5.15625 13.9141 5.15625 13.8516C5.15625 13.7891 5.13281 13.7422 5.08594 13.7109C5.05469 13.6016 5.03125 13.5391 5.01562 13.5234C5 13.4922 4.97656 13.4609 4.94531 13.4297C4.91406 13.2734 4.89062 13.1875 4.875 13.1719C4.85938 13.1406 4.83594 13.1094 4.80469 13.0781C4.61719 12.9688 4.49219 12.9453 4.42969 13.0078C4.38281 13.0547 4.32031 13.0859 4.24219 13.1016C4.21094 13.1797 4.17188 13.2422 4.125 13.2891C4.09375 13.3203 4.05469 13.3516 4.00781 13.3828C3.99219 13.4609 3.96875 13.5234 3.9375 13.5703C3.92188 13.6172 3.91406 13.6797 3.91406 13.7578C3.75781 13.8203 3.69531 13.9297 3.72656 14.0859C3.63281 14.1641 3.57031 14.2188 3.53906 14.25C3.52344 14.2812 3.52344 14.3281 3.53906 14.3906C3.50781 14.4219 3.46875 14.4531 3.42188 14.4844C3.39062 14.5 3.35938 14.5234 3.32812 14.5547C3.23438 14.6953 3.17969 14.7891 3.16406 14.8359C3.16406 14.8828 3.14844 14.9375 3.11719 15C3.05469 15.2031 3 15.3203 2.95312 15.3516C2.92188 15.3672 2.90625 15.4141 2.90625 15.4922C2.85938 15.6172 2.82812 15.7109 2.8125 15.7734C2.78125 15.8359 2.75 15.8906 2.71875 15.9375C2.6875 15.9688 2.65625 16.0156 2.625 16.0781C2.5625 16.25 2.53125 16.3672 2.53125 16.4297C2.54688 16.4922 2.52344 16.5469 2.46094 16.5938C2.44531 16.6719 2.42969 16.7422 2.41406 16.8047C2.39844 16.8672 2.375 16.9375 2.34375 17.0156C2.3125 17.1406 2.28906 17.2266 2.27344 17.2734C2.24219 17.3828 2.21094 17.4609 2.17969 17.5078C2.16406 17.5391 2.17188 17.5781 2.20312 17.625C2.17188 17.6406 2.14844 17.6719 2.13281 17.7188C2.13281 17.7656 2.11719 17.8125 2.08594 17.8594C2.03906 18 2.00781 18.0781 1.99219 18.0938C1.97656 18.0938 1.96094 18.1094 1.94531 18.1406C1.91406 18.2656 1.89844 18.3516 1.89844 18.3984C1.89844 18.4453 1.88281 18.4922 1.85156 18.5391C1.82031 18.6328 1.80469 18.7031 1.80469 18.75C1.82031 18.7812 1.8125 18.8047 1.78125 18.8203C1.78125 18.9766 1.78125 19.0859 1.78125 19.1484C1.79688 19.1953 1.80469 19.2422 1.80469 19.2891C1.80469 19.3203 1.80469 19.3672 1.80469 19.4297C1.80469 19.4766 1.83594 19.5156 1.89844 19.5469C1.89844 19.6719 1.88281 19.75 1.85156 19.7812C1.82031 19.7969 1.79688 19.8281 1.78125 19.875C1.70312 19.8906 1.64844 19.9219 1.61719 19.9688C1.58594 20.0156 1.51562 20.0312 1.40625 20.0156C1.32812 20.0625 1.27344 20.125 1.24219 20.2031C1.21094 20.2812 1.15625 20.3359 1.07812 20.3672C0.9375 20.4922 0.851562 20.6016 0.820312 20.6953C0.664062 20.6953 0.585938 20.7188 0.585938 20.7656C0.601562 20.8125 0.59375 20.8359 0.5625 20.8359C0.53125 20.8672 0.492188 20.8672 0.445312 20.8359C0.398438 20.8203 0.351562 20.8281 0.304688 20.8594C0.242188 20.7656 0.1875 20.6953 0.140625 20.6484C0.125 20.5703 0.125 20.5078 0.140625 20.4609C0.171875 20.3984 0.1875 20.3281 0.1875 20.25C0.140625 20.0938 0.117188 19.9922 0.117188 19.9453C0.132812 19.8828 0.140625 19.8203 0.140625 19.7578C0.109375 19.6328 0.09375 19.5625 0.09375 19.5469C0.109375 19.5312 0.117188 19.5078 0.117188 19.4766C0.117188 19.4141 0.09375 19.3203 0.046875 19.1953C0.015625 19.0703 0.03125 18.9766 0.09375 18.9141C0.0625 18.7109 0.0546875 18.5781 0.0703125 18.5156C0.0859375 18.4531 0.0703125 18.3906 0.0234375 18.3281C0.0234375 18.1562 0.015625 18 0 17.8594C0 17.7188 0 17.6562 0 17.6719C0 17.5156 0.0078125 17.4141 0.0234375 17.3672C0.0390625 17.3047 0.046875 17.2422 0.046875 17.1797C0.0625 17.1016 0.0703125 17.0391 0.0703125 16.9922C0.0703125 16.9297 0.0859375 16.875 0.117188 16.8281C0.0859375 16.7344 0.0703125 16.6016 0.0703125 16.4297C0.0703125 16.2422 0.0625 16.0469 0.046875 15.8438C0.03125 15.7031 0.03125 15.5703 0.046875 15.4453C0.0625 15.3047 0.0546875 15.1797 0.0234375 15.0703C0.0546875 15.0391 0.0625 15 0.046875 14.9531C0.046875 14.8906 0.046875 14.8359 0.046875 14.7891C0.0625 14.6484 0.078125 14.5547 0.09375 14.5078C0.109375 14.4453 0.117188 14.3984 0.117188 14.3672C0.117188 14.3047 0.109375 14.2344 0.09375 14.1562C0.09375 14.0781 0.117188 14 0.164062 13.9219C0.132812 13.8438 0.125 13.7734 0.140625 13.7109C0.15625 13.6328 0.171875 13.5547 0.1875 13.4766C0.203125 13.2422 0.226562 13.0781 0.257812 12.9844C0.304688 12.875 0.3125 12.7734 0.28125 12.6797C0.3125 12.4766 0.335938 12.3359 0.351562 12.2578C0.382812 12.1641 0.414062 12.0781 0.445312 12C0.398438 11.9219 0.382812 11.8516 0.398438 11.7891C0.429688 11.7109 0.453125 11.6328 0.46875 11.5547C0.484375 11.3984 0.492188 11.2969 0.492188 11.25C0.492188 11.1875 0.5 11.125 0.515625 11.0625C0.609375 10.8438 0.640625 10.6641 0.609375 10.5234C0.6875 10.3984 0.71875 10.3203 0.703125 10.2891C0.703125 10.2578 0.710938 10.2266 0.726562 10.1953C0.773438 10.0391 0.796875 9.875 0.796875 9.70312C0.8125 9.53125 0.835938 9.4375 0.867188 9.42188C0.835938 9.3125 0.828125 9.25 0.84375 9.23438C0.875 9.20312 0.898438 9.17188 0.914062 9.14062C0.960938 9 0.976562 8.90625 0.960938 8.85938C0.960938 8.8125 0.96875 8.77344 0.984375 8.74219C1.03125 8.63281 1.04688 8.55469 1.03125 8.50781C1.03125 8.44531 1.04688 8.39062 1.07812 8.34375C1.10938 8.25 1.11719 8.19531 1.10156 8.17969C1.10156 8.14844 1.10938 8.10938 1.125 8.0625C1.17188 7.85938 1.20312 7.75 1.21875 7.73438C1.26562 7.5625 1.29688 7.47656 1.3125 7.47656C1.32812 7.46094 1.34375 7.4375 1.35938 7.40625C1.34375 7.3125 1.35156 7.24219 1.38281 7.19531C1.42969 7.13281 1.4375 7.05469 1.40625 6.96094C1.46875 6.88281 1.51562 6.82031 1.54688 6.77344C1.57812 6.72656 1.60156 6.67969 1.61719 6.63281C1.64844 6.60156 1.66406 6.5625 1.66406 6.51562C1.67969 6.45312 1.70312 6.40625 1.73438 6.375C1.76562 6.20312 1.78125 6.09375 1.78125 6.04688C1.78125 6 1.80469 5.96875 1.85156 5.95312C1.86719 5.875 1.89062 5.80469 1.92188 5.74219C1.95312 5.66406 1.96094 5.57812 1.94531 5.48438C2.00781 5.35938 2.07812 5.26562 2.15625 5.20312C2.20312 5 2.23438 4.88281 2.25 4.85156C2.28125 4.80469 2.29688 4.74219 2.29688 4.66406C2.42188 4.46094 2.50781 4.34375 2.55469 4.3125C2.61719 4.26562 2.64844 4.1875 2.64844 4.07812C2.80469 3.90625 2.89844 3.77344 2.92969 3.67969C3.00781 3.55469 3.0625 3.47656 3.09375 3.44531C3.125 3.41406 3.15625 3.38281 3.1875 3.35156C3.26562 3.14844 3.33594 3.00781 3.39844 2.92969C3.47656 2.85156 3.53906 2.75781 3.58594 2.64844C3.74219 2.47656 3.82812 2.36719 3.84375 2.32031C4.04688 2.19531 4.19531 2.02344 4.28906 1.80469C4.41406 1.74219 4.49219 1.69531 4.52344 1.66406C4.57031 1.63281 4.63281 1.60156 4.71094 1.57031C4.80469 1.47656 4.85938 1.41406 4.875 1.38281C4.90625 1.35156 4.95312 1.33594 5.01562 1.33594L5.22656 1.17188C5.33594 1.03125 5.39844 0.96875 5.41406 0.984375C5.42969 0.984375 5.44531 0.976562 5.46094 0.960938C5.49219 0.929687 5.53906 0.898438 5.60156 0.867188C5.67969 0.820312 5.74219 0.78125 5.78906 0.75C5.89844 0.71875 5.96875 0.695312 6 0.679688C6.03125 0.664063 6.05469 0.640625 6.07031 0.609375C6.14844 0.625 6.19531 0.617188 6.21094 0.585938C6.22656 0.539062 6.26562 0.515625 6.32812 0.515625C6.51562 0.40625 6.63281 0.359375 6.67969 0.375C6.72656 0.390625 6.78906 0.398438 6.86719 0.398438C7.05469 0.335938 7.15625 0.296875 7.17188 0.28125C7.21875 0.28125 7.25781 0.265625 7.28906 0.234375C7.33594 0.203125 7.39062 0.171875 7.45312 0.140625C7.51562 0.109375 7.57031 0.09375 7.61719 0.09375C7.67969 0.078125 7.74219 0.0546875 7.80469 0.0234375C7.88281 0.0390625 7.94531 0.0625 7.99219 0.09375C8.03906 0.109375 8.08594 0.078125 8.13281 0C8.25781 0.03125 8.38281 0.0390625 8.50781 0.0234375C8.64844 0.0078125 8.75781 0.046875 8.83594 0.140625C9.13281 0.234375 9.29688 0.3125 9.32812 0.375C9.45312 0.375 9.55469 0.398438 9.63281 0.445312C9.71094 0.476563 9.78906 0.515625 9.86719 0.5625ZM10.6641 14.4141C10.6953 14.3359 10.7266 14.2656 10.7578 14.2031C10.8047 14.125 10.8672 14.0703 10.9453 14.0391C10.9609 13.9453 11 13.8828 11.0625 13.8516C11.125 13.8203 11.1641 13.7578 11.1797 13.6641C11.2891 13.6016 11.3672 13.5234 11.4141 13.4297C11.5547 13.3359 11.625 13.2969 11.625 13.3125C11.625 13.3125 11.6406 13.3125 11.6719 13.3125C11.8125 13.2031 11.8984 13.125 11.9297 13.0781C11.9609 13.0312 12 12.9922 12.0469 12.9609C12.1562 12.8984 12.2266 12.8516 12.2578 12.8203C12.2891 12.7891 12.3203 12.7578 12.3516 12.7266C12.4766 12.6641 12.5469 12.6328 12.5625 12.6328C12.5938 12.6328 12.625 12.625 12.6562 12.6094C12.8125 12.5 12.9062 12.4375 12.9375 12.4219C12.9688 12.4062 12.9922 12.375 13.0078 12.3281C13.3047 12.25 13.5234 12.1719 13.6641 12.0938C13.7734 12.0625 13.8516 12.0547 13.8984 12.0703C13.9453 12.0703 13.9922 12.0625 14.0391 12.0469C14.2734 12.0156 14.4219 12.0156 14.4844 12.0469C14.5625 12.0781 14.6406 12.0938 14.7188 12.0938C14.8438 12.0938 14.9219 12.1172 14.9531 12.1641C14.9844 12.1953 15.0234 12.2109 15.0703 12.2109C15.1172 12.3828 15.1641 12.4922 15.2109 12.5391C15.2734 12.5703 15.3594 12.5938 15.4688 12.6094C15.6562 12.7344 15.75 12.8203 15.75 12.8672C15.8594 12.9141 15.9531 12.9688 16.0312 13.0312C16.125 13.0938 16.1953 13.1875 16.2422 13.3125C16.3672 13.3906 16.4453 13.4453 16.4766 13.4766C16.5078 13.5078 16.5312 13.5469 16.5469 13.5938C16.6875 13.75 16.7656 13.8594 16.7812 13.9219C16.8125 13.9844 16.8516 14.0312 16.8984 14.0625C16.9297 14.1875 16.9531 14.3047 16.9688 14.4141C16.9844 14.5078 16.9766 14.6172 16.9453 14.7422C16.9922 15.0078 16.9453 15.2109 16.8047 15.3516C16.7734 15.5391 16.7734 15.6406 16.8047 15.6562C16.8359 15.6562 16.8438 15.6719 16.8281 15.7031C16.7969 15.8125 16.7734 15.8906 16.7578 15.9375C16.7422 15.9844 16.7266 16.0312 16.7109 16.0781C16.6641 16.2344 16.6484 16.3281 16.6641 16.3594C16.6797 16.375 16.6797 16.3984 16.6641 16.4297C16.5547 16.5859 16.4922 16.6797 16.4766 16.7109C16.4609 16.7422 16.4531 16.7812 16.4531 16.8281C16.2969 16.9219 16.2188 16.9766 16.2188 16.9922C16.2344 17.0078 16.2422 17.0469 16.2422 17.1094C16.1016 17.2812 16.0234 17.3906 16.0078 17.4375C16.0078 17.4688 15.9766 17.4922 15.9141 17.5078C15.8516 17.6016 15.7734 17.6953 15.6797 17.7891C15.5391 17.8828 15.4453 17.9453 15.3984 17.9766C15.3672 17.9922 15.3516 18.0234 15.3516 18.0703C15.2578 18.1484 15.2031 18.2031 15.1875 18.2344C15.1719 18.2656 15.1562 18.2969 15.1406 18.3281C14.9844 18.375 14.9062 18.4062 14.9062 18.4219C14.9062 18.4375 14.8984 18.4453 14.8828 18.4453C14.7422 18.5078 14.6484 18.5625 14.6016 18.6094C14.5703 18.6406 14.5312 18.6719 14.4844 18.7031C14.3906 18.7031 14.3125 18.7344 14.25 18.7969C14.1875 18.8438 14.1172 18.8828 14.0391 18.9141C13.9922 18.9453 13.9453 18.9688 13.8984 18.9844C13.8516 19 13.8125 19.0312 13.7812 19.0781C13.5312 19.1562 13.3281 19.2422 13.1719 19.3359C13.0156 19.4297 12.8438 19.4453 12.6562 19.3828C12.4531 19.4297 12.3438 19.4453 12.3281 19.4297C12.3125 19.4141 12.2891 19.3984 12.2578 19.3828C12.1172 19.4453 12.0234 19.4766 11.9766 19.4766C11.9297 19.4766 11.8672 19.4609 11.7891 19.4297C11.6328 19.3828 11.5234 19.3594 11.4609 19.3594C11.3047 19.2656 11.1953 19.2109 11.1328 19.1953C11.0859 19.1641 11.0391 19.1328 10.9922 19.1016C10.9453 19.0703 10.8906 19.0391 10.8281 19.0078C10.7812 18.9609 10.7578 18.8984 10.7578 18.8203C10.6328 18.6953 10.5703 18.6328 10.5703 18.6328C10.4922 18.4297 10.4219 18.3203 10.3594 18.3047C10.3281 18.1484 10.2969 18.0547 10.2656 18.0234C10.2188 17.8984 10.1875 17.8359 10.1719 17.8359C10.1719 17.8203 10.1641 17.7891 10.1484 17.7422C10.1484 17.7109 10.1406 17.6641 10.125 17.6016C10.1094 17.5234 10.1016 17.4609 10.1016 17.4141C10.0547 17.1016 10.0312 16.8828 10.0312 16.7578C10.0469 16.6328 10.0391 16.5078 10.0078 16.3828C10.0391 16.3516 10.0469 16.3203 10.0312 16.2891C10.0312 16.2422 10.0391 16.1797 10.0547 16.1016C10.0703 15.9609 10.0859 15.8828 10.1016 15.8672C10.1172 15.8359 10.125 15.8047 10.125 15.7734C10.1406 15.6328 10.1719 15.5 10.2188 15.375C10.2344 15.3281 10.25 15.2891 10.2656 15.2578C10.2969 15.2109 10.3047 15.1562 10.2891 15.0938C10.3828 15.0469 10.4375 14.9766 10.4531 14.8828C10.4844 14.7734 10.5234 14.6797 10.5703 14.6016L10.6641 14.4141ZM14.1094 13.8047C14.0156 13.7578 13.9609 13.7266 13.9453 13.7109C13.9297 13.6797 13.9062 13.6562 13.875 13.6406C13.7031 13.5938 13.6016 13.5859 13.5703 13.6172C13.5547 13.6328 13.5312 13.6328 13.5 13.6172C13.4219 13.6172 13.3438 13.6016 13.2656 13.5703C13.1875 13.5391 13.125 13.5625 13.0781 13.6406C12.9062 13.6562 12.8125 13.6562 12.7969 13.6406C12.75 13.6719 12.6953 13.6953 12.6328 13.7109C12.5859 13.7266 12.5469 13.75 12.5156 13.7812C12.4688 13.875 12.4297 13.9375 12.3984 13.9688C12.3672 13.9844 12.3594 14.0156 12.375 14.0625C12.3281 14.125 12.2578 14.2031 12.1641 14.2969C12.1172 14.5469 12.0703 14.7109 12.0234 14.7891C11.9766 14.8516 11.9219 14.9062 11.8594 14.9531C11.875 15.0312 11.875 15.1172 11.8594 15.2109C11.8594 15.2891 11.8359 15.3516 11.7891 15.3984C11.7266 15.6328 11.7031 15.7734 11.7188 15.8203C11.75 15.8516 11.7578 15.9062 11.7422 15.9844C11.6797 16.1875 11.6719 16.2891 11.7188 16.2891C11.7656 16.2734 11.7812 16.2891 11.7656 16.3359C11.7656 16.5078 11.7734 16.6016 11.7891 16.6172C11.8203 16.6172 11.8359 16.6328 11.8359 16.6641L11.9062 16.9453C11.9688 17.0703 11.9922 17.1406 11.9766 17.1562C11.9609 17.1719 11.9531 17.1953 11.9531 17.2266C12.0469 17.3672 12.1016 17.4531 12.1172 17.4844C12.1484 17.5156 12.1797 17.5469 12.2109 17.5781C12.2266 17.7031 12.2422 17.7812 12.2578 17.8125C12.2891 17.8281 12.2891 17.8516 12.2578 17.8828C12.3359 17.8984 12.3984 17.9141 12.4453 17.9297C12.5078 17.9453 12.5547 17.9922 12.5859 18.0703C12.7109 18.1016 12.7812 18.1562 12.7969 18.2344C13.0469 18.2969 13.2109 18.3281 13.2891 18.3281C13.3672 18.3125 13.4688 18.2891 13.5938 18.2578C13.8281 18.2734 13.9844 18.2656 14.0625 18.2344C14.1406 18.1875 14.1953 18.1328 14.2266 18.0703C14.2891 18.0078 14.3359 17.9688 14.3672 17.9531C14.3984 17.9219 14.4297 17.8906 14.4609 17.8594C14.5391 17.7188 14.6016 17.6172 14.6484 17.5547C14.7109 17.4766 14.7344 17.3906 14.7188 17.2969C14.9688 16.9688 15.0859 16.6484 15.0703 16.3359C15.1328 16.1484 15.1562 16.0469 15.1406 16.0312C15.125 16 15.1172 15.9688 15.1172 15.9375C15.1797 15.8438 15.1953 15.7344 15.1641 15.6094C15.1484 15.4688 15.125 15.3516 15.0938 15.2578C15.0625 15.0859 15.0469 14.9922 15.0469 14.9766C15.0625 14.9453 15.0703 14.9219 15.0703 14.9062C14.9609 14.75 14.8984 14.6641 14.8828 14.6484C14.8047 14.4922 14.7344 14.3828 14.6719 14.3203C14.6094 14.2578 14.5547 14.1797 14.5078 14.0859C14.4141 14.0078 14.3594 13.9609 14.3438 13.9453C14.3281 13.9297 14.3125 13.9062 14.2969 13.875L14.1094 13.8047ZM17.6719 13.6641C17.4531 13.7891 17.3047 13.875 17.2266 13.9219C17.1328 13.9688 17.0234 14 16.8984 14.0156C16.8984 13.9531 16.8672 13.9219 16.8047 13.9219C16.7422 13.9219 16.6953 13.9062 16.6641 13.875C16.7109 13.7344 16.7422 13.6562 16.7578 13.6406C16.7734 13.6094 16.7812 13.5781 16.7812 13.5469C16.8125 13.5156 16.8516 13.4922 16.8984 13.4766C16.9453 13.4453 16.9688 13.3984 16.9688 13.3359C17.1562 13.2266 17.2734 13.1562 17.3203 13.125C17.3516 13.0781 17.3906 13.0391 17.4375 13.0078C17.5312 12.9141 17.5859 12.8672 17.6016 12.8672C17.6172 12.8516 17.6406 12.8438 17.6719 12.8438C17.8594 12.75 17.9688 12.6797 18 12.6328C18.0469 12.5859 18.1172 12.5625 18.2109 12.5625C18.2578 12.5156 18.3047 12.4844 18.3516 12.4688C18.4141 12.4375 18.4609 12.3984 18.4922 12.3516C18.6953 12.3047 18.8828 12.2344 19.0547 12.1406C19.1016 12.1094 19.1641 12.1016 19.2422 12.1172C19.3203 12.1328 19.375 12.125 19.4062 12.0938C19.4688 12.125 19.5312 12.1562 19.5938 12.1875C19.6562 12.2188 19.7266 12.2344 19.8047 12.2344C19.9141 12.3281 20.0547 12.3984 20.2266 12.4453C20.2578 12.5234 20.3047 12.5859 20.3672 12.6328C20.4297 12.6641 20.4922 12.6953 20.5547 12.7266C20.5859 12.8984 20.6172 13 20.6484 13.0312C20.6953 13.0625 20.7344 13.1172 20.7656 13.1953C20.7812 13.3047 20.7969 13.3828 20.8125 13.4297C20.8281 13.4609 20.8438 13.4922 20.8594 13.5234C20.8125 13.6484 20.8047 13.7266 20.8359 13.7578C20.8672 13.7734 20.8906 13.8047 20.9062 13.8516C20.8906 14.0547 20.9141 14.1719 20.9766 14.2031C21.0234 14.3125 21.0391 14.375 21.0234 14.3906C21.0078 14.4062 21 14.4297 21 14.4609C21.0312 14.5547 21.0391 14.625 21.0234 14.6719C21.0078 14.7188 21.0078 14.7734 21.0234 14.8359C21.1016 15.0391 21.1328 15.1562 21.1172 15.1875C21.1016 15.2188 21.0938 15.2578 21.0938 15.3047C21.25 15.3203 21.3281 15.2422 21.3281 15.0703C21.375 15.0391 21.4062 15 21.4219 14.9531C21.4531 14.9062 21.5 14.8672 21.5625 14.8359C21.6094 14.6328 21.6328 14.5312 21.6328 14.5312C21.7266 14.375 21.7812 14.2891 21.7969 14.2734C21.8281 14.2422 21.8594 14.2188 21.8906 14.2031C21.8906 14.125 21.9062 14.0781 21.9375 14.0625C21.9844 14.0469 22.0078 14 22.0078 13.9219C22.1172 13.8125 22.2031 13.7344 22.2656 13.6875C22.3281 13.6406 22.3672 13.5781 22.3828 13.5C22.4453 13.4844 22.5391 13.4453 22.6641 13.3828C22.7578 13.2891 22.8203 13.2266 22.8516 13.1953C22.8828 13.1484 22.9141 13.1016 22.9453 13.0547C23.0391 13.0078 23.1016 12.9609 23.1328 12.9141C23.1641 12.8672 23.1953 12.8203 23.2266 12.7734C23.3359 12.8359 23.4375 12.8438 23.5312 12.7969C23.7188 12.6875 23.8281 12.6172 23.8594 12.5859C23.8906 12.5547 23.9453 12.5469 24.0234 12.5625C24.0703 12.5312 24.1328 12.5078 24.2109 12.4922C24.2891 12.4609 24.3672 12.4297 24.4453 12.3984C24.6172 12.3516 24.7109 12.3203 24.7266 12.3047C24.7578 12.2734 24.7891 12.2578 24.8203 12.2578C25.0547 12.2422 25.2344 12.25 25.3594 12.2812C25.4844 12.3125 25.6172 12.3203 25.7578 12.3047C25.8047 12.3359 25.8516 12.3672 25.8984 12.3984C25.9453 12.4297 25.9922 12.4609 26.0391 12.4922C26.0859 12.7266 26.1328 12.8594 26.1797 12.8906C26.2266 12.9062 26.2734 12.9297 26.3203 12.9609C26.3672 13.1328 26.4141 13.2578 26.4609 13.3359C26.5078 13.4141 26.5703 13.4844 26.6484 13.5469C26.6328 13.6094 26.6406 13.6562 26.6719 13.6875C26.7031 13.7188 26.7188 13.7656 26.7188 13.8281C26.75 13.9062 26.7656 13.9844 26.7656 14.0625C26.7812 14.1406 26.7969 14.2031 26.8125 14.25C26.8906 14.2344 26.9531 14.1875 27 14.1094C27.0469 14.0156 27.0625 13.9297 27.0469 13.8516C27.1719 13.6953 27.2812 13.5781 27.375 13.5C27.4688 13.4219 27.5234 13.3047 27.5391 13.1484C27.6641 12.9922 27.7422 12.9062 27.7734 12.8906C27.8047 12.8594 27.8203 12.8125 27.8203 12.75C27.8828 12.7188 27.9297 12.6953 27.9609 12.6797C28.0078 12.6484 28.0547 12.6172 28.1016 12.5859C28.1641 12.4922 28.2031 12.4297 28.2188 12.3984C28.2344 12.3672 28.2578 12.3438 28.2891 12.3281C28.4297 12.2188 28.5078 12.1641 28.5234 12.1641C28.5391 12.1641 28.5625 12.1562 28.5938 12.1406C28.6406 12.0625 28.6875 12.0156 28.7344 12C28.7812 11.9844 28.8203 11.9531 28.8516 11.9062C29.0234 11.8281 29.1094 11.7656 29.1094 11.7188C29.1094 11.6562 29.125 11.6094 29.1562 11.5781C29.2344 11.6094 29.2891 11.625 29.3203 11.625C29.3672 11.625 29.4141 11.625 29.4609 11.625C29.5234 11.6094 29.5703 11.5859 29.6016 11.5547C29.6484 11.5078 29.7109 11.4844 29.7891 11.4844C29.9766 11.375 30.1094 11.3203 30.1875 11.3203C30.2656 11.3047 30.3438 11.2969 30.4219 11.2969C30.5312 11.3125 30.6328 11.3438 30.7266 11.3906C30.8359 11.4219 30.9297 11.4219 31.0078 11.3906C31.1016 11.4844 31.1953 11.5391 31.2891 11.5547C31.3203 11.6484 31.3516 11.7266 31.3828 11.7891C31.4297 11.8516 31.4688 11.9219 31.5 12C31.5469 12.125 31.5781 12.2188 31.5938 12.2812C31.6094 12.3438 31.625 12.4141 31.6406 12.4922C31.7188 12.6172 31.75 12.6953 31.7344 12.7266C31.7344 12.7578 31.7344 12.7891 31.7344 12.8203C31.7969 13.0391 31.8359 13.1719 31.8516 13.2188C31.8828 13.2656 31.8828 13.3281 31.8516 13.4062C31.8984 13.4688 31.9297 13.5781 31.9453 13.7344C31.9297 13.875 31.9297 13.9609 31.9453 13.9922C31.9609 14.0078 31.9766 14.0312 31.9922 14.0625C32.0078 14.1875 32.0156 14.3047 32.0156 14.4141C32.0156 14.5078 32.0391 14.6094 32.0859 14.7188C32.0547 14.7812 32.0391 14.8516 32.0391 14.9297C32.0547 14.9922 32.0703 15.0625 32.0859 15.1406C32.1016 15.2969 32.1016 15.375 32.0859 15.375C32.0703 15.375 32.0703 15.3828 32.0859 15.3984C32.0859 15.4766 32.0938 15.5469 32.1094 15.6094C32.1406 15.6562 32.1562 15.7188 32.1562 15.7969C32.125 15.9219 32.1172 16.0078 32.1328 16.0547C32.1641 16.1016 32.1953 16.1562 32.2266 16.2188C32.1797 16.3438 32.1484 16.4375 32.1328 16.5C32.1328 16.5625 32.1562 16.6016 32.2031 16.6172C32.1719 16.7578 32.1406 16.8906 32.1094 17.0156C32.0938 17.125 32.1172 17.2031 32.1797 17.25C32.1641 17.4844 32.1484 17.6406 32.1328 17.7188C32.1172 17.7969 32.1094 17.8672 32.1094 17.9297C32.1406 18.0234 32.1484 18.0859 32.1328 18.1172C32.1328 18.1484 32.1328 18.1719 32.1328 18.1875C32.1328 18.2344 32.125 18.2891 32.1094 18.3516C32.1094 18.4141 32.1172 18.4688 32.1328 18.5156C32.0859 18.6562 32.0703 18.7422 32.0859 18.7734C32.1172 18.7891 32.1406 18.8281 32.1562 18.8906C32.2344 18.9688 32.25 19.0156 32.2031 19.0312C32.1719 19.0469 32.1641 19.0859 32.1797 19.1484C32.1641 19.2266 32.1797 19.3047 32.2266 19.3828C32.2734 19.4609 32.2578 19.5312 32.1797 19.5938C32.2109 19.625 32.2266 19.6719 32.2266 19.7344C32.2422 19.7969 32.2734 19.8438 32.3203 19.875C32.3203 20 32.3281 20.0859 32.3438 20.1328C32.3594 20.1797 32.3594 20.2344 32.3438 20.2969C32.3438 20.4375 32.3594 20.5547 32.3906 20.6484C32.4219 20.7578 32.4375 20.875 32.4375 21C32.4688 21.125 32.4688 21.1797 32.4375 21.1641C32.4219 21.1641 32.4062 21.1953 32.3906 21.2578C32.4688 21.4297 32.4844 21.5391 32.4375 21.5859C32.4688 21.7422 32.4922 21.8281 32.5078 21.8438C32.5547 22.0156 32.5859 22.1094 32.6016 22.125C32.6172 22.1562 32.625 22.1797 32.625 22.1953C32.6562 22.3828 32.6953 22.5078 32.7422 22.5703C32.7891 22.6484 32.8281 22.7266 32.8594 22.8047C32.9062 22.8359 32.9453 22.875 32.9766 22.9219C33.0234 22.9688 33.0625 23.0078 33.0938 23.0391C33.1406 23.0703 33.1875 23.1094 33.2344 23.1562C33.2812 23.2031 33.3203 23.25 33.3516 23.2969C33.4141 23.2969 33.4609 23.3125 33.4922 23.3438C33.5234 23.375 33.5547 23.4062 33.5859 23.4375C33.6641 23.4531 33.7344 23.4688 33.7969 23.4844C33.875 23.5 33.9531 23.5078 34.0312 23.5078C34.2031 23.4922 34.3047 23.4844 34.3359 23.4844C34.3672 23.5 34.3984 23.5 34.4297 23.4844C34.6016 23.4375 34.6953 23.4062 34.7109 23.3906C34.7578 23.3594 34.7969 23.3203 34.8281 23.2734C34.875 23.2266 34.9375 23.1953 35.0156 23.1797C35.0469 23.1484 35.0859 23.1016 35.1328 23.0391C35.1797 22.9922 35.2422 22.9688 35.3203 22.9688C35.4609 22.9688 35.5391 23.0391 35.5547 23.1797C35.4766 23.1797 35.4453 23.2266 35.4609 23.3203C35.4922 23.4141 35.4609 23.4531 35.3672 23.4375C35.3828 23.5 35.3594 23.5391 35.2969 23.5547C35.2344 23.5703 35.1875 23.5938 35.1562 23.625C35 23.6562 34.8984 23.6797 34.8516 23.6953C34.8203 23.7266 34.7734 23.7422 34.7109 23.7422C34.6797 23.7734 34.6484 23.7891 34.6172 23.7891C34.5859 23.8047 34.5312 23.8281 34.4531 23.8594C34.4219 23.875 34.3828 23.8984 34.3359 23.9297C34.2891 23.9609 34.2422 23.9844 34.1953 24C34.1016 24.0312 34.0156 24.0312 33.9375 24C33.8906 24.0781 33.8281 24.1172 33.75 24.1172C33.6719 24.1328 33.5781 24.1562 33.4688 24.1875C33.1562 24.2344 32.9609 24.25 32.8828 24.2344C32.7734 24.2969 32.7109 24.3125 32.6953 24.2812C32.6797 24.25 32.6562 24.2344 32.625 24.2344C32.5156 24.2188 32.4531 24.2188 32.4375 24.2344C32.4219 24.25 32.3984 24.2578 32.3672 24.2578L32.0859 24.1875C32.0547 24.0625 32.0156 23.9922 31.9688 23.9766C31.9375 23.9609 31.9219 23.9375 31.9219 23.9062C31.7969 23.8906 31.7188 23.8672 31.6875 23.8359C31.6562 23.8203 31.6016 23.8281 31.5234 23.8594C31.4141 23.7812 31.3516 23.7188 31.3359 23.6719C31.3359 23.625 31.3125 23.5938 31.2656 23.5781C31.1094 23.4219 31.0156 23.3047 30.9844 23.2266C30.9688 23.1484 30.9609 23.0469 30.9609 22.9219C30.8516 22.7188 30.7891 22.5859 30.7734 22.5234C30.7578 22.4766 30.7656 22.4062 30.7969 22.3125C30.7188 22.2031 30.6875 22.0859 30.7031 21.9609C30.7344 21.8359 30.7109 21.7344 30.6328 21.6562C30.6641 21.5938 30.6641 21.5234 30.6328 21.4453C30.6016 21.3828 30.6016 21.3125 30.6328 21.2344C30.5859 21.125 30.5625 21.0547 30.5625 21.0234C30.5781 21.0078 30.6016 20.9922 30.6328 20.9766C30.5703 20.8203 30.5234 20.6875 30.4922 20.5781C30.4609 20.4062 30.4453 20.3125 30.4453 20.2969C30.4609 20.2656 30.4453 20.25 30.3984 20.25C30.4141 20.0938 30.4062 19.9844 30.375 19.9219C30.3594 19.75 30.3516 19.6641 30.3516 19.6641C30.3672 19.6641 30.375 19.6562 30.375 19.6406C30.3594 19.5625 30.3516 19.5 30.3516 19.4531C30.3672 19.4062 30.3672 19.3594 30.3516 19.3125C30.3516 19.2031 30.3438 19.0859 30.3281 18.9609C30.3281 18.8359 30.3281 18.7266 30.3281 18.6328C30.3438 18.4609 30.3438 18.3594 30.3281 18.3281C30.3281 18.2812 30.3281 18.2422 30.3281 18.2109C30.3438 18.1484 30.3594 18.0938 30.375 18.0469C30.3906 18 30.3984 17.9531 30.3984 17.9062C30.3984 17.8594 30.3906 17.8047 30.375 17.7422C30.375 17.6797 30.4062 17.625 30.4688 17.5781C30.4219 17.3906 30.3984 17.2656 30.3984 17.2031C30.3516 17.0156 30.3359 16.9141 30.3516 16.8984C30.3828 16.8828 30.3984 16.8594 30.3984 16.8281C30.4141 16.75 30.3984 16.6406 30.3516 16.5V16.2188L30.3047 15.8203C30.3203 15.7734 30.3125 15.7031 30.2812 15.6094C30.2656 15.5156 30.2656 15.4531 30.2812 15.4219C30.3125 15.4062 30.3125 15.3672 30.2812 15.3047C30.2656 15.2266 30.2422 15.1484 30.2109 15.0703C30.2109 15.0234 30.2188 14.9766 30.2344 14.9297C30.25 14.8828 30.2266 14.8438 30.1641 14.8125C30.2109 14.7344 30.2109 14.6641 30.1641 14.6016C30.1328 14.5391 30.125 14.4688 30.1406 14.3906C30.0625 14.2812 30.0312 14.2188 30.0469 14.2031C30.0781 14.1875 30.0938 14.1562 30.0938 14.1094C30.0625 14.0469 30.0469 13.9922 30.0469 13.9453C30.0469 13.8828 30.0391 13.8125 30.0234 13.7344C30.0078 13.6875 29.9844 13.6406 29.9531 13.5938C29.9219 13.5469 29.9141 13.4922 29.9297 13.4297C29.8672 13.3359 29.8359 13.25 29.8359 13.1719C29.7734 13.0781 29.7266 12.9844 29.6953 12.8906C29.6641 12.7969 29.625 12.7109 29.5781 12.6328C29.5 12.6172 29.4375 12.6016 29.3906 12.5859C29.3594 12.5547 29.2969 12.5391 29.2031 12.5391C29.0938 12.7266 29.0234 12.8516 28.9922 12.9141C28.9297 12.9609 28.875 13.0234 28.8281 13.1016C28.7812 13.1641 28.7344 13.2344 28.6875 13.3125C28.6406 13.4844 28.6172 13.5781 28.6172 13.5938C28.6172 13.6094 28.6094 13.6328 28.5938 13.6641C28.4688 13.8359 28.4141 13.9297 28.4297 13.9453C28.4453 13.9453 28.4531 13.9609 28.4531 13.9922C28.4062 14.1328 28.3438 14.2422 28.2656 14.3203C28.1875 14.3828 28.1484 14.4609 28.1484 14.5547C28.0703 14.8047 27.9766 14.9609 27.8672 15.0234C27.8984 15.1016 27.8984 15.1641 27.8672 15.2109C27.8359 15.2578 27.8047 15.3047 27.7734 15.3516C27.7578 15.5703 27.7422 15.7188 27.7266 15.7969C27.7109 15.8594 27.6875 15.9219 27.6562 15.9844C27.6562 16.1406 27.6406 16.2344 27.6094 16.2656C27.5938 16.2812 27.5781 16.3047 27.5625 16.3359L27.4922 16.6406C27.4609 16.7656 27.4453 16.8516 27.4453 16.8984C27.4453 16.9297 27.4219 16.9609 27.375 16.9922C27.375 17.1172 27.3594 17.2266 27.3281 17.3203C27.3125 17.3672 27.3047 17.4453 27.3047 17.5547C27.3203 17.6484 27.3047 17.7188 27.2578 17.7656C27.2891 17.9375 27.2969 18.0547 27.2812 18.1172C27.2812 18.1797 27.2812 18.2344 27.2812 18.2812C27.2969 18.3906 27.2969 18.4609 27.2812 18.4922C27.2812 18.5078 27.2812 18.5312 27.2812 18.5625C27.2969 18.6094 27.3125 18.6562 27.3281 18.7031C27.3438 18.75 27.3594 18.7969 27.375 18.8438C27.1875 19 27.0859 19.125 27.0703 19.2188C26.9609 19.2188 26.8594 19.2344 26.7656 19.2656C26.625 19.3438 26.5234 19.4141 26.4609 19.4766C26.3984 19.5234 26.3047 19.5391 26.1797 19.5234C26.0703 19.6016 26 19.6484 25.9688 19.6641C25.9531 19.6797 25.9297 19.6719 25.8984 19.6406C25.8359 19.7031 25.75 19.7266 25.6406 19.7109C25.5469 19.6797 25.4922 19.625 25.4766 19.5469C25.4922 19.4688 25.5 19.3906 25.5 19.3125C25.5156 19.2344 25.5469 19.1562 25.5938 19.0781C25.5625 18.9531 25.5312 18.8594 25.5 18.7969C25.4844 18.7188 25.4609 18.6641 25.4297 18.6328C25.3984 18.4766 25.4297 18.3281 25.5234 18.1875C25.4922 18.0781 25.4766 18.0156 25.4766 18C25.4922 17.9844 25.5 17.9609 25.5 17.9297C25.4688 17.8359 25.4531 17.75 25.4531 17.6719C25.4062 17.4844 25.3906 17.3672 25.4062 17.3203C25.4375 17.2578 25.4531 17.2031 25.4531 17.1562C25.3906 17.0156 25.3672 16.9453 25.3828 16.9453C25.3984 16.9297 25.4062 16.9062 25.4062 16.875C25.3594 16.8125 25.3359 16.7031 25.3359 16.5469C25.2891 16.375 25.2344 16.2422 25.1719 16.1484C25.1875 15.9766 25.1797 15.8828 25.1484 15.8672C25.1328 15.8516 25.1172 15.8281 25.1016 15.7969C25.1016 15.7031 25.1094 15.625 25.125 15.5625C25.1562 15.4844 25.1406 15.4375 25.0781 15.4219C25.1094 15.2344 25.1172 15.1172 25.1016 15.0703C25.1016 15.0234 25.1094 14.9844 25.125 14.9531C25.0312 14.6875 24.9297 14.5234 24.8203 14.4609C24.7734 14.2734 24.7344 14.1641 24.7031 14.1328C24.6719 14.1016 24.6641 14.0469 24.6797 13.9688C24.5703 13.7969 24.5 13.7031 24.4688 13.6875C24.4375 13.6719 24.4219 13.6406 24.4219 13.5938C24.3906 13.5625 24.3438 13.5469 24.2812 13.5469C24.2344 13.5312 24.2031 13.5078 24.1875 13.4766C24.0938 13.4922 24 13.5 23.9062 13.5C23.8125 13.4844 23.7188 13.4766 23.625 13.4766C23.5156 13.6328 23.4375 13.7344 23.3906 13.7812C23.3594 13.8125 23.3359 13.8594 23.3203 13.9219C23.1797 14.0938 23.1172 14.1875 23.1328 14.2031C23.1172 14.25 23.0938 14.2969 23.0625 14.3438C23.0469 14.375 23.0234 14.4219 22.9922 14.4844C22.9141 14.5781 22.8672 14.6484 22.8516 14.6953C22.8516 14.7266 22.8359 14.7422 22.8047 14.7422C22.7734 14.8516 22.7031 14.9844 22.5938 15.1406C22.5156 15.2812 22.4766 15.375 22.4766 15.4219C22.4922 15.4688 22.4844 15.5078 22.4531 15.5391C22.3594 15.6797 22.3125 15.7656 22.3125 15.7969C22.3281 15.8281 22.3281 15.8594 22.3125 15.8906C22.2188 16 22.1719 16.1094 22.1719 16.2188C22.1406 16.375 22.1094 16.4766 22.0781 16.5234C22.0469 16.5703 22.0156 16.625 21.9844 16.6875C21.9375 16.8281 21.9141 16.9141 21.9141 16.9453C21.9297 16.9766 21.9219 17 21.8906 17.0156C21.8906 17.1562 21.875 17.2422 21.8438 17.2734C21.8281 17.2891 21.8281 17.3281 21.8438 17.3906C21.7812 17.4219 21.7422 17.4844 21.7266 17.5781C21.7109 17.6562 21.6797 17.7188 21.6328 17.7656C21.6484 17.8906 21.6562 17.9766 21.6562 18.0234C21.6562 18.0547 21.6406 18.0938 21.6094 18.1406C21.5625 18.2031 21.5391 18.2656 21.5391 18.3281C21.5391 18.375 21.5234 18.4141 21.4922 18.4453C21.5391 18.5234 21.5391 18.6016 21.4922 18.6797C21.4453 18.7422 21.4219 18.8125 21.4219 18.8906C21.4375 19.0469 21.4375 19.1406 21.4219 19.1719C21.4219 19.1875 21.4219 19.2109 21.4219 19.2422C21.4062 19.3359 21.3984 19.4141 21.3984 19.4766C21.3984 19.5234 21.4062 19.5625 21.4219 19.5938C21.4062 19.75 21.4141 19.8672 21.4453 19.9453C21.4922 20.0078 21.5156 20.0859 21.5156 20.1797C21.5625 20.3672 21.5625 20.4844 21.5156 20.5312C21.4844 20.5625 21.4453 20.6016 21.3984 20.6484C21.2578 20.7891 21.1797 20.8594 21.1641 20.8594L20.9062 20.9766C20.7969 21.0703 20.7266 21.1328 20.6953 21.1641C20.6641 21.1953 20.6328 21.2266 20.6016 21.2578C20.4141 21.3203 20.3125 21.3672 20.2969 21.3984C20.1406 21.4141 20.0547 21.4297 20.0391 21.4453C20.0391 21.4766 20.0312 21.5 20.0156 21.5156C19.9531 21.4844 19.9062 21.4688 19.875 21.4688C19.8438 21.4688 19.8047 21.4453 19.7578 21.3984C19.7734 21.3203 19.7656 21.2578 19.7344 21.2109C19.7031 21.1797 19.7031 21.1328 19.7344 21.0703C19.7656 20.5703 19.7266 20.1719 19.6172 19.875C19.6328 19.8281 19.6484 19.7656 19.6641 19.6875C19.6797 19.6094 19.6797 19.5156 19.6641 19.4062C19.6953 19.2031 19.7031 19.0781 19.6875 19.0312C19.6875 18.9688 19.6875 18.9219 19.6875 18.8906C19.6719 18.7188 19.6641 18.6328 19.6641 18.6328C19.6797 18.6172 19.6875 18.6016 19.6875 18.5859C19.6875 18.4297 19.6797 18.3438 19.6641 18.3281C19.6484 18.3125 19.6406 18.2891 19.6406 18.2578C19.6562 18.0547 19.6562 17.9141 19.6406 17.8359C19.6406 17.7578 19.6562 17.6797 19.6875 17.6016C19.6719 17.4922 19.6562 17.4062 19.6406 17.3438C19.625 17.2656 19.6328 17.2031 19.6641 17.1562C19.5859 17.0469 19.5547 16.9844 19.5703 16.9688C19.5859 16.9531 19.5938 16.9297 19.5938 16.8984C19.5625 16.8047 19.5312 16.6875 19.5 16.5469C19.4844 16.4062 19.4844 16.2812 19.5 16.1719C19.4844 16.0312 19.4766 15.9531 19.4766 15.9375C19.4766 15.9062 19.4844 15.875 19.5 15.8438C19.4688 15.7969 19.4531 15.7578 19.4531 15.7266C19.4688 15.6797 19.4688 15.6172 19.4531 15.5391C19.4062 15.4297 19.375 15.3594 19.3594 15.3281C19.3438 15.2969 19.3516 15.2812 19.3828 15.2812C19.3359 15.2344 19.3125 15.1641 19.3125 15.0703C19.3125 14.9609 19.2969 14.875 19.2656 14.8125C19.2031 14.6719 19.1641 14.5547 19.1484 14.4609C19.1328 14.3672 19.1016 14.2969 19.0547 14.25C19.0547 14.1406 19.0312 14.0625 18.9844 14.0156C18.9531 13.9531 18.9219 13.8828 18.8906 13.8047C18.8281 13.7891 18.7812 13.7656 18.75 13.7344C18.7188 13.7031 18.6797 13.6719 18.6328 13.6406C18.4922 13.5312 18.3672 13.4531 18.2578 13.4062C18.1484 13.3594 18.0547 13.3594 17.9766 13.4062L17.6719 13.6641ZM40.3594 19.3828C40.2812 19.4141 40.2266 19.4453 40.1953 19.4766C40.1641 19.4922 40.1094 19.4922 40.0312 19.4766C39.9844 19.5391 39.9219 19.5859 39.8438 19.6172C39.7656 19.6328 39.7109 19.6797 39.6797 19.7578C39.4453 19.8359 39.2656 19.9062 39.1406 19.9688C38.8594 20.0938 38.6641 20.1797 38.5547 20.2266C38.4609 20.2734 38.3672 20.3203 38.2734 20.3672C38.1484 20.3359 38.0391 20.3438 37.9453 20.3906C37.8672 20.4375 37.7969 20.4844 37.7344 20.5312C37.5938 20.5469 37.4531 20.5469 37.3125 20.5312C37.1719 20.5156 37.0625 20.5078 36.9844 20.5078C36.8281 20.4766 36.7266 20.4609 36.6797 20.4609C36.6484 20.4609 36.6328 20.4453 36.6328 20.4141C36.5703 20.4297 36.5234 20.4297 36.4922 20.4141C36.4609 20.3984 36.4219 20.3906 36.375 20.3906C36.2188 20.2969 36.1172 20.25 36.0703 20.25C36.0234 20.2344 35.9844 20.2109 35.9531 20.1797C35.9531 20.1641 35.9141 20.1484 35.8359 20.1328C35.7734 20.1172 35.7266 20.125 35.6953 20.1562L35.3672 19.9453C35.2266 19.7578 35.1328 19.6641 35.0859 19.6641C34.9609 19.5391 34.8984 19.4453 34.8984 19.3828C34.8359 19.3672 34.7891 19.3438 34.7578 19.3125C34.7266 19.2812 34.6797 19.2578 34.6172 19.2422C34.6172 19.1172 34.6094 19.0469 34.5938 19.0312C34.5781 19 34.5625 18.9453 34.5469 18.8672C34.4531 18.6641 34.4062 18.5625 34.4062 18.5625C34.3906 18.5 34.3672 18.4531 34.3359 18.4219C34.3047 18.375 34.2812 18.3359 34.2656 18.3047C34.2656 18.2734 34.2656 18.2422 34.2656 18.2109C34.2812 18.1641 34.2812 18.1094 34.2656 18.0469C34.2031 17.9531 34.1719 17.8594 34.1719 17.7656C34.1562 17.6562 34.1328 17.5625 34.1016 17.4844C34.0859 17.4219 34.0781 17.3594 34.0781 17.2969C34.0938 17.2344 34.0938 17.1875 34.0781 17.1562C34.0312 17.0312 34.0078 16.9609 34.0078 16.9453C34.0078 16.9141 34.0234 16.8906 34.0547 16.875C34.0078 16.8438 34 16.7891 34.0312 16.7109C34.0625 16.6328 34.0469 16.5781 33.9844 16.5469C34.0469 16.4844 34.0703 16.4062 34.0547 16.3125C34.0391 16.2188 34.0469 16.1328 34.0781 16.0547C34.125 15.9453 34.1641 15.8281 34.1953 15.7031C34.2422 15.5469 34.2734 15.4531 34.2891 15.4219C34.3203 15.375 34.3438 15.3359 34.3594 15.3047C34.3906 15.1641 34.4141 15.0859 34.4297 15.0703C34.4453 15.0391 34.4531 15.0078 34.4531 14.9766C34.5 14.7891 34.5625 14.6562 34.6406 14.5781C34.7188 14.4844 34.7656 14.375 34.7812 14.25C34.8438 14.2344 34.8828 14.1953 34.8984 14.1328C34.9297 14.0547 34.9766 14 35.0391 13.9688C35.0859 13.8594 35.1328 13.7969 35.1797 13.7812C35.2422 13.75 35.2812 13.7031 35.2969 13.6406C35.3906 13.625 35.4531 13.5938 35.4844 13.5469C35.5312 13.5 35.5703 13.4453 35.6016 13.3828C35.6953 13.3672 35.7656 13.3359 35.8125 13.2891C35.875 13.2266 35.9531 13.1875 36.0469 13.1719C36.0781 13.0469 36.1406 12.9688 36.2344 12.9375C36.3438 12.8906 36.4297 12.8281 36.4922 12.75C36.6172 12.75 36.6953 12.7031 36.7266 12.6094C36.9297 12.5781 37.0625 12.5312 37.125 12.4688C37.1875 12.4062 37.2578 12.3594 37.3359 12.3281C37.4453 12.3125 37.5156 12.2969 37.5469 12.2812C37.5781 12.25 37.625 12.2266 37.6875 12.2109C37.8281 12.0859 37.8984 12.0469 37.8984 12.0938C37.9141 12.125 37.9375 12.125 37.9688 12.0938C38.0312 12.0781 38.0859 12.0547 38.1328 12.0234C38.1953 11.9922 38.2656 11.9688 38.3438 11.9531C38.4844 11.9375 38.5703 11.9297 38.6016 11.9297C38.6484 11.9141 38.6953 11.8984 38.7422 11.8828C38.9609 11.8516 39.1094 11.8438 39.1875 11.8594C39.2656 11.8906 39.3672 11.9219 39.4922 11.9531C39.6172 11.9844 39.7188 11.9922 39.7969 11.9766C39.8281 12.0078 39.8672 12.0391 39.9141 12.0703C39.9609 12.0859 40 12.125 40.0312 12.1875C40.1875 12.2969 40.2812 12.375 40.3125 12.4219C40.3438 12.4688 40.3906 12.5078 40.4531 12.5391C40.5625 12.7266 40.6328 12.875 40.6641 12.9844C40.7109 13.0781 40.7656 13.1797 40.8281 13.2891C40.7812 13.4141 40.7656 13.4844 40.7812 13.5C40.7969 13.5 40.8047 13.5156 40.8047 13.5469C40.8047 13.5781 40.7969 13.625 40.7812 13.6875C40.7656 13.7344 40.7578 13.7812 40.7578 13.8281C40.7734 13.9531 40.7734 14.0547 40.7578 14.1328C40.7422 14.2109 40.7344 14.2891 40.7344 14.3672C40.5781 14.5859 40.4375 14.7266 40.3125 14.7891C40.2031 14.8516 40.1172 14.9453 40.0547 15.0703C39.9141 15.1172 39.8438 15.1562 39.8438 15.1875C39.8594 15.2188 39.8516 15.2422 39.8203 15.2578C39.6953 15.3359 39.625 15.3906 39.6094 15.4219C39.5938 15.4375 39.5859 15.4609 39.5859 15.4922C39.4609 15.5703 39.3438 15.625 39.2344 15.6562C39.1094 15.7031 39.0234 15.7578 38.9766 15.8203C38.9297 15.8672 38.875 15.9062 38.8125 15.9375C38.7656 15.9688 38.7031 15.9922 38.625 16.0078C38.5625 16.0234 38.5078 16.0703 38.4609 16.1484C38.2891 16.1797 38.1797 16.25 38.1328 16.3594C37.9453 16.3594 37.8281 16.3594 37.7812 16.3594C37.7344 16.3438 37.6953 16.3359 37.6641 16.3359C37.4922 16.4297 37.4062 16.4688 37.4062 16.4531C37.4062 16.4375 37.3984 16.4375 37.3828 16.4531C37.3359 16.4688 37.2812 16.4688 37.2188 16.4531C37.1562 16.4375 37.0859 16.4219 37.0078 16.4062C36.9766 16.3906 36.9297 16.3984 36.8672 16.4297C36.8047 16.4453 36.7578 16.4531 36.7266 16.4531C36.6328 16.4688 36.5547 16.4531 36.4922 16.4062C36.4297 16.3438 36.3359 16.3281 36.2109 16.3594C36.1641 16.3281 36.1172 16.2969 36.0703 16.2656C36.0391 16.2344 35.9922 16.2344 35.9297 16.2656C35.9141 16.2812 35.8984 16.3359 35.8828 16.4297C35.8828 16.5234 35.9141 16.5547 35.9766 16.5234C35.9141 16.6016 35.8828 16.6953 35.8828 16.8047C35.8828 16.8984 35.9219 16.9766 36 17.0391C35.9531 17.2109 35.9688 17.3672 36.0469 17.5078C36.1406 17.6328 36.1953 17.7734 36.2109 17.9297C36.2891 18.0547 36.375 18.1562 36.4688 18.2344C36.5781 18.2969 36.6562 18.3906 36.7031 18.5156C36.8281 18.5781 36.9453 18.6484 37.0547 18.7266C37.1797 18.8047 37.3047 18.8906 37.4297 18.9844C37.5234 19.0156 37.5938 19.0469 37.6406 19.0781C37.7031 19.0938 37.7656 19.1016 37.8281 19.1016C37.9531 19.2109 38.0547 19.2656 38.1328 19.2656C38.3203 19.3281 38.4297 19.3672 38.4609 19.3828C38.4922 19.3984 38.5234 19.4062 38.5547 19.4062C38.6953 19.4375 38.7812 19.4531 38.8125 19.4531C39 19.4062 39.1094 19.3828 39.1406 19.3828C39.1875 19.3828 39.2344 19.3672 39.2812 19.3359C39.4062 19.2422 39.5 19.1875 39.5625 19.1719C39.625 19.1406 39.6797 19.1016 39.7266 19.0547C39.8516 18.9609 39.9141 18.9062 39.9141 18.8906C39.9297 18.8594 39.9531 18.8359 39.9844 18.8203C40.0938 18.6641 40.1484 18.5781 40.1484 18.5625C40.2109 18.5469 40.25 18.5156 40.2656 18.4688C40.2969 18.4219 40.3281 18.3828 40.3594 18.3516C40.4531 18.2422 40.5078 18.1875 40.5234 18.1875C40.5547 18.1719 40.5859 18.1562 40.6172 18.1406C40.6953 17.9844 40.7422 17.8984 40.7578 17.8828C40.7891 17.8516 40.8281 17.8203 40.875 17.7891C41.0938 17.6641 41.2266 17.5781 41.2734 17.5312C41.3984 17.5625 41.4922 17.5469 41.5547 17.4844C41.6172 17.4219 41.6875 17.4062 41.7656 17.4375C41.7969 17.5781 41.8125 17.6562 41.8125 17.6719C41.8125 17.6875 41.8203 17.7031 41.8359 17.7188C41.8203 17.7656 41.7734 17.7969 41.6953 17.8125C41.6172 17.8125 41.5859 17.8516 41.6016 17.9297C41.5234 18.1172 41.4688 18.2422 41.4375 18.3047C41.4219 18.3672 41.3828 18.4219 41.3203 18.4688C41.2891 18.6094 41.2031 18.6953 41.0625 18.7266C40.9688 18.8203 40.9062 18.8984 40.875 18.9609C40.7344 18.9922 40.6562 19.0547 40.6406 19.1484L40.3594 19.3828ZM36.7969 15.1406C36.8594 15.1562 36.9375 15.1797 37.0312 15.2109C37.125 15.2422 37.1875 15.2734 37.2188 15.3047C37.3125 15.2891 37.3984 15.2891 37.4766 15.3047C37.5547 15.3047 37.625 15.3125 37.6875 15.3281C37.8906 15.3594 38.0156 15.3594 38.0625 15.3281C38.1094 15.2969 38.1641 15.2812 38.2266 15.2812C38.3984 15.2969 38.4844 15.2969 38.4844 15.2812C38.5 15.25 38.5234 15.2266 38.5547 15.2109C38.7578 15.0547 38.8984 14.9609 38.9766 14.9297C38.9766 14.8828 38.9844 14.8438 39 14.8125C39.0312 14.7656 39.0547 14.7188 39.0703 14.6719C39.0703 14.6094 39.0625 14.5469 39.0469 14.4844C39.0312 14.4062 39.0234 14.3359 39.0234 14.2734C39.0234 14.1172 39.0078 14.0234 38.9766 13.9922C38.9453 13.9453 38.9453 13.8984 38.9766 13.8516C38.8984 13.7266 38.8281 13.6484 38.7656 13.6172C38.7188 13.5859 38.6953 13.5312 38.6953 13.4531C38.6328 13.3906 38.5859 13.3516 38.5547 13.3359C38.5234 13.3203 38.5078 13.2891 38.5078 13.2422C38.2578 13.1016 38.0625 13.0391 37.9219 13.0547C37.75 13.0703 37.6641 13.0781 37.6641 13.0781C37.6641 13.0625 37.6562 13.0547 37.6406 13.0547C37.4844 13.1172 37.3828 13.1484 37.3359 13.1484C37.3047 13.1328 37.2656 13.1406 37.2188 13.1719C37.0938 13.3281 37 13.4297 36.9375 13.4766C36.8906 13.5078 36.8516 13.5625 36.8203 13.6406C36.6797 13.8125 36.5703 13.9297 36.4922 13.9922C36.4297 14.0547 36.4141 14.1172 36.4453 14.1797C36.3984 14.3828 36.3906 14.5078 36.4219 14.5547C36.4688 14.6016 36.4766 14.6562 36.4453 14.7188C36.5078 14.7812 36.5703 14.8516 36.6328 14.9297C36.6953 14.9922 36.75 15.0625 36.7969 15.1406Z" fill="#FFACED"/>
</svg>
