<svg width="229" height="143" viewBox="0 0 229 143" fill="none" xmlns="http://www.w3.org/2000/svg">
<path d="M229 72.4795C229 118.639 177.737 143 114.5 143C51.2634 143 0 118.639 0 72.4795C0 26.3195 51.2634 0 114.5 0C177.737 0 229 26.3195 229 72.4795Z" fill="#FFEBFB"/>
<ellipse cx="115.44" cy="117.389" rx="42.953" ry="17.6107" fill="white"/>
<rect x="72.4874" y="25.0403" width="85.906" height="90.2013" fill="white"/>
<path d="M115.441 9.5C127.058 9.50001 137.46 11.4359 144.864 14.4717C148.573 15.992 151.409 17.7386 153.278 19.5508C155.14 21.3554 155.894 23.0647 155.894 24.6104C155.894 26.1561 155.14 27.8661 153.278 29.6709C151.409 31.4831 148.573 33.2296 144.864 34.75C137.46 37.7858 127.058 39.7217 115.441 39.7217C103.823 39.7217 93.4211 37.7858 86.0167 34.75C82.3085 33.2296 79.4721 31.4831 77.6027 29.6709C75.7407 27.866 74.9874 26.1561 74.9874 24.6104C74.9876 23.0647 75.7409 21.3555 77.6027 19.5508C79.4721 17.7386 82.3085 15.9921 86.0167 14.4717C93.4211 11.4359 103.823 9.5 115.441 9.5Z" fill="#947272" stroke="white" stroke-width="5"/>
<path d="M101.086 26.0332C101.115 26.1406 101.115 26.2432 101.086 26.3408C101.066 26.4385 101.086 26.5312 101.144 26.6191C101.125 26.668 101.125 26.7168 101.144 26.7656C101.164 26.8047 101.174 26.8486 101.174 26.8975C101.184 26.9854 101.198 27.0439 101.218 27.0732C101.247 27.1025 101.271 27.1367 101.291 27.1758C101.252 27.2441 101.232 27.2881 101.232 27.3076C101.242 27.3271 101.247 27.3418 101.247 27.3516C101.188 27.4102 101.144 27.4492 101.115 27.4688C101.017 27.5566 100.949 27.6055 100.91 27.6152L100.808 27.7764C100.729 27.8643 100.685 27.9033 100.676 27.8936C100.676 27.8838 100.666 27.8789 100.646 27.8789C100.627 27.8984 100.602 27.9229 100.573 27.9521C100.554 27.9814 100.534 28.0059 100.515 28.0254C100.378 28.0547 100.3 28.0693 100.28 28.0693C100.183 28.0205 100.129 27.9766 100.119 27.9375C100.119 27.8984 100.109 27.8594 100.09 27.8203C100.119 27.7227 100.124 27.6543 100.104 27.6152C100.085 27.5859 100.085 27.5518 100.104 27.5127C100.114 27.4346 100.095 27.3467 100.046 27.249C100.065 27.2002 100.07 27.1465 100.06 27.0879C100.041 27.0195 100.026 26.9609 100.017 26.9121C100.017 26.8633 100.026 26.8242 100.046 26.7949C100.026 26.7754 100.017 26.7461 100.017 26.707C100.017 26.6582 100.017 26.6094 100.017 26.5605C99.997 26.4434 99.9872 26.3701 99.9872 26.3408C99.997 26.3115 100.002 26.2822 100.002 26.2529C100.002 26.2236 99.9921 26.1846 99.9726 26.1357C99.9628 26.0869 99.9579 26.0381 99.9579 25.9893C99.9482 25.9014 99.9433 25.8428 99.9433 25.8135C99.953 25.7744 99.953 25.7354 99.9433 25.6963C99.9433 25.6768 99.9433 25.6523 99.9433 25.623C99.9433 25.5938 99.9384 25.5596 99.9286 25.5205C99.9286 25.501 99.9189 25.4717 99.8993 25.4326C99.8896 25.3936 99.8847 25.3496 99.8847 25.3008C99.8847 25.1738 99.8749 25.1006 99.8554 25.0811C99.8456 25.0518 99.8407 25.0225 99.8407 24.9932C99.87 24.9053 99.8798 24.8467 99.87 24.8174C99.8603 24.7881 99.8651 24.7637 99.8847 24.7441C99.8554 24.6953 99.8359 24.627 99.8261 24.5391C99.8261 24.4512 99.831 24.3779 99.8407 24.3193C99.8212 24.2119 99.8114 24.1436 99.8114 24.1143C99.8114 24.085 99.8114 24.0508 99.8114 24.0117C99.7821 23.9336 99.7675 23.8896 99.7675 23.8799C99.7773 23.8701 99.7821 23.8555 99.7821 23.8359C99.7431 23.7285 99.7235 23.665 99.7235 23.6455C99.7333 23.6162 99.7382 23.5918 99.7382 23.5723C99.6796 23.4258 99.6503 23.3232 99.6503 23.2646C99.6601 23.2061 99.6503 23.1523 99.621 23.1035C99.6405 23.0547 99.6357 23.0107 99.6064 22.9717C99.5868 22.9326 99.5722 22.8984 99.5624 22.8691C99.5429 22.7227 99.5136 22.625 99.4745 22.5762C99.4355 22.5273 99.4062 22.4688 99.3866 22.4004C99.3671 22.3809 99.3476 22.3613 99.328 22.3418C99.3085 22.3223 99.289 22.293 99.2694 22.2539C99.1523 22.2344 99.0546 22.2393 98.9765 22.2686C98.8984 22.2881 98.8251 22.3223 98.7568 22.3711C98.6786 22.4395 98.62 22.4785 98.581 22.4883C98.5419 22.498 98.5126 22.5225 98.4931 22.5615C98.454 22.542 98.4198 22.5225 98.3905 22.5029C98.3612 22.4736 98.3319 22.4492 98.3026 22.4297C98.3124 22.4004 98.3222 22.3711 98.3319 22.3418C98.3417 22.3027 98.3466 22.2637 98.3466 22.2246C98.3661 22.1953 98.3954 22.1709 98.4345 22.1514C98.4638 22.1318 98.4833 22.0977 98.4931 22.0488C98.5517 22.0195 98.5859 21.9951 98.5956 21.9756C98.5956 21.9561 98.6054 21.9365 98.6249 21.917C98.6933 21.8389 98.7421 21.7998 98.7714 21.7998C98.83 21.7412 98.8642 21.7021 98.8739 21.6826C98.8935 21.6631 98.913 21.6582 98.9325 21.668C99.0497 21.5605 99.1425 21.4873 99.2109 21.4482C99.289 21.4092 99.3671 21.3799 99.4452 21.3604C99.4745 21.3604 99.5038 21.3604 99.5331 21.3604C99.5722 21.3506 99.6015 21.3555 99.621 21.375C99.7382 21.375 99.8017 21.3848 99.8114 21.4043C99.831 21.4141 99.8603 21.4092 99.8993 21.3896C99.9286 21.4287 99.9775 21.458 100.046 21.4775C100.065 21.5166 100.08 21.5508 100.09 21.5801C100.1 21.6094 100.114 21.6387 100.134 21.668C100.153 21.707 100.178 21.7363 100.207 21.7559C100.236 21.7656 100.261 21.7852 100.28 21.8145C100.339 21.8926 100.368 21.9512 100.368 21.9902C100.407 22.0977 100.407 22.1514 100.368 22.1514C100.388 22.1807 100.407 22.21 100.427 22.2393C100.456 22.2686 100.471 22.3125 100.471 22.3711C100.5 22.4785 100.524 22.5713 100.544 22.6494C100.563 22.7275 100.588 22.791 100.617 22.8398C100.646 22.957 100.671 23.0254 100.69 23.0449L100.808 22.8984C100.827 22.8691 100.837 22.8398 100.837 22.8105C100.847 22.7715 100.861 22.7422 100.881 22.7227C100.9 22.7031 100.92 22.6836 100.939 22.6641C100.969 22.6445 100.993 22.625 101.013 22.6055C101.071 22.5078 101.101 22.4492 101.101 22.4297C101.101 22.4102 101.115 22.3955 101.144 22.3857C101.154 22.3369 101.169 22.3027 101.188 22.2832C101.208 22.2637 101.227 22.2393 101.247 22.21C101.306 22.1416 101.345 22.0586 101.364 21.9609C101.384 21.9414 101.398 21.917 101.408 21.8877C101.428 21.8584 101.447 21.834 101.467 21.8145C101.486 21.7852 101.506 21.7607 101.525 21.7412C101.545 21.7119 101.564 21.6826 101.584 21.6533C101.652 21.5459 101.696 21.4775 101.716 21.4482C101.735 21.4092 101.75 21.3652 101.76 21.3164C101.799 21.2773 101.828 21.2529 101.848 21.2432C101.867 21.2236 101.882 21.1992 101.892 21.1699C101.989 21.0625 102.053 20.999 102.082 20.9795C102.121 20.9502 102.141 20.9062 102.141 20.8477C102.267 20.7988 102.351 20.7256 102.39 20.6279C102.468 20.54 102.526 20.4912 102.565 20.4814C102.614 20.4619 102.639 20.418 102.639 20.3496C102.697 20.3594 102.736 20.3545 102.756 20.335C102.785 20.3057 102.814 20.2812 102.844 20.2617C102.902 20.2812 102.941 20.2715 102.961 20.2324C102.99 20.1836 103.024 20.1494 103.063 20.1299C103.21 20.0908 103.303 20.0664 103.342 20.0566C103.391 20.0371 103.439 20.0225 103.488 20.0127C103.586 19.9834 103.659 19.959 103.708 19.9395C103.757 19.9199 103.801 19.9004 103.84 19.8809C103.967 19.8711 104.045 19.8711 104.074 19.8809C104.103 19.8809 104.138 19.8809 104.177 19.8809C104.196 19.8809 104.226 19.8809 104.265 19.8809C104.313 19.8711 104.348 19.8906 104.367 19.9395C104.435 19.9492 104.484 19.9736 104.514 20.0127C104.553 20.042 104.597 20.0664 104.645 20.0859C104.655 20.1348 104.68 20.1738 104.719 20.2031C104.767 20.2227 104.787 20.2666 104.777 20.335C104.797 20.3545 104.811 20.3887 104.821 20.4375C104.831 20.4863 104.846 20.5254 104.865 20.5547C104.865 20.623 104.855 20.667 104.836 20.6865C104.826 20.6963 104.836 20.7061 104.865 20.7158C104.865 20.8232 104.86 20.877 104.851 20.877C104.851 20.8672 104.846 20.8721 104.836 20.8916C104.767 20.9893 104.733 21.0625 104.733 21.1113C104.665 21.1602 104.626 21.1992 104.616 21.2285C104.597 21.2871 104.582 21.3262 104.572 21.3457C104.572 21.3555 104.562 21.3701 104.543 21.3896C104.465 21.4775 104.421 21.5215 104.411 21.5215C104.343 21.5996 104.304 21.6436 104.294 21.6533C104.255 21.7119 104.23 21.7461 104.221 21.7559C104.221 21.7656 104.221 21.7852 104.221 21.8145C104.191 21.834 104.162 21.8486 104.133 21.8584C104.103 21.8682 104.094 21.8975 104.103 21.9463C104.006 21.9561 103.942 22.0049 103.913 22.0928C103.796 22.1904 103.732 22.249 103.723 22.2686C103.674 22.2686 103.635 22.2734 103.605 22.2832C103.586 22.293 103.557 22.2979 103.517 22.2979C103.517 22.3662 103.498 22.415 103.459 22.4443C103.43 22.4736 103.405 22.5127 103.386 22.5615C103.308 22.6006 103.259 22.6299 103.239 22.6494C103.229 22.6592 103.229 22.6738 103.239 22.6934C103.19 22.7227 103.132 22.7471 103.063 22.7666C102.995 22.7764 102.946 22.8057 102.917 22.8545C102.936 22.7471 102.941 22.6738 102.932 22.6348C103 22.5664 103.039 22.5225 103.049 22.5029C103.059 22.4736 103.078 22.4492 103.107 22.4297C103.137 22.3418 103.156 22.2881 103.166 22.2686C103.185 22.2393 103.205 22.2148 103.225 22.1953C103.244 22.1758 103.259 22.1562 103.268 22.1367C103.288 22.1172 103.298 22.0879 103.298 22.0488C103.376 22 103.42 21.9707 103.43 21.9609C103.449 21.9414 103.459 21.9219 103.459 21.9023C103.547 21.834 103.596 21.7998 103.605 21.7998C103.615 21.79 103.615 21.7754 103.605 21.7559C103.684 21.6777 103.732 21.624 103.752 21.5947C103.781 21.5654 103.806 21.5361 103.825 21.5068C103.835 21.4385 103.84 21.3701 103.84 21.3018C103.84 21.2334 103.845 21.1699 103.854 21.1113L103.767 20.9502C103.688 20.9404 103.63 20.9111 103.591 20.8623C103.561 20.8818 103.522 20.8818 103.474 20.8623C103.425 20.833 103.381 20.833 103.342 20.8623C103.117 20.833 102.932 20.877 102.785 20.9941C102.746 21.0234 102.712 21.0479 102.683 21.0674C102.653 21.0771 102.634 21.1064 102.624 21.1553C102.546 21.1553 102.482 21.1895 102.434 21.2578C102.404 21.3652 102.38 21.4287 102.36 21.4482C102.341 21.4678 102.341 21.4824 102.36 21.4922C102.243 21.5703 102.184 21.624 102.184 21.6533C102.184 21.6729 102.18 21.6973 102.17 21.7266C102.131 21.8047 102.101 21.8486 102.082 21.8584C102.062 21.8584 102.062 21.8682 102.082 21.8877C101.994 21.9463 101.945 21.9854 101.935 22.0049C101.935 22.0244 101.926 22.0293 101.906 22.0195C101.896 22.0684 101.877 22.1074 101.848 22.1367C101.828 22.166 101.809 22.1953 101.789 22.2246C101.799 22.3027 101.789 22.3613 101.76 22.4004C101.74 22.4395 101.726 22.4883 101.716 22.5469C101.618 22.6738 101.559 22.7617 101.54 22.8105C101.52 22.8496 101.501 22.8984 101.481 22.957C101.462 23.0156 101.452 23.0742 101.452 23.1328C101.462 23.1816 101.452 23.2158 101.423 23.2354C101.413 23.3135 101.403 23.3623 101.393 23.3818C101.384 23.4014 101.369 23.416 101.35 23.4258C101.34 23.4551 101.33 23.4893 101.32 23.5283C101.32 23.5576 101.31 23.5771 101.291 23.5869C101.301 23.6846 101.31 23.7627 101.32 23.8213C101.34 23.8701 101.33 23.9092 101.291 23.9385C101.271 24.0361 101.252 24.1143 101.232 24.1729C101.252 24.2217 101.262 24.2803 101.262 24.3486C101.232 24.4072 101.218 24.4707 101.218 24.5391C101.179 24.6172 101.164 24.6758 101.174 24.7148C101.184 24.7441 101.184 24.7734 101.174 24.8027C101.174 24.8418 101.169 24.876 101.159 24.9053C101.149 24.9346 101.14 24.9639 101.13 24.9932C101.13 25.0322 101.13 25.0713 101.13 25.1104C101.14 25.1396 101.14 25.1787 101.13 25.2275C101.13 25.2959 101.125 25.3643 101.115 25.4326C101.105 25.4912 101.101 25.5498 101.101 25.6084C101.091 25.6865 101.091 25.7354 101.101 25.7549C101.11 25.7646 101.115 25.7793 101.115 25.7988L101.086 26.0332ZM107.868 26.2236C107.819 26.2432 107.785 26.2627 107.766 26.2822C107.746 26.292 107.712 26.292 107.663 26.2822C107.634 26.3213 107.595 26.3506 107.546 26.3701C107.497 26.3799 107.463 26.4092 107.443 26.458C107.297 26.5068 107.184 26.5508 107.106 26.5898C106.931 26.668 106.809 26.7217 106.74 26.751C106.682 26.7803 106.623 26.8096 106.564 26.8389C106.486 26.8193 106.418 26.8242 106.359 26.8535C106.31 26.8828 106.267 26.9121 106.227 26.9414C106.14 26.9512 106.052 26.9512 105.964 26.9414C105.876 26.9316 105.808 26.9268 105.759 26.9268C105.661 26.9072 105.598 26.8975 105.568 26.8975C105.549 26.8975 105.539 26.8877 105.539 26.8682C105.5 26.8779 105.471 26.8779 105.451 26.8682C105.432 26.8584 105.407 26.8535 105.378 26.8535C105.28 26.7949 105.217 26.7656 105.187 26.7656C105.158 26.7559 105.134 26.7412 105.114 26.7217C105.114 26.7119 105.09 26.7021 105.041 26.6924C105.002 26.6826 104.973 26.6875 104.953 26.707L104.748 26.5752C104.66 26.458 104.601 26.3994 104.572 26.3994C104.494 26.3213 104.455 26.2627 104.455 26.2236C104.416 26.2139 104.387 26.1992 104.367 26.1797C104.348 26.1602 104.318 26.1455 104.279 26.1357C104.279 26.0576 104.274 26.0137 104.265 26.0039C104.255 25.9844 104.245 25.9502 104.235 25.9014C104.177 25.7744 104.147 25.7109 104.147 25.7109C104.138 25.6719 104.123 25.6426 104.103 25.623C104.084 25.5938 104.069 25.5693 104.059 25.5498C104.059 25.5303 104.059 25.5107 104.059 25.4912C104.069 25.4619 104.069 25.4277 104.059 25.3887C104.02 25.3301 104.001 25.2715 104.001 25.2129C103.991 25.1445 103.976 25.0859 103.957 25.0371C103.947 24.998 103.942 24.959 103.942 24.9199C103.952 24.8809 103.952 24.8516 103.942 24.832C103.913 24.7539 103.898 24.71 103.898 24.7002C103.898 24.6807 103.908 24.666 103.928 24.6562C103.898 24.6367 103.893 24.6025 103.913 24.5537C103.933 24.5049 103.923 24.4707 103.884 24.4512C103.923 24.4121 103.937 24.3633 103.928 24.3047C103.918 24.2461 103.923 24.1924 103.942 24.1436C103.972 24.0752 103.996 24.002 104.016 23.9238C104.045 23.8262 104.064 23.7676 104.074 23.748C104.094 23.7188 104.108 23.6943 104.118 23.6748C104.138 23.5869 104.152 23.5381 104.162 23.5283C104.172 23.5088 104.177 23.4893 104.177 23.4697C104.206 23.3525 104.245 23.2695 104.294 23.2207C104.343 23.1621 104.372 23.0938 104.382 23.0156C104.421 23.0059 104.445 22.9814 104.455 22.9424C104.475 22.8936 104.504 22.8594 104.543 22.8398C104.572 22.7715 104.601 22.7324 104.631 22.7227C104.67 22.7031 104.694 22.6738 104.704 22.6348C104.763 22.625 104.802 22.6055 104.821 22.5762C104.851 22.5469 104.875 22.5127 104.894 22.4736C104.953 22.4639 104.997 22.4443 105.026 22.415C105.065 22.376 105.114 22.3516 105.173 22.3418C105.192 22.2637 105.231 22.2148 105.29 22.1953C105.358 22.166 105.412 22.127 105.451 22.0781C105.529 22.0781 105.578 22.0488 105.598 21.9902C105.725 21.9707 105.808 21.9414 105.847 21.9023C105.886 21.8633 105.93 21.834 105.978 21.8145C106.047 21.8047 106.091 21.7949 106.11 21.7852C106.13 21.7656 106.159 21.751 106.198 21.7412C106.286 21.6631 106.33 21.6387 106.33 21.668C106.34 21.6875 106.354 21.6875 106.374 21.668C106.413 21.6582 106.447 21.6436 106.476 21.624C106.516 21.6045 106.559 21.5898 106.608 21.5801C106.696 21.5703 106.75 21.5654 106.769 21.5654C106.799 21.5557 106.828 21.5459 106.857 21.5361C106.994 21.5166 107.087 21.5117 107.136 21.5215C107.184 21.541 107.248 21.5605 107.326 21.5801C107.404 21.5996 107.468 21.6045 107.517 21.5947C107.536 21.6143 107.56 21.6338 107.59 21.6533C107.619 21.6631 107.643 21.6875 107.663 21.7266C107.761 21.7949 107.819 21.8438 107.839 21.873C107.858 21.9023 107.888 21.9268 107.927 21.9463C107.995 22.0635 108.039 22.1562 108.059 22.2246C108.088 22.2832 108.122 22.3467 108.161 22.415C108.132 22.4932 108.122 22.5371 108.132 22.5469C108.142 22.5469 108.146 22.5566 108.146 22.5762C108.146 22.5957 108.142 22.625 108.132 22.6641C108.122 22.6934 108.117 22.7227 108.117 22.752C108.127 22.8301 108.127 22.8936 108.117 22.9424C108.107 22.9912 108.102 23.04 108.102 23.0889C108.005 23.2256 107.917 23.3135 107.839 23.3525C107.77 23.3916 107.717 23.4502 107.678 23.5283C107.59 23.5576 107.546 23.582 107.546 23.6016C107.556 23.6211 107.551 23.6357 107.531 23.6455C107.453 23.6943 107.409 23.7285 107.399 23.748C107.39 23.7578 107.385 23.7725 107.385 23.792C107.307 23.8408 107.233 23.875 107.165 23.8945C107.087 23.9238 107.033 23.958 107.004 23.9971C106.975 24.0264 106.94 24.0508 106.901 24.0703C106.872 24.0898 106.833 24.1045 106.784 24.1143C106.745 24.124 106.711 24.1533 106.682 24.2021C106.574 24.2217 106.506 24.2656 106.476 24.334C106.359 24.334 106.286 24.334 106.257 24.334C106.227 24.3242 106.203 24.3193 106.184 24.3193C106.076 24.3779 106.022 24.4023 106.022 24.3926C106.022 24.3828 106.017 24.3828 106.008 24.3926C105.978 24.4023 105.944 24.4023 105.905 24.3926C105.866 24.3828 105.822 24.373 105.773 24.3633C105.754 24.3535 105.725 24.3584 105.685 24.3779C105.646 24.3877 105.617 24.3926 105.598 24.3926C105.539 24.4023 105.49 24.3926 105.451 24.3633C105.412 24.3242 105.353 24.3145 105.275 24.334C105.246 24.3145 105.217 24.2949 105.187 24.2754C105.168 24.2559 105.139 24.2559 105.1 24.2754C105.09 24.2852 105.08 24.3193 105.07 24.3779C105.07 24.4365 105.09 24.4561 105.129 24.4365C105.09 24.4854 105.07 24.5439 105.07 24.6123C105.07 24.6709 105.095 24.7197 105.143 24.7588C105.114 24.8662 105.124 24.9639 105.173 25.0518C105.231 25.1299 105.266 25.2178 105.275 25.3154C105.324 25.3936 105.378 25.457 105.436 25.5059C105.505 25.5449 105.554 25.6035 105.583 25.6816C105.661 25.7207 105.734 25.7646 105.803 25.8135C105.881 25.8623 105.959 25.916 106.037 25.9746C106.096 25.9941 106.14 26.0137 106.169 26.0332C106.208 26.043 106.247 26.0479 106.286 26.0479C106.364 26.1162 106.428 26.1504 106.476 26.1504C106.594 26.1895 106.662 26.2139 106.682 26.2236C106.701 26.2334 106.721 26.2383 106.74 26.2383C106.828 26.2578 106.882 26.2676 106.901 26.2676C107.018 26.2383 107.087 26.2236 107.106 26.2236C107.136 26.2236 107.165 26.2139 107.194 26.1943C107.272 26.1357 107.331 26.1016 107.37 26.0918C107.409 26.0723 107.443 26.0479 107.473 26.0186C107.551 25.96 107.59 25.9258 107.59 25.916C107.6 25.8965 107.614 25.8818 107.634 25.8721C107.702 25.7744 107.736 25.7207 107.736 25.7109C107.775 25.7012 107.8 25.6816 107.809 25.6523C107.829 25.623 107.849 25.5986 107.868 25.5791C107.927 25.5107 107.961 25.4766 107.971 25.4766C107.99 25.4668 108.01 25.457 108.029 25.4473C108.078 25.3496 108.107 25.2959 108.117 25.2861C108.137 25.2666 108.161 25.2471 108.19 25.2275C108.327 25.1494 108.41 25.0957 108.439 25.0664C108.517 25.0859 108.576 25.0762 108.615 25.0371C108.654 24.998 108.698 24.9883 108.747 25.0078C108.767 25.0957 108.776 25.1445 108.776 25.1543C108.776 25.1641 108.781 25.1738 108.791 25.1836C108.781 25.2129 108.752 25.2324 108.703 25.2422C108.654 25.2422 108.635 25.2666 108.644 25.3154C108.596 25.4326 108.561 25.5107 108.542 25.5498C108.532 25.5889 108.508 25.623 108.469 25.6523C108.449 25.7402 108.395 25.7939 108.308 25.8135C108.249 25.8721 108.21 25.9209 108.19 25.96C108.102 25.9795 108.054 26.0186 108.044 26.0771L107.868 26.2236ZM105.642 23.5723C105.681 23.582 105.729 23.5967 105.788 23.6162C105.847 23.6357 105.886 23.6553 105.905 23.6748C105.964 23.665 106.017 23.665 106.066 23.6748C106.115 23.6748 106.159 23.6797 106.198 23.6895C106.325 23.709 106.403 23.709 106.433 23.6895C106.462 23.6699 106.496 23.6602 106.535 23.6602C106.642 23.6699 106.696 23.6699 106.696 23.6602C106.706 23.6406 106.721 23.626 106.74 23.6162C106.867 23.5186 106.955 23.46 107.004 23.4404C107.004 23.4111 107.009 23.3867 107.018 23.3672C107.038 23.3379 107.053 23.3086 107.062 23.2793C107.062 23.2402 107.058 23.2012 107.048 23.1621C107.038 23.1133 107.033 23.0693 107.033 23.0303C107.033 22.9326 107.023 22.874 107.004 22.8545C106.984 22.8252 106.984 22.7959 107.004 22.7666C106.955 22.6885 106.911 22.6396 106.872 22.6201C106.843 22.6006 106.828 22.5664 106.828 22.5176C106.789 22.4785 106.76 22.4541 106.74 22.4443C106.721 22.4346 106.711 22.415 106.711 22.3857C106.555 22.2979 106.433 22.2588 106.345 22.2686C106.237 22.2783 106.184 22.2832 106.184 22.2832C106.184 22.2734 106.179 22.2686 106.169 22.2686C106.071 22.3076 106.008 22.3271 105.978 22.3271C105.959 22.3174 105.934 22.3223 105.905 22.3418C105.827 22.4395 105.768 22.5029 105.729 22.5322C105.7 22.5518 105.676 22.5859 105.656 22.6348C105.568 22.7422 105.5 22.8154 105.451 22.8545C105.412 22.8936 105.402 22.9326 105.422 22.9717C105.392 23.0986 105.388 23.1768 105.407 23.2061C105.436 23.2354 105.441 23.2695 105.422 23.3086C105.461 23.3477 105.5 23.3916 105.539 23.4404C105.578 23.4795 105.612 23.5234 105.642 23.5723ZM114.548 22.8105C114.518 22.9277 114.504 23.0059 114.504 23.0449C114.455 23.084 114.416 23.1133 114.387 23.1328C114.357 23.1523 114.352 23.1865 114.372 23.2354C114.352 23.2646 114.328 23.2939 114.299 23.3232C114.269 23.3525 114.26 23.3916 114.269 23.4404C114.191 23.5576 114.133 23.6357 114.094 23.6748C114.055 23.7139 114.03 23.7578 114.02 23.8066C113.933 23.9434 113.874 24.0312 113.845 24.0703C113.776 24.1387 113.737 24.1875 113.727 24.2168C113.727 24.2363 113.718 24.2461 113.698 24.2461C113.698 24.2852 113.688 24.3145 113.669 24.334C113.649 24.3438 113.644 24.3682 113.654 24.4072C113.615 24.4268 113.591 24.4512 113.581 24.4805C113.581 24.5098 113.566 24.5342 113.537 24.5537C113.498 24.6221 113.474 24.6758 113.464 24.7148C113.454 24.7441 113.444 24.7832 113.434 24.832C113.376 24.8711 113.342 24.9004 113.332 24.9199C113.322 24.9297 113.317 24.9443 113.317 24.9639C113.249 25.0518 113.2 25.1055 113.171 25.125C113.151 25.1348 113.151 25.1592 113.171 25.1982C113.102 25.2275 113.059 25.2617 113.039 25.3008C113.029 25.3984 113.01 25.457 112.98 25.4766C112.961 25.4863 112.956 25.5107 112.966 25.5498L112.878 25.6963C112.829 25.7158 112.805 25.75 112.805 25.7988C112.814 25.8477 112.795 25.8818 112.746 25.9014C112.746 25.9502 112.731 25.9844 112.702 26.0039C112.683 26.0234 112.678 26.0576 112.687 26.1064C112.609 26.2041 112.556 26.2578 112.526 26.2676C112.507 26.2773 112.507 26.3018 112.526 26.3408C112.487 26.3506 112.458 26.3652 112.438 26.3848C112.429 26.4043 112.414 26.4238 112.394 26.4434C112.385 26.6094 112.355 26.7168 112.307 26.7656C112.267 26.8145 112.228 26.8584 112.189 26.8975C112.15 26.8779 112.111 26.8828 112.072 26.9121C112.043 26.9414 112.018 26.9707 111.999 27C111.892 27.0781 111.838 27.1172 111.838 27.1172C111.799 27.1562 111.769 27.1953 111.75 27.2344C111.74 27.2734 111.726 27.3174 111.706 27.3662C111.599 27.4053 111.55 27.4297 111.559 27.4395C111.569 27.459 111.564 27.4688 111.545 27.4688C111.496 27.4883 111.457 27.4883 111.428 27.4688C111.398 27.459 111.359 27.4541 111.31 27.4541C111.252 27.376 111.203 27.3418 111.164 27.3516C111.184 27.2637 111.198 27.2148 111.208 27.2051C111.218 27.1953 111.227 27.1807 111.237 27.1611C111.218 27.1123 111.203 27.0586 111.193 27C111.184 26.9512 111.174 26.9023 111.164 26.8535C111.105 26.7754 111.071 26.707 111.061 26.6484C111.052 26.5898 111.037 26.5361 111.017 26.4873C110.978 26.4189 110.959 26.3799 110.959 26.3701C110.969 26.3604 110.969 26.3457 110.959 26.3262C110.93 26.2383 110.91 26.1943 110.9 26.1943C110.891 26.1846 110.886 26.1699 110.886 26.1504C110.876 26.0723 110.866 26.0283 110.856 26.0186C110.847 25.999 110.842 25.9795 110.842 25.96C110.822 25.9111 110.812 25.8623 110.812 25.8135C110.822 25.7646 110.817 25.7158 110.798 25.667C110.749 25.5791 110.725 25.5205 110.725 25.4912C110.725 25.4521 110.72 25.4131 110.71 25.374C110.661 25.2178 110.627 25.1201 110.607 25.0811C110.588 25.0029 110.568 24.9443 110.549 24.9053C110.539 24.8857 110.534 24.8613 110.534 24.832C110.544 24.8027 110.539 24.7734 110.519 24.7441C110.5 24.6367 110.485 24.5732 110.476 24.5537C110.466 24.5244 110.456 24.4951 110.446 24.4658C110.397 24.3682 110.373 24.3145 110.373 24.3047C110.383 24.2949 110.383 24.2852 110.373 24.2754C110.353 24.2363 110.334 24.2021 110.314 24.1729C110.305 24.1436 110.3 24.1094 110.3 24.0703C110.261 23.9922 110.231 23.9434 110.212 23.9238C110.202 23.9043 110.197 23.8848 110.197 23.8652C110.178 23.8359 110.163 23.8066 110.153 23.7773C110.153 23.7383 110.139 23.709 110.109 23.6895C110.129 23.6406 110.119 23.5918 110.08 23.543C110.041 23.4844 110.017 23.4307 110.007 23.3818L109.89 23.2061C109.841 23.1865 109.811 23.1523 109.802 23.1035C109.792 23.0449 109.763 23.0107 109.714 23.001C109.636 22.8936 109.597 22.8301 109.597 22.8105C109.489 22.7812 109.426 22.7715 109.406 22.7812C109.396 22.7812 109.382 22.7812 109.362 22.7812C109.255 22.7812 109.186 22.7959 109.157 22.8252C109.138 22.8447 109.108 22.8643 109.069 22.8838C108.981 22.9717 108.918 23.0547 108.879 23.1328C108.82 23.1426 108.781 23.1377 108.762 23.1182C108.732 23.0889 108.693 23.0645 108.644 23.0449C108.635 22.9961 108.635 22.957 108.644 22.9277C108.654 22.8984 108.654 22.8643 108.644 22.8252C108.664 22.8057 108.698 22.7812 108.747 22.752C108.786 22.7227 108.815 22.6934 108.835 22.6641C108.864 22.5762 108.908 22.5127 108.967 22.4736C109.025 22.4346 109.064 22.376 109.084 22.2979C109.152 22.2979 109.196 22.2832 109.216 22.2539C109.245 22.2246 109.289 22.2051 109.348 22.1953C109.406 22.1367 109.435 22.0977 109.435 22.0781C109.445 22.0488 109.46 22.0244 109.479 22.0049C109.567 21.9756 109.616 21.9561 109.626 21.9463C109.645 21.9268 109.66 21.9121 109.67 21.9023C109.738 21.873 109.782 21.8584 109.802 21.8584C109.831 21.8584 109.855 21.8535 109.875 21.8438C109.982 21.8145 110.051 21.8096 110.08 21.8291C110.109 21.8389 110.139 21.8291 110.168 21.7998C110.197 21.8389 110.231 21.8633 110.27 21.873C110.319 21.8828 110.353 21.9121 110.373 21.9609C110.412 21.9707 110.441 21.9854 110.461 22.0049C110.49 22.0244 110.519 22.0391 110.549 22.0488C110.607 22.127 110.651 22.1904 110.681 22.2393C110.71 22.2783 110.749 22.3223 110.798 22.3711C110.788 22.4102 110.793 22.4541 110.812 22.5029C110.842 22.542 110.871 22.5713 110.9 22.5908C110.91 22.6396 110.944 22.6934 111.003 22.752C111.003 22.8008 111.013 22.8496 111.032 22.8984C111.061 22.9473 111.086 22.9912 111.105 23.0303C111.125 23.1182 111.135 23.1719 111.135 23.1914C111.135 23.2012 111.144 23.2012 111.164 23.1914C111.164 23.2402 111.169 23.2793 111.179 23.3086C111.198 23.3281 111.218 23.3477 111.237 23.3672C111.237 23.4258 111.247 23.46 111.267 23.4697C111.286 23.4795 111.301 23.4941 111.31 23.5137C111.31 23.5625 111.315 23.6016 111.325 23.6309C111.335 23.6504 111.345 23.6748 111.354 23.7041C111.393 23.7822 111.413 23.8408 111.413 23.8799C111.462 23.9678 111.481 24.0166 111.472 24.0264C111.462 24.0264 111.462 24.0312 111.472 24.041C111.481 24.0703 111.491 24.1094 111.501 24.1582C111.52 24.1973 111.516 24.2363 111.486 24.2754C111.506 24.2949 111.52 24.3193 111.53 24.3486C111.55 24.3682 111.569 24.3877 111.589 24.4072C111.589 24.4561 111.594 24.5 111.603 24.5391C111.623 24.5781 111.638 24.6221 111.647 24.6709C111.677 24.7783 111.686 24.8369 111.677 24.8467C111.677 24.8467 111.677 24.8564 111.677 24.876C111.686 24.9346 111.686 24.9688 111.677 24.9785C111.667 24.9883 111.672 25.0176 111.691 25.0664C111.701 25.0957 111.716 25.125 111.735 25.1543C111.755 25.1738 111.774 25.1982 111.794 25.2275C111.804 25.3252 111.813 25.3789 111.823 25.3887C111.833 25.3887 111.838 25.3984 111.838 25.418C111.838 25.4766 111.843 25.5107 111.852 25.5205C111.872 25.5303 111.872 25.5498 111.852 25.5791C111.901 25.6572 111.931 25.7158 111.94 25.7549C111.96 25.7939 111.979 25.833 111.999 25.8721C112.067 25.833 112.106 25.8086 112.116 25.7988C112.136 25.7793 112.136 25.7549 112.116 25.7256C112.165 25.6377 112.199 25.584 112.219 25.5645C112.238 25.5449 112.248 25.5156 112.248 25.4766C112.326 25.4375 112.36 25.3691 112.351 25.2715C112.399 25.2227 112.438 25.1738 112.468 25.125C112.497 25.0664 112.526 25.0029 112.556 24.9346C112.595 24.915 112.619 24.8955 112.629 24.876C112.648 24.8467 112.673 24.8223 112.702 24.8027C112.683 24.7539 112.687 24.7246 112.717 24.7148C112.746 24.7051 112.756 24.6807 112.746 24.6416C112.795 24.6318 112.819 24.6074 112.819 24.5684C112.819 24.5293 112.839 24.5049 112.878 24.4951C112.907 24.417 112.927 24.373 112.936 24.3633C112.946 24.3438 112.961 24.334 112.98 24.334C113.01 24.2461 113.029 24.1924 113.039 24.1729C113.049 24.1533 113.068 24.1387 113.098 24.1289C113.107 24.0703 113.132 24.0312 113.171 24.0117C113.22 23.9824 113.244 23.9336 113.244 23.8652C113.303 23.748 113.342 23.6699 113.361 23.6309C113.391 23.5918 113.415 23.5479 113.434 23.499C113.493 23.4111 113.517 23.3623 113.508 23.3525C113.498 23.333 113.498 23.3086 113.508 23.2793C113.508 23.2402 113.522 23.2158 113.552 23.2061C113.581 23.1865 113.581 23.1523 113.552 23.1035C113.581 23.0938 113.601 23.0791 113.61 23.0596C113.62 23.0303 113.64 23.0059 113.669 22.9863C113.679 22.8789 113.698 22.8057 113.727 22.7666C113.757 22.7178 113.767 22.6592 113.757 22.5908C113.825 22.4932 113.864 22.4346 113.874 22.415C113.884 22.3955 113.884 22.3662 113.874 22.3271C113.942 22.2295 113.976 22.1709 113.976 22.1514C113.976 22.1221 113.986 22.1025 114.006 22.0928C113.996 22.0244 114.006 21.9561 114.035 21.8877C114.045 21.8486 114.055 21.8145 114.064 21.7852C114.074 21.7559 114.084 21.7168 114.094 21.668C114.094 21.5801 114.103 21.5068 114.123 21.4482C114.142 21.3896 114.128 21.3359 114.079 21.2871C114.108 21.1211 114.128 21.0186 114.138 20.9795C114.147 20.9307 114.157 20.8867 114.167 20.8477C114.177 20.7891 114.182 20.7549 114.182 20.7451C114.182 20.7256 114.191 20.7061 114.211 20.6865C114.191 20.5791 114.182 20.5205 114.182 20.5107C114.191 20.4912 114.182 20.4717 114.152 20.4521C114.172 20.3936 114.182 20.335 114.182 20.2764C114.182 20.208 114.162 20.1543 114.123 20.1152C114.142 20.0664 114.138 20.0225 114.108 19.9834C114.089 19.9443 114.089 19.9102 114.108 19.8809C114.089 19.832 114.069 19.7979 114.05 19.7783C114.03 19.7588 114.025 19.7246 114.035 19.6758C113.996 19.5684 113.962 19.4756 113.933 19.3975C113.874 19.3096 113.84 19.2656 113.83 19.2656C113.83 19.2559 113.83 19.2461 113.83 19.2363C113.82 19.168 113.801 19.1191 113.771 19.0898C113.752 19.0508 113.727 19.0166 113.698 18.9873C113.718 18.8994 113.688 18.8408 113.61 18.8115C113.532 18.6846 113.483 18.6211 113.464 18.6211C113.464 18.5723 113.454 18.543 113.434 18.5332C113.415 18.5137 113.4 18.4844 113.391 18.4453C113.332 18.3867 113.288 18.3477 113.259 18.3281C113.229 18.3086 113.205 18.2744 113.185 18.2256L113.039 18.1377L112.878 18.0791C112.839 18.0498 112.77 18.0303 112.673 18.0205C112.604 18.0205 112.521 18.0107 112.424 17.9912C112.375 17.9912 112.331 17.9961 112.292 18.0059C112.253 18.0059 112.209 18.0156 112.16 18.0352C112.082 18.1328 112.033 18.1865 112.014 18.1963C112.004 18.1963 111.994 18.2012 111.984 18.2109C111.887 18.2695 111.838 18.3135 111.838 18.3428C111.721 18.3818 111.652 18.4209 111.633 18.46C111.574 18.46 111.525 18.4697 111.486 18.4893C111.447 18.499 111.403 18.5088 111.354 18.5186C111.403 18.3916 111.433 18.3232 111.442 18.3135C111.462 18.2939 111.481 18.2695 111.501 18.2402C111.54 18.1621 111.564 18.1182 111.574 18.1084C111.584 18.0986 111.594 18.084 111.603 18.0645C111.623 18.0254 111.652 17.9961 111.691 17.9766C111.73 17.9473 111.769 17.9131 111.809 17.874C111.828 17.8545 111.843 17.8301 111.852 17.8008C111.872 17.7715 111.896 17.7471 111.926 17.7275C111.975 17.6885 112.004 17.6689 112.014 17.6689C112.033 17.6689 112.053 17.6641 112.072 17.6543C112.141 17.5859 112.18 17.5566 112.189 17.5664C112.199 17.5762 112.214 17.5762 112.233 17.5664C112.37 17.498 112.477 17.4346 112.556 17.376C112.604 17.3662 112.653 17.3467 112.702 17.3174C112.751 17.2783 112.8 17.2686 112.849 17.2881C112.868 17.249 112.912 17.2295 112.98 17.2295C113.059 17.2197 113.132 17.2148 113.2 17.2148C113.288 17.2148 113.337 17.2148 113.347 17.2148C113.356 17.2051 113.371 17.2002 113.391 17.2002C113.449 17.2197 113.483 17.2295 113.493 17.2295C113.513 17.2197 113.532 17.2197 113.552 17.2295C113.571 17.2295 113.596 17.2393 113.625 17.2588C113.654 17.2686 113.684 17.2734 113.713 17.2734C113.732 17.3125 113.762 17.3369 113.801 17.3467C113.84 17.3564 113.864 17.3809 113.874 17.4199C113.923 17.4004 113.947 17.4102 113.947 17.4492C113.957 17.4785 113.986 17.4883 114.035 17.4785C114.103 17.5762 114.147 17.6201 114.167 17.6104C114.235 17.6592 114.269 17.6934 114.269 17.7129C114.279 17.7227 114.294 17.7373 114.313 17.7568C114.372 17.8447 114.411 17.8936 114.431 17.9033C114.45 17.9131 114.465 17.9277 114.475 17.9473C114.514 18.0547 114.543 18.1084 114.562 18.1084C114.592 18.1084 114.606 18.1279 114.606 18.167C114.645 18.1963 114.67 18.2207 114.68 18.2402C114.699 18.25 114.709 18.2695 114.709 18.2988C114.777 18.4258 114.831 18.5186 114.87 18.5771C114.909 18.6357 114.934 18.709 114.943 18.7969C115.012 18.8945 115.041 18.9482 115.031 18.958C115.021 18.9678 115.026 18.9775 115.046 18.9873C115.085 19.1338 115.109 19.2217 115.119 19.251C115.139 19.3779 115.153 19.4805 115.163 19.5586C115.183 19.627 115.202 19.7002 115.222 19.7783C115.222 19.8857 115.226 19.9492 115.236 19.9688C115.246 19.9883 115.241 20.0078 115.222 20.0273C115.202 20.1543 115.187 20.2568 115.178 20.335C115.178 20.4131 115.163 20.4814 115.134 20.54C115.124 20.6572 115.124 20.7646 115.134 20.8623C115.143 20.9502 115.124 21.043 115.075 21.1406C115.095 21.2285 115.095 21.2773 115.075 21.2871C115.056 21.2871 115.036 21.292 115.017 21.3018C115.036 21.3896 115.036 21.4385 115.017 21.4482C114.997 21.458 114.977 21.4727 114.958 21.4922C114.929 21.5801 114.919 21.624 114.929 21.624C114.948 21.624 114.963 21.6338 114.973 21.6533C114.943 21.7803 114.914 21.8438 114.885 21.8438C114.885 21.9121 114.87 21.9658 114.841 22.0049C114.811 22.0439 114.797 22.0928 114.797 22.1514C114.777 22.2197 114.758 22.2637 114.738 22.2832C114.728 22.293 114.714 22.3174 114.694 22.3564C114.665 22.4443 114.645 22.498 114.636 22.5176C114.626 22.5371 114.621 22.5566 114.621 22.5762L114.548 22.8105ZM116.218 19.5879C116.267 19.6074 116.301 19.6221 116.32 19.6318C116.35 19.6416 116.384 19.6611 116.423 19.6904C116.501 19.749 116.54 19.7881 116.54 19.8076C116.54 19.8271 116.54 19.8418 116.54 19.8516C116.569 19.9004 116.594 19.9297 116.613 19.9395C116.633 19.9395 116.647 19.9492 116.657 19.9688C116.706 20.0469 116.74 20.0957 116.76 20.1152C116.789 20.125 116.823 20.1348 116.862 20.1445C116.921 20.2324 116.975 20.2861 117.023 20.3057C117.082 20.3154 117.136 20.3252 117.184 20.335C117.224 20.3643 117.253 20.3838 117.272 20.3936C117.292 20.4033 117.316 20.4033 117.346 20.3936C117.365 20.4424 117.39 20.4814 117.419 20.5107C117.458 20.5303 117.468 20.5742 117.448 20.6426C117.419 20.6719 117.394 20.7061 117.375 20.7451C117.355 20.7744 117.321 20.7988 117.272 20.8184C117.194 20.8672 117.116 20.916 117.038 20.9648C116.97 21.0137 116.916 21.0527 116.877 21.082C116.848 21.1113 116.823 21.1406 116.804 21.1699C116.765 21.1504 116.73 21.1504 116.701 21.1699C116.672 21.1895 116.642 21.2041 116.613 21.2139C116.555 21.2236 116.496 21.2236 116.437 21.2139C116.379 21.2041 116.325 21.2041 116.276 21.2139C116.237 21.126 116.218 21.0771 116.218 21.0674C116.227 21.0479 116.223 21.0283 116.203 21.0088C116.066 20.9014 115.969 20.8281 115.91 20.7891C115.861 20.75 115.803 20.7061 115.734 20.6572C115.666 20.6279 115.602 20.5938 115.544 20.5547C115.495 20.5156 115.441 20.4912 115.383 20.4814C115.363 20.4326 115.344 20.3984 115.324 20.3789C115.314 20.3594 115.3 20.3301 115.28 20.291C115.3 20.1738 115.324 20.1104 115.353 20.1006C115.559 20.0225 115.69 19.9395 115.749 19.8516C115.817 19.7832 115.861 19.7441 115.881 19.7344C115.91 19.7246 115.93 19.71 115.939 19.6904C116.066 19.6514 116.144 19.6318 116.174 19.6318C116.203 19.6318 116.218 19.6172 116.218 19.5879ZM117.785 26.5312C117.805 26.5605 117.805 26.5898 117.785 26.6191C117.775 26.6484 117.775 26.6875 117.785 26.7363C117.697 26.7852 117.648 26.8193 117.639 26.8389C117.629 26.8486 117.604 26.8486 117.565 26.8389C117.507 26.8975 117.468 26.9414 117.448 26.9707C117.438 26.9902 117.409 27 117.36 27L117.214 27.0732C117.155 27.1221 117.116 27.1514 117.097 27.1611C117.077 27.1709 117.058 27.1855 117.038 27.2051C116.97 27.2344 116.911 27.2539 116.862 27.2637C116.823 27.2832 116.789 27.3076 116.76 27.3369C116.711 27.3271 116.662 27.3174 116.613 27.3076C116.564 27.3076 116.52 27.2881 116.481 27.249C116.433 27.2588 116.379 27.2637 116.32 27.2637C116.271 27.2637 116.232 27.2539 116.203 27.2344C116.135 27.1465 116.091 27.1025 116.071 27.1025C116.061 27.1025 116.061 27.0928 116.071 27.0732C116.013 27.0244 115.959 26.9756 115.91 26.9268C115.861 26.8486 115.837 26.7998 115.837 26.7803C115.847 26.7607 115.832 26.751 115.793 26.751C115.812 26.6729 115.822 26.6289 115.822 26.6191C115.832 26.5996 115.832 26.5801 115.822 26.5605L115.793 26.2529C115.812 26.2139 115.827 26.1748 115.837 26.1357C115.847 26.0967 115.847 26.0527 115.837 26.0039C115.827 25.8965 115.827 25.8379 115.837 25.8281C115.847 25.8184 115.851 25.8037 115.851 25.7842C115.842 25.7061 115.842 25.6572 115.851 25.6377C115.861 25.6182 115.866 25.5986 115.866 25.5791C115.856 25.5205 115.856 25.4814 115.866 25.4619C115.876 25.4424 115.881 25.4229 115.881 25.4033C115.881 25.2373 115.871 25.125 115.851 25.0664C115.842 25.0078 115.861 24.9541 115.91 24.9053C115.91 24.8857 115.9 24.8613 115.881 24.832C115.861 24.793 115.851 24.7539 115.851 24.7148C115.851 24.6465 115.856 24.5928 115.866 24.5537C115.876 24.5049 115.886 24.4707 115.895 24.4512C115.895 24.3438 115.891 24.2656 115.881 24.2168C115.871 24.1582 115.866 24.1045 115.866 24.0557C115.876 23.9385 115.871 23.8604 115.851 23.8213C115.851 23.792 115.851 23.7627 115.851 23.7334C115.861 23.7041 115.861 23.6797 115.851 23.6602C115.793 23.5234 115.754 23.4258 115.734 23.3672C115.725 23.3086 115.685 23.2744 115.617 23.2646C115.549 23.1768 115.48 23.1377 115.412 23.1475C115.353 23.1572 115.3 23.1719 115.251 23.1914C115.134 23.1914 115.07 23.2109 115.06 23.25C115.051 23.2793 115.021 23.2891 114.973 23.2793C114.973 23.2305 114.958 23.1963 114.929 23.1768C114.899 23.1475 114.88 23.1084 114.87 23.0596C114.938 22.9717 114.977 22.9326 114.987 22.9424C114.997 22.9521 115.007 22.957 115.017 22.957C115.114 22.8691 115.183 22.8252 115.222 22.8252C115.202 22.7666 115.212 22.7373 115.251 22.7373C115.29 22.7373 115.314 22.7129 115.324 22.6641C115.402 22.6543 115.451 22.6445 115.471 22.6348C115.49 22.625 115.51 22.6152 115.529 22.6055C115.637 22.5957 115.725 22.5615 115.793 22.5029C115.871 22.5029 115.944 22.498 116.013 22.4883C116.081 22.4785 116.14 22.4541 116.188 22.415C116.296 22.3955 116.364 22.3809 116.393 22.3711C116.55 22.4297 116.642 22.4834 116.672 22.5322C116.711 22.5811 116.755 22.625 116.804 22.6641C116.852 22.7812 116.872 22.8643 116.862 22.9131C116.862 22.9521 116.872 22.9863 116.892 23.0156C116.892 23.084 116.901 23.1279 116.921 23.1475C116.94 23.1572 116.955 23.1719 116.965 23.1914C116.955 23.2891 116.945 23.3525 116.935 23.3818C116.926 23.4111 116.921 23.4453 116.921 23.4844C116.95 23.5723 116.96 23.6357 116.95 23.6748C116.95 23.7139 116.955 23.748 116.965 23.7773C116.975 23.9434 116.979 24.0361 116.979 24.0557C116.979 24.1826 116.984 24.2607 116.994 24.29C117.014 24.3193 117.009 24.3535 116.979 24.3926C116.999 24.5 116.999 24.6074 116.979 24.7148C116.96 24.8125 116.97 24.9004 117.009 24.9785C116.97 25.0273 116.955 25.0615 116.965 25.0811C116.975 25.1006 116.984 25.1201 116.994 25.1396C116.994 25.1787 116.984 25.2178 116.965 25.2568C116.955 25.2959 116.955 25.335 116.965 25.374C116.945 25.54 116.94 25.6768 116.95 25.7842C116.97 25.8916 116.984 25.9893 116.994 26.0771C116.975 26.165 116.97 26.2334 116.979 26.2822C116.999 26.3311 117.018 26.3799 117.038 26.4287C117.097 26.5361 117.155 26.6045 117.214 26.6338C117.233 26.6533 117.258 26.6729 117.287 26.6924C117.316 26.7119 117.351 26.7217 117.39 26.7217C117.438 26.7119 117.473 26.6924 117.492 26.6631C117.521 26.624 117.551 26.5801 117.58 26.5312H117.785ZM122.429 26.2236C122.38 26.2432 122.346 26.2627 122.326 26.2822C122.307 26.292 122.272 26.292 122.224 26.2822C122.194 26.3213 122.155 26.3506 122.106 26.3701C122.058 26.3799 122.023 26.4092 122.004 26.458C121.857 26.5068 121.745 26.5508 121.667 26.5898C121.491 26.668 121.369 26.7217 121.301 26.751C121.242 26.7803 121.184 26.8096 121.125 26.8389C121.047 26.8193 120.978 26.8242 120.92 26.8535C120.871 26.8828 120.827 26.9121 120.788 26.9414C120.7 26.9512 120.612 26.9512 120.524 26.9414C120.436 26.9316 120.368 26.9268 120.319 26.9268C120.222 26.9072 120.158 26.8975 120.129 26.8975C120.109 26.8975 120.1 26.8877 120.1 26.8682C120.06 26.8779 120.031 26.8779 120.012 26.8682C119.992 26.8584 119.968 26.8535 119.938 26.8535C119.841 26.7949 119.777 26.7656 119.748 26.7656C119.719 26.7559 119.694 26.7412 119.675 26.7217C119.675 26.7119 119.65 26.7021 119.601 26.6924C119.562 26.6826 119.533 26.6875 119.514 26.707L119.309 26.5752C119.221 26.458 119.162 26.3994 119.133 26.3994C119.055 26.3213 119.016 26.2627 119.016 26.2236C118.976 26.2139 118.947 26.1992 118.928 26.1797C118.908 26.1602 118.879 26.1455 118.84 26.1357C118.84 26.0576 118.835 26.0137 118.825 26.0039C118.815 25.9844 118.806 25.9502 118.796 25.9014C118.737 25.7744 118.708 25.7109 118.708 25.7109C118.698 25.6719 118.684 25.6426 118.664 25.623C118.644 25.5938 118.63 25.5693 118.62 25.5498C118.62 25.5303 118.62 25.5107 118.62 25.4912C118.63 25.4619 118.63 25.4277 118.62 25.3887C118.581 25.3301 118.561 25.2715 118.561 25.2129C118.552 25.1445 118.537 25.0859 118.517 25.0371C118.508 24.998 118.503 24.959 118.503 24.9199C118.513 24.8809 118.513 24.8516 118.503 24.832C118.474 24.7539 118.459 24.71 118.459 24.7002C118.459 24.6807 118.469 24.666 118.488 24.6562C118.459 24.6367 118.454 24.6025 118.474 24.5537C118.493 24.5049 118.483 24.4707 118.444 24.4512C118.483 24.4121 118.498 24.3633 118.488 24.3047C118.478 24.2461 118.483 24.1924 118.503 24.1436C118.532 24.0752 118.557 24.002 118.576 23.9238C118.605 23.8262 118.625 23.7676 118.635 23.748C118.654 23.7188 118.669 23.6943 118.679 23.6748C118.698 23.5869 118.713 23.5381 118.723 23.5283C118.732 23.5088 118.737 23.4893 118.737 23.4697C118.767 23.3525 118.806 23.2695 118.854 23.2207C118.903 23.1621 118.933 23.0938 118.942 23.0156C118.981 23.0059 119.006 22.9814 119.016 22.9424C119.035 22.8936 119.064 22.8594 119.103 22.8398C119.133 22.7715 119.162 22.7324 119.191 22.7227C119.23 22.7031 119.255 22.6738 119.265 22.6348C119.323 22.625 119.362 22.6055 119.382 22.5762C119.411 22.5469 119.435 22.5127 119.455 22.4736C119.514 22.4639 119.558 22.4443 119.587 22.415C119.626 22.376 119.675 22.3516 119.733 22.3418C119.753 22.2637 119.792 22.2148 119.851 22.1953C119.919 22.166 119.973 22.127 120.012 22.0781C120.09 22.0781 120.139 22.0488 120.158 21.9902C120.285 21.9707 120.368 21.9414 120.407 21.9023C120.446 21.8633 120.49 21.834 120.539 21.8145C120.607 21.8047 120.651 21.7949 120.671 21.7852C120.69 21.7656 120.72 21.751 120.759 21.7412C120.847 21.6631 120.891 21.6387 120.891 21.668C120.9 21.6875 120.915 21.6875 120.934 21.668C120.974 21.6582 121.008 21.6436 121.037 21.624C121.076 21.6045 121.12 21.5898 121.169 21.5801C121.257 21.5703 121.31 21.5654 121.33 21.5654C121.359 21.5557 121.389 21.5459 121.418 21.5361C121.555 21.5166 121.647 21.5117 121.696 21.5215C121.745 21.541 121.809 21.5605 121.887 21.5801C121.965 21.5996 122.028 21.6045 122.077 21.5947C122.097 21.6143 122.121 21.6338 122.15 21.6533C122.18 21.6631 122.204 21.6875 122.224 21.7266C122.321 21.7949 122.38 21.8438 122.399 21.873C122.419 21.9023 122.448 21.9268 122.487 21.9463C122.556 22.0635 122.6 22.1562 122.619 22.2246C122.648 22.2832 122.683 22.3467 122.722 22.415C122.692 22.4932 122.683 22.5371 122.692 22.5469C122.702 22.5469 122.707 22.5566 122.707 22.5762C122.707 22.5957 122.702 22.625 122.692 22.6641C122.683 22.6934 122.678 22.7227 122.678 22.752C122.687 22.8301 122.687 22.8936 122.678 22.9424C122.668 22.9912 122.663 23.04 122.663 23.0889C122.565 23.2256 122.477 23.3135 122.399 23.3525C122.331 23.3916 122.277 23.4502 122.238 23.5283C122.15 23.5576 122.106 23.582 122.106 23.6016C122.116 23.6211 122.111 23.6357 122.092 23.6455C122.014 23.6943 121.97 23.7285 121.96 23.748C121.95 23.7578 121.945 23.7725 121.945 23.792C121.867 23.8408 121.794 23.875 121.726 23.8945C121.647 23.9238 121.594 23.958 121.564 23.9971C121.535 24.0264 121.501 24.0508 121.462 24.0703C121.433 24.0898 121.393 24.1045 121.345 24.1143C121.306 24.124 121.271 24.1533 121.242 24.2021C121.135 24.2217 121.066 24.2656 121.037 24.334C120.92 24.334 120.847 24.334 120.817 24.334C120.788 24.3242 120.764 24.3193 120.744 24.3193C120.637 24.3779 120.583 24.4023 120.583 24.3926C120.583 24.3828 120.578 24.3828 120.568 24.3926C120.539 24.4023 120.505 24.4023 120.466 24.3926C120.427 24.3828 120.383 24.373 120.334 24.3633C120.314 24.3535 120.285 24.3584 120.246 24.3779C120.207 24.3877 120.178 24.3926 120.158 24.3926C120.1 24.4023 120.051 24.3926 120.012 24.3633C119.973 24.3242 119.914 24.3145 119.836 24.334C119.807 24.3145 119.777 24.2949 119.748 24.2754C119.728 24.2559 119.699 24.2559 119.66 24.2754C119.65 24.2852 119.641 24.3193 119.631 24.3779C119.631 24.4365 119.65 24.4561 119.689 24.4365C119.65 24.4854 119.631 24.5439 119.631 24.6123C119.631 24.6709 119.655 24.7197 119.704 24.7588C119.675 24.8662 119.684 24.9639 119.733 25.0518C119.792 25.1299 119.826 25.2178 119.836 25.3154C119.885 25.3936 119.938 25.457 119.997 25.5059C120.065 25.5449 120.114 25.6035 120.143 25.6816C120.222 25.7207 120.295 25.7646 120.363 25.8135C120.441 25.8623 120.519 25.916 120.598 25.9746C120.656 25.9941 120.7 26.0137 120.729 26.0332C120.768 26.043 120.808 26.0479 120.847 26.0479C120.925 26.1162 120.988 26.1504 121.037 26.1504C121.154 26.1895 121.223 26.2139 121.242 26.2236C121.262 26.2334 121.281 26.2383 121.301 26.2383C121.389 26.2578 121.442 26.2676 121.462 26.2676C121.579 26.2383 121.647 26.2236 121.667 26.2236C121.696 26.2236 121.726 26.2139 121.755 26.1943C121.833 26.1357 121.892 26.1016 121.931 26.0918C121.97 26.0723 122.004 26.0479 122.033 26.0186C122.111 25.96 122.15 25.9258 122.15 25.916C122.16 25.8965 122.175 25.8818 122.194 25.8721C122.263 25.7744 122.297 25.7207 122.297 25.7109C122.336 25.7012 122.36 25.6816 122.37 25.6523C122.39 25.623 122.409 25.5986 122.429 25.5791C122.487 25.5107 122.521 25.4766 122.531 25.4766C122.551 25.4668 122.57 25.457 122.59 25.4473C122.639 25.3496 122.668 25.2959 122.678 25.2861C122.697 25.2666 122.722 25.2471 122.751 25.2275C122.888 25.1494 122.971 25.0957 123 25.0664C123.078 25.0859 123.137 25.0762 123.176 25.0371C123.215 24.998 123.259 24.9883 123.308 25.0078C123.327 25.0957 123.337 25.1445 123.337 25.1543C123.337 25.1641 123.342 25.1738 123.351 25.1836C123.342 25.2129 123.312 25.2324 123.264 25.2422C123.215 25.2422 123.195 25.2666 123.205 25.3154C123.156 25.4326 123.122 25.5107 123.102 25.5498C123.093 25.5889 123.068 25.623 123.029 25.6523C123.01 25.7402 122.956 25.7939 122.868 25.8135C122.809 25.8721 122.77 25.9209 122.751 25.96C122.663 25.9795 122.614 26.0186 122.604 26.0771L122.429 26.2236ZM120.202 23.5723C120.241 23.582 120.29 23.5967 120.349 23.6162C120.407 23.6357 120.446 23.6553 120.466 23.6748C120.524 23.665 120.578 23.665 120.627 23.6748C120.676 23.6748 120.72 23.6797 120.759 23.6895C120.886 23.709 120.964 23.709 120.993 23.6895C121.022 23.6699 121.057 23.6602 121.096 23.6602C121.203 23.6699 121.257 23.6699 121.257 23.6602C121.267 23.6406 121.281 23.626 121.301 23.6162C121.428 23.5186 121.516 23.46 121.564 23.4404C121.564 23.4111 121.569 23.3867 121.579 23.3672C121.599 23.3379 121.613 23.3086 121.623 23.2793C121.623 23.2402 121.618 23.2012 121.608 23.1621C121.599 23.1133 121.594 23.0693 121.594 23.0303C121.594 22.9326 121.584 22.874 121.564 22.8545C121.545 22.8252 121.545 22.7959 121.564 22.7666C121.516 22.6885 121.472 22.6396 121.433 22.6201C121.403 22.6006 121.389 22.5664 121.389 22.5176C121.35 22.4785 121.32 22.4541 121.301 22.4443C121.281 22.4346 121.271 22.415 121.271 22.3857C121.115 22.2979 120.993 22.2588 120.905 22.2686C120.798 22.2783 120.744 22.2832 120.744 22.2832C120.744 22.2734 120.739 22.2686 120.729 22.2686C120.632 22.3076 120.568 22.3271 120.539 22.3271C120.519 22.3174 120.495 22.3223 120.466 22.3418C120.388 22.4395 120.329 22.5029 120.29 22.5322C120.261 22.5518 120.236 22.5859 120.217 22.6348C120.129 22.7422 120.06 22.8154 120.012 22.8545C119.973 22.8936 119.963 22.9326 119.982 22.9717C119.953 23.0986 119.948 23.1768 119.968 23.2061C119.997 23.2354 120.002 23.2695 119.982 23.3086C120.021 23.3477 120.06 23.3916 120.1 23.4404C120.139 23.4795 120.173 23.5234 120.202 23.5723ZM130.397 22.6055C130.378 22.6348 130.363 22.6689 130.353 22.708C130.344 22.7373 130.329 22.7666 130.309 22.7959C130.29 22.8252 130.27 22.8594 130.251 22.8984C130.241 22.9277 130.222 22.957 130.192 22.9863C130.202 23.0254 130.202 23.0547 130.192 23.0742C130.183 23.0938 130.178 23.1182 130.178 23.1475C130.148 23.167 130.129 23.2012 130.119 23.25C130.109 23.2988 130.095 23.3477 130.075 23.3965C130.026 23.5039 130.002 23.5723 130.002 23.6016C130.012 23.6211 130.017 23.6406 130.017 23.6602C130.007 23.6992 129.992 23.7676 129.973 23.8652C129.934 23.9922 129.914 24.0752 129.914 24.1143C129.924 24.1533 129.909 24.1826 129.87 24.2021C129.86 24.3096 129.826 24.4072 129.767 24.4951C129.787 24.5732 129.782 24.6465 129.753 24.7148C129.724 24.7832 129.699 24.8564 129.68 24.9346C129.68 24.9541 129.684 24.9834 129.694 25.0225C129.704 25.0518 129.699 25.0859 129.68 25.125C129.65 25.1934 129.636 25.2324 129.636 25.2422C129.645 25.252 129.645 25.2666 129.636 25.2861C129.597 25.374 129.582 25.418 129.592 25.418C129.601 25.418 129.606 25.4277 129.606 25.4473C129.616 25.5547 129.611 25.6133 129.592 25.623C129.572 25.623 129.558 25.6328 129.548 25.6523C129.548 25.7695 129.538 25.8281 129.518 25.8281C129.509 25.8281 129.499 25.833 129.489 25.8428C129.509 25.8916 129.518 25.9355 129.518 25.9746C129.518 26.0039 129.509 26.043 129.489 26.0918C129.538 26.209 129.567 26.2773 129.577 26.2969C129.597 26.3066 129.616 26.3213 129.636 26.3408C129.606 26.3896 129.572 26.4287 129.533 26.458C129.494 26.4873 129.465 26.5264 129.445 26.5752C129.396 26.585 129.357 26.6045 129.328 26.6338C129.299 26.6631 129.26 26.6875 129.211 26.707L128.903 26.8682C128.874 26.8877 128.845 26.9072 128.815 26.9268C128.796 26.9463 128.771 26.9658 128.742 26.9854C128.723 27.0049 128.693 27.0195 128.654 27.0293C128.625 27.0391 128.601 27.0537 128.581 27.0732C128.532 27.0732 128.503 27.0537 128.493 27.0146C128.483 26.9756 128.454 26.9609 128.405 26.9707C128.425 26.9219 128.425 26.873 128.405 26.8242C128.395 26.7656 128.381 26.7119 128.361 26.6631C128.322 26.5654 128.293 26.4922 128.273 26.4434C128.254 26.3945 128.244 26.3408 128.244 26.2822C128.176 26.2334 128.137 26.1943 128.127 26.165C128.117 26.1357 128.107 26.0967 128.098 26.0479C128.059 25.9697 128.019 25.9111 127.98 25.8721C127.951 25.8232 127.927 25.7744 127.907 25.7256C127.897 25.6963 127.892 25.667 127.892 25.6377C127.902 25.6084 127.892 25.584 127.863 25.5645C127.824 25.4473 127.785 25.3594 127.746 25.3008C127.707 25.1934 127.673 25.1104 127.643 25.0518C127.614 24.9932 127.59 24.9297 127.57 24.8613C127.541 24.7637 127.517 24.7051 127.497 24.6855C127.477 24.666 127.463 24.6416 127.453 24.6123C127.404 24.5146 127.38 24.4561 127.38 24.4365C127.39 24.417 127.385 24.3975 127.365 24.3779C127.336 24.2803 127.307 24.2021 127.277 24.1436C127.258 24.085 127.233 24.0312 127.204 23.9824C127.224 23.9531 127.228 23.9238 127.219 23.8945C127.209 23.8555 127.194 23.8164 127.175 23.7773C127.145 23.6895 127.121 23.6455 127.101 23.6455C127.082 23.6357 127.067 23.6211 127.058 23.6016L126.94 23.7334C126.901 23.8213 126.887 23.8701 126.896 23.8799C126.916 23.8896 126.921 23.9043 126.911 23.9238C126.882 23.9727 126.857 24.0264 126.838 24.085C126.818 24.1436 126.784 24.1973 126.735 24.2461C126.686 24.3438 126.657 24.4023 126.647 24.4219C126.618 24.5391 126.608 24.6074 126.618 24.627C126.628 24.6367 126.633 24.6367 126.633 24.627C126.613 24.6855 126.594 24.7197 126.574 24.7295C126.564 24.7393 126.559 24.7539 126.559 24.7734C126.55 24.8418 126.535 24.8955 126.516 24.9346C126.496 24.9639 126.467 24.9883 126.428 25.0078C126.418 25.0566 126.408 25.1006 126.398 25.1396C126.389 25.1689 126.364 25.1934 126.325 25.2129C126.286 25.3105 126.257 25.3691 126.237 25.3887C126.188 25.457 126.154 25.5107 126.135 25.5498C126.125 25.5889 126.105 25.6279 126.076 25.667C126.086 25.7256 126.076 25.7695 126.047 25.7988C126.027 25.8281 126.013 25.8672 126.003 25.916C125.934 25.9648 125.9 25.9941 125.9 26.0039C125.91 26.0039 125.905 26.0137 125.886 26.0332C125.847 26.082 125.812 26.1162 125.783 26.1357C125.754 26.1455 125.734 26.1699 125.725 26.209C125.637 26.248 125.588 26.2676 125.578 26.2676C125.578 26.2578 125.568 26.2529 125.549 26.2529C125.471 26.3213 125.417 26.3701 125.388 26.3994C125.27 26.4775 125.178 26.5312 125.109 26.5605C125.06 26.541 125.017 26.5215 124.977 26.502C124.948 26.4727 124.909 26.4482 124.86 26.4287C124.89 26.3213 124.899 26.2725 124.89 26.2822C124.88 26.2822 124.87 26.2773 124.86 26.2676C124.821 26.1699 124.797 26.1064 124.787 26.0771C124.758 25.9697 124.748 25.916 124.758 25.916C124.767 25.9062 124.772 25.8965 124.772 25.8867C124.733 25.7598 124.714 25.6816 124.714 25.6523C124.714 25.623 124.709 25.584 124.699 25.5352C124.699 25.4375 124.689 25.3691 124.67 25.3301C124.65 25.2812 124.65 25.2324 124.67 25.1836C124.65 25.1543 124.636 25.1152 124.626 25.0664C124.616 25.0176 124.621 24.9736 124.641 24.9346C124.582 24.8369 124.567 24.793 124.597 24.8027C124.626 24.8125 124.631 24.8027 124.611 24.7734C124.543 24.627 124.509 24.5146 124.509 24.4365C124.509 24.3584 124.499 24.2803 124.479 24.2021C124.479 24.1729 124.475 24.1484 124.465 24.1289C124.455 24.0996 124.445 24.0654 124.435 24.0264C124.435 23.9287 124.431 23.8799 124.421 23.8799C124.411 23.8701 124.406 23.8555 124.406 23.8359C124.377 23.7188 124.362 23.6504 124.362 23.6309C124.372 23.6016 124.367 23.582 124.348 23.5723C124.348 23.4648 124.328 23.3916 124.289 23.3525C124.221 23.2158 124.191 23.084 124.201 22.957C124.172 22.8691 124.152 22.8154 124.142 22.7959C124.142 22.7666 124.138 22.7373 124.128 22.708C124.079 22.6104 124.05 22.542 124.04 22.5029C124.04 22.4639 124.025 22.4297 123.996 22.4004C123.947 22.3125 123.908 22.2393 123.879 22.1807C123.85 22.1221 123.81 22.0684 123.762 22.0195C123.674 22 123.615 21.9658 123.586 21.917C123.508 21.9072 123.434 21.8975 123.366 21.8877C123.298 21.8779 123.22 21.8828 123.132 21.9023C123.073 21.9609 123.034 21.9951 123.015 22.0049C122.995 22.0146 122.976 22.0098 122.956 21.9902C122.878 22.0098 122.819 22.0244 122.78 22.0342C122.741 22.0342 122.712 22.0244 122.692 22.0049C122.722 21.8779 122.746 21.8096 122.766 21.7998C122.785 21.7803 122.8 21.7559 122.809 21.7266C122.849 21.7168 122.878 21.7021 122.897 21.6826C122.907 21.6533 122.932 21.6338 122.971 21.624C123.039 21.5361 123.073 21.4922 123.073 21.4922C123.122 21.4629 123.161 21.4434 123.19 21.4336C123.21 21.4141 123.225 21.3945 123.234 21.375C123.322 21.3555 123.376 21.3457 123.395 21.3457C123.405 21.3359 123.415 21.3213 123.425 21.3018C123.454 21.292 123.483 21.2822 123.513 21.2725C123.542 21.2627 123.561 21.2383 123.571 21.1992C123.679 21.1797 123.732 21.165 123.732 21.1553C123.742 21.1455 123.752 21.1357 123.762 21.126C123.81 21.1162 123.859 21.1162 123.908 21.126C123.957 21.126 124.006 21.1162 124.055 21.0967C124.152 21.0674 124.221 21.0674 124.26 21.0967C124.299 21.126 124.343 21.1309 124.392 21.1113C124.421 21.1309 124.445 21.1553 124.465 21.1846C124.484 21.2139 124.518 21.2236 124.567 21.2139C124.597 21.292 124.616 21.3311 124.626 21.3311C124.645 21.3213 124.67 21.3164 124.699 21.3164C124.719 21.3457 124.738 21.3701 124.758 21.3896C124.777 21.3994 124.797 21.4141 124.816 21.4336C124.855 21.541 124.894 21.5996 124.934 21.6094C124.934 21.6582 124.938 21.6924 124.948 21.7119C124.968 21.7314 124.987 21.751 125.007 21.7705L125.051 22.0049C125.08 22.1221 125.104 22.1904 125.124 22.21C125.134 22.2393 125.139 22.2686 125.139 22.2979C125.139 22.3271 125.148 22.3564 125.168 22.3857C125.187 22.5225 125.226 22.6201 125.285 22.6787C125.314 22.7764 125.334 22.835 125.344 22.8545C125.353 22.8643 125.358 22.874 125.358 22.8838C125.378 23.0107 125.392 23.0938 125.402 23.1328C125.412 23.1621 125.422 23.2012 125.432 23.25C125.432 23.3672 125.432 23.4355 125.432 23.4551C125.441 23.4746 125.451 23.4941 125.461 23.5137C125.441 23.6016 125.436 23.6553 125.446 23.6748C125.466 23.6943 125.48 23.7139 125.49 23.7334C125.471 23.7627 125.461 23.7969 125.461 23.8359C125.471 23.875 125.466 23.9043 125.446 23.9238C125.495 23.9531 125.524 24.002 125.534 24.0703C125.554 24.1289 125.578 24.1875 125.607 24.2461C125.578 24.3535 125.578 24.4268 125.607 24.4658C125.637 24.4951 125.642 24.5244 125.622 24.5537C125.651 24.6611 125.666 24.7197 125.666 24.7295C125.666 24.7393 125.676 24.7441 125.695 24.7441C125.734 24.7344 125.749 24.7148 125.739 24.6855C125.739 24.6465 125.754 24.6172 125.783 24.5977C125.803 24.5391 125.812 24.4902 125.812 24.4512C125.822 24.4121 125.847 24.3828 125.886 24.3633C125.895 24.2656 125.91 24.207 125.93 24.1875C125.949 24.168 125.964 24.1484 125.974 24.1289C126.013 24.041 126.042 23.9678 126.061 23.9092C126.091 23.8408 126.096 23.7773 126.076 23.7188C126.135 23.6797 126.164 23.6406 126.164 23.6016C126.174 23.5625 126.193 23.543 126.223 23.543C126.223 23.4941 126.227 23.4551 126.237 23.4258C126.257 23.3965 126.267 23.3574 126.267 23.3086C126.306 23.1914 126.359 23.123 126.428 23.1035C126.457 23.0352 126.476 22.9766 126.486 22.9277C126.496 22.8789 126.516 22.8398 126.545 22.8105C126.584 22.7324 126.603 22.6689 126.603 22.6201C126.603 22.5713 126.623 22.5371 126.662 22.5176C126.652 22.4297 126.677 22.376 126.735 22.3564C126.735 22.2588 126.745 22.21 126.765 22.21C126.784 22.2002 126.804 22.1855 126.823 22.166C126.843 22.127 126.862 22.0977 126.882 22.0781C126.901 22.0586 126.926 22.0293 126.955 21.9902C127.014 21.9512 127.048 21.9268 127.058 21.917C127.077 21.9072 127.097 21.8926 127.116 21.873C127.204 21.8633 127.263 21.834 127.292 21.7852C127.36 21.8047 127.404 21.7949 127.424 21.7559C127.453 21.7168 127.497 21.6973 127.556 21.6973C127.585 21.6777 127.604 21.6582 127.614 21.6387C127.634 21.6191 127.658 21.6045 127.687 21.5947C127.736 21.624 127.775 21.6533 127.805 21.6826C127.844 21.7119 127.873 21.751 127.892 21.7998C127.883 21.8682 127.883 21.917 127.892 21.9463C127.902 21.9756 127.902 22.0049 127.892 22.0342C127.922 22.1611 127.951 22.2637 127.98 22.3418C127.98 22.3906 127.985 22.4395 127.995 22.4883C128.015 22.5273 128.029 22.5664 128.039 22.6055C128.039 22.6934 128.044 22.7471 128.054 22.7666C128.073 22.7861 128.073 22.8203 128.054 22.8691C128.132 22.9766 128.171 23.0596 128.171 23.1182C128.181 23.1768 128.21 23.2207 128.259 23.25C128.298 23.3672 128.308 23.4307 128.288 23.4404C128.278 23.4404 128.273 23.4502 128.273 23.4697C128.312 23.5771 128.342 23.6406 128.361 23.6602C128.391 23.6797 128.395 23.6992 128.376 23.7188C128.415 23.8457 128.439 23.9238 128.449 23.9531C128.469 23.9727 128.483 23.9971 128.493 24.0264C128.513 24.1631 128.527 24.2412 128.537 24.2607C128.547 24.2705 128.561 24.2852 128.581 24.3047C128.63 24.3828 128.654 24.4316 128.654 24.4512C128.664 24.4707 128.679 24.4854 128.698 24.4951C128.825 24.4854 128.884 24.4365 128.874 24.3486C128.903 24.3291 128.918 24.3047 128.918 24.2754C128.928 24.2461 128.942 24.2119 128.962 24.1729C128.991 24.0752 128.991 23.9922 128.962 23.9238C129.011 23.875 129.04 23.8164 129.05 23.748C129.059 23.6797 129.089 23.6211 129.138 23.5723C129.147 23.3965 129.201 23.2549 129.299 23.1475C129.269 23.0889 129.274 23.04 129.313 23.001C129.352 22.9619 129.382 22.9229 129.401 22.8838C129.44 22.7471 129.465 22.6689 129.475 22.6494C129.494 22.6201 129.514 22.5908 129.533 22.5615C129.562 22.4932 129.577 22.4492 129.577 22.4297C129.577 22.4004 129.587 22.376 129.606 22.3564C129.636 22.3076 129.65 22.2734 129.65 22.2539C129.66 22.2246 129.665 22.1953 129.665 22.166C129.714 22.1465 129.758 22.0732 129.797 21.9463C129.826 21.8877 129.86 21.8389 129.899 21.7998C129.938 21.7607 129.948 21.7168 129.929 21.668C129.997 21.6387 130.026 21.6094 130.017 21.5801C130.017 21.5508 130.031 21.5459 130.06 21.5654C130.041 21.5264 130.046 21.4971 130.075 21.4775C130.114 21.458 130.134 21.4385 130.134 21.4189C130.183 21.3408 130.207 21.292 130.207 21.2725C130.207 21.2529 130.231 21.2383 130.28 21.2285C130.349 21.1016 130.392 21.0039 130.412 20.9355C130.441 20.8574 130.48 20.7988 130.529 20.7598C130.588 20.6523 130.617 20.584 130.617 20.5547C130.627 20.5254 130.651 20.5059 130.69 20.4961C130.739 20.418 130.764 20.3691 130.764 20.3496C130.773 20.3203 130.793 20.3057 130.822 20.3057C130.861 20.2471 130.886 20.208 130.895 20.1885C130.905 20.1689 130.925 20.1543 130.954 20.1445C130.974 20.0566 131.013 19.9932 131.071 19.9541C131.14 19.9053 131.184 19.8369 131.203 19.749C131.252 19.7393 131.281 19.7246 131.291 19.7051C131.31 19.6855 131.33 19.6709 131.35 19.6611C131.447 19.5732 131.516 19.5146 131.555 19.4854C131.633 19.4268 131.677 19.3877 131.686 19.3682C131.706 19.3389 131.726 19.3145 131.745 19.2949C131.852 19.207 131.935 19.1533 131.994 19.1338C132.131 19.0459 132.219 18.9971 132.258 18.9873C132.414 18.9287 132.517 18.8799 132.565 18.8408C132.624 18.792 132.687 18.7578 132.756 18.7383C132.883 18.7285 132.966 18.7139 133.005 18.6943C133.044 18.6748 133.078 18.6553 133.107 18.6357C133.166 18.6455 133.205 18.6406 133.225 18.6211C133.244 18.6016 133.278 18.5918 133.327 18.5918C133.395 18.6016 133.434 18.6016 133.444 18.5918C133.454 18.582 133.469 18.5771 133.488 18.5771C133.566 18.5771 133.61 18.5723 133.62 18.5625C133.63 18.543 133.64 18.5332 133.649 18.5332C133.679 18.5332 133.708 18.5381 133.737 18.5479C133.767 18.5576 133.791 18.5479 133.81 18.5186C133.947 18.5381 134.025 18.5625 134.045 18.5918C134.074 18.6113 134.099 18.6309 134.118 18.6504C134.177 18.6504 134.221 18.665 134.25 18.6943C134.279 18.7236 134.313 18.748 134.352 18.7676C134.401 18.8555 134.411 18.9092 134.382 18.9287C134.362 18.9482 134.367 18.9727 134.396 19.002C134.367 19.041 134.338 19.0947 134.309 19.1631C134.289 19.2314 134.25 19.2559 134.191 19.2363C134.055 19.2949 133.972 19.3389 133.942 19.3682C133.913 19.3975 133.889 19.4316 133.869 19.4707C133.82 19.4609 133.786 19.4658 133.767 19.4854C133.747 19.4951 133.727 19.5049 133.708 19.5146C133.688 19.4951 133.664 19.4902 133.635 19.5C133.615 19.5 133.586 19.4951 133.547 19.4854C133.43 19.3975 133.351 19.3145 133.312 19.2363C133.234 19.1973 133.171 19.1826 133.122 19.1924C133.073 19.1924 133.039 19.1729 133.019 19.1338C132.902 19.1533 132.824 19.1777 132.785 19.207C132.609 19.1973 132.507 19.2217 132.477 19.2803C132.458 19.3291 132.414 19.3584 132.346 19.3682C132.307 19.3975 132.272 19.4268 132.243 19.4561C132.214 19.4854 132.175 19.5098 132.126 19.5293C132.067 19.6074 132.033 19.6562 132.023 19.6758C132.014 19.6855 131.999 19.6904 131.979 19.6904C131.94 19.8369 131.896 19.9248 131.848 19.9541C131.809 20.0029 131.784 20.0371 131.774 20.0566C131.765 20.0762 131.75 20.0908 131.73 20.1006C131.73 20.1592 131.706 20.1934 131.657 20.2031C131.618 20.2129 131.608 20.252 131.628 20.3203C131.579 20.4082 131.55 20.457 131.54 20.4668C131.53 20.4766 131.52 20.4912 131.511 20.5107C131.511 20.5693 131.491 20.6084 131.452 20.6279C131.423 20.6377 131.413 20.6719 131.423 20.7305C131.374 20.75 131.345 20.7842 131.335 20.833C131.335 20.8721 131.31 20.9014 131.262 20.9209C131.262 20.9697 131.247 21.0039 131.218 21.0234C131.188 21.043 131.174 21.082 131.174 21.1406C131.115 21.2383 131.057 21.3018 130.998 21.3311C130.998 21.4092 130.964 21.4629 130.895 21.4922C130.837 21.5898 130.808 21.6582 130.808 21.6973C130.808 21.7266 130.803 21.7559 130.793 21.7852L130.705 21.9463C130.656 21.9658 130.632 22.0049 130.632 22.0635C130.632 22.1221 130.612 22.1611 130.573 22.1807C130.563 22.2588 130.544 22.3174 130.515 22.3564C130.495 22.3857 130.476 22.4248 130.456 22.4736L130.397 22.6055Z" fill="white"/>
<path d="M142.93 50.5666L158.415 45.6577C182.877 59.8322 188.89 81.3087 158.415 101.497L142.93 97.815C176.004 78.302 174.746 59.8322 142.93 50.5666Z" fill="white"/>
</svg>
