<svg width="58" height="16" viewBox="0 0 58 16" fill="none" xmlns="http://www.w3.org/2000/svg">
<path d="M4.45312 10.6172C4.5 10.7891 4.5 10.9531 4.45312 11.1094C4.42188 11.2656 4.45312 11.4141 4.54688 11.5547C4.51562 11.6328 4.51562 11.7109 4.54688 11.7891C4.57812 11.8516 4.59375 11.9219 4.59375 12C4.60938 12.1406 4.63281 12.2344 4.66406 12.2812C4.71094 12.3281 4.75 12.3828 4.78125 12.4453C4.71875 12.5547 4.6875 12.625 4.6875 12.6562C4.70312 12.6875 4.71094 12.7109 4.71094 12.7266C4.61719 12.8203 4.54688 12.8828 4.5 12.9141C4.34375 13.0547 4.23438 13.1328 4.17188 13.1484L4.00781 13.4062C3.88281 13.5469 3.8125 13.6094 3.79688 13.5938C3.79688 13.5781 3.78125 13.5703 3.75 13.5703C3.71875 13.6016 3.67969 13.6406 3.63281 13.6875C3.60156 13.7344 3.57031 13.7734 3.53906 13.8047C3.32031 13.8516 3.19531 13.875 3.16406 13.875C3.00781 13.7969 2.92188 13.7266 2.90625 13.6641C2.90625 13.6016 2.89062 13.5391 2.85938 13.4766C2.90625 13.3203 2.91406 13.2109 2.88281 13.1484C2.85156 13.1016 2.85156 13.0469 2.88281 12.9844C2.89844 12.8594 2.86719 12.7188 2.78906 12.5625C2.82031 12.4844 2.82812 12.3984 2.8125 12.3047C2.78125 12.1953 2.75781 12.1016 2.74219 12.0234C2.74219 11.9453 2.75781 11.8828 2.78906 11.8359C2.75781 11.8047 2.74219 11.7578 2.74219 11.6953C2.74219 11.6172 2.74219 11.5391 2.74219 11.4609C2.71094 11.2734 2.69531 11.1562 2.69531 11.1094C2.71094 11.0625 2.71875 11.0156 2.71875 10.9688C2.71875 10.9219 2.70312 10.8594 2.67188 10.7812C2.65625 10.7031 2.64844 10.625 2.64844 10.5469C2.63281 10.4062 2.625 10.3125 2.625 10.2656C2.64062 10.2031 2.64062 10.1406 2.625 10.0781C2.625 10.0469 2.625 10.0078 2.625 9.96094C2.625 9.91406 2.61719 9.85938 2.60156 9.79688C2.60156 9.76562 2.58594 9.71875 2.55469 9.65625C2.53906 9.59375 2.53125 9.52344 2.53125 9.44531C2.53125 9.24219 2.51562 9.125 2.48438 9.09375C2.46875 9.04688 2.46094 9 2.46094 8.95312C2.50781 8.8125 2.52344 8.71875 2.50781 8.67188C2.49219 8.625 2.5 8.58594 2.53125 8.55469C2.48438 8.47656 2.45312 8.36719 2.4375 8.22656C2.4375 8.08594 2.44531 7.96875 2.46094 7.875C2.42969 7.70312 2.41406 7.59375 2.41406 7.54688C2.41406 7.5 2.41406 7.44531 2.41406 7.38281C2.36719 7.25781 2.34375 7.1875 2.34375 7.17188C2.35938 7.15625 2.36719 7.13281 2.36719 7.10156C2.30469 6.92969 2.27344 6.82812 2.27344 6.79688C2.28906 6.75 2.29688 6.71094 2.29688 6.67969C2.20312 6.44531 2.15625 6.28125 2.15625 6.1875C2.17188 6.09375 2.15625 6.00781 2.10938 5.92969C2.14062 5.85156 2.13281 5.78125 2.08594 5.71875C2.05469 5.65625 2.03125 5.60156 2.01562 5.55469C1.98438 5.32031 1.9375 5.16406 1.875 5.08594C1.8125 5.00781 1.76562 4.91406 1.73438 4.80469C1.70312 4.77344 1.67188 4.74219 1.64062 4.71094C1.60938 4.67969 1.57812 4.63281 1.54688 4.57031C1.35938 4.53906 1.20312 4.54688 1.07812 4.59375C0.953125 4.625 0.835938 4.67969 0.726562 4.75781C0.601562 4.86719 0.507812 4.92969 0.445312 4.94531C0.382812 4.96094 0.335938 5 0.304688 5.0625C0.242188 5.03125 0.1875 5 0.140625 4.96875C0.09375 4.92188 0.046875 4.88281 0 4.85156C0.015625 4.80469 0.03125 4.75781 0.046875 4.71094C0.0625 4.64844 0.0703125 4.58594 0.0703125 4.52344C0.101562 4.47656 0.148438 4.4375 0.210938 4.40625C0.257812 4.375 0.289062 4.32031 0.304688 4.24219C0.398438 4.19531 0.453125 4.15625 0.46875 4.125C0.46875 4.09375 0.484375 4.0625 0.515625 4.03125C0.625 3.90625 0.703125 3.84375 0.75 3.84375C0.84375 3.75 0.898438 3.6875 0.914062 3.65625C0.945312 3.625 0.976562 3.61719 1.00781 3.63281C1.19531 3.46094 1.34375 3.34375 1.45312 3.28125C1.57812 3.21875 1.70312 3.17188 1.82812 3.14062C1.875 3.14062 1.92188 3.14062 1.96875 3.14062C2.03125 3.125 2.07812 3.13281 2.10938 3.16406C2.29688 3.16406 2.39844 3.17969 2.41406 3.21094C2.44531 3.22656 2.49219 3.21875 2.55469 3.1875C2.60156 3.25 2.67969 3.29688 2.78906 3.32812C2.82031 3.39062 2.84375 3.44531 2.85938 3.49219C2.875 3.53906 2.89844 3.58594 2.92969 3.63281C2.96094 3.69531 3 3.74219 3.04688 3.77344C3.09375 3.78906 3.13281 3.82031 3.16406 3.86719C3.25781 3.99219 3.30469 4.08594 3.30469 4.14844C3.36719 4.32031 3.36719 4.40625 3.30469 4.40625C3.33594 4.45312 3.36719 4.5 3.39844 4.54688C3.44531 4.59375 3.46875 4.66406 3.46875 4.75781C3.51562 4.92969 3.55469 5.07812 3.58594 5.20312C3.61719 5.32812 3.65625 5.42969 3.70312 5.50781C3.75 5.69531 3.78906 5.80469 3.82031 5.83594L4.00781 5.60156C4.03906 5.55469 4.05469 5.50781 4.05469 5.46094C4.07031 5.39844 4.09375 5.35156 4.125 5.32031C4.15625 5.28906 4.1875 5.25781 4.21875 5.22656C4.26562 5.19531 4.30469 5.16406 4.33594 5.13281C4.42969 4.97656 4.47656 4.88281 4.47656 4.85156C4.47656 4.82031 4.5 4.79688 4.54688 4.78125C4.5625 4.70312 4.58594 4.64844 4.61719 4.61719C4.64844 4.58594 4.67969 4.54688 4.71094 4.5C4.80469 4.39062 4.86719 4.25781 4.89844 4.10156C4.92969 4.07031 4.95312 4.03125 4.96875 3.98438C5 3.9375 5.03125 3.89844 5.0625 3.86719C5.09375 3.82031 5.125 3.78125 5.15625 3.75C5.1875 3.70312 5.21875 3.65625 5.25 3.60938C5.35938 3.4375 5.42969 3.32812 5.46094 3.28125C5.49219 3.21875 5.51562 3.14844 5.53125 3.07031C5.59375 3.00781 5.64062 2.96875 5.67188 2.95312C5.70312 2.92188 5.72656 2.88281 5.74219 2.83594C5.89844 2.66406 6 2.5625 6.04688 2.53125C6.10938 2.48438 6.14062 2.41406 6.14062 2.32031C6.34375 2.24219 6.47656 2.125 6.53906 1.96875C6.66406 1.82812 6.75781 1.75 6.82031 1.73438C6.89844 1.70312 6.9375 1.63281 6.9375 1.52344C7.03125 1.53906 7.09375 1.53125 7.125 1.5C7.17188 1.45312 7.21875 1.41406 7.26562 1.38281C7.35938 1.41406 7.42188 1.39844 7.45312 1.33594C7.5 1.25781 7.55469 1.20312 7.61719 1.17188C7.85156 1.10938 8 1.07031 8.0625 1.05469C8.14062 1.02344 8.21875 1 8.29688 0.984375C8.45312 0.9375 8.57031 0.898438 8.64844 0.867188C8.72656 0.835938 8.79688 0.804688 8.85938 0.773438C9.0625 0.757812 9.1875 0.757812 9.23438 0.773438C9.28125 0.773438 9.33594 0.773438 9.39844 0.773438C9.42969 0.773438 9.47656 0.773438 9.53906 0.773438C9.61719 0.757812 9.67188 0.789062 9.70312 0.867188C9.8125 0.882812 9.89062 0.921875 9.9375 0.984375C10 1.03125 10.0703 1.07031 10.1484 1.10156C10.1641 1.17969 10.2031 1.24219 10.2656 1.28906C10.3438 1.32031 10.375 1.39062 10.3594 1.5C10.3906 1.53125 10.4141 1.58594 10.4297 1.66406C10.4453 1.74219 10.4688 1.80469 10.5 1.85156C10.5 1.96094 10.4844 2.03125 10.4531 2.0625C10.4375 2.07812 10.4531 2.09375 10.5 2.10938C10.5 2.28125 10.4922 2.36719 10.4766 2.36719C10.4766 2.35156 10.4688 2.35938 10.4531 2.39062C10.3438 2.54688 10.2891 2.66406 10.2891 2.74219C10.1797 2.82031 10.1172 2.88281 10.1016 2.92969C10.0703 3.02344 10.0469 3.08594 10.0312 3.11719C10.0312 3.13281 10.0156 3.15625 9.98438 3.1875C9.85938 3.32812 9.78906 3.39844 9.77344 3.39844C9.66406 3.52344 9.60156 3.59375 9.58594 3.60938C9.52344 3.70312 9.48438 3.75781 9.46875 3.77344C9.46875 3.78906 9.46875 3.82031 9.46875 3.86719C9.42188 3.89844 9.375 3.92188 9.32812 3.9375C9.28125 3.95312 9.26562 4 9.28125 4.07812C9.125 4.09375 9.02344 4.17188 8.97656 4.3125C8.78906 4.46875 8.6875 4.5625 8.67188 4.59375C8.59375 4.59375 8.53125 4.60156 8.48438 4.61719C8.45312 4.63281 8.40625 4.64062 8.34375 4.64062C8.34375 4.75 8.3125 4.82812 8.25 4.875C8.20312 4.92188 8.16406 4.98438 8.13281 5.0625C8.00781 5.125 7.92969 5.17188 7.89844 5.20312C7.88281 5.21875 7.88281 5.24219 7.89844 5.27344C7.82031 5.32031 7.72656 5.35938 7.61719 5.39062C7.50781 5.40625 7.42969 5.45312 7.38281 5.53125C7.41406 5.35938 7.42188 5.24219 7.40625 5.17969C7.51562 5.07031 7.57812 5 7.59375 4.96875C7.60938 4.92188 7.64062 4.88281 7.6875 4.85156C7.73438 4.71094 7.76562 4.625 7.78125 4.59375C7.8125 4.54688 7.84375 4.50781 7.875 4.47656C7.90625 4.44531 7.92969 4.41406 7.94531 4.38281C7.97656 4.35156 7.99219 4.30469 7.99219 4.24219C8.11719 4.16406 8.1875 4.11719 8.20312 4.10156C8.23438 4.07031 8.25 4.03906 8.25 4.00781C8.39062 3.89844 8.46875 3.84375 8.48438 3.84375C8.5 3.82812 8.5 3.80469 8.48438 3.77344C8.60938 3.64844 8.6875 3.5625 8.71875 3.51562C8.76562 3.46875 8.80469 3.42188 8.83594 3.375C8.85156 3.26562 8.85938 3.15625 8.85938 3.04688C8.85938 2.9375 8.86719 2.83594 8.88281 2.74219L8.74219 2.48438C8.61719 2.46875 8.52344 2.42188 8.46094 2.34375C8.41406 2.375 8.35156 2.375 8.27344 2.34375C8.19531 2.29688 8.125 2.29688 8.0625 2.34375C7.70312 2.29688 7.40625 2.36719 7.17188 2.55469C7.10938 2.60156 7.05469 2.64062 7.00781 2.67188C6.96094 2.6875 6.92969 2.73438 6.91406 2.8125C6.78906 2.8125 6.6875 2.86719 6.60938 2.97656C6.5625 3.14844 6.52344 3.25 6.49219 3.28125C6.46094 3.3125 6.46094 3.33594 6.49219 3.35156C6.30469 3.47656 6.21094 3.5625 6.21094 3.60938C6.21094 3.64062 6.20312 3.67969 6.1875 3.72656C6.125 3.85156 6.07812 3.92188 6.04688 3.9375C6.01562 3.9375 6.01562 3.95312 6.04688 3.98438C5.90625 4.07812 5.82812 4.14062 5.8125 4.17188C5.8125 4.20312 5.79688 4.21094 5.76562 4.19531C5.75 4.27344 5.71875 4.33594 5.67188 4.38281C5.64062 4.42969 5.60938 4.47656 5.57812 4.52344C5.59375 4.64844 5.57812 4.74219 5.53125 4.80469C5.5 4.86719 5.47656 4.94531 5.46094 5.03906C5.30469 5.24219 5.21094 5.38281 5.17969 5.46094C5.14844 5.52344 5.11719 5.60156 5.08594 5.69531C5.05469 5.78906 5.03906 5.88281 5.03906 5.97656C5.05469 6.05469 5.03906 6.10938 4.99219 6.14062C4.97656 6.26562 4.96094 6.34375 4.94531 6.375C4.92969 6.40625 4.90625 6.42969 4.875 6.44531C4.85938 6.49219 4.84375 6.54688 4.82812 6.60938C4.82812 6.65625 4.8125 6.6875 4.78125 6.70312C4.79688 6.85938 4.8125 6.98438 4.82812 7.07812C4.85938 7.15625 4.84375 7.21875 4.78125 7.26562C4.75 7.42188 4.71875 7.54688 4.6875 7.64062C4.71875 7.71875 4.73438 7.8125 4.73438 7.92188C4.6875 8.01562 4.66406 8.11719 4.66406 8.22656C4.60156 8.35156 4.57812 8.44531 4.59375 8.50781C4.60938 8.55469 4.60938 8.60156 4.59375 8.64844C4.59375 8.71094 4.58594 8.76562 4.57031 8.8125C4.55469 8.85938 4.53906 8.90625 4.52344 8.95312C4.52344 9.01562 4.52344 9.07812 4.52344 9.14062C4.53906 9.1875 4.53906 9.25 4.52344 9.32812C4.52344 9.4375 4.51562 9.54688 4.5 9.65625C4.48438 9.75 4.47656 9.84375 4.47656 9.9375C4.46094 10.0625 4.46094 10.1406 4.47656 10.1719C4.49219 10.1875 4.5 10.2109 4.5 10.2422L4.45312 10.6172ZM15.3047 10.9219C15.2266 10.9531 15.1719 10.9844 15.1406 11.0156C15.1094 11.0312 15.0547 11.0312 14.9766 11.0156C14.9297 11.0781 14.8672 11.125 14.7891 11.1562C14.7109 11.1719 14.6562 11.2188 14.625 11.2969C14.3906 11.375 14.2109 11.4453 14.0859 11.5078C13.8047 11.6328 13.6094 11.7188 13.5 11.7656C13.4062 11.8125 13.3125 11.8594 13.2188 11.9062C13.0938 11.875 12.9844 11.8828 12.8906 11.9297C12.8125 11.9766 12.7422 12.0234 12.6797 12.0703C12.5391 12.0859 12.3984 12.0859 12.2578 12.0703C12.1172 12.0547 12.0078 12.0469 11.9297 12.0469C11.7734 12.0156 11.6719 12 11.625 12C11.5938 12 11.5781 11.9844 11.5781 11.9531C11.5156 11.9688 11.4688 11.9688 11.4375 11.9531C11.4062 11.9375 11.3672 11.9297 11.3203 11.9297C11.1641 11.8359 11.0625 11.7891 11.0156 11.7891C10.9688 11.7734 10.9297 11.75 10.8984 11.7188C10.8984 11.7031 10.8594 11.6875 10.7812 11.6719C10.7188 11.6562 10.6719 11.6641 10.6406 11.6953L10.3125 11.4844C10.1719 11.2969 10.0781 11.2031 10.0312 11.2031C9.90625 11.0781 9.84375 10.9844 9.84375 10.9219C9.78125 10.9062 9.73438 10.8828 9.70312 10.8516C9.67188 10.8203 9.625 10.7969 9.5625 10.7812C9.5625 10.6562 9.55469 10.5859 9.53906 10.5703C9.52344 10.5391 9.50781 10.4844 9.49219 10.4062C9.39844 10.2031 9.35156 10.1016 9.35156 10.1016C9.33594 10.0391 9.3125 9.99219 9.28125 9.96094C9.25 9.91406 9.22656 9.875 9.21094 9.84375C9.21094 9.8125 9.21094 9.78125 9.21094 9.75C9.22656 9.70312 9.22656 9.64844 9.21094 9.58594C9.14844 9.49219 9.11719 9.39844 9.11719 9.30469C9.10156 9.19531 9.07812 9.10156 9.04688 9.02344C9.03125 8.96094 9.02344 8.89844 9.02344 8.83594C9.03906 8.77344 9.03906 8.72656 9.02344 8.69531C8.97656 8.57031 8.95312 8.5 8.95312 8.48438C8.95312 8.45312 8.96875 8.42969 9 8.41406C8.95312 8.38281 8.94531 8.32812 8.97656 8.25C9.00781 8.17188 8.99219 8.11719 8.92969 8.08594C8.99219 8.02344 9.01562 7.94531 9 7.85156C8.98438 7.75781 8.99219 7.67188 9.02344 7.59375C9.07031 7.48438 9.10938 7.36719 9.14062 7.24219C9.1875 7.08594 9.21875 6.99219 9.23438 6.96094C9.26562 6.91406 9.28906 6.875 9.30469 6.84375C9.33594 6.70312 9.35938 6.625 9.375 6.60938C9.39062 6.57812 9.39844 6.54688 9.39844 6.51562C9.44531 6.32812 9.50781 6.19531 9.58594 6.11719C9.66406 6.02344 9.71094 5.91406 9.72656 5.78906C9.78906 5.77344 9.82812 5.73438 9.84375 5.67188C9.875 5.59375 9.92188 5.53906 9.98438 5.50781C10.0312 5.39844 10.0781 5.33594 10.125 5.32031C10.1875 5.28906 10.2266 5.24219 10.2422 5.17969C10.3359 5.16406 10.3984 5.13281 10.4297 5.08594C10.4766 5.03906 10.5156 4.98438 10.5469 4.92188C10.6406 4.90625 10.7109 4.875 10.7578 4.82812C10.8203 4.76562 10.8984 4.72656 10.9922 4.71094C11.0234 4.58594 11.0859 4.50781 11.1797 4.47656C11.2891 4.42969 11.375 4.36719 11.4375 4.28906C11.5625 4.28906 11.6406 4.24219 11.6719 4.14844C11.875 4.11719 12.0078 4.07031 12.0703 4.00781C12.1328 3.94531 12.2031 3.89844 12.2812 3.86719C12.3906 3.85156 12.4609 3.83594 12.4922 3.82031C12.5234 3.78906 12.5703 3.76562 12.6328 3.75C12.7734 3.625 12.8438 3.58594 12.8438 3.63281C12.8594 3.66406 12.8828 3.66406 12.9141 3.63281C12.9766 3.61719 13.0312 3.59375 13.0781 3.5625C13.1406 3.53125 13.2109 3.50781 13.2891 3.49219C13.4297 3.47656 13.5156 3.46875 13.5469 3.46875C13.5938 3.45312 13.6406 3.4375 13.6875 3.42188C13.9062 3.39062 14.0547 3.38281 14.1328 3.39844C14.2109 3.42969 14.3125 3.46094 14.4375 3.49219C14.5625 3.52344 14.6641 3.53125 14.7422 3.51562C14.7734 3.54688 14.8125 3.57812 14.8594 3.60938C14.9062 3.625 14.9453 3.66406 14.9766 3.72656C15.1328 3.83594 15.2266 3.91406 15.2578 3.96094C15.2891 4.00781 15.3359 4.04688 15.3984 4.07812C15.5078 4.26562 15.5781 4.41406 15.6094 4.52344C15.6562 4.61719 15.7109 4.71875 15.7734 4.82812C15.7266 4.95312 15.7109 5.02344 15.7266 5.03906C15.7422 5.03906 15.75 5.05469 15.75 5.08594C15.75 5.11719 15.7422 5.16406 15.7266 5.22656C15.7109 5.27344 15.7031 5.32031 15.7031 5.36719C15.7188 5.49219 15.7188 5.59375 15.7031 5.67188C15.6875 5.75 15.6797 5.82812 15.6797 5.90625C15.5234 6.125 15.3828 6.26562 15.2578 6.32812C15.1484 6.39062 15.0625 6.48438 15 6.60938C14.8594 6.65625 14.7891 6.69531 14.7891 6.72656C14.8047 6.75781 14.7969 6.78125 14.7656 6.79688C14.6406 6.875 14.5703 6.92969 14.5547 6.96094C14.5391 6.97656 14.5312 7 14.5312 7.03125C14.4062 7.10938 14.2891 7.16406 14.1797 7.19531C14.0547 7.24219 13.9688 7.29688 13.9219 7.35938C13.875 7.40625 13.8203 7.44531 13.7578 7.47656C13.7109 7.50781 13.6484 7.53125 13.5703 7.54688C13.5078 7.5625 13.4531 7.60938 13.4062 7.6875C13.2344 7.71875 13.125 7.78906 13.0781 7.89844C12.8906 7.89844 12.7734 7.89844 12.7266 7.89844C12.6797 7.88281 12.6406 7.875 12.6094 7.875C12.4375 7.96875 12.3516 8.00781 12.3516 7.99219C12.3516 7.97656 12.3438 7.97656 12.3281 7.99219C12.2812 8.00781 12.2266 8.00781 12.1641 7.99219C12.1016 7.97656 12.0312 7.96094 11.9531 7.94531C11.9219 7.92969 11.875 7.9375 11.8125 7.96875C11.75 7.98438 11.7031 7.99219 11.6719 7.99219C11.5781 8.00781 11.5 7.99219 11.4375 7.94531C11.375 7.88281 11.2812 7.86719 11.1562 7.89844C11.1094 7.86719 11.0625 7.83594 11.0156 7.80469C10.9844 7.77344 10.9375 7.77344 10.875 7.80469C10.8594 7.82031 10.8438 7.875 10.8281 7.96875C10.8281 8.0625 10.8594 8.09375 10.9219 8.0625C10.8594 8.14062 10.8281 8.23438 10.8281 8.34375C10.8281 8.4375 10.8672 8.51562 10.9453 8.57812C10.8984 8.75 10.9141 8.90625 10.9922 9.04688C11.0859 9.17188 11.1406 9.3125 11.1562 9.46875C11.2344 9.59375 11.3203 9.69531 11.4141 9.77344C11.5234 9.83594 11.6016 9.92969 11.6484 10.0547C11.7734 10.1172 11.8906 10.1875 12 10.2656C12.125 10.3438 12.25 10.4297 12.375 10.5234C12.4688 10.5547 12.5391 10.5859 12.5859 10.6172C12.6484 10.6328 12.7109 10.6406 12.7734 10.6406C12.8984 10.75 13 10.8047 13.0781 10.8047C13.2656 10.8672 13.375 10.9062 13.4062 10.9219C13.4375 10.9375 13.4688 10.9453 13.5 10.9453C13.6406 10.9766 13.7266 10.9922 13.7578 10.9922C13.9453 10.9453 14.0547 10.9219 14.0859 10.9219C14.1328 10.9219 14.1797 10.9062 14.2266 10.875C14.3516 10.7812 14.4453 10.7266 14.5078 10.7109C14.5703 10.6797 14.625 10.6406 14.6719 10.5938C14.7969 10.5 14.8594 10.4453 14.8594 10.4297C14.875 10.3984 14.8984 10.375 14.9297 10.3594C15.0391 10.2031 15.0938 10.1172 15.0938 10.1016C15.1562 10.0859 15.1953 10.0547 15.2109 10.0078C15.2422 9.96094 15.2734 9.92188 15.3047 9.89062C15.3984 9.78125 15.4531 9.72656 15.4688 9.72656C15.5 9.71094 15.5312 9.69531 15.5625 9.67969C15.6406 9.52344 15.6875 9.4375 15.7031 9.42188C15.7344 9.39062 15.7734 9.35938 15.8203 9.32812C16.0391 9.20312 16.1719 9.11719 16.2188 9.07031C16.3438 9.10156 16.4375 9.08594 16.5 9.02344C16.5625 8.96094 16.6328 8.94531 16.7109 8.97656C16.7422 9.11719 16.7578 9.19531 16.7578 9.21094C16.7578 9.22656 16.7656 9.24219 16.7812 9.25781C16.7656 9.30469 16.7188 9.33594 16.6406 9.35156C16.5625 9.35156 16.5312 9.39062 16.5469 9.46875C16.4688 9.65625 16.4141 9.78125 16.3828 9.84375C16.3672 9.90625 16.3281 9.96094 16.2656 10.0078C16.2344 10.1484 16.1484 10.2344 16.0078 10.2656C15.9141 10.3594 15.8516 10.4375 15.8203 10.5C15.6797 10.5312 15.6016 10.5938 15.5859 10.6875L15.3047 10.9219ZM11.7422 6.67969C11.8047 6.69531 11.8828 6.71875 11.9766 6.75C12.0703 6.78125 12.1328 6.8125 12.1641 6.84375C12.2578 6.82812 12.3438 6.82812 12.4219 6.84375C12.5 6.84375 12.5703 6.85156 12.6328 6.86719C12.8359 6.89844 12.9609 6.89844 13.0078 6.86719C13.0547 6.83594 13.1094 6.82031 13.1719 6.82031C13.3438 6.83594 13.4297 6.83594 13.4297 6.82031C13.4453 6.78906 13.4688 6.76562 13.5 6.75C13.7031 6.59375 13.8438 6.5 13.9219 6.46875C13.9219 6.42188 13.9297 6.38281 13.9453 6.35156C13.9766 6.30469 14 6.25781 14.0156 6.21094C14.0156 6.14844 14.0078 6.08594 13.9922 6.02344C13.9766 5.94531 13.9688 5.875 13.9688 5.8125C13.9688 5.65625 13.9531 5.5625 13.9219 5.53125C13.8906 5.48438 13.8906 5.4375 13.9219 5.39062C13.8438 5.26562 13.7734 5.1875 13.7109 5.15625C13.6641 5.125 13.6406 5.07031 13.6406 4.99219C13.5781 4.92969 13.5312 4.89062 13.5 4.875C13.4688 4.85938 13.4531 4.82812 13.4531 4.78125C13.2031 4.64062 13.0078 4.57812 12.8672 4.59375C12.6953 4.60938 12.6094 4.61719 12.6094 4.61719C12.6094 4.60156 12.6016 4.59375 12.5859 4.59375C12.4297 4.65625 12.3281 4.6875 12.2812 4.6875C12.25 4.67188 12.2109 4.67969 12.1641 4.71094C12.0391 4.86719 11.9453 4.96875 11.8828 5.01562C11.8359 5.04688 11.7969 5.10156 11.7656 5.17969C11.625 5.35156 11.5156 5.46875 11.4375 5.53125C11.375 5.59375 11.3594 5.65625 11.3906 5.71875C11.3438 5.92188 11.3359 6.04688 11.3672 6.09375C11.4141 6.14062 11.4219 6.19531 11.3906 6.25781C11.4531 6.32031 11.5156 6.39062 11.5781 6.46875C11.6406 6.53125 11.6953 6.60156 11.7422 6.67969ZM21.2344 8.85938C21.1875 8.6875 21.1484 8.60156 21.1172 8.60156C21.1016 8.58594 21.0859 8.5625 21.0703 8.53125C21.0078 8.39062 20.9688 8.3125 20.9531 8.29688C20.8906 8.17188 20.8438 8.09375 20.8125 8.0625C20.7969 8.03125 20.7734 7.99219 20.7422 7.94531C20.6328 7.89844 20.5625 7.85156 20.5312 7.80469C20.5156 7.75781 20.4766 7.73438 20.4141 7.73438C20.4453 7.64062 20.4297 7.5625 20.3672 7.5C20.3047 7.4375 20.25 7.39062 20.2031 7.35938C20.1562 7.25 20.1172 7.17188 20.0859 7.125C20.0547 7.0625 20.0234 7 19.9922 6.9375C19.9609 6.89062 19.9219 6.85156 19.875 6.82031C19.8281 6.77344 19.7891 6.71094 19.7578 6.63281C19.7109 6.60156 19.6641 6.5625 19.6172 6.51562C19.5703 6.46875 19.5312 6.40625 19.5 6.32812C19.375 6.17188 19.3047 6.09375 19.2891 6.09375C19.2734 6.07812 19.2578 6.05469 19.2422 6.02344C19.2109 5.97656 19.1875 5.92188 19.1719 5.85938C19.1562 5.78125 19.1094 5.72656 19.0312 5.69531C19.0156 5.58594 18.9688 5.50781 18.8906 5.46094C18.7969 5.32031 18.7422 5.24219 18.7266 5.22656C18.7109 5.19531 18.6875 5.1875 18.6562 5.20312C18.6094 5.09375 18.5703 5.03125 18.5391 5.01562C18.5234 4.98438 18.5 4.96094 18.4688 4.94531C18.4688 4.83594 18.4453 4.75 18.3984 4.6875C18.3516 4.625 18.3047 4.5625 18.2578 4.5C18.2891 4.42188 18.2734 4.375 18.2109 4.35938C18.1641 4.32812 18.1562 4.28125 18.1875 4.21875C18.125 4.1875 18.0859 4.13281 18.0703 4.05469C18.0547 3.97656 18.0312 3.89844 18 3.82031C17.9375 3.66406 17.8984 3.55469 17.8828 3.49219C17.8672 3.42969 17.8594 3.35938 17.8594 3.28125C17.8594 3.125 17.8594 3.04688 17.8594 3.04688C17.875 3.03125 17.8828 3.01562 17.8828 3L17.9297 2.64844C17.9922 2.42969 18.0469 2.32031 18.0938 2.32031C18.1094 2.24219 18.1562 2.14844 18.2344 2.03906C18.3438 1.91406 18.4062 1.84375 18.4219 1.82812C18.4531 1.79688 18.4844 1.75781 18.5156 1.71094C18.6094 1.63281 18.6797 1.57812 18.7266 1.54688C18.7891 1.5 18.8359 1.44531 18.8672 1.38281C18.9609 1.32031 19.0234 1.25781 19.0547 1.19531C19.1172 1.19531 19.1562 1.17188 19.1719 1.125C19.1875 1.07812 19.2344 1.0625 19.3125 1.07812C19.3125 1 19.3281 0.953125 19.3594 0.9375C19.4062 0.90625 19.4453 0.875 19.4766 0.84375C19.7266 0.75 19.8672 0.664062 19.8984 0.585938C20.0547 0.539062 20.1484 0.507812 20.1797 0.492188C20.2891 0.460938 20.3984 0.40625 20.5078 0.328125C20.6953 0.28125 20.8125 0.257812 20.8594 0.257812C20.9062 0.257812 20.9531 0.25 21 0.234375C21.1562 0.15625 21.2578 0.109375 21.3047 0.09375C21.3672 0.0625 21.4297 0.046875 21.4922 0.046875C21.6797 0.0625 21.7969 0.0625 21.8438 0.046875C21.9062 0.015625 21.9688 0 22.0312 0C22.0625 0 22.1016 0.0078125 22.1484 0.0234375C22.2109 0.0234375 22.2656 0.0234375 22.3125 0.0234375C22.4531 0.0390625 22.5391 0.0546875 22.5703 0.0703125C22.6172 0.0859375 22.6641 0.09375 22.7109 0.09375C22.7422 0.140625 22.7812 0.171875 22.8281 0.1875C22.8906 0.203125 22.9531 0.21875 23.0156 0.234375C23.125 0.359375 23.2266 0.445312 23.3203 0.492188C23.4141 0.554688 23.4688 0.609375 23.4844 0.65625C23.5 0.6875 23.5312 0.703125 23.5781 0.703125C23.5781 0.796875 23.5938 0.898438 23.625 1.00781C23.6719 1.10156 23.7109 1.1875 23.7422 1.26562C23.7734 1.42188 23.7891 1.53125 23.7891 1.59375C23.8047 1.64062 23.8281 1.6875 23.8594 1.73438C23.8594 1.90625 23.8281 2.01562 23.7656 2.0625C23.7031 2.09375 23.6797 2.17188 23.6953 2.29688C23.5859 2.35938 23.5156 2.49219 23.4844 2.69531C23.4062 2.66406 23.3516 2.66406 23.3203 2.69531C23.2891 2.72656 23.2422 2.75 23.1797 2.76562C23.0703 2.875 23.0078 2.96094 22.9922 3.02344C22.9922 3.07031 22.9609 3.09375 22.8984 3.09375C22.7266 3.1875 22.625 3.25 22.5938 3.28125C22.5625 3.3125 22.5312 3.34375 22.5 3.375C22.4219 3.40625 22.3594 3.44531 22.3125 3.49219C22.2812 3.52344 22.2266 3.54688 22.1484 3.5625C22.1172 3.48438 22.0781 3.42969 22.0312 3.39844C21.9844 3.35156 21.9375 3.30469 21.8906 3.25781C21.9219 3.07031 21.9375 2.97656 21.9375 2.97656C21.9688 2.85156 22 2.77344 22.0312 2.74219C22.0781 2.69531 22.1094 2.64062 22.125 2.57812C22.0781 2.375 22.0547 2.25 22.0547 2.20312C22.0547 2.14062 22.0391 2.07812 22.0078 2.01562C21.9766 1.98438 21.9375 1.95312 21.8906 1.92188C21.8594 1.875 21.8594 1.82812 21.8906 1.78125C21.8125 1.78125 21.7578 1.75781 21.7266 1.71094C21.7109 1.66406 21.6641 1.65625 21.5859 1.6875C21.5547 1.59375 21.4844 1.54688 21.375 1.54688C21.2656 1.53125 21.1875 1.48438 21.1406 1.40625C20.9688 1.42188 20.8516 1.4375 20.7891 1.45312C20.7422 1.46875 20.6875 1.47656 20.625 1.47656C20.5625 1.47656 20.4844 1.47656 20.3906 1.47656C20.2969 1.46094 20.2109 1.46875 20.1328 1.5C20.0547 1.53125 19.9844 1.57031 19.9219 1.61719C19.8594 1.66406 19.7812 1.6875 19.6875 1.6875C19.5625 1.89062 19.4766 2.03906 19.4297 2.13281C19.4297 2.25781 19.4219 2.35156 19.4062 2.41406C19.4062 2.47656 19.3906 2.52344 19.3594 2.55469C19.3906 2.60156 19.4141 2.64844 19.4297 2.69531C19.4609 2.74219 19.5 2.78125 19.5469 2.8125C19.6094 2.96875 19.6797 3.10156 19.7578 3.21094C19.8516 3.30469 19.9141 3.41406 19.9453 3.53906C20.0234 3.58594 20.0781 3.64844 20.1094 3.72656C20.1406 3.80469 20.1953 3.86719 20.2734 3.91406C20.3359 4.05469 20.3906 4.14062 20.4375 4.17188C20.4844 4.3125 20.5469 4.40625 20.625 4.45312C20.7344 4.625 20.7969 4.71875 20.8125 4.73438C20.8281 4.75 20.8281 4.77344 20.8125 4.80469C20.8906 4.91406 20.9453 4.98438 20.9766 5.01562C21.0078 5.04688 21.0312 5.10156 21.0469 5.17969C21.0938 5.21094 21.1328 5.25 21.1641 5.29688C21.2109 5.32812 21.2578 5.35938 21.3047 5.39062C21.3203 5.45312 21.3359 5.5 21.3516 5.53125C21.3828 5.5625 21.3984 5.60156 21.3984 5.64844C21.4609 5.75781 21.5 5.82031 21.5156 5.83594C21.5469 5.85156 21.5781 5.875 21.6094 5.90625C21.6406 5.95312 21.6641 6 21.6797 6.04688C21.7109 6.09375 21.7578 6.13281 21.8203 6.16406C21.8203 6.32031 21.8359 6.39062 21.8672 6.375C21.8984 6.35938 21.9219 6.36719 21.9375 6.39844C21.9688 6.44531 22 6.48438 22.0312 6.51562C22.0781 6.54688 22.1172 6.58594 22.1484 6.63281C22.2109 6.75781 22.2656 6.84375 22.3125 6.89062C22.3594 6.92188 22.3984 6.97656 22.4297 7.05469C22.5234 7.19531 22.5859 7.26562 22.6172 7.26562C22.6641 7.375 22.6953 7.49219 22.7109 7.61719C22.7422 7.72656 22.8203 7.79688 22.9453 7.82812C22.9609 7.96875 22.9922 8.0625 23.0391 8.10938C23.1484 8.25 23.1953 8.32031 23.1797 8.32031C23.1797 8.32031 23.1875 8.32812 23.2031 8.34375C23.2969 8.48438 23.3438 8.57031 23.3438 8.60156C23.3438 8.63281 23.3516 8.66406 23.3672 8.69531C23.4297 8.80469 23.4844 8.875 23.5312 8.90625C23.5781 9.07812 23.6016 9.17969 23.6016 9.21094C23.6641 9.35156 23.6953 9.4375 23.6953 9.46875C23.7109 9.5 23.7031 9.51562 23.6719 9.51562C23.75 9.625 23.7891 9.76562 23.7891 9.9375C23.7891 10.1094 23.7969 10.2422 23.8125 10.3359C23.7188 10.4922 23.6797 10.5781 23.6953 10.5938C23.7266 10.6094 23.7344 10.6406 23.7188 10.6875C23.6875 10.7656 23.6562 10.8438 23.625 10.9219C23.6094 11 23.5547 11.0469 23.4609 11.0625C23.3828 11.2344 23.3359 11.3281 23.3203 11.3438C23.3203 11.3594 23.3047 11.375 23.2734 11.3906C23.1953 11.5469 23.1328 11.6406 23.0859 11.6719C23.0547 11.7031 23.0391 11.75 23.0391 11.8125C22.9609 11.9062 22.9141 11.9609 22.8984 11.9766C22.8828 11.9922 22.8828 12.0156 22.8984 12.0469C22.7734 12.0781 22.6875 12.1328 22.6406 12.2109C22.6094 12.3047 22.5312 12.3594 22.4062 12.375C22.3594 12.5938 22.25 12.7109 22.0781 12.7266C21.9531 12.8516 21.875 12.9375 21.8438 12.9844C21.8125 13.0312 21.7812 13.0781 21.75 13.125C21.625 13.1719 21.5391 13.2188 21.4922 13.2656C21.4609 13.3125 21.4219 13.3594 21.375 13.4062L21.1172 13.5703C21.0859 13.6328 21.0391 13.6719 20.9766 13.6875C20.9297 13.7031 20.8828 13.7266 20.8359 13.7578C20.6953 13.8672 20.6172 13.9297 20.6016 13.9453C20.6016 13.9609 20.5859 13.9688 20.5547 13.9688C20.3047 14.0156 20.1094 14.0625 19.9688 14.1094C19.8281 14.1562 19.6719 14.2109 19.5 14.2734C19.3594 14.2266 19.2812 14.2109 19.2656 14.2266C19.2656 14.2422 19.2578 14.25 19.2422 14.25C19.1328 14.2031 19.0547 14.1875 19.0078 14.2031C18.9609 14.2344 18.9219 14.2266 18.8906 14.1797C18.7969 14.1953 18.7109 14.2031 18.6328 14.2031C18.5703 14.2188 18.5 14.2188 18.4219 14.2031C18.3125 14.1094 18.2344 14.0625 18.1875 14.0625C18.0625 13.9844 17.9688 13.9453 17.9062 13.9453C17.8438 13.9609 17.7734 13.9531 17.6953 13.9219C17.6641 13.8438 17.6094 13.7891 17.5312 13.7578C17.4688 13.7266 17.4062 13.6719 17.3438 13.5938C17.2656 13.4375 17.2188 13.3516 17.2031 13.3359C17.1719 13.3203 17.1406 13.2969 17.1094 13.2656C17.0312 13.1094 16.9922 13.0234 16.9922 13.0078C16.9766 13.0078 16.9609 12.9922 16.9453 12.9609C16.8828 12.8047 16.8672 12.7188 16.8984 12.7031C16.9141 12.7031 16.9141 12.6719 16.8984 12.6094C16.8672 12.5781 16.8594 12.5391 16.875 12.4922C16.875 12.4453 16.8672 12.3828 16.8516 12.3047C16.8203 12.1797 16.8047 12.1016 16.8047 12.0703C16.8047 12.0391 16.8125 12.0078 16.8281 11.9766C16.8281 11.8203 16.8359 11.7344 16.8516 11.7188C16.8672 11.7031 16.875 11.6797 16.875 11.6484C16.8906 11.5859 16.8984 11.5234 16.8984 11.4609C16.8984 11.3984 16.9062 11.3438 16.9219 11.2969C17.0625 11.0469 17.1484 10.8672 17.1797 10.7578C17.2109 10.6328 17.2812 10.5547 17.3906 10.5234C17.4062 10.4453 17.4609 10.3438 17.5547 10.2188C17.6172 10.1094 17.6953 10.0234 17.7891 9.96094L17.9766 9.72656C18.0859 9.64844 18.1484 9.59375 18.1641 9.5625C18.1953 9.53125 18.25 9.52344 18.3281 9.53906C18.5 9.38281 18.5938 9.30469 18.6094 9.30469C18.6406 9.28906 18.7031 9.29688 18.7969 9.32812C18.7656 9.39062 18.7344 9.46094 18.7031 9.53906C18.6875 9.60156 18.6953 9.66406 18.7266 9.72656C18.6172 9.88281 18.5625 9.96875 18.5625 9.98438C18.5625 10 18.5547 10.0156 18.5391 10.0312C18.4922 10.1094 18.4609 10.1641 18.4453 10.1953C18.4297 10.2266 18.4062 10.2656 18.375 10.3125C18.3125 10.4531 18.2812 10.5312 18.2812 10.5469C18.2969 10.5625 18.3047 10.5859 18.3047 10.6172C18.2734 10.7891 18.2578 10.875 18.2578 10.875C18.2734 10.875 18.2812 10.8828 18.2812 10.8984C18.2969 11.0703 18.2969 11.1641 18.2812 11.1797C18.2812 11.1797 18.2812 11.1875 18.2812 11.2031C18.3125 11.2969 18.3203 11.3672 18.3047 11.4141C18.3047 11.4609 18.3203 11.5 18.3516 11.5312C18.3359 11.6875 18.3516 11.7734 18.3984 11.7891C18.4141 11.8359 18.4297 11.8828 18.4453 11.9297C18.4609 11.9766 18.4688 12.0234 18.4688 12.0703C18.6094 12.1953 18.7109 12.2891 18.7734 12.3516C18.8359 12.4141 18.9297 12.4453 19.0547 12.4453C19.1797 12.5859 19.2578 12.6484 19.2891 12.6328C19.3359 12.6328 19.3906 12.6328 19.4531 12.6328C19.5469 12.6641 19.6484 12.6953 19.7578 12.7266C19.8672 12.7578 19.9609 12.7812 20.0391 12.7969C20.1953 12.75 20.3047 12.7422 20.3672 12.7734C20.4766 12.7578 20.5625 12.7578 20.625 12.7734C20.7031 12.7891 20.7812 12.7891 20.8594 12.7734C20.9219 12.7422 20.9766 12.7031 21.0234 12.6562C21.0703 12.625 21.1328 12.6016 21.2109 12.5859C21.3516 12.5078 21.4297 12.4297 21.4453 12.3516C21.4766 12.2891 21.5312 12.2578 21.6094 12.2578C21.7344 12.0859 21.8047 11.9844 21.8203 11.9531C21.8516 11.9219 21.8906 11.8984 21.9375 11.8828C21.9531 11.8203 21.9688 11.7734 21.9844 11.7422C22.0156 11.7109 22.0391 11.6719 22.0547 11.625C22.0547 11.4531 22.0547 11.3594 22.0547 11.3438C22.0703 11.3281 22.0781 11.3047 22.0781 11.2734C22.1094 10.9922 22.1094 10.7891 22.0781 10.6641C22.0625 10.5391 22.0391 10.4297 22.0078 10.3359C21.9609 10.1953 21.9219 10.1094 21.8906 10.0781C21.875 10.0312 21.8516 9.99219 21.8203 9.96094C21.8047 9.82031 21.7734 9.73438 21.7266 9.70312C21.6797 9.65625 21.6562 9.59375 21.6562 9.51562C21.5781 9.3125 21.4766 9.19531 21.3516 9.16406L21.2344 8.85938ZM33.6328 12.1406C33.6953 12.0625 33.7422 12.0234 33.7734 12.0234C33.8047 12.0234 33.8359 12.0156 33.8672 12C34.1016 11.9375 34.25 11.9844 34.3125 12.1406C34.25 12.1719 34.1953 12.2109 34.1484 12.2578C34.1172 12.3203 34.0547 12.3516 33.9609 12.3516C33.8359 12.5078 33.7578 12.5781 33.7266 12.5625C33.6953 12.5625 33.6797 12.5859 33.6797 12.6328C33.4453 12.7578 33.2969 12.8594 33.2344 12.9375C33.1562 12.9531 33.0859 12.9766 33.0234 13.0078C32.9766 13.0391 32.9219 13.0391 32.8594 13.0078C32.8125 13.0547 32.7578 13.0859 32.6953 13.1016C32.6328 13.1328 32.5625 13.1641 32.4844 13.1953C32.2969 13.2734 32.1641 13.3438 32.0859 13.4062C32.0078 13.4688 31.9297 13.4688 31.8516 13.4062C31.6328 13.4531 31.4922 13.4609 31.4297 13.4297C31.3672 13.4141 31.2891 13.4141 31.1953 13.4297C30.9766 13.3203 30.8594 13.2422 30.8438 13.1953C30.7031 13.1172 30.625 13.0625 30.6094 13.0312C30.5938 13 30.5703 12.9609 30.5391 12.9141C30.5078 12.8516 30.4688 12.7734 30.4219 12.6797C30.3906 12.6016 30.375 12.5078 30.375 12.3984C30.3281 12.2891 30.3047 12.2188 30.3047 12.1875C30.3203 12.1562 30.3047 12.1406 30.2578 12.1406C30.2891 12.0938 30.2969 12.0547 30.2812 12.0234C30.2812 11.9766 30.2812 11.9141 30.2812 11.8359C30.25 11.6484 30.2422 11.5312 30.2578 11.4844C30.2734 11.4375 30.2422 11.3984 30.1641 11.3672C30.2578 11.3047 30.2578 11.2109 30.1641 11.0859C30.1953 11.0234 30.2188 10.9688 30.2344 10.9219C30.25 10.8594 30.25 10.7891 30.2344 10.7109C30.2344 10.5859 30.2109 10.4609 30.1641 10.3359C30.1641 10.2891 30.1719 10.2422 30.1875 10.1953C30.2031 10.1484 30.2109 10.1016 30.2109 10.0547C30.1953 9.86719 30.1953 9.75 30.2109 9.70312C30.2266 9.64062 30.2266 9.58594 30.2109 9.53906C30.2266 9.39844 30.2344 9.30469 30.2344 9.25781C30.25 9.21094 30.25 9.16406 30.2344 9.11719C30.2188 9.05469 30.1953 8.98438 30.1641 8.90625C30.2109 8.75 30.2344 8.64062 30.2344 8.57812C30.2344 8.34375 30.2188 8.20312 30.1875 8.15625C30.1562 8.09375 30.1328 8.03125 30.1172 7.96875C30.0234 8.09375 29.9688 8.16406 29.9531 8.17969C29.9375 8.19531 29.9297 8.21875 29.9297 8.25C29.7891 8.35938 29.7109 8.42188 29.6953 8.4375C29.6797 8.4375 29.6797 8.45312 29.6953 8.48438C29.6016 8.57812 29.5469 8.64062 29.5312 8.67188C29.5156 8.6875 29.4922 8.70312 29.4609 8.71875C29.3984 8.84375 29.3516 8.91406 29.3203 8.92969C29.3047 8.92969 29.2812 8.94531 29.25 8.97656C29.1094 9.11719 29.0547 9.21094 29.0859 9.25781C28.9922 9.33594 28.9375 9.39062 28.9219 9.42188C28.9062 9.4375 28.8984 9.46875 28.8984 9.51562C28.7891 9.67188 28.7266 9.76562 28.7109 9.79688C28.6953 9.8125 28.6797 9.83594 28.6641 9.86719C28.5078 9.99219 28.4062 10.0703 28.3594 10.1016C28.3125 10.1172 28.2734 10.1406 28.2422 10.1719C28.1953 10.3125 28.1406 10.3828 28.0781 10.3828C27.9531 10.4766 27.8906 10.5391 27.8906 10.5703C27.7656 10.6172 27.6797 10.6641 27.6328 10.7109C27.5859 10.7578 27.5391 10.7969 27.4922 10.8281C27.4609 10.8594 27.4297 10.8906 27.3984 10.9219C27.3672 10.9531 27.3359 10.9844 27.3047 11.0156C27.1484 11.0781 27.0625 11.1172 27.0469 11.1328C27.0312 11.1484 26.9844 11.1641 26.9062 11.1797C26.7656 11.2891 26.6641 11.375 26.6016 11.4375C26.5391 11.4844 26.4688 11.5312 26.3906 11.5781C26.1875 11.6094 26.0703 11.6094 26.0391 11.5781C26.0078 11.5312 25.9531 11.5 25.875 11.4844C25.7812 11.3281 25.7266 11.2344 25.7109 11.2031C25.6484 11.0312 25.6094 10.9297 25.5938 10.8984C25.5781 10.8516 25.5625 10.8047 25.5469 10.7578C25.5938 10.6484 25.5938 10.5312 25.5469 10.4062C25.5156 10.2812 25.5312 10.1719 25.5938 10.0781C25.5625 10.0156 25.5469 9.95312 25.5469 9.89062C25.5625 9.82812 25.5703 9.76562 25.5703 9.70312C25.5703 9.625 25.5625 9.5625 25.5469 9.51562C25.5312 9.45312 25.5234 9.39844 25.5234 9.35156C25.5391 9.25781 25.5391 9.17969 25.5234 9.11719C25.5234 9.03906 25.5312 8.97656 25.5469 8.92969C25.5469 8.89844 25.5625 8.85938 25.5938 8.8125C25.625 8.76562 25.625 8.71094 25.5938 8.64844C25.5938 8.49219 25.6016 8.39844 25.6172 8.36719C25.6328 8.32031 25.625 8.25781 25.5938 8.17969C25.6406 8.08594 25.6562 7.99219 25.6406 7.89844C25.625 7.78906 25.625 7.64844 25.6406 7.47656C25.6406 7.38281 25.6484 7.29688 25.6641 7.21875C25.6797 7.14062 25.6641 7.0625 25.6172 6.98438C25.6016 6.8125 25.6016 6.65625 25.6172 6.51562C25.6484 6.35938 25.6172 6.24219 25.5234 6.16406C25.5078 6.03906 25.4844 5.96094 25.4531 5.92969C25.4219 5.89844 25.3984 5.85938 25.3828 5.8125C25.1953 5.85938 25.0859 5.89062 25.0547 5.90625C25.0234 5.92188 24.9922 5.9375 24.9609 5.95312C24.8516 5.96875 24.7734 5.99219 24.7266 6.02344C24.6797 6.03906 24.6328 6.05469 24.5859 6.07031C24.5547 6.03906 24.5156 6.02344 24.4688 6.02344C24.4219 6.00781 24.375 5.98438 24.3281 5.95312C24.3281 5.875 24.3438 5.8125 24.375 5.76562C24.4062 5.71875 24.4297 5.65625 24.4453 5.57812C24.5391 5.51562 24.6016 5.48438 24.6328 5.48438C24.6484 5.46875 24.6641 5.44531 24.6797 5.41406C24.7891 5.28906 24.8516 5.22656 24.8672 5.22656C24.8828 5.22656 24.9062 5.21875 24.9375 5.20312C25.0625 5.09375 25.125 5.01562 25.125 4.96875C25.25 4.92188 25.3438 4.89062 25.4062 4.875C25.4688 4.85938 25.5312 4.83594 25.5938 4.80469C25.7656 4.69531 25.875 4.64062 25.9219 4.64062C25.9688 4.625 26.0078 4.60938 26.0391 4.59375C26.2109 4.54688 26.2969 4.51562 26.2969 4.5C26.3125 4.46875 26.3359 4.45312 26.3672 4.45312C26.4297 4.46875 26.4844 4.47656 26.5312 4.47656C26.5781 4.46094 26.6406 4.44531 26.7188 4.42969C26.8438 4.36719 26.9219 4.375 26.9531 4.45312C26.9844 4.51562 27.0234 4.5625 27.0703 4.59375C27.0703 4.70312 27.0859 4.78906 27.1172 4.85156C27.1484 4.89844 27.1875 4.94531 27.2344 4.99219C27.25 5.07031 27.25 5.14844 27.2344 5.22656C27.2188 5.30469 27.2266 5.36719 27.2578 5.41406C27.2422 5.61719 27.2344 5.72656 27.2344 5.74219C27.2344 5.75781 27.2344 5.80469 27.2344 5.88281C27.2344 5.99219 27.2344 6.0625 27.2344 6.09375C27.25 6.10938 27.2578 6.125 27.2578 6.14062C27.2578 6.20312 27.2344 6.25781 27.1875 6.30469C27.1562 6.35156 27.1328 6.40625 27.1172 6.46875C27.1328 6.5 27.1484 6.53906 27.1641 6.58594C27.1953 6.61719 27.2188 6.66406 27.2344 6.72656C27.2344 6.89844 27.2422 7.00781 27.2578 7.05469C27.2734 7.08594 27.2422 7.11719 27.1641 7.14844C27.1953 7.36719 27.2188 7.52344 27.2344 7.61719C27.25 7.69531 27.2266 7.77344 27.1641 7.85156C27.2109 7.92969 27.2266 8.00781 27.2109 8.08594C27.2109 8.16406 27.2266 8.24219 27.2578 8.32031C27.1797 8.42969 27.1484 8.5 27.1641 8.53125C27.1953 8.5625 27.2188 8.60156 27.2344 8.64844C27.1719 8.75781 27.1719 8.84375 27.2344 8.90625C27.2344 9.04688 27.2344 9.17188 27.2344 9.28125C27.2344 9.375 27.2344 9.47656 27.2344 9.58594C27.2344 9.66406 27.2344 9.74219 27.2344 9.82031C27.2344 9.88281 27.25 9.92969 27.2812 9.96094C27.3281 9.92969 27.375 9.90625 27.4219 9.89062C27.4688 9.85938 27.5078 9.82812 27.5391 9.79688L27.6797 9.5625C27.7422 9.45312 27.7812 9.39844 27.7969 9.39844C27.8281 9.38281 27.8359 9.34375 27.8203 9.28125C27.9453 9.17188 28.0078 9.11719 28.0078 9.11719C28.0234 9.11719 28.0391 9.10938 28.0547 9.09375C28.1953 8.96875 28.2656 8.89844 28.2656 8.88281C28.2656 8.85156 28.2812 8.82031 28.3125 8.78906C28.4688 8.61719 28.5625 8.52344 28.5938 8.50781C28.6406 8.39844 28.7031 8.32031 28.7812 8.27344C28.7969 8.14844 28.8594 8.04688 28.9688 7.96875C29 7.82812 29.0469 7.74219 29.1094 7.71094C29.1875 7.57031 29.2266 7.47656 29.2266 7.42969C29.2422 7.38281 29.2656 7.34375 29.2969 7.3125C29.375 7.23438 29.4219 7.17969 29.4375 7.14844C29.4688 7.10156 29.4922 7.0625 29.5078 7.03125C29.5703 6.89062 29.6094 6.82031 29.625 6.82031C29.6406 6.82031 29.6562 6.8125 29.6719 6.79688C29.75 6.64062 29.7891 6.55469 29.7891 6.53906C29.8047 6.52344 29.8125 6.5 29.8125 6.46875C29.9219 6.32812 29.9922 6.23438 30.0234 6.1875C30.0547 6.125 30.0859 6.0625 30.1172 6C30.1172 5.84375 30.1328 5.76562 30.1641 5.76562C30.2109 5.76562 30.2422 5.75 30.2578 5.71875C30.2422 5.59375 30.2812 5.5 30.375 5.4375C30.5 5.25 30.5938 5.14062 30.6562 5.10938C30.7344 5.07812 30.8125 5.04688 30.8906 5.01562C30.8594 4.92188 30.875 4.86719 30.9375 4.85156C31 4.82031 31.0469 4.78125 31.0781 4.73438C31.2344 4.76562 31.3203 4.76562 31.3359 4.73438C31.3672 4.70312 31.4062 4.69531 31.4531 4.71094C31.5156 4.63281 31.5938 4.57031 31.6875 4.52344C31.8438 4.63281 31.9375 4.70312 31.9688 4.73438C32.0156 4.75 32.0547 4.77344 32.0859 4.80469C32.0391 4.99219 32 5.10938 31.9688 5.15625C31.9531 5.1875 31.9453 5.22656 31.9453 5.27344C31.9453 5.41406 31.9375 5.51562 31.9219 5.57812C31.9062 5.625 31.9141 5.67969 31.9453 5.74219C31.9141 5.83594 31.8984 5.92969 31.8984 6.02344C31.8516 6.13281 31.8359 6.21094 31.8516 6.25781C31.8672 6.28906 31.8594 6.30469 31.8281 6.30469C31.8438 6.44531 31.8516 6.54688 31.8516 6.60938C31.8516 6.76562 31.8516 6.90625 31.8516 7.03125C31.8672 7.25 31.8828 7.40625 31.8984 7.5C31.8828 7.71875 31.875 7.84375 31.875 7.875C31.9062 7.96875 31.9141 8.0625 31.8984 8.15625C31.8984 8.25 31.9297 8.33594 31.9922 8.41406C31.9766 8.53906 31.9688 8.64844 31.9688 8.74219C31.9688 8.82031 31.9531 8.875 31.9219 8.90625C31.9375 8.9375 31.9375 8.98438 31.9219 9.04688C31.9219 9.09375 31.9219 9.14062 31.9219 9.1875C31.9219 9.21875 31.9297 9.25781 31.9453 9.30469C31.9609 9.35156 31.9688 9.39844 31.9688 9.44531C31.9375 9.64844 31.9219 9.77344 31.9219 9.82031C31.9375 9.85156 31.9453 9.89062 31.9453 9.9375C31.9297 9.98438 31.9141 10.0312 31.8984 10.0781C31.8828 10.125 31.8828 10.1719 31.8984 10.2188C31.9297 10.375 31.9531 10.4766 31.9688 10.5234C32 10.5547 32.0312 10.5859 32.0625 10.6172C32.0312 10.7578 32.0156 10.8359 32.0156 10.8516C32.0312 10.8672 32.0391 10.8906 32.0391 10.9219C32.0078 11.0469 32.0078 11.1406 32.0391 11.2031C32.0547 11.3594 32.0625 11.4688 32.0625 11.5312C32.0625 11.5938 32.0703 11.6641 32.0859 11.7422C32.1641 11.9453 32.2266 12.0703 32.2734 12.1172C32.3359 12.1641 32.3906 12.2188 32.4375 12.2812C32.625 12.375 32.7422 12.4141 32.7891 12.3984C32.8516 12.3984 32.9219 12.3984 33 12.3984C33.0469 12.3984 33.0859 12.3984 33.1172 12.3984C33.1484 12.4141 33.2031 12.4062 33.2812 12.375L33.6328 12.1406ZM33.6328 5.20312C33.4141 5.32812 33.2656 5.41406 33.1875 5.46094C33.0938 5.50781 32.9844 5.53906 32.8594 5.55469C32.8594 5.49219 32.8281 5.46094 32.7656 5.46094C32.7031 5.46094 32.6562 5.44531 32.625 5.41406C32.6719 5.27344 32.7031 5.19531 32.7188 5.17969C32.7344 5.14844 32.7422 5.11719 32.7422 5.08594C32.7734 5.05469 32.8125 5.03125 32.8594 5.01562C32.9062 4.98438 32.9297 4.9375 32.9297 4.875C33.1172 4.76562 33.2344 4.69531 33.2812 4.66406C33.3125 4.61719 33.3516 4.57812 33.3984 4.54688C33.4922 4.45312 33.5469 4.40625 33.5625 4.40625C33.5781 4.39062 33.6016 4.38281 33.6328 4.38281C33.8203 4.28906 33.9297 4.21875 33.9609 4.17188C34.0078 4.125 34.0781 4.10156 34.1719 4.10156C34.2188 4.05469 34.2656 4.02344 34.3125 4.00781C34.375 3.97656 34.4219 3.9375 34.4531 3.89062C34.6562 3.84375 34.8438 3.77344 35.0156 3.67969C35.0625 3.64844 35.125 3.64062 35.2031 3.65625C35.2812 3.67188 35.3359 3.66406 35.3672 3.63281C35.4297 3.66406 35.4922 3.69531 35.5547 3.72656C35.6172 3.75781 35.6875 3.77344 35.7656 3.77344C35.875 3.86719 36.0156 3.9375 36.1875 3.98438C36.2188 4.0625 36.2656 4.125 36.3281 4.17188C36.3906 4.20312 36.4531 4.23438 36.5156 4.26562C36.5469 4.4375 36.5781 4.53906 36.6094 4.57031C36.6562 4.60156 36.6953 4.65625 36.7266 4.73438C36.7422 4.84375 36.7578 4.92188 36.7734 4.96875C36.7891 5 36.8047 5.03125 36.8203 5.0625C36.7734 5.1875 36.7656 5.26562 36.7969 5.29688C36.8281 5.3125 36.8516 5.34375 36.8672 5.39062C36.8516 5.59375 36.875 5.71094 36.9375 5.74219C36.9844 5.85156 37 5.91406 36.9844 5.92969C36.9688 5.94531 36.9609 5.96875 36.9609 6C36.9922 6.09375 37 6.16406 36.9844 6.21094C36.9688 6.25781 36.9688 6.3125 36.9844 6.375C37.0625 6.57812 37.0938 6.69531 37.0781 6.72656C37.0625 6.75781 37.0547 6.79688 37.0547 6.84375C37.2109 6.85938 37.2891 6.78125 37.2891 6.60938C37.3359 6.57812 37.3672 6.53906 37.3828 6.49219C37.4141 6.44531 37.4609 6.40625 37.5234 6.375C37.5703 6.17188 37.5938 6.07031 37.5938 6.07031C37.6875 5.91406 37.7422 5.82812 37.7578 5.8125C37.7891 5.78125 37.8203 5.75781 37.8516 5.74219C37.8516 5.66406 37.8672 5.61719 37.8984 5.60156C37.9453 5.58594 37.9688 5.53906 37.9688 5.46094C38.0781 5.35156 38.1641 5.27344 38.2266 5.22656C38.2891 5.17969 38.3281 5.11719 38.3438 5.03906C38.4062 5.02344 38.5 4.98438 38.625 4.92188C38.7188 4.82812 38.7812 4.76562 38.8125 4.73438C38.8438 4.6875 38.875 4.64062 38.9062 4.59375C39 4.54688 39.0625 4.5 39.0938 4.45312C39.125 4.40625 39.1562 4.35938 39.1875 4.3125C39.2969 4.375 39.3984 4.38281 39.4922 4.33594C39.6797 4.22656 39.7891 4.15625 39.8203 4.125C39.8516 4.09375 39.9062 4.08594 39.9844 4.10156C40.0312 4.07031 40.0938 4.04688 40.1719 4.03125C40.25 4 40.3281 3.96875 40.4062 3.9375C40.5781 3.89062 40.6719 3.85938 40.6875 3.84375C40.7188 3.8125 40.75 3.79688 40.7812 3.79688C41.0156 3.78125 41.1953 3.78906 41.3203 3.82031C41.4453 3.85156 41.5781 3.85938 41.7188 3.84375C41.7656 3.875 41.8125 3.90625 41.8594 3.9375C41.9062 3.96875 41.9531 4 42 4.03125C42.0469 4.26562 42.0938 4.39844 42.1406 4.42969C42.1875 4.44531 42.2344 4.46875 42.2812 4.5C42.3281 4.67188 42.375 4.79688 42.4219 4.875C42.4688 4.95312 42.5312 5.02344 42.6094 5.08594C42.5938 5.14844 42.6016 5.19531 42.6328 5.22656C42.6641 5.25781 42.6797 5.30469 42.6797 5.36719C42.7109 5.44531 42.7266 5.52344 42.7266 5.60156C42.7422 5.67969 42.7578 5.74219 42.7734 5.78906C42.8516 5.77344 42.9141 5.72656 42.9609 5.64844C43.0078 5.55469 43.0234 5.46875 43.0078 5.39062C43.1328 5.23438 43.2422 5.11719 43.3359 5.03906C43.4297 4.96094 43.4844 4.84375 43.5 4.6875C43.625 4.53125 43.7031 4.44531 43.7344 4.42969C43.7656 4.39844 43.7812 4.35156 43.7812 4.28906C43.8438 4.25781 43.8906 4.23438 43.9219 4.21875C43.9688 4.1875 44.0156 4.15625 44.0625 4.125C44.125 4.03125 44.1641 3.96875 44.1797 3.9375C44.1953 3.90625 44.2188 3.88281 44.25 3.86719C44.3906 3.75781 44.4688 3.70312 44.4844 3.70312C44.5 3.70312 44.5234 3.69531 44.5547 3.67969C44.6016 3.60156 44.6484 3.55469 44.6953 3.53906C44.7422 3.52344 44.7812 3.49219 44.8125 3.44531C44.9844 3.36719 45.0703 3.30469 45.0703 3.25781C45.0703 3.19531 45.0859 3.14844 45.1172 3.11719C45.1953 3.14844 45.25 3.16406 45.2812 3.16406C45.3281 3.16406 45.375 3.16406 45.4219 3.16406C45.4844 3.14844 45.5312 3.125 45.5625 3.09375C45.6094 3.04688 45.6719 3.02344 45.75 3.02344C45.9375 2.91406 46.0703 2.85938 46.1484 2.85938C46.2266 2.84375 46.3047 2.83594 46.3828 2.83594C46.4922 2.85156 46.5938 2.88281 46.6875 2.92969C46.7969 2.96094 46.8906 2.96094 46.9688 2.92969C47.0625 3.02344 47.1562 3.07812 47.25 3.09375C47.2812 3.1875 47.3125 3.26562 47.3438 3.32812C47.3906 3.39062 47.4297 3.46094 47.4609 3.53906C47.5078 3.66406 47.5391 3.75781 47.5547 3.82031C47.5703 3.88281 47.5859 3.95312 47.6016 4.03125C47.6797 4.15625 47.7109 4.23438 47.6953 4.26562C47.6953 4.29688 47.6953 4.32812 47.6953 4.35938C47.7578 4.57812 47.7969 4.71094 47.8125 4.75781C47.8438 4.80469 47.8438 4.86719 47.8125 4.94531C47.8594 5.00781 47.8906 5.11719 47.9062 5.27344C47.8906 5.41406 47.8906 5.5 47.9062 5.53125C47.9219 5.54688 47.9375 5.57031 47.9531 5.60156C47.9688 5.72656 47.9766 5.84375 47.9766 5.95312C47.9766 6.04688 48 6.14844 48.0469 6.25781C48.0156 6.32031 48 6.39062 48 6.46875C48.0156 6.53125 48.0312 6.60156 48.0469 6.67969C48.0625 6.83594 48.0625 6.91406 48.0469 6.91406C48.0312 6.91406 48.0312 6.92188 48.0469 6.9375C48.0469 7.01562 48.0547 7.08594 48.0703 7.14844C48.1016 7.19531 48.1172 7.25781 48.1172 7.33594C48.0859 7.46094 48.0781 7.54688 48.0938 7.59375C48.125 7.64062 48.1562 7.69531 48.1875 7.75781C48.1406 7.88281 48.1094 7.97656 48.0938 8.03906C48.0938 8.10156 48.1172 8.14062 48.1641 8.15625C48.1328 8.29688 48.1016 8.42969 48.0703 8.55469C48.0547 8.66406 48.0781 8.74219 48.1406 8.78906C48.125 9.02344 48.1094 9.17969 48.0938 9.25781C48.0781 9.33594 48.0703 9.40625 48.0703 9.46875C48.1016 9.5625 48.1094 9.625 48.0938 9.65625C48.0938 9.6875 48.0938 9.71094 48.0938 9.72656C48.0938 9.77344 48.0859 9.82812 48.0703 9.89062C48.0703 9.95312 48.0781 10.0078 48.0938 10.0547C48.0469 10.1953 48.0312 10.2812 48.0469 10.3125C48.0781 10.3281 48.1016 10.3672 48.1172 10.4297C48.1953 10.5078 48.2109 10.5547 48.1641 10.5703C48.1328 10.5859 48.125 10.625 48.1406 10.6875C48.125 10.7656 48.1406 10.8438 48.1875 10.9219C48.2344 11 48.2188 11.0703 48.1406 11.1328C48.1719 11.1641 48.1875 11.2109 48.1875 11.2734C48.2031 11.3359 48.2344 11.3828 48.2812 11.4141C48.2812 11.5391 48.2891 11.625 48.3047 11.6719C48.3203 11.7188 48.3203 11.7734 48.3047 11.8359C48.3047 11.9766 48.3203 12.0938 48.3516 12.1875C48.3828 12.2969 48.3984 12.4141 48.3984 12.5391C48.4297 12.6641 48.4297 12.7188 48.3984 12.7031C48.3828 12.7031 48.3672 12.7344 48.3516 12.7969C48.4297 12.9688 48.4453 13.0781 48.3984 13.125C48.4297 13.2812 48.4531 13.3672 48.4688 13.3828C48.5156 13.5547 48.5469 13.6484 48.5625 13.6641C48.5781 13.6953 48.5859 13.7188 48.5859 13.7344C48.6172 13.9219 48.6562 14.0469 48.7031 14.1094C48.75 14.1875 48.7891 14.2656 48.8203 14.3438C48.8672 14.375 48.9062 14.4141 48.9375 14.4609C48.9844 14.5078 49.0234 14.5469 49.0547 14.5781C49.1016 14.6094 49.1484 14.6484 49.1953 14.6953C49.2422 14.7422 49.2812 14.7891 49.3125 14.8359C49.375 14.8359 49.4219 14.8516 49.4531 14.8828C49.4844 14.9141 49.5156 14.9453 49.5469 14.9766C49.625 14.9922 49.6953 15.0078 49.7578 15.0234C49.8359 15.0391 49.9141 15.0469 49.9922 15.0469C50.1641 15.0312 50.2656 15.0234 50.2969 15.0234C50.3281 15.0391 50.3594 15.0391 50.3906 15.0234C50.5625 14.9766 50.6562 14.9453 50.6719 14.9297C50.7188 14.8984 50.7578 14.8594 50.7891 14.8125C50.8359 14.7656 50.8984 14.7344 50.9766 14.7188C51.0078 14.6875 51.0469 14.6406 51.0938 14.5781C51.1406 14.5312 51.2031 14.5078 51.2812 14.5078C51.4219 14.5078 51.5 14.5781 51.5156 14.7188C51.4375 14.7188 51.4062 14.7656 51.4219 14.8594C51.4531 14.9531 51.4219 14.9922 51.3281 14.9766C51.3438 15.0391 51.3203 15.0781 51.2578 15.0938C51.1953 15.1094 51.1484 15.1328 51.1172 15.1641C50.9609 15.1953 50.8594 15.2188 50.8125 15.2344C50.7812 15.2656 50.7344 15.2812 50.6719 15.2812C50.6406 15.3125 50.6094 15.3281 50.5781 15.3281C50.5469 15.3438 50.4922 15.3672 50.4141 15.3984C50.3828 15.4141 50.3438 15.4375 50.2969 15.4688C50.25 15.5 50.2031 15.5234 50.1562 15.5391C50.0625 15.5703 49.9766 15.5703 49.8984 15.5391C49.8516 15.6172 49.7891 15.6562 49.7109 15.6562C49.6328 15.6719 49.5391 15.6953 49.4297 15.7266C49.1172 15.7734 48.9219 15.7891 48.8438 15.7734C48.7344 15.8359 48.6719 15.8516 48.6562 15.8203C48.6406 15.7891 48.6172 15.7734 48.5859 15.7734C48.4766 15.7578 48.4141 15.7578 48.3984 15.7734C48.3828 15.7891 48.3594 15.7969 48.3281 15.7969L48.0469 15.7266C48.0156 15.6016 47.9766 15.5312 47.9297 15.5156C47.8984 15.5 47.8828 15.4766 47.8828 15.4453C47.7578 15.4297 47.6797 15.4062 47.6484 15.375C47.6172 15.3594 47.5625 15.3672 47.4844 15.3984C47.375 15.3203 47.3125 15.2578 47.2969 15.2109C47.2969 15.1641 47.2734 15.1328 47.2266 15.1172C47.0703 14.9609 46.9766 14.8438 46.9453 14.7656C46.9297 14.6875 46.9219 14.5859 46.9219 14.4609C46.8125 14.2578 46.75 14.125 46.7344 14.0625C46.7188 14.0156 46.7266 13.9453 46.7578 13.8516C46.6797 13.7422 46.6484 13.625 46.6641 13.5C46.6953 13.375 46.6719 13.2734 46.5938 13.1953C46.625 13.1328 46.625 13.0625 46.5938 12.9844C46.5625 12.9219 46.5625 12.8516 46.5938 12.7734C46.5469 12.6641 46.5234 12.5938 46.5234 12.5625C46.5391 12.5469 46.5625 12.5312 46.5938 12.5156C46.5312 12.3594 46.4844 12.2266 46.4531 12.1172C46.4219 11.9453 46.4062 11.8516 46.4062 11.8359C46.4219 11.8047 46.4062 11.7891 46.3594 11.7891C46.375 11.6328 46.3672 11.5234 46.3359 11.4609C46.3203 11.2891 46.3125 11.2031 46.3125 11.2031C46.3281 11.2031 46.3359 11.1953 46.3359 11.1797C46.3203 11.1016 46.3125 11.0391 46.3125 10.9922C46.3281 10.9453 46.3281 10.8984 46.3125 10.8516C46.3125 10.7422 46.3047 10.625 46.2891 10.5C46.2891 10.375 46.2891 10.2656 46.2891 10.1719C46.3047 10 46.3047 9.89844 46.2891 9.86719C46.2891 9.82031 46.2891 9.78125 46.2891 9.75C46.3047 9.6875 46.3203 9.63281 46.3359 9.58594C46.3516 9.53906 46.3594 9.49219 46.3594 9.44531C46.3594 9.39844 46.3516 9.34375 46.3359 9.28125C46.3359 9.21875 46.3672 9.16406 46.4297 9.11719C46.3828 8.92969 46.3594 8.80469 46.3594 8.74219C46.3125 8.55469 46.2969 8.45312 46.3125 8.4375C46.3438 8.42188 46.3594 8.39844 46.3594 8.36719C46.375 8.28906 46.3594 8.17969 46.3125 8.03906V7.75781L46.2656 7.35938C46.2812 7.3125 46.2734 7.24219 46.2422 7.14844C46.2266 7.05469 46.2266 6.99219 46.2422 6.96094C46.2734 6.94531 46.2734 6.90625 46.2422 6.84375C46.2266 6.76562 46.2031 6.6875 46.1719 6.60938C46.1719 6.5625 46.1797 6.51562 46.1953 6.46875C46.2109 6.42188 46.1875 6.38281 46.125 6.35156C46.1719 6.27344 46.1719 6.20312 46.125 6.14062C46.0938 6.07812 46.0859 6.00781 46.1016 5.92969C46.0234 5.82031 45.9922 5.75781 46.0078 5.74219C46.0391 5.72656 46.0547 5.69531 46.0547 5.64844C46.0234 5.58594 46.0078 5.53125 46.0078 5.48438C46.0078 5.42188 46 5.35156 45.9844 5.27344C45.9688 5.22656 45.9453 5.17969 45.9141 5.13281C45.8828 5.08594 45.875 5.03125 45.8906 4.96875C45.8281 4.875 45.7969 4.78906 45.7969 4.71094C45.7344 4.61719 45.6875 4.52344 45.6562 4.42969C45.625 4.33594 45.5859 4.25 45.5391 4.17188C45.4609 4.15625 45.3984 4.14062 45.3516 4.125C45.3203 4.09375 45.2578 4.07812 45.1641 4.07812C45.0547 4.26562 44.9844 4.39062 44.9531 4.45312C44.8906 4.5 44.8359 4.5625 44.7891 4.64062C44.7422 4.70312 44.6953 4.77344 44.6484 4.85156C44.6016 5.02344 44.5781 5.11719 44.5781 5.13281C44.5781 5.14844 44.5703 5.17188 44.5547 5.20312C44.4297 5.375 44.375 5.46875 44.3906 5.48438C44.4062 5.48438 44.4141 5.5 44.4141 5.53125C44.3672 5.67188 44.3047 5.78125 44.2266 5.85938C44.1484 5.92188 44.1094 6 44.1094 6.09375C44.0312 6.34375 43.9375 6.5 43.8281 6.5625C43.8594 6.64062 43.8594 6.70312 43.8281 6.75C43.7969 6.79688 43.7656 6.84375 43.7344 6.89062C43.7188 7.10938 43.7031 7.25781 43.6875 7.33594C43.6719 7.39844 43.6484 7.46094 43.6172 7.52344C43.6172 7.67969 43.6016 7.77344 43.5703 7.80469C43.5547 7.82031 43.5391 7.84375 43.5234 7.875L43.4531 8.17969C43.4219 8.30469 43.4062 8.39062 43.4062 8.4375C43.4062 8.46875 43.3828 8.5 43.3359 8.53125C43.3359 8.65625 43.3203 8.76562 43.2891 8.85938C43.2734 8.90625 43.2656 8.98438 43.2656 9.09375C43.2812 9.1875 43.2656 9.25781 43.2188 9.30469C43.25 9.47656 43.2578 9.59375 43.2422 9.65625C43.2422 9.71875 43.2422 9.77344 43.2422 9.82031C43.2578 9.92969 43.2578 10 43.2422 10.0312C43.2422 10.0469 43.2422 10.0703 43.2422 10.1016C43.2578 10.1484 43.2734 10.1953 43.2891 10.2422C43.3047 10.2891 43.3203 10.3359 43.3359 10.3828C43.1484 10.5391 43.0469 10.6641 43.0312 10.7578C42.9219 10.7578 42.8203 10.7734 42.7266 10.8047C42.5859 10.8828 42.4844 10.9531 42.4219 11.0156C42.3594 11.0625 42.2656 11.0781 42.1406 11.0625C42.0312 11.1406 41.9609 11.1875 41.9297 11.2031C41.9141 11.2188 41.8906 11.2109 41.8594 11.1797C41.7969 11.2422 41.7109 11.2656 41.6016 11.25C41.5078 11.2188 41.4531 11.1641 41.4375 11.0859C41.4531 11.0078 41.4609 10.9297 41.4609 10.8516C41.4766 10.7734 41.5078 10.6953 41.5547 10.6172C41.5234 10.4922 41.4922 10.3984 41.4609 10.3359C41.4453 10.2578 41.4219 10.2031 41.3906 10.1719C41.3594 10.0156 41.3906 9.86719 41.4844 9.72656C41.4531 9.61719 41.4375 9.55469 41.4375 9.53906C41.4531 9.52344 41.4609 9.5 41.4609 9.46875C41.4297 9.375 41.4141 9.28906 41.4141 9.21094C41.3672 9.02344 41.3516 8.90625 41.3672 8.85938C41.3984 8.79688 41.4141 8.74219 41.4141 8.69531C41.3516 8.55469 41.3281 8.48438 41.3438 8.48438C41.3594 8.46875 41.3672 8.44531 41.3672 8.41406C41.3203 8.35156 41.2969 8.24219 41.2969 8.08594C41.25 7.91406 41.1953 7.78125 41.1328 7.6875C41.1484 7.51562 41.1406 7.42188 41.1094 7.40625C41.0938 7.39062 41.0781 7.36719 41.0625 7.33594C41.0625 7.24219 41.0703 7.16406 41.0859 7.10156C41.1172 7.02344 41.1016 6.97656 41.0391 6.96094C41.0703 6.77344 41.0781 6.65625 41.0625 6.60938C41.0625 6.5625 41.0703 6.52344 41.0859 6.49219C40.9922 6.22656 40.8906 6.0625 40.7812 6C40.7344 5.8125 40.6953 5.70312 40.6641 5.67188C40.6328 5.64062 40.625 5.58594 40.6406 5.50781C40.5312 5.33594 40.4609 5.24219 40.4297 5.22656C40.3984 5.21094 40.3828 5.17969 40.3828 5.13281C40.3516 5.10156 40.3047 5.08594 40.2422 5.08594C40.1953 5.07031 40.1641 5.04688 40.1484 5.01562C40.0547 5.03125 39.9609 5.03906 39.8672 5.03906C39.7734 5.02344 39.6797 5.01562 39.5859 5.01562C39.4766 5.17188 39.3984 5.27344 39.3516 5.32031C39.3203 5.35156 39.2969 5.39844 39.2812 5.46094C39.1406 5.63281 39.0781 5.72656 39.0938 5.74219C39.0781 5.78906 39.0547 5.83594 39.0234 5.88281C39.0078 5.91406 38.9844 5.96094 38.9531 6.02344C38.875 6.11719 38.8281 6.1875 38.8125 6.23438C38.8125 6.26562 38.7969 6.28125 38.7656 6.28125C38.7344 6.39062 38.6641 6.52344 38.5547 6.67969C38.4766 6.82031 38.4375 6.91406 38.4375 6.96094C38.4531 7.00781 38.4453 7.04688 38.4141 7.07812C38.3203 7.21875 38.2734 7.30469 38.2734 7.33594C38.2891 7.36719 38.2891 7.39844 38.2734 7.42969C38.1797 7.53906 38.1328 7.64844 38.1328 7.75781C38.1016 7.91406 38.0703 8.01562 38.0391 8.0625C38.0078 8.10938 37.9766 8.16406 37.9453 8.22656C37.8984 8.36719 37.875 8.45312 37.875 8.48438C37.8906 8.51562 37.8828 8.53906 37.8516 8.55469C37.8516 8.69531 37.8359 8.78125 37.8047 8.8125C37.7891 8.82812 37.7891 8.86719 37.8047 8.92969C37.7422 8.96094 37.7031 9.02344 37.6875 9.11719C37.6719 9.19531 37.6406 9.25781 37.5938 9.30469C37.6094 9.42969 37.6172 9.51562 37.6172 9.5625C37.6172 9.59375 37.6016 9.63281 37.5703 9.67969C37.5234 9.74219 37.5 9.80469 37.5 9.86719C37.5 9.91406 37.4844 9.95312 37.4531 9.98438C37.5 10.0625 37.5 10.1406 37.4531 10.2188C37.4062 10.2812 37.3828 10.3516 37.3828 10.4297C37.3984 10.5859 37.3984 10.6797 37.3828 10.7109C37.3828 10.7266 37.3828 10.75 37.3828 10.7812C37.3672 10.875 37.3594 10.9531 37.3594 11.0156C37.3594 11.0625 37.3672 11.1016 37.3828 11.1328C37.3672 11.2891 37.375 11.4062 37.4062 11.4844C37.4531 11.5469 37.4766 11.625 37.4766 11.7188C37.5234 11.9062 37.5234 12.0234 37.4766 12.0703C37.4453 12.1016 37.4062 12.1406 37.3594 12.1875C37.2188 12.3281 37.1406 12.3984 37.125 12.3984L36.8672 12.5156C36.7578 12.6094 36.6875 12.6719 36.6562 12.7031C36.625 12.7344 36.5938 12.7656 36.5625 12.7969C36.375 12.8594 36.2734 12.9062 36.2578 12.9375C36.1016 12.9531 36.0156 12.9688 36 12.9844C36 13.0156 35.9922 13.0391 35.9766 13.0547C35.9141 13.0234 35.8672 13.0078 35.8359 13.0078C35.8047 13.0078 35.7656 12.9844 35.7188 12.9375C35.7344 12.8594 35.7266 12.7969 35.6953 12.75C35.6641 12.7188 35.6641 12.6719 35.6953 12.6094C35.7266 12.1094 35.6875 11.7109 35.5781 11.4141C35.5938 11.3672 35.6094 11.3047 35.625 11.2266C35.6406 11.1484 35.6406 11.0547 35.625 10.9453C35.6562 10.7422 35.6641 10.6172 35.6484 10.5703C35.6484 10.5078 35.6484 10.4609 35.6484 10.4297C35.6328 10.2578 35.625 10.1719 35.625 10.1719C35.6406 10.1562 35.6484 10.1406 35.6484 10.125C35.6484 9.96875 35.6406 9.88281 35.625 9.86719C35.6094 9.85156 35.6016 9.82812 35.6016 9.79688C35.6172 9.59375 35.6172 9.45312 35.6016 9.375C35.6016 9.29688 35.6172 9.21875 35.6484 9.14062C35.6328 9.03125 35.6172 8.94531 35.6016 8.88281C35.5859 8.80469 35.5938 8.74219 35.625 8.69531C35.5469 8.58594 35.5156 8.52344 35.5312 8.50781C35.5469 8.49219 35.5547 8.46875 35.5547 8.4375C35.5234 8.34375 35.4922 8.22656 35.4609 8.08594C35.4453 7.94531 35.4453 7.82031 35.4609 7.71094C35.4453 7.57031 35.4375 7.49219 35.4375 7.47656C35.4375 7.44531 35.4453 7.41406 35.4609 7.38281C35.4297 7.33594 35.4141 7.29688 35.4141 7.26562C35.4297 7.21875 35.4297 7.15625 35.4141 7.07812C35.3672 6.96875 35.3359 6.89844 35.3203 6.86719C35.3047 6.83594 35.3125 6.82031 35.3438 6.82031C35.2969 6.77344 35.2734 6.70312 35.2734 6.60938C35.2734 6.5 35.2578 6.41406 35.2266 6.35156C35.1641 6.21094 35.125 6.09375 35.1094 6C35.0938 5.90625 35.0625 5.83594 35.0156 5.78906C35.0156 5.67969 34.9922 5.60156 34.9453 5.55469C34.9141 5.49219 34.8828 5.42188 34.8516 5.34375C34.7891 5.32812 34.7422 5.30469 34.7109 5.27344C34.6797 5.24219 34.6406 5.21094 34.5938 5.17969C34.4531 5.07031 34.3281 4.99219 34.2188 4.94531C34.1094 4.89844 34.0156 4.89844 33.9375 4.94531L33.6328 5.20312ZM56.3203 10.9219C56.2422 10.9531 56.1875 10.9844 56.1562 11.0156C56.125 11.0312 56.0703 11.0312 55.9922 11.0156C55.9453 11.0781 55.8828 11.125 55.8047 11.1562C55.7266 11.1719 55.6719 11.2188 55.6406 11.2969C55.4062 11.375 55.2266 11.4453 55.1016 11.5078C54.8203 11.6328 54.625 11.7188 54.5156 11.7656C54.4219 11.8125 54.3281 11.8594 54.2344 11.9062C54.1094 11.875 54 11.8828 53.9062 11.9297C53.8281 11.9766 53.7578 12.0234 53.6953 12.0703C53.5547 12.0859 53.4141 12.0859 53.2734 12.0703C53.1328 12.0547 53.0234 12.0469 52.9453 12.0469C52.7891 12.0156 52.6875 12 52.6406 12C52.6094 12 52.5938 11.9844 52.5938 11.9531C52.5312 11.9688 52.4844 11.9688 52.4531 11.9531C52.4219 11.9375 52.3828 11.9297 52.3359 11.9297C52.1797 11.8359 52.0781 11.7891 52.0312 11.7891C51.9844 11.7734 51.9453 11.75 51.9141 11.7188C51.9141 11.7031 51.875 11.6875 51.7969 11.6719C51.7344 11.6562 51.6875 11.6641 51.6562 11.6953L51.3281 11.4844C51.1875 11.2969 51.0938 11.2031 51.0469 11.2031C50.9219 11.0781 50.8594 10.9844 50.8594 10.9219C50.7969 10.9062 50.75 10.8828 50.7188 10.8516C50.6875 10.8203 50.6406 10.7969 50.5781 10.7812C50.5781 10.6562 50.5703 10.5859 50.5547 10.5703C50.5391 10.5391 50.5234 10.4844 50.5078 10.4062C50.4141 10.2031 50.3672 10.1016 50.3672 10.1016C50.3516 10.0391 50.3281 9.99219 50.2969 9.96094C50.2656 9.91406 50.2422 9.875 50.2266 9.84375C50.2266 9.8125 50.2266 9.78125 50.2266 9.75C50.2422 9.70312 50.2422 9.64844 50.2266 9.58594C50.1641 9.49219 50.1328 9.39844 50.1328 9.30469C50.1172 9.19531 50.0938 9.10156 50.0625 9.02344C50.0469 8.96094 50.0391 8.89844 50.0391 8.83594C50.0547 8.77344 50.0547 8.72656 50.0391 8.69531C49.9922 8.57031 49.9688 8.5 49.9688 8.48438C49.9688 8.45312 49.9844 8.42969 50.0156 8.41406C49.9688 8.38281 49.9609 8.32812 49.9922 8.25C50.0234 8.17188 50.0078 8.11719 49.9453 8.08594C50.0078 8.02344 50.0312 7.94531 50.0156 7.85156C50 7.75781 50.0078 7.67188 50.0391 7.59375C50.0859 7.48438 50.125 7.36719 50.1562 7.24219C50.2031 7.08594 50.2344 6.99219 50.25 6.96094C50.2812 6.91406 50.3047 6.875 50.3203 6.84375C50.3516 6.70312 50.375 6.625 50.3906 6.60938C50.4062 6.57812 50.4141 6.54688 50.4141 6.51562C50.4609 6.32812 50.5234 6.19531 50.6016 6.11719C50.6797 6.02344 50.7266 5.91406 50.7422 5.78906C50.8047 5.77344 50.8438 5.73438 50.8594 5.67188C50.8906 5.59375 50.9375 5.53906 51 5.50781C51.0469 5.39844 51.0938 5.33594 51.1406 5.32031C51.2031 5.28906 51.2422 5.24219 51.2578 5.17969C51.3516 5.16406 51.4141 5.13281 51.4453 5.08594C51.4922 5.03906 51.5312 4.98438 51.5625 4.92188C51.6562 4.90625 51.7266 4.875 51.7734 4.82812C51.8359 4.76562 51.9141 4.72656 52.0078 4.71094C52.0391 4.58594 52.1016 4.50781 52.1953 4.47656C52.3047 4.42969 52.3906 4.36719 52.4531 4.28906C52.5781 4.28906 52.6562 4.24219 52.6875 4.14844C52.8906 4.11719 53.0234 4.07031 53.0859 4.00781C53.1484 3.94531 53.2188 3.89844 53.2969 3.86719C53.4062 3.85156 53.4766 3.83594 53.5078 3.82031C53.5391 3.78906 53.5859 3.76562 53.6484 3.75C53.7891 3.625 53.8594 3.58594 53.8594 3.63281C53.875 3.66406 53.8984 3.66406 53.9297 3.63281C53.9922 3.61719 54.0469 3.59375 54.0938 3.5625C54.1562 3.53125 54.2266 3.50781 54.3047 3.49219C54.4453 3.47656 54.5312 3.46875 54.5625 3.46875C54.6094 3.45312 54.6562 3.4375 54.7031 3.42188C54.9219 3.39062 55.0703 3.38281 55.1484 3.39844C55.2266 3.42969 55.3281 3.46094 55.4531 3.49219C55.5781 3.52344 55.6797 3.53125 55.7578 3.51562C55.7891 3.54688 55.8281 3.57812 55.875 3.60938C55.9219 3.625 55.9609 3.66406 55.9922 3.72656C56.1484 3.83594 56.2422 3.91406 56.2734 3.96094C56.3047 4.00781 56.3516 4.04688 56.4141 4.07812C56.5234 4.26562 56.5938 4.41406 56.625 4.52344C56.6719 4.61719 56.7266 4.71875 56.7891 4.82812C56.7422 4.95312 56.7266 5.02344 56.7422 5.03906C56.7578 5.03906 56.7656 5.05469 56.7656 5.08594C56.7656 5.11719 56.7578 5.16406 56.7422 5.22656C56.7266 5.27344 56.7188 5.32031 56.7188 5.36719C56.7344 5.49219 56.7344 5.59375 56.7188 5.67188C56.7031 5.75 56.6953 5.82812 56.6953 5.90625C56.5391 6.125 56.3984 6.26562 56.2734 6.32812C56.1641 6.39062 56.0781 6.48438 56.0156 6.60938C55.875 6.65625 55.8047 6.69531 55.8047 6.72656C55.8203 6.75781 55.8125 6.78125 55.7812 6.79688C55.6562 6.875 55.5859 6.92969 55.5703 6.96094C55.5547 6.97656 55.5469 7 55.5469 7.03125C55.4219 7.10938 55.3047 7.16406 55.1953 7.19531C55.0703 7.24219 54.9844 7.29688 54.9375 7.35938C54.8906 7.40625 54.8359 7.44531 54.7734 7.47656C54.7266 7.50781 54.6641 7.53125 54.5859 7.54688C54.5234 7.5625 54.4688 7.60938 54.4219 7.6875C54.25 7.71875 54.1406 7.78906 54.0938 7.89844C53.9062 7.89844 53.7891 7.89844 53.7422 7.89844C53.6953 7.88281 53.6562 7.875 53.625 7.875C53.4531 7.96875 53.3672 8.00781 53.3672 7.99219C53.3672 7.97656 53.3594 7.97656 53.3438 7.99219C53.2969 8.00781 53.2422 8.00781 53.1797 7.99219C53.1172 7.97656 53.0469 7.96094 52.9688 7.94531C52.9375 7.92969 52.8906 7.9375 52.8281 7.96875C52.7656 7.98438 52.7188 7.99219 52.6875 7.99219C52.5938 8.00781 52.5156 7.99219 52.4531 7.94531C52.3906 7.88281 52.2969 7.86719 52.1719 7.89844C52.125 7.86719 52.0781 7.83594 52.0312 7.80469C52 7.77344 51.9531 7.77344 51.8906 7.80469C51.875 7.82031 51.8594 7.875 51.8438 7.96875C51.8438 8.0625 51.875 8.09375 51.9375 8.0625C51.875 8.14062 51.8438 8.23438 51.8438 8.34375C51.8438 8.4375 51.8828 8.51562 51.9609 8.57812C51.9141 8.75 51.9297 8.90625 52.0078 9.04688C52.1016 9.17188 52.1562 9.3125 52.1719 9.46875C52.25 9.59375 52.3359 9.69531 52.4297 9.77344C52.5391 9.83594 52.6172 9.92969 52.6641 10.0547C52.7891 10.1172 52.9062 10.1875 53.0156 10.2656C53.1406 10.3438 53.2656 10.4297 53.3906 10.5234C53.4844 10.5547 53.5547 10.5859 53.6016 10.6172C53.6641 10.6328 53.7266 10.6406 53.7891 10.6406C53.9141 10.75 54.0156 10.8047 54.0938 10.8047C54.2812 10.8672 54.3906 10.9062 54.4219 10.9219C54.4531 10.9375 54.4844 10.9453 54.5156 10.9453C54.6562 10.9766 54.7422 10.9922 54.7734 10.9922C54.9609 10.9453 55.0703 10.9219 55.1016 10.9219C55.1484 10.9219 55.1953 10.9062 55.2422 10.875C55.3672 10.7812 55.4609 10.7266 55.5234 10.7109C55.5859 10.6797 55.6406 10.6406 55.6875 10.5938C55.8125 10.5 55.875 10.4453 55.875 10.4297C55.8906 10.3984 55.9141 10.375 55.9453 10.3594C56.0547 10.2031 56.1094 10.1172 56.1094 10.1016C56.1719 10.0859 56.2109 10.0547 56.2266 10.0078C56.2578 9.96094 56.2891 9.92188 56.3203 9.89062C56.4141 9.78125 56.4688 9.72656 56.4844 9.72656C56.5156 9.71094 56.5469 9.69531 56.5781 9.67969C56.6562 9.52344 56.7031 9.4375 56.7188 9.42188C56.75 9.39062 56.7891 9.35938 56.8359 9.32812C57.0547 9.20312 57.1875 9.11719 57.2344 9.07031C57.3594 9.10156 57.4531 9.08594 57.5156 9.02344C57.5781 8.96094 57.6484 8.94531 57.7266 8.97656C57.7578 9.11719 57.7734 9.19531 57.7734 9.21094C57.7734 9.22656 57.7812 9.24219 57.7969 9.25781C57.7812 9.30469 57.7344 9.33594 57.6562 9.35156C57.5781 9.35156 57.5469 9.39062 57.5625 9.46875C57.4844 9.65625 57.4297 9.78125 57.3984 9.84375C57.3828 9.90625 57.3438 9.96094 57.2812 10.0078C57.25 10.1484 57.1641 10.2344 57.0234 10.2656C56.9297 10.3594 56.8672 10.4375 56.8359 10.5C56.6953 10.5312 56.6172 10.5938 56.6016 10.6875L56.3203 10.9219ZM52.7578 6.67969C52.8203 6.69531 52.8984 6.71875 52.9922 6.75C53.0859 6.78125 53.1484 6.8125 53.1797 6.84375C53.2734 6.82812 53.3594 6.82812 53.4375 6.84375C53.5156 6.84375 53.5859 6.85156 53.6484 6.86719C53.8516 6.89844 53.9766 6.89844 54.0234 6.86719C54.0703 6.83594 54.125 6.82031 54.1875 6.82031C54.3594 6.83594 54.4453 6.83594 54.4453 6.82031C54.4609 6.78906 54.4844 6.76562 54.5156 6.75C54.7188 6.59375 54.8594 6.5 54.9375 6.46875C54.9375 6.42188 54.9453 6.38281 54.9609 6.35156C54.9922 6.30469 55.0156 6.25781 55.0312 6.21094C55.0312 6.14844 55.0234 6.08594 55.0078 6.02344C54.9922 5.94531 54.9844 5.875 54.9844 5.8125C54.9844 5.65625 54.9688 5.5625 54.9375 5.53125C54.9062 5.48438 54.9062 5.4375 54.9375 5.39062C54.8594 5.26562 54.7891 5.1875 54.7266 5.15625C54.6797 5.125 54.6562 5.07031 54.6562 4.99219C54.5938 4.92969 54.5469 4.89062 54.5156 4.875C54.4844 4.85938 54.4688 4.82812 54.4688 4.78125C54.2188 4.64062 54.0234 4.57812 53.8828 4.59375C53.7109 4.60938 53.625 4.61719 53.625 4.61719C53.625 4.60156 53.6172 4.59375 53.6016 4.59375C53.4453 4.65625 53.3438 4.6875 53.2969 4.6875C53.2656 4.67188 53.2266 4.67969 53.1797 4.71094C53.0547 4.86719 52.9609 4.96875 52.8984 5.01562C52.8516 5.04688 52.8125 5.10156 52.7812 5.17969C52.6406 5.35156 52.5312 5.46875 52.4531 5.53125C52.3906 5.59375 52.375 5.65625 52.4062 5.71875C52.3594 5.92188 52.3516 6.04688 52.3828 6.09375C52.4297 6.14062 52.4375 6.19531 52.4062 6.25781C52.4688 6.32031 52.5312 6.39062 52.5938 6.46875C52.6562 6.53125 52.7109 6.60156 52.7578 6.67969Z" fill="#FFACED"/>
</svg>
