<svg width="24" height="27" viewBox="0 0 24 27" fill="none" xmlns="http://www.w3.org/2000/svg">
<path d="M3.21094 0.09375C3.28906 0.328125 3.35938 0.453125 3.42188 0.46875C3.48438 0.609375 3.55469 0.726562 3.63281 0.820312C3.61719 0.898438 3.625 0.960938 3.65625 1.00781C3.6875 1.03906 3.71875 1.07031 3.75 1.10156C3.73438 1.27344 3.77344 1.42188 3.86719 1.54688C3.83594 1.625 3.83594 1.67969 3.86719 1.71094C3.89844 1.74219 3.88281 1.77344 3.82031 1.80469C3.92969 1.96094 3.96875 2.03906 3.9375 2.03906C3.92188 2.03906 3.91406 2.05469 3.91406 2.08594C3.94531 2.13281 3.95312 2.21875 3.9375 2.34375C3.92188 2.45312 3.92969 2.52344 3.96094 2.55469C4.03906 2.55469 4.10156 2.55469 4.14844 2.55469C4.19531 2.55469 4.25781 2.54688 4.33594 2.53125C4.52344 2.51562 4.625 2.5 4.64062 2.48438C4.67188 2.46875 4.70312 2.45312 4.73438 2.4375C5.04688 2.42188 5.23438 2.42969 5.29688 2.46094C5.375 2.44531 5.4375 2.42188 5.48438 2.39062C5.54688 2.35938 5.61719 2.35938 5.69531 2.39062C5.77344 2.375 5.82812 2.35938 5.85938 2.34375C5.90625 2.32812 5.94531 2.33594 5.97656 2.36719C6.02344 2.30469 6.08594 2.28125 6.16406 2.29688C6.24219 2.29688 6.29688 2.27344 6.32812 2.22656C6.4375 2.21094 6.51562 2.20312 6.5625 2.20312C6.625 2.1875 6.6875 2.15625 6.75 2.10938C6.9375 2.25 7.01562 2.42188 6.98438 2.625C6.82812 2.76562 6.73438 2.82812 6.70312 2.8125C6.6875 2.79688 6.65625 2.79688 6.60938 2.8125C6.54688 2.89062 6.50781 2.94531 6.49219 2.97656C6.47656 2.99219 6.44531 3.00781 6.39844 3.02344C6.24219 3.11719 6.15625 3.17969 6.14062 3.21094C6.125 3.22656 6.10156 3.24219 6.07031 3.25781C5.94531 3.38281 5.86719 3.44531 5.83594 3.44531C5.80469 3.42969 5.77344 3.42969 5.74219 3.44531C5.55469 3.52344 5.42969 3.57812 5.36719 3.60938C5.30469 3.625 5.21875 3.61719 5.10938 3.58594C4.89062 3.61719 4.75 3.64844 4.6875 3.67969C4.625 3.69531 4.55469 3.70312 4.47656 3.70312C4.42969 3.70312 4.38281 3.70312 4.33594 3.70312C4.28906 3.6875 4.24219 3.67969 4.19531 3.67969C4.08594 3.69531 4.00781 3.72656 3.96094 3.77344C3.92969 3.80469 3.89844 3.85938 3.86719 3.9375C3.85156 3.96875 3.83594 4.01562 3.82031 4.07812C3.80469 4.14062 3.79688 4.21094 3.79688 4.28906C3.84375 4.47656 3.85938 4.58594 3.84375 4.61719C3.82812 4.64844 3.8125 4.6875 3.79688 4.73438C3.8125 4.78125 3.82812 4.82812 3.84375 4.875C3.85938 4.90625 3.86719 4.95312 3.86719 5.01562C3.86719 5.09375 3.85938 5.16406 3.84375 5.22656C3.84375 5.28906 3.85156 5.36719 3.86719 5.46094C3.88281 5.57031 3.88281 5.63281 3.86719 5.64844C3.85156 5.66406 3.84375 5.6875 3.84375 5.71875C3.85938 5.875 3.85156 6.00781 3.82031 6.11719C3.80469 6.21094 3.80469 6.29688 3.82031 6.375C3.83594 6.51562 3.83594 6.60156 3.82031 6.63281C3.80469 6.64844 3.78906 6.67188 3.77344 6.70312C3.74219 6.79688 3.74219 6.90625 3.77344 7.03125C3.82031 7.14062 3.80469 7.23438 3.72656 7.3125C3.77344 7.53125 3.77344 7.72656 3.72656 7.89844C3.67969 8.07031 3.69531 8.20312 3.77344 8.29688C3.72656 8.4375 3.70312 8.51562 3.70312 8.53125C3.71875 8.53125 3.72656 8.53906 3.72656 8.55469C3.69531 8.72656 3.67969 8.82031 3.67969 8.83594C3.58594 9.02344 3.55469 9.14062 3.58594 9.1875C3.61719 9.23438 3.60938 9.27344 3.5625 9.30469C3.57812 9.38281 3.58594 9.45312 3.58594 9.51562C3.60156 9.57812 3.60938 9.65625 3.60938 9.75C3.60938 9.78125 3.60156 9.82812 3.58594 9.89062C3.57031 9.9375 3.5625 9.97656 3.5625 10.0078C3.5625 10.2266 3.5625 10.375 3.5625 10.4531C3.57812 10.5312 3.5625 10.6094 3.51562 10.6875C3.53125 10.8594 3.54688 11.0078 3.5625 11.1328C3.57812 11.2422 3.60156 11.3281 3.63281 11.3906C3.58594 11.5781 3.57031 11.7031 3.58594 11.7656C3.60156 11.9219 3.60156 12.0078 3.58594 12.0234C3.57031 12.0391 3.5625 12.0547 3.5625 12.0703C3.5625 12.2266 3.57031 12.3359 3.58594 12.3984C3.60156 12.5547 3.61719 12.6406 3.63281 12.6562C3.64844 12.6719 3.65625 12.6875 3.65625 12.7031C3.64062 12.7969 3.64062 12.8672 3.65625 12.9141C3.67188 12.9453 3.67969 12.9688 3.67969 12.9844C3.67969 13.0938 3.69531 13.1641 3.72656 13.1953C3.77344 13.2266 3.78906 13.2734 3.77344 13.3359C3.80469 13.4453 3.82812 13.5078 3.84375 13.5234C3.85938 13.5391 3.86719 13.5703 3.86719 13.6172C3.94531 13.7578 3.99219 13.8438 4.00781 13.875C4.03906 13.8906 4.0625 13.9141 4.07812 13.9453C4.1875 14.1172 4.26562 14.2109 4.3125 14.2266C4.375 14.2422 4.41406 14.2812 4.42969 14.3438C4.55469 14.4688 4.625 14.5312 4.64062 14.5312C4.71875 14.5156 4.78125 14.5234 4.82812 14.5547C4.875 14.5859 4.9375 14.5938 5.01562 14.5781C5.1875 14.6719 5.29688 14.7031 5.34375 14.6719C5.39062 14.6406 5.42969 14.6406 5.46094 14.6719C5.74219 14.5781 5.90625 14.4609 5.95312 14.3203C6.03125 14.3203 6.08594 14.2969 6.11719 14.25C6.16406 14.1875 6.24219 14.1562 6.35156 14.1562C6.39844 14.125 6.42969 14.0859 6.44531 14.0391C6.47656 13.9922 6.50781 13.9531 6.53906 13.9219C6.60156 13.9375 6.64844 13.9453 6.67969 13.9453C6.71094 13.9297 6.75781 13.9219 6.82031 13.9219C6.85156 14.0156 6.82812 14.0625 6.75 14.0625C6.67188 14.0625 6.64062 14.1094 6.65625 14.2031C6.5625 14.3281 6.5 14.4141 6.46875 14.4609C6.4375 14.5078 6.40625 14.5469 6.375 14.5781C6.1875 14.7031 6.03125 14.7969 5.90625 14.8594C5.78125 14.9375 5.67969 15.0391 5.60156 15.1641C5.52344 15.1641 5.45312 15.1719 5.39062 15.1875C5.32812 15.2031 5.25 15.2188 5.15625 15.2344C5 15.3281 4.92188 15.3906 4.92188 15.4219C4.92188 15.4531 4.90625 15.4766 4.875 15.4922C4.84375 15.5234 4.79688 15.5391 4.73438 15.5391C4.67188 15.5391 4.60938 15.5547 4.54688 15.5859C4.375 15.6641 4.28125 15.6953 4.26562 15.6797C4.25 15.6641 4.22656 15.6562 4.19531 15.6562C4.07031 15.7031 3.98438 15.7266 3.9375 15.7266C3.89062 15.7266 3.85156 15.7422 3.82031 15.7734C3.72656 15.7578 3.63281 15.7422 3.53906 15.7266C3.44531 15.7266 3.38281 15.6875 3.35156 15.6094C3.24219 15.625 3.16406 15.6094 3.11719 15.5625C3.08594 15.5156 3.05469 15.4688 3.02344 15.4219C2.88281 15.375 2.80469 15.3281 2.78906 15.2812C2.77344 15.25 2.72656 15.2344 2.64844 15.2344C2.53906 15.0781 2.47656 14.9844 2.46094 14.9531C2.44531 14.9375 2.42969 14.9141 2.41406 14.8828C2.33594 14.8047 2.28125 14.7188 2.25 14.625C2.23438 14.5156 2.17188 14.4375 2.0625 14.3906C2.04688 14.2031 2.03125 14.1016 2.01562 14.0859C2 14.0547 1.99219 14.0234 1.99219 13.9922C1.92969 13.8828 1.92188 13.7891 1.96875 13.7109C1.92188 13.6484 1.90625 13.5859 1.92188 13.5234C1.95312 13.4609 1.92969 13.4062 1.85156 13.3594C1.91406 13.3281 1.9375 13.2891 1.92188 13.2422C1.90625 13.1953 1.89844 13.1172 1.89844 13.0078C1.91406 12.8828 1.91406 12.8125 1.89844 12.7969C1.88281 12.7656 1.86719 12.7188 1.85156 12.6562C1.85156 12.3906 1.85938 12.1953 1.875 12.0703C1.89062 11.9297 1.875 11.8203 1.82812 11.7422C1.875 11.6328 1.89062 11.5547 1.875 11.5078C1.85938 11.4453 1.85156 11.3984 1.85156 11.3672C1.85156 11.2891 1.85938 11.2188 1.875 11.1562C1.89062 11.0781 1.88281 11.0078 1.85156 10.9453C1.88281 10.8047 1.90625 10.7109 1.92188 10.6641C1.95312 10.6016 1.97656 10.5391 1.99219 10.4766C1.96094 10.3047 1.96094 10.1797 1.99219 10.1016C2.02344 10.0078 2.03906 9.92188 2.03906 9.84375C2.05469 9.65625 2.05469 9.53125 2.03906 9.46875C2.03906 9.39062 2.04688 9.3125 2.0625 9.23438C2.0625 9.07812 2.07812 8.96875 2.10938 8.90625C2.09375 8.73438 2.10156 8.61719 2.13281 8.55469C2.16406 8.49219 2.16406 8.4375 2.13281 8.39062C2.14844 8.25 2.16406 8.15625 2.17969 8.10938C2.19531 8.04688 2.20312 8 2.20312 7.96875C2.20312 7.92188 2.19531 7.875 2.17969 7.82812C2.16406 7.76562 2.15625 7.71094 2.15625 7.66406C2.15625 7.50781 2.17969 7.375 2.22656 7.26562C2.27344 7.14062 2.27344 7.04688 2.22656 6.98438C2.27344 6.9375 2.28906 6.88281 2.27344 6.82031C2.25781 6.74219 2.25 6.66406 2.25 6.58594C2.25 6.39844 2.25 6.28125 2.25 6.23438C2.26562 6.14062 2.27344 6.07812 2.27344 6.04688C2.27344 6.01562 2.28125 5.98438 2.29688 5.95312C2.28125 5.875 2.28125 5.79688 2.29688 5.71875C2.3125 5.625 2.30469 5.53906 2.27344 5.46094C2.32031 5.35156 2.33594 5.24219 2.32031 5.13281C2.30469 5.00781 2.32031 4.91406 2.36719 4.85156C2.33594 4.78906 2.33594 4.73438 2.36719 4.6875C2.39844 4.625 2.41406 4.57031 2.41406 4.52344C2.39844 4.41406 2.39844 4.33594 2.41406 4.28906C2.42969 4.24219 2.4375 4.20312 2.4375 4.17188C2.21875 4.04688 2.03906 4.01562 1.89844 4.07812C1.75781 4.125 1.61719 4.125 1.47656 4.07812C1.32031 4.125 1.19531 4.15625 1.10156 4.17188C1.02344 4.17188 0.945312 4.17188 0.867188 4.17188C0.664062 4.20312 0.554688 4.21875 0.539062 4.21875C0.382812 4.1875 0.296875 4.1875 0.28125 4.21875C0.265625 4.25 0.242188 4.26562 0.210938 4.26562C0.117188 4.125 0.0625 4.05469 0.046875 4.05469C0.03125 4.05469 0.015625 4.03906 0 4.00781C0 3.82031 0.0234375 3.70312 0.0703125 3.65625C0.101562 3.60938 0.15625 3.57812 0.234375 3.5625C0.34375 3.46875 0.382812 3.39062 0.351562 3.32812C0.539062 3.28125 0.648438 3.19531 0.679688 3.07031C0.757812 3.05469 0.828125 3.03906 0.890625 3.02344C0.953125 2.99219 1 2.9375 1.03125 2.85938C1.29688 2.875 1.48438 2.85938 1.59375 2.8125C1.625 2.8125 1.66406 2.8125 1.71094 2.8125C1.77344 2.79688 1.82031 2.78125 1.85156 2.76562C1.89844 2.76562 1.97656 2.78125 2.08594 2.8125C2.19531 2.82812 2.27344 2.82812 2.32031 2.8125C2.33594 2.71875 2.34375 2.57031 2.34375 2.36719C2.35938 2.16406 2.33594 2.03906 2.27344 1.99219C2.19531 1.88281 2.14844 1.78906 2.13281 1.71094C2.13281 1.61719 2.09375 1.55469 2.01562 1.52344C1.89062 1.42969 1.78906 1.375 1.71094 1.35938C1.63281 1.34375 1.57812 1.35156 1.54688 1.38281C1.40625 1.44531 1.3125 1.49219 1.26562 1.52344C1.23438 1.53906 1.1875 1.55469 1.125 1.57031L0.773438 1.71094C0.742188 1.66406 0.710938 1.625 0.679688 1.59375C0.648438 1.54688 0.632812 1.48438 0.632812 1.40625C0.679688 1.29688 0.71875 1.23438 0.75 1.21875C0.78125 1.20312 0.796875 1.16406 0.796875 1.10156C0.9375 1.05469 1.03125 0.960938 1.07812 0.820312C1.17188 0.773438 1.25781 0.734375 1.33594 0.703125C1.42969 0.65625 1.48438 0.578125 1.5 0.46875C1.59375 0.5 1.67969 0.492188 1.75781 0.445312C1.85156 0.398438 1.91406 0.335938 1.94531 0.257812C2.08594 0.226562 2.17188 0.210938 2.20312 0.210938C2.25 0.195312 2.27344 0.171875 2.27344 0.140625C2.46094 0.078125 2.5625 0.0546875 2.57812 0.0703125C2.60938 0.0703125 2.64062 0.0625 2.67188 0.046875C2.85938 0.015625 2.95312 0.015625 2.95312 0.046875C2.95312 0.0625 2.96094 0.078125 2.97656 0.09375H3.21094ZM13.3594 7.59375C13.3281 7.78125 13.3125 7.88281 13.3125 7.89844C13.3281 7.91406 13.3359 7.92969 13.3359 7.94531C13.3203 8.07031 13.3125 8.15625 13.3125 8.20312C13.3281 8.25 13.3281 8.29688 13.3125 8.34375C13.2969 8.375 13.2656 8.41406 13.2188 8.46094C13.1875 8.49219 13.1875 8.53906 13.2188 8.60156C13.125 8.72656 13.0938 8.79688 13.125 8.8125C13.1562 8.82812 13.1719 8.84375 13.1719 8.85938C13.1875 9.03125 13.1875 9.14062 13.1719 9.1875C13.1562 9.23438 13.1484 9.27344 13.1484 9.30469C13.1484 9.50781 13.1328 9.625 13.1016 9.65625C13.1172 9.75 13.1094 9.83594 13.0781 9.91406C13.0625 9.99219 13.0781 10.0547 13.125 10.1016C13.1406 10.2734 13.1406 10.3828 13.125 10.4297C13.125 10.4609 13.1406 10.5 13.1719 10.5469C13.1094 10.7344 13.0859 10.8438 13.1016 10.875C13.1641 11.0469 13.1953 11.1719 13.1953 11.25C13.1953 11.3125 13.2188 11.375 13.2656 11.4375C13.2188 11.5625 13.2109 11.6797 13.2422 11.7891C13.2734 11.8984 13.2969 12.0156 13.3125 12.1406C13.2969 12.3125 13.2969 12.4062 13.3125 12.4219C13.3281 12.4219 13.3359 12.4375 13.3359 12.4688C13.3672 12.5469 13.3828 12.6406 13.3828 12.75C13.3828 12.8438 13.4062 12.9219 13.4531 12.9844C13.4531 13.2031 13.5078 13.3359 13.6172 13.3828C13.6016 13.4922 13.6094 13.5547 13.6406 13.5703C13.6719 13.5859 13.6875 13.6094 13.6875 13.6406C13.6562 13.7188 13.6641 13.7812 13.7109 13.8281C13.7578 13.8594 13.7578 13.8984 13.7109 13.9453C13.7734 13.9766 13.8359 14 13.8984 14.0156C13.9609 14.0156 14.0078 14.0391 14.0391 14.0859C14.1328 14.0859 14.2109 14.1016 14.2734 14.1328C14.3516 14.1641 14.4297 14.1562 14.5078 14.1094C14.6328 14.0469 14.7109 13.9844 14.7422 13.9219C14.8516 13.9219 14.9297 13.9062 14.9766 13.875C15.0391 13.8438 15.1016 13.8125 15.1641 13.7812C15.2109 13.7188 15.25 13.6875 15.2812 13.6875C15.3125 13.6719 15.3516 13.6641 15.3984 13.6641C15.3672 13.7266 15.3359 13.7812 15.3047 13.8281C15.2734 13.875 15.2734 13.9453 15.3047 14.0391C15.2266 14.0703 15.1484 14.1094 15.0703 14.1562C15.0078 14.1875 14.9531 14.2422 14.9062 14.3203C14.75 14.4453 14.6562 14.5234 14.625 14.5547C14.5938 14.5859 14.5469 14.6016 14.4844 14.6016C14.3281 14.7422 14.25 14.8438 14.25 14.9062C14.2031 14.9375 14.1484 14.9531 14.0859 14.9531C14.0391 14.9688 14 14.9922 13.9688 15.0234C13.875 15.1328 13.8125 15.1875 13.7812 15.1875C13.7656 15.1875 13.75 15.2109 13.7344 15.2578C13.5156 15.3047 13.3672 15.3203 13.2891 15.3047C13.2266 15.3047 13.1562 15.3047 13.0781 15.3047C12.9219 15.2734 12.8203 15.2266 12.7734 15.1641C12.7266 15.1172 12.6719 15.1172 12.6094 15.1641C12.5781 15.0547 12.5 15.0078 12.375 15.0234C12.2969 14.9297 12.2422 14.8516 12.2109 14.7891C12.1953 14.7422 12.1562 14.7031 12.0938 14.6719C12.0781 14.6406 12.0703 14.6016 12.0703 14.5547C12.0703 14.4922 12.0625 14.4453 12.0469 14.4141C12.0312 14.3828 12.0078 14.3359 11.9766 14.2734C11.9609 14.1953 11.9609 14.125 11.9766 14.0625C11.8828 13.7969 11.8125 13.6094 11.7656 13.5C11.7344 13.3906 11.7344 13.2891 11.7656 13.1953C11.7344 13.0703 11.7109 12.9922 11.6953 12.9609C11.6797 12.9141 11.6719 12.8828 11.6719 12.8672C11.6719 12.7734 11.6641 12.6953 11.6484 12.6328C11.6484 12.5703 11.6484 12.4922 11.6484 12.3984C11.6641 12.1953 11.6562 12.0625 11.625 12C11.6094 11.9219 11.6016 11.8438 11.6016 11.7656C11.6172 11.5938 11.6172 11.5 11.6016 11.4844C11.6016 11.4688 11.6016 11.4453 11.6016 11.4141C11.6172 11.2734 11.6172 11.1875 11.6016 11.1562C11.5859 11.125 11.5781 11.0938 11.5781 11.0625C11.4062 11.1562 11.2969 11.2266 11.25 11.2734C11.2188 11.3047 11.1875 11.3438 11.1562 11.3906C11.125 11.4844 11.0859 11.5469 11.0391 11.5781C10.9922 11.5938 10.9531 11.6172 10.9219 11.6484C10.8281 11.7266 10.7734 11.7891 10.7578 11.8359C10.7578 11.8828 10.7422 11.9219 10.7109 11.9531C10.6172 12.0156 10.5547 12.0625 10.5234 12.0938C10.5078 12.1094 10.5078 12.1484 10.5234 12.2109C10.4609 12.2422 10.4141 12.2812 10.3828 12.3281C10.3516 12.375 10.2969 12.4141 10.2188 12.4453C10.1406 12.5547 10.0625 12.6484 9.98438 12.7266C9.90625 12.8047 9.83594 12.8594 9.77344 12.8906C9.72656 12.9062 9.6875 12.9453 9.65625 13.0078C9.53125 13.0859 9.45312 13.1484 9.42188 13.1953C9.40625 13.2422 9.375 13.2812 9.32812 13.3125C9.1875 13.3906 9.10938 13.4453 9.09375 13.4766C9.07812 13.4922 9.05469 13.4922 9.02344 13.4766C8.82031 13.6484 8.71875 13.7578 8.71875 13.8047C8.5625 13.8672 8.46875 13.9219 8.4375 13.9688C8.40625 14.0156 8.34375 14.0312 8.25 14.0156C8.09375 14.1094 7.9375 14.1484 7.78125 14.1328C7.625 14.1016 7.5 14.0703 7.40625 14.0391C7.34375 14.0078 7.29688 13.9844 7.26562 13.9688C7.23438 13.9531 7.1875 13.9375 7.125 13.9219C6.98438 13.8438 6.89844 13.7812 6.86719 13.7344C6.83594 13.6719 6.78125 13.625 6.70312 13.5938C6.75 13.5156 6.75 13.4453 6.70312 13.3828C6.65625 13.3047 6.61719 13.2422 6.58594 13.1953C6.60156 13.1172 6.60156 13.0625 6.58594 13.0312C6.57031 12.9844 6.55469 12.9453 6.53906 12.9141C6.52344 12.7266 6.52344 12.625 6.53906 12.6094C6.55469 12.5938 6.5625 12.5781 6.5625 12.5625C6.5625 12.5 6.55469 12.4453 6.53906 12.3984C6.52344 12.3359 6.52344 12.2734 6.53906 12.2109C6.60156 12.0391 6.625 11.9141 6.60938 11.8359C6.60938 11.7578 6.625 11.6875 6.65625 11.625C6.70312 11.5469 6.71875 11.4922 6.70312 11.4609C6.70312 11.4141 6.71094 11.375 6.72656 11.3438C6.80469 11.2188 6.84375 11.1406 6.84375 11.1094C6.875 10.9375 6.89844 10.8516 6.91406 10.8516C6.94531 10.7422 6.97656 10.6797 7.00781 10.6641C7.05469 10.6328 7.0625 10.5859 7.03125 10.5234C7.09375 10.4141 7.125 10.3438 7.125 10.3125C7.14062 10.2812 7.15625 10.25 7.17188 10.2188C7.23438 10.2031 7.28125 10.1641 7.3125 10.1016C7.34375 10.0391 7.34375 9.96875 7.3125 9.89062C7.45312 9.82812 7.52344 9.77344 7.52344 9.72656C7.52344 9.66406 7.53906 9.60938 7.57031 9.5625C7.67969 9.48438 7.78125 9.42188 7.875 9.375C7.96875 9.3125 8.01562 9.21094 8.01562 9.07031C8.10938 8.96094 8.17969 8.89844 8.22656 8.88281C8.28906 8.85156 8.32812 8.79688 8.34375 8.71875C8.39062 8.6875 8.42969 8.65625 8.46094 8.625C8.49219 8.57812 8.52344 8.53906 8.55469 8.50781C8.63281 8.42969 8.67188 8.38281 8.67188 8.36719C8.67188 8.35156 8.6875 8.32812 8.71875 8.29688C8.89062 8.20312 8.99219 8.14062 9.02344 8.10938C9.13281 7.98438 9.20312 7.90625 9.23438 7.875C9.26562 7.84375 9.3125 7.82031 9.375 7.80469C9.5 7.69531 9.625 7.60938 9.75 7.54688C9.8125 7.51562 9.85938 7.5 9.89062 7.5C9.9375 7.48438 9.97656 7.45312 10.0078 7.40625C10.1484 7.375 10.2734 7.34375 10.3828 7.3125C10.6016 7.20312 10.7656 7.16406 10.875 7.19531C10.9844 7.21094 11.1172 7.21094 11.2734 7.19531C11.4297 7.25781 11.5234 7.30469 11.5547 7.33594C11.6016 7.36719 11.6406 7.39062 11.6719 7.40625C11.7188 7.40625 11.7734 7.39844 11.8359 7.38281C11.8984 7.36719 11.9531 7.375 12 7.40625C12.1562 7.53125 12.2422 7.59375 12.2578 7.59375C12.2891 7.59375 12.3203 7.60938 12.3516 7.64062C12.5391 7.73438 12.6797 7.75 12.7734 7.6875C12.8672 7.625 12.9531 7.57031 13.0312 7.52344C13.0938 7.53906 13.1484 7.54688 13.1953 7.54688C13.2578 7.53125 13.3125 7.54688 13.3594 7.59375ZM10.4766 8.625C10.3984 8.625 10.3438 8.60938 10.3125 8.57812C10.2969 8.54688 10.2734 8.52344 10.2422 8.50781C10.1016 8.47656 9.98438 8.48438 9.89062 8.53125C9.79688 8.57812 9.6875 8.60156 9.5625 8.60156C9.40625 8.74219 9.32812 8.82031 9.32812 8.83594C9.23438 8.96094 9.16406 9.04688 9.11719 9.09375C9.07031 9.14062 9.0625 9.20312 9.09375 9.28125C8.90625 9.35938 8.8125 9.45312 8.8125 9.5625C8.8125 9.67188 8.75781 9.74219 8.64844 9.77344C8.63281 9.85156 8.60938 9.92188 8.57812 9.98438C8.54688 10.0469 8.52344 10.1172 8.50781 10.1953C8.46094 10.3828 8.4375 10.4844 8.4375 10.5C8.45312 10.5156 8.45312 10.5391 8.4375 10.5703C8.40625 10.6484 8.36719 10.7188 8.32031 10.7812C8.28906 10.8438 8.28906 10.8984 8.32031 10.9453C8.27344 11.1172 8.24219 11.2344 8.22656 11.2969C8.21094 11.3594 8.1875 11.4297 8.15625 11.5078C8.17188 11.6484 8.17969 11.7578 8.17969 11.8359C8.17969 11.9141 8.1875 12 8.20312 12.0938C8.23438 12.1875 8.25 12.2734 8.25 12.3516C8.375 12.4766 8.4375 12.5391 8.4375 12.5391C8.45312 12.5391 8.46094 12.5469 8.46094 12.5625C8.67969 12.5938 8.79688 12.6172 8.8125 12.6328C8.84375 12.6484 8.89062 12.6719 8.95312 12.7031C9.03125 12.625 9.10938 12.5625 9.1875 12.5156C9.26562 12.4688 9.32031 12.3828 9.35156 12.2578C9.50781 12.1172 9.60156 12.0234 9.63281 11.9766C9.67969 11.9141 9.74219 11.8672 9.82031 11.8359C9.97656 11.6328 10.0547 11.5312 10.0547 11.5312C10.1797 11.4375 10.25 11.3594 10.2656 11.2969C10.2969 11.2344 10.3281 11.1484 10.3594 11.0391C10.4375 10.9766 10.4844 10.9375 10.5 10.9219C10.5312 10.8906 10.5391 10.8438 10.5234 10.7812C10.5547 10.7188 10.5859 10.6641 10.6172 10.6172C10.6641 10.5547 10.6875 10.4844 10.6875 10.4062C10.7656 10.375 10.8125 10.3359 10.8281 10.2891C10.8594 10.2266 10.9141 10.1953 10.9922 10.1953C11.0078 10.0391 11.0312 9.95312 11.0625 9.9375C11.0938 9.90625 11.1406 9.89062 11.2031 9.89062C11.2344 9.71875 11.2656 9.59375 11.2969 9.51562C11.3281 9.4375 11.3594 9.35938 11.3906 9.28125C11.2812 9.15625 11.2266 9.0625 11.2266 9C11.1016 8.92188 11.0234 8.88281 10.9922 8.88281C10.9766 8.86719 10.9609 8.84375 10.9453 8.8125C10.8828 8.78125 10.8203 8.75781 10.7578 8.74219C10.7109 8.71094 10.6562 8.6875 10.5938 8.67188L10.4766 8.625ZM21.7266 4.47656C21.9453 4.58594 22.0938 4.625 22.1719 4.59375C22.2656 4.5625 22.375 4.54688 22.5 4.54688C22.5938 4.70312 22.6484 4.78906 22.6641 4.80469C22.6953 4.82031 22.7188 4.84375 22.7344 4.875C22.6562 5.09375 22.6094 5.24219 22.5938 5.32031C22.5938 5.38281 22.6328 5.44531 22.7109 5.50781C22.6172 5.64844 22.5859 5.76562 22.6172 5.85938C22.8047 5.84375 22.9062 5.84375 22.9219 5.85938C22.9375 5.85938 22.9609 5.875 22.9922 5.90625C23.0391 6.09375 23.0625 6.23438 23.0625 6.32812C23.0625 6.40625 23.0312 6.47656 22.9688 6.53906C23.0156 6.60156 23.0156 6.65625 22.9688 6.70312C22.9219 6.75 22.9219 6.80469 22.9688 6.86719C22.875 7.05469 22.8203 7.14844 22.8047 7.14844C22.7891 7.14844 22.7734 7.15625 22.7578 7.17188C22.7734 7.375 22.75 7.52344 22.6875 7.61719C22.6406 7.69531 22.5938 7.77344 22.5469 7.85156C22.5312 7.92969 22.5312 8.02344 22.5469 8.13281C22.5781 8.22656 22.5625 8.30469 22.5 8.36719C22.5625 8.55469 22.5781 8.69531 22.5469 8.78906C22.5156 8.86719 22.5391 8.9375 22.6172 9C22.5859 9.09375 22.5781 9.1875 22.5938 9.28125C22.625 9.35938 22.6484 9.4375 22.6641 9.51562C22.6641 9.67188 22.6641 9.76562 22.6641 9.79688C22.6797 9.82812 22.6875 9.88281 22.6875 9.96094C22.6719 9.99219 22.6719 10.0391 22.6875 10.1016C22.7031 10.1484 22.7109 10.1875 22.7109 10.2188C22.6797 10.4219 22.6797 10.5703 22.7109 10.6641C22.6797 10.8203 22.6719 10.9297 22.6875 10.9922C22.7031 11.0547 22.6953 11.1094 22.6641 11.1562C22.6641 11.3438 22.6719 11.4609 22.6875 11.5078C22.7031 11.5391 22.7109 11.5859 22.7109 11.6484C22.6953 11.7734 22.6953 11.8438 22.7109 11.8594C22.7266 11.875 22.7344 11.8984 22.7344 11.9297C22.7188 11.9766 22.7031 12.0312 22.6875 12.0938C22.6719 12.1406 22.6562 12.1797 22.6406 12.2109C22.6719 12.4141 22.6875 12.5547 22.6875 12.6328C22.6875 12.6953 22.6953 12.7656 22.7109 12.8438C22.7109 12.9062 22.7109 12.9766 22.7109 13.0547C22.7109 13.1172 22.7188 13.1953 22.7344 13.2891C22.7344 13.3828 22.7344 13.4531 22.7344 13.5C22.75 13.5469 22.7422 13.5938 22.7109 13.6406C22.7266 13.8125 22.7109 13.9062 22.6641 13.9219C22.6328 13.9219 22.6172 13.9453 22.6172 13.9922C22.6328 14.0859 22.6406 14.1875 22.6406 14.2969C22.6562 14.4062 22.6641 14.5078 22.6641 14.6016C22.6172 14.8359 22.6016 14.9766 22.6172 15.0234C22.6328 15.0703 22.625 15.1094 22.5938 15.1406C22.625 15.2031 22.6328 15.2734 22.6172 15.3516C22.6172 15.4453 22.6016 15.5312 22.5703 15.6094C22.5703 15.7656 22.5781 15.8906 22.5938 15.9844C22.6094 16.0781 22.5781 16.1719 22.5 16.2656C22.5156 16.5 22.5156 16.6484 22.5 16.7109C22.5 16.7734 22.4922 16.8516 22.4766 16.9453C22.4766 17.0547 22.4688 17.1172 22.4531 17.1328C22.4375 17.1641 22.4297 17.2031 22.4297 17.25C22.4453 17.4375 22.4141 17.5547 22.3359 17.6016C22.3203 17.7734 22.3203 17.8594 22.3359 17.8594C22.3516 17.875 22.3516 17.8906 22.3359 17.9062C22.3359 17.9531 22.3203 18 22.2891 18.0469C22.2734 18.0938 22.2812 18.1406 22.3125 18.1875C22.2812 18.2969 22.25 18.3672 22.2188 18.3984C22.1875 18.4297 22.1875 18.4688 22.2188 18.5156C22.1719 18.625 22.1484 18.6875 22.1484 18.7031C22.1484 18.7344 22.1562 18.7656 22.1719 18.7969C22.1094 18.9531 22.0703 19.0625 22.0547 19.125C22.0547 19.1875 22.0469 19.25 22.0312 19.3125C21.9688 19.4688 21.9297 19.5469 21.9141 19.5469C21.8984 19.5469 21.8906 19.5547 21.8906 19.5703C21.8594 19.7891 21.8281 19.9219 21.7969 19.9688C21.7812 20.0156 21.7812 20.0781 21.7969 20.1562C21.75 20.2031 21.7188 20.2578 21.7031 20.3203C21.7031 20.3984 21.6875 20.4688 21.6562 20.5312C21.625 20.6094 21.5938 20.6719 21.5625 20.7188C21.5469 20.7812 21.5391 20.8516 21.5391 20.9297C21.5078 20.9609 21.4688 21 21.4219 21.0469C21.3906 21.1094 21.3906 21.1797 21.4219 21.2578C21.375 21.2891 21.3281 21.3281 21.2812 21.375C21.25 21.4219 21.2422 21.4844 21.2578 21.5625C21.1484 21.7188 21.0781 21.8203 21.0469 21.8672C21.0156 21.9141 20.9844 21.9531 20.9531 21.9844L20.8594 22.3594C20.7344 22.4219 20.6641 22.4609 20.6484 22.4766C20.6484 22.4922 20.6328 22.5 20.6016 22.5C20.5547 22.625 20.4922 22.7344 20.4141 22.8281C20.3359 22.9375 20.2578 23.0312 20.1797 23.1094C20.0391 23.3125 19.9297 23.4375 19.8516 23.4844C19.7891 23.5312 19.7422 23.5938 19.7109 23.6719C19.6484 23.7031 19.5938 23.7344 19.5469 23.7656C19.5156 23.8125 19.4766 23.8516 19.4297 23.8828C19.2891 24.0078 19.2031 24.0859 19.1719 24.1172C19.1562 24.1641 19.1172 24.1953 19.0547 24.2109C18.8828 24.3047 18.7812 24.3828 18.75 24.4453C18.6562 24.4297 18.6016 24.4531 18.5859 24.5156C18.5703 24.5781 18.5234 24.6094 18.4453 24.6094C18.2891 24.75 18.1797 24.8281 18.1172 24.8438C18.0547 24.875 18 24.9297 17.9531 25.0078C17.75 25.1172 17.5938 25.2031 17.4844 25.2656C17.375 25.3281 17.2578 25.3906 17.1328 25.4531C17.0547 25.5312 16.9922 25.5781 16.9453 25.5938C16.8984 25.6094 16.8594 25.6406 16.8281 25.6875C16.7188 25.7344 16.625 25.7578 16.5469 25.7578C16.4844 25.7734 16.4219 25.7969 16.3594 25.8281C16.1875 25.9062 16.1016 25.9453 16.1016 25.9453C15.9141 25.9609 15.8203 25.9766 15.8203 25.9922C15.8203 26.0078 15.8047 26.0234 15.7734 26.0391C15.6641 26.0234 15.5781 26.0312 15.5156 26.0625C15.4688 26.1094 15.3906 26.1172 15.2812 26.0859C15.125 26.0547 14.9922 26.0391 14.8828 26.0391C14.8047 26.0078 14.7188 25.9922 14.625 25.9922C14.5312 26.0078 14.4453 26.0078 14.3672 25.9922C14.3203 25.9766 14.2734 25.9531 14.2266 25.9219C14.1641 25.8906 14.1016 25.875 14.0391 25.875C13.9297 25.8125 13.8672 25.7891 13.8516 25.8047C13.8359 25.8203 13.8125 25.8203 13.7812 25.8047C13.5625 25.7266 13.4141 25.6719 13.3359 25.6406C13.2578 25.6094 13.1719 25.5781 13.0781 25.5469C12.9375 25.4531 12.8672 25.3906 12.8672 25.3594C12.8516 25.3438 12.8281 25.3281 12.7969 25.3125C12.6875 25.2188 12.6094 25.1641 12.5625 25.1484C12.5156 25.1484 12.4766 25.1328 12.4453 25.1016C12.3516 25.0234 12.2891 24.9609 12.2578 24.9141C12.2109 24.8672 12.1484 24.8281 12.0703 24.7969C11.9766 24.6094 11.9141 24.5078 11.8828 24.4922C11.8516 24.4922 11.8203 24.4766 11.7891 24.4453C11.7891 24.2734 11.7812 24.1719 11.7656 24.1406C11.7344 24.125 11.7031 24.1016 11.6719 24.0703C11.6875 23.9609 11.6719 23.8594 11.625 23.7656C11.5625 23.6719 11.5391 23.5781 11.5547 23.4844C11.5703 23.4219 11.6094 23.3672 11.6719 23.3203C11.7188 23.2734 11.75 23.2031 11.7656 23.1094C11.7969 23.0469 11.8047 22.9844 11.7891 22.9219C11.7734 22.875 11.7734 22.8125 11.7891 22.7344C11.8672 22.6562 11.9297 22.6172 11.9766 22.6172C12.0234 22.6328 12.0469 22.6172 12.0469 22.5703C12.2812 22.5703 12.4141 22.5547 12.4453 22.5234C12.4609 22.5078 12.5078 22.5 12.5859 22.5C12.6172 22.5312 12.6406 22.5703 12.6562 22.6172C12.6719 22.6797 12.6953 22.7266 12.7266 22.7578C12.7578 23.0078 12.8203 23.1719 12.9141 23.25C12.9453 23.3281 12.9844 23.3984 13.0312 23.4609C13.0781 23.5234 13.1172 23.5859 13.1484 23.6484C13.2891 23.7578 13.3906 23.8438 13.4531 23.9062C13.5 23.9688 13.5547 24.0312 13.6172 24.0938C13.6641 24.0938 13.7031 24.1094 13.7344 24.1406C13.7656 24.1875 13.8047 24.2188 13.8516 24.2344L14.0859 24.3516C14.3047 24.4453 14.4453 24.5391 14.5078 24.6328C14.6172 24.6328 14.7266 24.6719 14.8359 24.75C14.8828 24.75 14.9453 24.75 15.0234 24.75C15.1016 24.75 15.1562 24.7656 15.1875 24.7969C15.375 24.8438 15.4688 24.8672 15.4688 24.8672C15.4688 24.8828 15.4844 24.8984 15.5156 24.9141C15.5625 24.9297 15.6094 24.9375 15.6562 24.9375C15.7031 24.9375 15.75 24.9375 15.7969 24.9375C15.9844 24.9219 16.0938 24.9062 16.125 24.8906C16.1719 24.875 16.2266 24.8672 16.2891 24.8672C16.3672 24.8828 16.4141 24.8828 16.4297 24.8672C16.4609 24.8672 16.5 24.8828 16.5469 24.9141C16.6875 24.8828 16.7734 24.8594 16.8047 24.8438C16.8516 24.8438 16.8906 24.8438 16.9219 24.8438C17.125 24.75 17.2344 24.6797 17.25 24.6328C17.2656 24.6016 17.2969 24.5703 17.3438 24.5391C17.4688 24.5703 17.5781 24.5391 17.6719 24.4453C17.7656 24.3672 17.875 24.3047 18 24.2578C18.1562 24.1016 18.2969 23.9375 18.4219 23.7656C18.5469 23.6875 18.6328 23.625 18.6797 23.5781C18.7266 23.5469 18.7422 23.5156 18.7266 23.4844C18.7891 23.4531 18.8359 23.3984 18.8672 23.3203C18.8984 23.2578 18.9531 23.2031 19.0312 23.1562C19.0312 23.0781 19.0469 23.0234 19.0781 22.9922C19.1094 22.9766 19.125 22.9297 19.125 22.8516C19.2031 22.7422 19.2656 22.6797 19.3125 22.6641C19.3594 22.6484 19.3672 22.625 19.3359 22.5938C19.3984 22.5625 19.4375 22.5156 19.4531 22.4531C19.4844 22.3906 19.5234 22.3438 19.5703 22.3125C19.5703 22.2344 19.5859 22.1641 19.6172 22.1016C19.6641 22.0391 19.6953 21.9688 19.7109 21.8906C19.7734 21.75 19.8047 21.6562 19.8047 21.6094C19.8828 21.4531 19.9453 21.3516 19.9922 21.3047C20.0391 21.2578 20.0781 21.2031 20.1094 21.1406C20.1406 20.9062 20.1562 20.7891 20.1562 20.7891C20.2656 20.6016 20.3203 20.4531 20.3203 20.3438C20.3359 20.25 20.3594 20.1562 20.3906 20.0625C20.4062 19.9688 20.4297 19.875 20.4609 19.7812C20.4922 19.625 20.5156 19.5156 20.5312 19.4531C20.5625 19.3906 20.5625 19.3125 20.5312 19.2188C20.5781 19.1562 20.6016 19.0703 20.6016 18.9609C20.6172 18.8672 20.6484 18.7969 20.6953 18.75C20.6641 18.5938 20.6953 18.4531 20.7891 18.3281C20.7578 18.2656 20.75 18.1953 20.7656 18.1172C20.7969 18.0547 20.8203 17.9844 20.8359 17.9062C20.8516 17.8438 20.8516 17.7734 20.8359 17.6953C20.8359 17.6328 20.8438 17.5703 20.8594 17.5078C20.875 17.4609 20.8984 17.3984 20.9297 17.3203C20.9766 17.2422 20.9609 17.1641 20.8828 17.0859C20.9609 16.9609 20.9922 16.8125 20.9766 16.6406C20.9609 16.4688 20.9922 16.3203 21.0703 16.1953C21.0078 16.1328 20.9922 16.0703 21.0234 16.0078C21.0547 15.9609 21.0703 15.9141 21.0703 15.8672C21.0547 15.6953 21.0547 15.5703 21.0703 15.4922C21.0859 15.4297 21.0938 15.3594 21.0938 15.2812V14.6016C21.0938 14.4297 21.0938 14.3125 21.0938 14.25C21.0938 14.1875 21.1094 14.1172 21.1406 14.0391C21.125 13.8672 21.125 13.7578 21.1406 13.7109C21.1562 13.6484 21.1562 13.5703 21.1406 13.4766C21.1406 13.3672 21.1484 13.3047 21.1641 13.2891C21.1797 13.2734 21.1797 13.2422 21.1641 13.1953C21.1484 12.9609 21.1328 12.8047 21.1172 12.7266C21.1016 12.6484 21.1094 12.5703 21.1406 12.4922C21.1094 12.3359 21.0938 12.2422 21.0938 12.2109C21.0938 12.1641 21.1016 12.125 21.1172 12.0938C21.0703 11.9375 21.0547 11.8516 21.0703 11.8359C21.0859 11.8047 21.0859 11.7734 21.0703 11.7422C21.0234 11.5703 21.0156 11.4609 21.0469 11.4141C21.0781 11.3672 21.0859 11.3047 21.0703 11.2266C21.0859 11.1953 21.0859 11.1484 21.0703 11.0859C21.0547 11.0234 21.0625 10.9688 21.0938 10.9219C21.0625 10.7031 21.0312 10.5625 21 10.5C20.9688 10.4219 20.9453 10.3516 20.9297 10.2891C20.7734 10.2578 20.6797 10.2578 20.6484 10.2891C20.6328 10.3047 20.6172 10.3281 20.6016 10.3594C20.4609 10.4219 20.3672 10.4766 20.3203 10.5234C20.2734 10.5703 20.2188 10.5781 20.1562 10.5469C20.0312 10.5938 19.9453 10.6797 19.8984 10.8047C19.7734 10.8672 19.6484 10.9062 19.5234 10.9219C19.4141 10.9219 19.3438 10.9688 19.3125 11.0625C19.2656 11.0781 19.2109 11.1016 19.1484 11.1328C19.1016 11.1484 19.0469 11.1719 18.9844 11.2031C18.8906 11.2656 18.8281 11.3047 18.7969 11.3203C18.7656 11.3203 18.7344 11.3359 18.7031 11.3672C18.6562 11.3828 18.6094 11.3906 18.5625 11.3906C18.5312 11.3906 18.4922 11.3984 18.4453 11.4141C18.3516 11.4453 18.2891 11.4609 18.2578 11.4609C18.2422 11.4453 18.2188 11.4453 18.1875 11.4609C18.1406 11.4609 18.0859 11.4688 18.0234 11.4844C17.9609 11.5 17.9062 11.5078 17.8594 11.5078C17.7969 11.5078 17.7344 11.4922 17.6719 11.4609C17.625 11.4297 17.5703 11.4375 17.5078 11.4844C17.3047 11.4375 17.1875 11.4219 17.1562 11.4375C17.1406 11.4375 17.1094 11.4297 17.0625 11.4141C16.9844 11.3828 16.9062 11.3516 16.8281 11.3203C16.7656 11.2734 16.7109 11.2266 16.6641 11.1797C16.4766 11.1328 16.3516 11.0547 16.2891 10.9453C16.2422 10.8359 16.1641 10.75 16.0547 10.6875C16.0547 10.6094 16.0391 10.5547 16.0078 10.5234C15.9766 10.4766 15.9609 10.4219 15.9609 10.3594C15.9297 10.2812 15.9062 10.2109 15.8906 10.1484C15.875 10.0703 15.8516 9.99219 15.8203 9.91406C15.8359 9.77344 15.8359 9.67969 15.8203 9.63281C15.8047 9.58594 15.8125 9.53125 15.8438 9.46875C15.8125 9.3125 15.7734 9.21875 15.7266 9.1875C15.7578 9.0625 15.7812 8.97656 15.7969 8.92969C15.8125 8.88281 15.8203 8.84375 15.8203 8.8125C15.8359 8.73438 15.8359 8.66406 15.8203 8.60156C15.8203 8.52344 15.8281 8.44531 15.8438 8.36719C15.9375 8.22656 15.9844 8.14062 15.9844 8.10938C15.9844 8.0625 16 8.02344 16.0312 7.99219C16.125 7.83594 16.1797 7.73438 16.1953 7.6875C16.2109 7.625 16.2422 7.58594 16.2891 7.57031C16.2891 7.50781 16.2969 7.46094 16.3125 7.42969C16.3281 7.38281 16.3516 7.33594 16.3828 7.28906C16.3984 7.25781 16.4219 7.22656 16.4531 7.19531C16.4844 7.16406 16.5156 7.125 16.5469 7.07812C16.625 6.95312 16.6562 6.89062 16.6406 6.89062C16.6406 6.89062 16.6562 6.875 16.6875 6.84375C16.8438 6.67188 16.9453 6.5625 16.9922 6.51562C17.0859 6.40625 17.1328 6.34375 17.1328 6.32812C17.1484 6.3125 17.1562 6.29688 17.1562 6.28125C17.2812 6.23438 17.3672 6.16406 17.4141 6.07031C17.4766 5.97656 17.5625 5.90625 17.6719 5.85938C17.8281 5.76562 17.9609 5.66406 18.0703 5.55469C18.2578 5.47656 18.3516 5.4375 18.3516 5.4375C18.3516 5.42188 18.3594 5.40625 18.375 5.39062C18.5156 5.28125 18.6016 5.22656 18.6328 5.22656C18.6953 5.19531 18.7578 5.16406 18.8203 5.13281C18.8828 5.10156 18.9375 5.05469 18.9844 4.99219C19.125 4.91406 19.2266 4.86719 19.2891 4.85156C19.3672 4.83594 19.4297 4.80469 19.4766 4.75781C19.6328 4.77344 19.7422 4.75 19.8047 4.6875C19.8828 4.60938 20.0078 4.57031 20.1797 4.57031C20.2734 4.50781 20.3906 4.47656 20.5312 4.47656C20.6719 4.47656 20.8047 4.49219 20.9297 4.52344C21.1016 4.53906 21.2422 4.52344 21.3516 4.47656C21.4609 4.42969 21.5547 4.44531 21.6328 4.52344L21.7266 4.47656ZM20.7656 6.07031C20.5625 5.91406 20.4531 5.82812 20.4375 5.8125C20.2812 5.75 20.1875 5.72656 20.1562 5.74219C20.1406 5.74219 20.125 5.74219 20.1094 5.74219C19.9375 5.74219 19.7812 5.71875 19.6406 5.67188C19.4375 5.73438 19.3047 5.76562 19.2422 5.76562C19.1953 5.75 19.1562 5.75 19.125 5.76562C19 5.84375 18.9297 5.88281 18.9141 5.88281C18.8984 5.88281 18.8828 5.89062 18.8672 5.90625C18.7422 5.98438 18.6328 6.01562 18.5391 6C18.5234 6.07812 18.4922 6.125 18.4453 6.14062C18.3984 6.15625 18.3672 6.20312 18.3516 6.28125C18.2266 6.40625 18.1328 6.48438 18.0703 6.51562C17.9922 6.67188 17.9062 6.78906 17.8125 6.86719C17.8281 7.02344 17.7812 7.13281 17.6719 7.19531C17.6094 7.33594 17.5781 7.46094 17.5781 7.57031C17.5469 7.66406 17.5234 7.72656 17.5078 7.75781C17.4922 7.78906 17.4766 7.82812 17.4609 7.875C17.4922 7.90625 17.4922 7.95312 17.4609 8.01562C17.4453 8.0625 17.4375 8.10938 17.4375 8.15625C17.4062 8.28125 17.3906 8.35156 17.3906 8.36719C17.4062 8.38281 17.4141 8.40625 17.4141 8.4375C17.4141 8.53125 17.4219 8.60938 17.4375 8.67188C17.4531 8.73438 17.4609 8.80469 17.4609 8.88281C17.4453 9.05469 17.4453 9.17188 17.4609 9.23438C17.4922 9.28125 17.5078 9.32812 17.5078 9.375C17.5859 9.42188 17.6484 9.51562 17.6953 9.65625C17.8203 9.71875 17.8906 9.78906 17.9062 9.86719C17.9531 9.89844 17.9922 9.92969 18.0234 9.96094C18.0703 9.97656 18.1172 10 18.1641 10.0312C18.2266 10.0469 18.2812 10.0703 18.3281 10.1016C18.375 10.1328 18.4219 10.1562 18.4688 10.1719C18.6094 10.2031 18.7031 10.2109 18.75 10.1953C18.9062 10.2109 19.0547 10.2266 19.1953 10.2422C19.3359 10.2578 19.4453 10.25 19.5234 10.2188C19.6016 10.1562 19.6562 10.125 19.6875 10.125C19.7188 10.1094 19.75 10.0938 19.7812 10.0781C19.9531 9.9375 20.0469 9.85156 20.0625 9.82031C20.0781 9.78906 20.1016 9.75 20.1328 9.70312C20.2266 9.64062 20.3359 9.5625 20.4609 9.46875C20.4609 9.39062 20.4688 9.32031 20.4844 9.25781C20.5156 9.17969 20.5469 9.10156 20.5781 9.02344C20.6719 8.92969 20.7344 8.875 20.7656 8.85938C20.7969 8.84375 20.7969 8.82031 20.7656 8.78906C20.8438 8.63281 20.8906 8.51562 20.9062 8.4375C20.9375 8.35938 20.9609 8.28125 20.9766 8.20312C20.9297 8.15625 20.9219 8.11719 20.9531 8.08594C20.9844 8.03906 20.9922 7.98438 20.9766 7.92188C20.9141 7.6875 20.8906 7.52344 20.9062 7.42969C20.9219 7.32031 20.8984 7.22656 20.8359 7.14844C20.8672 7.00781 20.8906 6.90625 20.9062 6.84375C20.9219 6.76562 20.9219 6.6875 20.9062 6.60938C20.875 6.42188 20.8516 6.3125 20.8359 6.28125C20.8203 6.25 20.8281 6.21094 20.8594 6.16406L20.7656 6.07031Z" fill="#FFACED"/>
</svg>
