<svg width="229" height="143" viewBox="0 0 229 143" fill="none" xmlns="http://www.w3.org/2000/svg">
<path d="M229 72.4795C229 118.639 177.737 143 114.5 143C51.2634 143 0 118.639 0 72.4795C0 26.3195 51.2634 0 114.5 0C177.737 0 229 26.3195 229 72.4795Z" fill="#FFACED"/>
<path d="M114.496 0C177.513 0 228.638 26.1373 228.992 72H0C0.353813 26.1373 51.4788 1.61561e-06 114.496 0Z" fill="#C0FCA8"/>
<ellipse cx="16.5" cy="74" rx="16.5" ry="21" fill="#C0FCA8"/>
<ellipse cx="49.5" cy="74" rx="16.5" ry="21" fill="#C0FCA8"/>
<ellipse cx="82.5" cy="74" rx="16.5" ry="21" fill="#C0FCA8"/>
<ellipse cx="115.5" cy="74" rx="16.5" ry="21" fill="#C0FCA8"/>
<ellipse cx="148.5" cy="74" rx="16.5" ry="21" fill="#C0FCA8"/>
<ellipse cx="179.5" cy="74" rx="16.5" ry="21" fill="#C0FCA8"/>
<ellipse cx="212.5" cy="74" rx="16.5" ry="21" fill="#C0FCA8"/>
<path d="M40 110L37.4019 98.75H42.5981L40 110Z" fill="#EDF2BB"/>
<path d="M57 110L54.4019 98.75H59.5981L57 110Z" fill="#EDF2BB"/>
<path d="M74 110L71.4019 98.75H76.5981L74 110Z" fill="#EDF2BB"/>
<path d="M91 110L88.4019 98.75H93.5981L91 110Z" fill="#EDF2BB"/>
<path d="M108 110L105.402 98.75H110.598L108 110Z" fill="#EDF2BB"/>
<path d="M125 110L122.402 98.75H127.598L125 110Z" fill="#EDF2BB"/>
<path d="M142 110L139.402 98.75H144.598L142 110Z" fill="#EDF2BB"/>
<path d="M159 110L156.402 98.75H161.598L159 110Z" fill="#EDF2BB"/>
<path d="M176 110L173.402 98.75H178.598L176 110Z" fill="#EDF2BB"/>
<path d="M193 110L190.402 98.75H195.598L193 110Z" fill="#EDF2BB"/>
<path d="M55 128L52.4019 116.75H57.5981L55 128Z" fill="#EDF2BB"/>
<path d="M72 128L69.4019 116.75H74.5981L72 128Z" fill="#EDF2BB"/>
<path d="M89 128L86.4019 116.75H91.5981L89 128Z" fill="#EDF2BB"/>
<path d="M106 128L103.402 116.75H108.598L106 128Z" fill="#EDF2BB"/>
<path d="M123 128L120.402 116.75H125.598L123 128Z" fill="#EDF2BB"/>
<path d="M140 128L137.402 116.75H142.598L140 128Z" fill="#EDF2BB"/>
<path d="M157 128L154.402 116.75H159.598L157 128Z" fill="#EDF2BB"/>
<path d="M174 128L171.402 116.75H176.598L174 128Z" fill="#EDF2BB"/>
</svg>
